<svg width="1835" height="921" viewBox="0 0 1835 921" fill="none" xmlns="http://www.w3.org/2000/svg">
<path d="M293.109 421.287L422.781 436.739L344.563 541.312L293.109 421.287Z" fill="#F5F0CD"/>
<path d="M1012.66 740.587L1146.71 779.223L1046.23 876L1012.66 740.587Z" fill="#FADA7A"/>
<path d="M1533.51 738.43L1463.69 859.212L1394 738.352L1533.51 738.43Z" fill="#4F8DA8"/>
<path d="M1119.44 462.854L1189.15 460.317L1156.49 521.956L1119.44 462.854Z" fill="#FADA7A"/>
<path d="M1399.56 390.598L1457.46 388.491L1430.34 439.686L1399.56 390.598Z" fill="#81BFDA"/>
<path d="M1763.92 69.3799L1714.5 261.302L1573 122.542L1763.92 69.3799Z" fill="#81BFDA"/>
<path d="M591.077 146.59L521 54.787L635.542 40.0001L591.077 146.59Z" fill="#FADA7A"/>
<path d="M753.603 254.583L750.29 315.597L699.107 282.221L753.603 254.583Z" fill="#FADA7A"/>
<path d="M24.329 613.48L80.6671 637.139L32.009 674.1L24.329 613.48Z" fill="#FADA7A"/>
<path d="M944.902 467.208L932.732 527.088L886.959 486.609L944.902 467.208Z" fill="#81BFDA"/>
<path d="M979.73 180.486L969.172 240.671L922.329 201.435L979.73 180.486Z" fill="#F5F0CD"/>
<path d="M1141.4 240.618L1130.84 300.803L1084 261.567L1141.4 240.618Z" fill="#4F8DA8"/>
<path d="M1700.4 586.843L1689.84 647.028L1643 607.792L1700.4 586.843Z" fill="#4F8DA8"/>
<path d="M771.802 621.954L856.469 615.709L819.544 692.155L771.802 621.954Z" fill="#4F8DA8"/>
<path d="M372.845 866.428L428.805 877.64L391.115 920.497L372.845 866.428Z" fill="#81BFDA"/>
<path d="M1313.35 30L1372.71 131.614H1254L1313.35 30Z" fill="#B1F0F7"/>
<path d="M547.382 674L596.765 759.47H498L547.382 674Z" fill="#B1F0F7"/>
<path d="M195.934 134.461L110.001 84.3726L196.821 35L195.934 134.461Z" fill="#4F8DA8"/>
<path d="M459.742 274L483.483 315.785H436L459.742 274Z" fill="#81BFDA"/>
<path d="M72.1458 215.645L81.8073 262.961L36.0001 247.67L72.1458 215.645Z" fill="#B1F0F7"/>
</svg>
