<svg width="98" height="29" viewBox="0 0 98 29" fill="none" xmlns="http://www.w3.org/2000/svg">
<path d="M96.9169 16.0584C96.8832 16.3175 96.325 16.4219 96.1752 16.668C95.5413 17.6969 95.0566 17.9489 94.3931 18.8268C94.0838 19.2343 93.6922 19.9676 93.2435 20.6746C93.0213 21.0251 92.7848 21.3723 92.5926 21.5845C92.4978 21.6868 92.4166 21.7563 92.3772 21.7033C92.3315 21.6424 92.3657 21.4803 92.3811 20.8218L92.2778 18.8967C91.6573 17.3971 90.6553 16.6658 88.857 16.479C88.0017 16.4384 87.2743 16.7594 86.9742 17.0853C86.6579 17.4166 86.6543 17.7262 86.7746 17.9853C86.7746 17.9854 86.7746 17.9854 86.7747 17.9855C86.7879 18.0135 86.8026 18.0411 86.8189 18.0684C86.9719 18.3257 87.4109 18.4761 87.7349 18.7807C88.0709 19.0806 88.1451 19.4792 88.0446 19.8002C87.9425 20.1215 87.5576 21.3439 86.8376 22.3445C86.1607 23.3563 84.7204 23.9426 83.8432 22.9521C83.4763 22.5155 83.1441 21.9482 82.9519 21.1237C82.8997 20.8044 82.8064 19.9234 82.8705 19.6062C83.2699 17.6504 83.8607 17.4648 84.2906 16.9612C84.7325 16.5499 85.1104 16.2536 85.1759 16.0873C85.2837 15.816 85.1016 15.3147 85.2099 14.9632C85.5559 13.8337 86.0926 13.4345 85.5963 12.0186C86.2896 11.9135 86.991 11.7872 87.6853 11.67C87.6885 11.0661 88.7298 10.6397 88.8343 10.3223C88.8583 10.2503 88.8507 10.1721 88.8292 10.0911L88.6586 10.5463C88.5456 10.4144 88.3243 10.2903 88.3162 10.2476C88.3107 10.2212 88.4131 10.2107 88.5291 10.3896C88.5934 10.485 88.6477 10.64 88.8156 10.9638C88.9668 11.2722 89.3905 11.8364 89.9556 12.1199C90.3603 12.3307 90.6538 12.3815 90.8428 12.4284C90.6157 12.7212 90.5388 13.6816 90.2755 13.8607C89.9477 14.0701 89.0697 13.6284 88.5816 14.2236C88.5469 14.3708 88.5092 14.5196 88.4777 14.6668C88.6222 14.9275 88.7685 15.1879 88.9092 15.4503C88.6698 15.6724 88.351 15.1475 88.0695 15.238C87.7417 15.3445 87.7806 15.9416 87.5678 16.0238C87.3913 16.0918 86.9731 15.7709 86.7493 15.8991C86.4209 16.0854 86.7662 16.6547 86.637 16.8479C86.5833 16.9155 85.4179 17.8844 85.351 17.9334C84.7996 18.2487 84.3238 17.4818 83.8216 17.6677C83.5391 17.7742 83.2755 17.9187 83.0222 18.0927C82.097 18.7349 81.3482 19.8309 80.4972 20.664C80.0187 21.1324 79.4044 21.4856 78.7473 21.7542C78.3589 19.2313 75.3564 19.0851 78.1208 21.5815C77.1873 21.5885 77.2561 22.7146 76.5069 23.0017C76.0203 23.1859 75.4576 22.9519 74.826 23.3512C74.514 23.5486 74.2401 23.8427 73.9627 24.1232C73.3563 24.7895 72.7992 25.3645 71.6716 23.8607C70.6509 24.95 69.1198 24.7097 69.7065 26.9677C69.4323 27.2703 67.932 26.5188 67.461 26.544C67.0429 26.5819 63.8257 27.3911 62.8307 27.5159C62.5619 27.5676 62.2016 27.6393 61.6768 27.6846C61.2511 27.6732 60.1854 27.9614 58.536 26.9294C56.9226 25.7616 56.7438 24.405 56.5799 23.9319C56.3258 22.9103 55.7803 22.3929 55.5922 21.7657C55.4123 21.1829 55.659 20.6244 57.15 20.4779C57.1716 20.3337 57.1899 20.2155 57.2138 20.0934C57.3527 19.2352 57.5747 18.8829 58.15 18.1351C58.2665 17.9838 58.658 18.1046 58.6945 18.0057C58.7688 17.8022 58.6132 17.3496 58.7151 16.9734C58.8842 16.3518 59.8186 16.3246 58.5658 15.9181C58.5118 15.444 58.4609 14.9684 58.4113 14.4953C58.7024 14.4494 58.9932 14.4053 59.2836 14.3629C59.1096 14.0534 58.9391 13.7368 58.7676 13.4242C60.4292 14.3853 59.9902 12.4999 58.7861 12.5567C59.4641 11.9473 60.1453 11.3494 60.8296 10.7608C62.7675 11.7214 61.7719 9.23467 60.6365 8.89913C60.6761 8.81455 60.7164 8.72849 60.756 8.64438C61.6127 8.13791 61.495 7.26213 62.2559 6.53549C63.0179 5.80799 63.1699 5.98239 64.1942 6.1382C64.2399 5.90444 64.2823 5.67796 64.3235 5.45264C63.794 4.87367 63.7013 4.5964 63.8195 4.47599C63.8294 4.52325 63.8703 4.60821 63.9077 4.87427C63.9296 5.01424 63.9371 5.18891 63.9868 5.59218C64.0161 5.79469 64.0529 6.07807 64.1952 6.47955C64.3351 6.88522 64.6545 7.47653 65.1829 7.90551C66.3356 8.77835 67.0934 8.54391 67.3559 8.49646C67.6524 8.40912 67.7313 8.30937 67.7772 8.23716C67.8517 8.08945 67.7519 8.01191 67.6303 8.00215C66.9866 8.11747 66.6431 8.26036 66.2737 8.90085C65.2789 7.36299 64.0417 8.64586 63.318 9.47446C63.2308 9.57032 63.3399 9.88451 63.2385 10.0314C62.9843 10.3847 61.9413 10.3457 62.3858 11.3252C61.9693 11.1615 61.5455 11.0053 61.1135 10.8566C60.9453 11.1442 60.775 11.4353 60.6111 11.726C60.7528 12.0295 60.8945 12.333 61.0362 12.6365C60.0702 11.8233 59.461 12.6073 58.9662 12.5517C58.8656 12.5404 58.6364 12.138 58.3422 12.146C57.9959 12.1537 57.538 12.5454 57.1321 12.5981C57.2403 13.1202 57.3587 13.6373 57.4734 14.1568C57.3678 14.2872 57.2393 14.3297 57.099 14.3196C56.6495 14.2802 56.0709 13.6713 55.7609 13.7517C55.6923 13.767 54.5903 14.5014 54.5407 14.5648C54.1494 15.054 54.8666 15.9632 53.2858 16.6029C53.0053 16.7159 52.5905 16.4983 52.3485 16.6231C51.9171 16.8438 51.1339 18.3671 51.4695 19.1405C50.4297 18.5466 49.3146 19.7282 48.7651 19.7138C48.5986 19.7076 48.2213 19.1583 47.7823 19.2637C47.4245 19.3492 46.9485 20.274 46.5296 20.4328C46.0815 20.6001 45.6443 20.2157 45.4448 20.2954C45.2592 20.3696 45.3456 20.8494 45.1193 20.9908C44.408 21.4266 43.3734 21.2323 42.8193 21.5825C42.6789 21.6707 42.5555 21.8005 42.4653 21.9467C42.0222 22.6358 42.0322 23.8263 41.815 24.577C41.6174 24.6109 41.2998 24.4857 41.1438 24.5958C40.8869 24.7756 40.6253 24.9585 40.3786 25.1332C40.2551 25.2205 40.1347 25.3063 40.0163 25.3917C39.956 25.4353 39.9003 25.4755 39.8275 25.5297C39.7876 25.5596 39.7533 25.5853 39.6717 25.6481C39.6266 25.682 39.5896 25.7132 39.4288 25.8294C39.3402 25.8879 39.2531 25.9703 38.8277 26.2013C38.6639 26.2861 38.4526 26.3924 38.1003 26.5109C38.0118 26.5402 37.9137 26.5699 37.8034 26.5988C37.7265 26.619 37.4936 26.6775 37.2209 26.7129C36.685 26.7807 35.8668 26.8116 34.8726 26.4322C33.9417 26.132 32.7307 25.0331 32.342 24.1402C31.891 23.2426 31.8578 22.5089 31.8397 22.3181C31.8038 21.7222 31.8619 21.4021 31.8992 21.1642C32.0753 20.2527 32.3402 19.7838 32.4922 19.4821C32.6784 19.1352 32.8078 18.9442 32.9468 18.7403C33.2171 18.3515 33.4484 18.0717 33.6556 17.8295C34.0909 17.3223 34.4761 16.9266 34.8646 16.5338C35.6294 15.7667 36.3576 15.0856 37.0381 14.4428C37.921 13.6439 41.0471 12.5248 38.1684 11.3085C38.0066 10.6979 40.3101 9.36461 40.3824 9.0949C40.5397 8.78755 40.0751 8.43344 40.0756 8.39187C40.0857 8.31017 40.0924 8.54934 40.2633 9.03463C40.4139 9.52829 40.8805 10.1002 40.9291 10.3813C40.9298 10.3856 40.9303 10.3901 40.9305 10.3948C41.84 10.9648 42.2459 11.0113 42.4547 11.0919C42.7051 11.165 42.8204 11.1937 42.9183 11.2235C43.1243 11.2812 43.1767 11.3166 43.2404 11.3592C43.3392 11.4407 43.3467 11.5281 43.3439 11.6135C43.33 11.7835 43.2607 11.9388 43.1993 11.9407C43.0483 11.9434 42.7431 11.3528 42.4308 11.3605C41.7001 11.3707 40.2288 11.9125 39.4272 12.0299C39.2763 12.0497 39.0852 11.536 38.8281 11.4319C37.8303 11.0215 36.9119 11.3904 37.6277 12.9889C36.6345 12.5359 36.0036 13.1075 35.3889 13.5951C35.2294 13.7399 35.0783 13.8753 34.9098 13.9652C33.727 14.513 29.8544 16.7125 28.4219 18.4663C28.3902 18.5059 28.36 18.5449 28.3311 18.5836C27.5653 19.6199 27.9004 20.2446 25.9457 20.6914C25.4972 20.7927 25.0196 20.8498 24.4781 20.9718C23.2016 21.2603 21.4948 20.6027 21.5793 22.5784C20.1706 22.8933 19.3855 23.7245 17.7562 22.9486C17.8311 23.3177 17.9061 23.6866 17.9801 24.0559C17.8371 24.1486 17.6948 24.2406 17.5531 24.3321C17.3384 24.0629 17.1225 23.7943 16.9076 23.5251C15.8198 24.0437 15.1506 26.0206 14.2031 26.5174C13.9336 26.6593 13.5674 26.8336 13.1491 27.0158C12.1871 27.4376 10.9393 27.9136 9.52379 28.2948C8.80669 28.4833 8.07517 28.6572 7.09057 28.7782C6.56329 28.8244 6.08639 28.9266 4.86102 28.797C4.25292 28.6245 3.16232 28.845 1.28335 26.9231C0.370588 25.9155 -0.0232913 24.313 0.0532947 23.3818C0.103798 22.4205 0.325803 21.891 0.503502 21.4751C0.64188 21.2303 0.781811 21.0153 0.900183 20.8543C1.81416 19.6875 1.26373 19.3096 2.85532 19.6402C2.91465 19.3831 2.97836 19.129 3.03798 18.8857C2.86946 18.5699 2.71023 18.2449 2.54659 17.9272C3.39125 16.8797 4.71093 16.2302 5.44981 15.4532C6.80462 14.0315 8.1172 11.4367 9.79874 10.5254C10.2218 10.2987 11.1094 10.3443 11.4087 10.0121C11.8475 9.52497 11.1286 8.64962 11.6607 8.03316C11.6787 8.01239 11.6973 7.9916 11.7166 7.97077C12.3193 7.37983 14.7919 5.99068 15.406 4.8254C15.5959 4.47423 15.3415 4.09374 15.4483 3.83957C15.8966 2.7625 16.4275 1.95391 16.4533 0.657808C18.0004 0.169714 19.1402 0.967197 20.5389 1.35803C21.5963 1.64984 24.1575 2.13566 25.0215 2.49435C25.6276 2.7481 26.1776 3.46295 26.8584 3.71923C26.5917 5.29329 25.7242 5.51859 24.2305 6.04447C23.093 7.99669 21.9499 9.95154 20.5612 11.9748C20.1113 11.9313 19.6634 11.8819 19.2184 11.8249C19.2177 11.8244 19.217 11.8239 19.2163 11.8234C18.2969 12.2983 18.8193 13.2424 18.6105 13.8325C18.5768 13.9256 18.5407 14.0187 18.5023 14.1117C17.3355 18.2474 10.1216 23.3884 8.84424 24.9883C8.97239 24.5909 9.41728 23.6933 8.84109 22.0933C8.54784 21.3401 7.99468 20.7267 7.5262 20.3927C7.08531 20.073 6.71901 19.9332 6.46166 19.8499C5.95119 19.6965 5.72516 19.7066 5.56654 19.7004C5.40883 19.7003 5.33472 19.7124 5.28404 19.7214C5.10941 19.7624 5.25151 19.7663 5.36917 19.7444C5.74837 19.7232 7.48218 18.6331 8.58221 18.2412C8.87595 18.1418 9.13648 18.0956 9.32243 18.145C9.5598 18.2058 9.88373 18.7164 10.0659 18.648C11.3975 17.5213 12.7233 16.352 14.0389 15.1706C17.385 14.2397 20.0611 11.8719 22.8001 9.8979C22.9714 9.77456 23.1323 9.65935 23.3045 9.53901C25.7455 7.89954 28.0919 5.80619 31.737 4.23537C33.5429 3.45741 35.3915 2.77338 37.3226 2.21122C38.2853 1.93191 39.2758 1.68028 40.3168 1.47482C40.8417 1.3721 41.3713 1.28075 41.9685 1.20775C42.2637 1.17228 42.5817 1.13956 42.9637 1.12075C43.1502 1.11216 43.3676 1.10462 43.6621 1.11364C43.8224 1.12003 43.9667 1.1243 44.2646 1.16079C44.4107 1.18065 44.5502 1.19784 44.8405 1.26511C44.9894 1.30198 45.0922 1.32564 45.3556 1.41603C45.6234 1.51239 45.9563 1.64286 46.4055 1.92968C47.8043 2.74615 49.4837 4.68351 49.8887 6.79256C50.3285 8.87537 49.9305 10.4731 49.5457 11.6876C48.7073 14.1021 47.6009 15.6416 46.5307 17.1081C45.2455 18.8319 43.9152 21.0442 42.5262 22.2119C41.9604 22.6889 40.9867 22.3279 41.0492 23.4123C40.8383 23.2585 40.6271 23.105 40.4157 22.9519C40.362 23.1971 40.367 23.4333 40.4456 23.5718C40.4868 23.6365 40.5428 23.6871 40.6453 23.6348C40.7357 23.5789 40.9189 23.4682 41.1142 22.7617C41.1401 22.6133 41.1692 22.4238 41.1805 22.1451C41.1857 22.0054 41.1859 21.8427 41.172 21.6473C41.1641 21.5438 41.157 21.4625 41.1352 21.311C41.1065 21.1177 41.062 20.8977 40.9865 20.649C40.8378 20.1574 40.5503 19.5211 40.0162 18.9243C39.4839 18.3167 38.734 17.8631 38.1237 17.6557C36.8374 17.216 35.9057 17.4342 35.4999 17.5239C34.9078 17.6749 34.6401 17.8247 34.4379 17.9256C34.3111 17.9918 34.2222 18.0444 34.1514 18.0873C33.8993 18.2438 33.88 18.2614 33.8387 18.2835C33.7715 18.3211 33.7817 18.2999 33.7861 18.2825C33.8024 18.2422 33.8549 18.1746 33.9021 18.115C34.0052 17.9885 34.1294 17.8596 34.267 17.7391C35.0236 17.0613 36.9236 15.6863 37.6175 15.3477C37.8357 15.2379 37.9794 15.3784 38.1276 15.4549C38.2188 15.5037 38.3117 15.5276 38.4301 15.4477C38.9561 15.087 39.7068 13.7957 40.4312 13.3351C41.089 12.9146 42.4902 12.6978 42.9512 12.316C44.6123 10.9425 46.1724 9.02046 48.2665 8.04859C48.845 7.78138 49.8723 7.91682 50.0332 7.80409C50.3548 7.57649 50.1458 6.98875 50.3384 6.78789C50.8081 6.29636 51.5739 5.94902 52.3816 5.65705C53.2389 5.34538 54.1315 5.10352 54.7525 4.80608C56.3954 4.01886 58.0927 3.20101 59.9302 2.45843C60.8494 2.08789 61.8076 1.73727 62.8051 1.43495C63.3 1.28453 63.814 1.14526 64.2871 1.02824C64.522 0.969875 64.7466 0.916625 64.9054 0.87715C65.0514 0.845234 65.1806 0.78987 64.8687 0.902633C64.9875 0.857358 65.138 0.795701 65.4405 0.698599C65.5967 0.650229 65.7863 0.590825 66.1165 0.523391C66.4702 0.473689 66.8684 0.32324 68.063 0.478447C68.6417 0.571536 69.6062 0.816092 70.5692 1.60127C71.5459 2.37824 72.1319 3.55998 72.3134 4.33237C72.6506 5.87088 72.4161 6.38547 72.3603 6.81529C72.1789 7.59804 72.0407 7.83892 71.9297 8.10544C71.7539 8.4865 71.5893 8.82417 71.4232 9.15884C70.245 11.4905 68.6638 15.2987 67.3856 17.2757C67.1077 17.6997 66.5326 17.3264 66.377 17.7181C66.2065 18.1498 66.5386 18.551 66.4952 18.7649C66.2946 19.7488 65.9235 21.4863 65.4728 22.8949C65.3887 23.1588 65.3234 23.367 65.2818 23.419C65.2285 23.4568 65.2618 23.3814 65.1064 22.6891C65.0088 22.3066 64.6944 21.6824 64.081 21.1004C63.4747 20.5139 62.6966 20.2157 62.2523 20.061C61.8174 19.8717 61.0699 19.5328 60.9619 19.485C60.9487 19.4801 60.9364 19.4767 60.9253 19.4751C60.7706 19.4545 60.8527 19.4152 60.9525 19.3568C61.0592 19.2991 61.2122 19.2275 61.378 19.1515C61.7092 18.9999 62.0973 18.8312 62.496 18.6622C63.3009 18.32 64.1786 17.9676 65.177 17.5076C66.4243 16.9312 67.7102 16.1924 69.0097 15.3987C71.3623 13.9451 73.9158 11.753 76.9244 10.1685C77.3681 9.93509 77.8654 9.91102 78.2819 9.95131C78.7776 10.0029 79.1477 10.1487 79.2201 10.1012C79.5013 9.91964 79.3456 9.2007 79.8747 8.72175C81.6581 7.11697 84.8399 6.5207 87.1177 5.56894C88.0917 5.1919 89.0551 4.23555 91.157 3.92667C92.4434 3.7827 95.0533 4.76874 96.1118 6.41363C97.3625 8.16775 97.3758 9.7848 97.3394 10.7108C97.2795 11.6825 97.0947 12.33 96.9373 12.8744C96.8982 13.0654 96.6707 13.593 96.6 13.7748C96.3228 14.3203 96.0998 14.8129 96.1945 15.0551C96.3097 15.3581 96.9488 15.778 96.9169 16.0584ZM73.8341 23.2586C73.6724 22.872 73.4579 22.8179 73.2804 22.9213C72.9717 23.1016 72.8138 23.8589 73.3413 24.0524C73.4449 24.0909 73.6229 23.9251 73.7339 23.7201C73.8313 23.5606 73.8859 23.3826 73.8341 23.2586ZM35.0827 19.1869C34.7962 18.9916 34.5093 18.7969 34.2216 18.6035C34.1728 18.912 34.166 19.1672 34.1036 19.5301C34.3773 19.4888 34.6313 19.487 34.8796 19.4962C34.9453 19.3928 35.0195 19.2812 35.0827 19.1869Z" fill="#fada7a"/>
</svg>
