<svg width="394" height="440" viewBox="0 0 394 440" fill="none" xmlns="http://www.w3.org/2000/svg">
<g opacity="0.2">
<path d="M330.136 350.889L302.442 347.548L319.233 325.674L330.136 350.889Z" fill="#F5F0CD"/>
<path d="M176.636 283.366L148.022 275.16L169.565 254.937L176.636 283.366Z" fill="#FADA7A"/>
<path d="M65.3466 283.421L80.3557 258.14L95.1548 283.544L65.3466 283.421Z" fill="#4F8DA8"/>
<path d="M153.613 341.539L138.717 342.018L145.741 329.114L153.613 341.539Z" fill="#FADA7A"/>
<path d="M93.7057 356.482L81.3334 356.88L87.1672 346.162L93.7057 356.482Z" fill="#81BFDA"/>
<path d="M15.6162 423.579L26.3191 383.361L56.448 412.574L15.6162 423.579Z" fill="#81BFDA"/>
<path d="M266.266 408.279L281.17 427.588L256.686 430.603L266.266 408.279Z" fill="#FADA7A"/>
<path d="M231.621 385.503L232.375 372.708L243.286 379.748L231.621 385.503Z" fill="#FADA7A"/>
<path d="M387.708 310.782L375.688 305.776L386.112 298.061L387.708 310.782Z" fill="#FADA7A"/>
<path d="M190.908 340.76L193.553 328.209L203.303 336.735L190.908 340.76Z" fill="#81BFDA"/>
<path d="M183.252 400.874L185.553 388.258L195.532 396.524L183.252 400.874Z" fill="#F5F0CD"/>
<path d="M148.754 388.137L151.055 375.521L161.034 383.786L148.754 388.137Z" fill="#4F8DA8"/>
<path d="M29.5754 315.089L31.8764 302.473L41.8554 310.739L29.5754 315.089Z" fill="#4F8DA8"/>
<path d="M228.008 308.433L209.913 309.678L217.86 293.672L228.008 308.433Z" fill="#4F8DA8"/>
<path d="M313.433 257.459L301.485 255.064L309.569 246.104L313.433 257.459Z" fill="#81BFDA"/>
<path d="M111.855 432.184L99.2495 410.825L124.613 410.916L111.855 432.184Z" fill="#B1F0F7" fill-opacity="0.5"/>
<path d="M275.997 297.688L265.51 279.723L286.612 279.798L275.997 297.688Z" fill="#B1F0F7"/>
<path d="M350.684 411.126L369.007 421.697L350.42 431.987L350.684 411.126Z" fill="#4F8DA8"/>
<path d="M294.422 381.655L289.381 372.872L299.526 372.908L294.422 381.655Z" fill="#81BFDA"/>
<path d="M377.193 394.191L375.164 384.259L384.94 387.502L377.193 394.191Z" fill="#B1F0F7"/>
</g>
<g opacity="0.15">
<path d="M63.6262 88.3667L91.3323 91.6078L74.62 113.542L63.6262 88.3667Z" fill="#F5F0CD"/>
<path d="M217.367 155.341L246.01 163.445L224.539 183.744L217.367 155.341Z" fill="#FADA7A"/>
<path d="M328.654 154.888L313.735 180.223L298.845 154.872L328.654 154.888Z" fill="#4F8DA8"/>
<path d="M240.181 97.0853L255.076 96.5532L248.098 109.482L240.181 97.0853Z" fill="#FADA7A"/>
<path d="M300.034 81.9287L312.405 81.4867L306.609 92.2251L300.034 81.9287Z" fill="#81BFDA"/>
<path d="M377.883 14.5527L367.324 54.809L337.091 25.7036L377.883 14.5527Z" fill="#81BFDA"/>
<path d="M127.291 30.7481L112.318 11.4921L136.792 8.39046L127.291 30.7481Z" fill="#FADA7A"/>
<path d="M162.017 53.3998L161.309 66.1978L150.373 59.1969L162.017 53.3998Z" fill="#FADA7A"/>
<path d="M6.1982 128.679L18.2355 133.642L7.83912 141.394L6.1982 128.679Z" fill="#FADA7A"/>
<path d="M202.89 97.9983L200.29 110.558L190.51 102.068L202.89 97.9983Z" fill="#81BFDA"/>
<path d="M210.331 37.8572L208.076 50.4812L198.067 42.2512L210.331 37.8572Z" fill="#F5F0CD"/>
<path d="M244.874 50.4704L242.618 63.0944L232.61 54.8645L244.874 50.4704Z" fill="#4F8DA8"/>
<path d="M364.312 123.093L362.056 135.717L352.047 127.487L364.312 123.093Z" fill="#4F8DA8"/>
<path d="M165.906 130.457L183.996 129.147L176.106 145.182L165.906 130.457Z" fill="#4F8DA8"/>
<path d="M80.6632 181.737L92.6197 184.088L84.5668 193.078L80.6632 181.737Z" fill="#81BFDA"/>
<path d="M281.614 6.29199L294.296 27.6058H268.933L281.614 6.29199Z" fill="#B1F0F7" fill-opacity="0.5"/>
<path d="M117.955 141.374L128.506 159.302H107.404L117.955 141.374Z" fill="#B1F0F7"/>
<path d="M42.8636 28.2034L24.503 17.6972L43.0531 7.3411L42.8636 28.2034Z" fill="#4F8DA8"/>
<path d="M99.2294 57.4727L104.302 66.2372H94.1567L99.2294 57.4727Z" fill="#81BFDA"/>
<path d="M16.4146 45.2325L18.4789 55.1571L8.69165 51.9499L16.4146 45.2325Z" fill="#B1F0F7"/>
</g>
</svg>
