<svg width="393" height="904" viewBox="0 0 393 904" fill="none" xmlns="http://www.w3.org/2000/svg">
<g filter="url(#filter0_n_3585_9842)">
<path d="M158.673 0C216.997 7.79818 268.799 21.9258 303.996 21.9258H393V903.952H303.996C255.385 903.952 175.1 877 89.7041 877C36.7827 877 15.1659 884.437 1 888.156V6.12988C7.24537 4.49033 14.9391 2.12918 26.125 0H158.673Z" fill="#FADA7A"/>
</g>
<mask id="mask0_3585_9842" style="mask-type:alpha" maskUnits="userSpaceOnUse" x="0" y="88" width="392" height="329">
<path d="M392 416.809H302.996C254.385 416.809 174.1 389.857 88.7041 389.857C35.7826 389.857 14.1659 397.295 0 401.014V88.2454H392V416.809Z" fill="#B1F0F7"/>
</mask>
<g mask="url(#mask0_3585_9842)">
<path d="M39.1431 237.953L80.1648 242.911L55.4205 276.466L39.1431 237.953Z" fill="white" fill-opacity="0.4"/>
<path d="M274.152 345.696L316.561 358.094L284.771 389.148L274.152 345.696Z" fill="white" fill-opacity="0.4"/>
<path d="M396.671 395.094L374.582 433.85L352.536 395.069L396.671 395.094Z" fill="white" fill-opacity="0.4"/>
<path d="M277.876 277.45L299.929 276.636L289.598 296.415L277.876 277.45Z" fill="white" fill-opacity="0.4"/>
<path d="M334.524 234.164L352.841 233.488L344.26 249.915L334.524 234.164Z" fill="white" fill-opacity="0.4"/>
<path d="M371.821 119.848L356.187 181.432L311.424 136.907L371.821 119.848Z" fill="white" fill-opacity="0.4"/>
<path d="M109.718 160.874L87.5493 131.417L123.785 126.672L109.718 160.874Z" fill="white" fill-opacity="0.4"/>
<path d="M174.9 234.319L173.851 253.897L157.66 243.188L174.9 234.319Z" fill="white" fill-opacity="0.4"/>
<path d="M-4.54353 318.755L13.279 326.347L-2.11399 338.207L-4.54353 318.755Z" fill="white" fill-opacity="0.4"/>
<path d="M243.865 285.044L240.015 304.258L225.535 291.27L243.865 285.044Z" fill="white" fill-opacity="0.4"/>
<path d="M203.245 162.303L199.905 181.615L185.087 169.025L203.245 162.303Z" fill="white" fill-opacity="0.4"/>
<path d="M198.097 89.2109L194.757 108.523L179.938 95.9329L198.097 89.2109Z" fill="white" fill-opacity="0.4"/>
<path d="M388.141 272.004L384.8 291.316L369.982 278.726L388.141 272.004Z" fill="white" fill-opacity="0.4"/>
<path d="M175.571 348.915L202.355 346.911L190.674 371.441L175.571 348.915Z" fill="white" fill-opacity="0.4"/>
<path d="M62.4112 378.813L80.1141 382.411L68.191 396.163L62.4112 378.813Z" fill="white" fill-opacity="0.4"/>
<path d="M277.348 177.914L296.011 210.548H258.686L277.348 177.914Z" fill="white" fill-opacity="0.4"/>
<path d="M120.882 288.728L136.68 316.33H105.084L120.882 288.728Z" fill="white" fill-opacity="0.4"/>
<path d="M33.7933 147.073L6.60846 131.001L34.0738 115.158L33.7933 147.073Z" fill="white" fill-opacity="0.4"/>
<path d="M84.6826 168.967L92.3211 182.387H77.044L84.6826 168.967Z" fill="white" fill-opacity="0.4"/>
<path d="M69.4792 80.0982L72.5356 95.2807L58.0445 90.3743L69.4792 80.0982Z" fill="white" fill-opacity="0.4"/>
</g>
<mask id="mask1_3585_9842" style="mask-type:alpha" maskUnits="userSpaceOnUse" x="0" y="473" width="392" height="330">
<path d="M392 802.248H302.996C254.385 802.248 174.1 775.296 88.7041 775.296C35.7826 775.296 14.1659 782.734 0 786.453V473.685H392V802.248Z" fill="#B1F0F7"/>
</mask>
<g mask="url(#mask1_3585_9842)">
<path d="M39.1431 623.392L80.1648 628.35L55.4205 661.906L39.1431 623.392Z" fill="white" fill-opacity="0.4"/>
<path d="M274.152 731.136L316.561 743.533L284.771 774.587L274.152 731.136Z" fill="white" fill-opacity="0.4"/>
<path d="M396.671 780.533L374.582 819.289L352.536 780.508L396.671 780.533Z" fill="white" fill-opacity="0.4"/>
<path d="M277.876 662.889L299.929 662.075L289.598 681.854L277.876 662.889Z" fill="white" fill-opacity="0.4"/>
<path d="M334.524 619.603L352.841 618.927L344.26 635.354L334.524 619.603Z" fill="white" fill-opacity="0.4"/>
<path d="M371.821 505.288L356.187 566.871L311.424 522.346L371.821 505.288Z" fill="white" fill-opacity="0.4"/>
<path d="M109.718 546.313L87.5493 516.856L123.785 512.111L109.718 546.313Z" fill="white" fill-opacity="0.4"/>
<path d="M174.9 619.759L173.851 639.337L157.66 628.627L174.9 619.759Z" fill="white" fill-opacity="0.4"/>
<path d="M-4.54353 704.195L13.279 711.786L-2.11399 723.646L-4.54353 704.195Z" fill="white" fill-opacity="0.4"/>
<path d="M243.865 670.484L240.015 689.698L225.535 676.709L243.865 670.484Z" fill="white" fill-opacity="0.4"/>
<path d="M203.245 547.742L199.905 567.054L185.087 554.464L203.245 547.742Z" fill="white" fill-opacity="0.4"/>
<path d="M198.097 474.65L194.757 493.962L179.938 481.372L198.097 474.65Z" fill="white" fill-opacity="0.4"/>
<path d="M388.141 657.444L384.8 676.756L369.982 664.166L388.141 657.444Z" fill="white" fill-opacity="0.4"/>
<path d="M175.571 734.354L202.355 732.351L190.674 756.88L175.571 734.354Z" fill="white" fill-opacity="0.4"/>
<path d="M62.4112 764.253L80.1141 767.85L68.191 781.602L62.4112 764.253Z" fill="white" fill-opacity="0.4"/>
<path d="M277.348 563.353L296.011 595.987H258.686L277.348 563.353Z" fill="white" fill-opacity="0.4"/>
<path d="M120.882 674.168L136.68 701.77H105.084L120.882 674.168Z" fill="white" fill-opacity="0.4"/>
<path d="M33.7933 532.512L6.60846 516.44L34.0738 500.598L33.7933 532.512Z" fill="white" fill-opacity="0.4"/>
<path d="M84.6826 554.407L92.3211 567.826H77.044L84.6826 554.407Z" fill="white" fill-opacity="0.4"/>
<path d="M69.4792 465.538L72.5356 480.72L58.0445 475.814L69.4792 465.538Z" fill="white" fill-opacity="0.4"/>
</g>
<defs>
<filter id="filter0_n_3585_9842" x="1" y="0" width="392" height="903.952" filterUnits="userSpaceOnUse" color-interpolation-filters="sRGB">
<feFlood flood-opacity="0" result="BackgroundImageFix"/>
<feBlend mode="normal" in="SourceGraphic" in2="BackgroundImageFix" result="shape"/>
<feTurbulence type="fractalNoise" baseFrequency="10.132124900817871 10.132124900817871" stitchTiles="stitch" numOctaves="3" result="noise" seed="5269" />
<feColorMatrix in="noise" type="luminanceToAlpha" result="alphaNoise" />
<feComponentTransfer in="alphaNoise" result="coloredNoise1">
<feFuncA type="discrete" tableValues="1 1 1 1 1 1 1 1 1 1 1 1 1 1 1 1 1 1 1 1 1 1 1 1 1 1 1 1 1 1 1 1 1 1 1 1 1 1 1 1 1 1 1 1 1 1 1 1 1 1 1 0 0 0 0 0 0 0 0 0 0 0 0 0 0 0 0 0 0 0 0 0 0 0 0 0 0 0 0 0 0 0 0 0 0 0 0 0 0 0 0 0 0 0 0 0 0 0 0 0 "/>
</feComponentTransfer>
<feComposite operator="in" in2="shape" in="coloredNoise1" result="noise1Clipped" />
<feFlood flood-color="rgba(0, 0, 0, 0.03)" result="color1Flood" />
<feComposite operator="in" in2="noise1Clipped" in="color1Flood" result="color1" />
<feMerge result="effect1_noise_3585_9842">
<feMergeNode in="shape" />
<feMergeNode in="color1" />
</feMerge>
</filter>
</defs>
</svg>
