<svg width="1956" height="1616" viewBox="0 0 1956 1616" fill="none" xmlns="http://www.w3.org/2000/svg">
<path d="M442.5 1483.36C178.5 1483.36 70.6667 1519.94 0 1538.23V0H1955.5V1615.92H1511.5C1269 1615.92 868.5 1483.36 442.5 1483.36Z" fill="#FADA7A"/>
<mask id="mask0_3668_5124" style="mask-type:alpha" maskUnits="userSpaceOnUse" x="0" y="0" width="1956" height="1616">
<path d="M1956 1615.92H1511.89C1269.32 1615.92 868.722 1483.36 442.613 1483.36C178.546 1483.36 70.6847 1519.94 0 1538.23V0H1956V1615.92Z" fill="#B1F0F7"/>
</mask>
<g mask="url(#mask0_3668_5124)">
<path d="M195.318 736.28L400.008 760.665L276.539 925.694L195.318 736.28Z" fill="white" fill-opacity="0.4"/>
<path d="M1392.91 1266.18L1604.52 1327.15L1445.9 1479.87L1392.91 1266.18Z" fill="white" fill-opacity="0.4"/>
<path d="M2009.25 1509.12L1899.03 1699.73L1789.02 1509L2009.25 1509.12Z" fill="white" fill-opacity="0.4"/>
<path d="M1411.5 930.532L1521.53 926.529L1469.98 1023.8L1411.5 930.532Z" fill="white" fill-opacity="0.4"/>
<path d="M1699.15 717.645L1790.54 714.32L1747.73 795.112L1699.15 717.645Z" fill="white" fill-opacity="0.4"/>
<path d="M1880.26 155.428L1802.25 458.303L1578.89 239.324L1880.26 155.428Z" fill="white" fill-opacity="0.4"/>
<path d="M557.451 357.198L446.833 212.322L627.64 188.986L557.451 357.198Z" fill="white" fill-opacity="0.4"/>
<path d="M887.681 718.41L882.451 814.698L801.657 762.026L887.681 718.41Z" fill="white" fill-opacity="0.4"/>
<path d="M-22.6726 1133.68L66.2581 1171.01L-10.5497 1229.34L-22.6726 1133.68Z" fill="white" fill-opacity="0.4"/>
<path d="M1241.79 967.882L1222.57 1062.38L1150.32 998.498L1241.79 967.882Z" fill="white" fill-opacity="0.4"/>
<path d="M1039.1 364.224L1022.43 459.203L948.492 397.284L1039.1 364.224Z" fill="white" fill-opacity="0.4"/>
<path d="M1003.43 4.74912L986.766 99.7281L912.824 37.8088L1003.43 4.74912Z" fill="white" fill-opacity="0.4"/>
<path d="M1966.68 903.749L1950.01 998.728L1876.07 936.809L1966.68 903.749Z" fill="white" fill-opacity="0.4"/>
<path d="M891.031 1282.01L1024.68 1272.15L966.392 1392.79L891.031 1282.01Z" fill="white" fill-opacity="0.4"/>
<path d="M311.421 1429.05L399.755 1446.74L340.261 1514.37L311.421 1429.05Z" fill="white" fill-opacity="0.4"/>
<path d="M1408.86 441L1501.98 601.5H1315.74L1408.86 441Z" fill="white" fill-opacity="0.4"/>
<path d="M613.156 986L691.985 1121.75H534.328L613.156 986Z" fill="white" fill-opacity="0.4"/>
<path d="M168.624 289.323L32.9776 210.277L170.024 132.361L168.624 289.323Z" fill="white" fill-opacity="0.4"/>
<path d="M432.527 397L470.642 463H394.412L432.527 397Z" fill="white" fill-opacity="0.4"/>
<path d="M346.688 -40.0683L361.939 34.6012L289.631 10.4707L346.688 -40.0683Z" fill="white" fill-opacity="0.4"/>
</g>
</svg>
