<svg width="394" height="198" viewBox="0 0 394 198" fill="none" xmlns="http://www.w3.org/2000/svg" opacity="0.5">
<path d="M62.7862 90.2432L90.5629 93.5532L73.808 115.954L62.7862 90.2432Z" fill="#F5F0CD"/>
<path d="M216.919 158.64L245.635 166.916L224.11 187.646L216.919 158.64Z" fill="#FADA7A"/>
<path d="M329.49 158.177L314.533 184.049L299.605 158.16L329.49 158.177Z" fill="#4F8DA8"/>
<path d="M239.792 99.1473L254.724 98.6038L247.729 111.807L239.792 99.1473Z" fill="#FADA7A"/>
<path d="M300.797 83.6691L313.199 83.2178L307.389 94.1842L300.797 83.6691Z" fill="#81BFDA"/>
<path d="M378.845 14.8617L368.259 55.9729L337.948 26.2494L378.845 14.8617Z" fill="#81BFDA"/>
<path d="M126.613 31.4011L111.602 11.7362L136.138 8.56875L126.613 31.4011Z" fill="#FADA7A"/>
<path d="M161.428 54.5337L160.718 67.6034L149.754 60.4539L161.428 54.5337Z" fill="#FADA7A"/>
<path d="M5.21147 131.412L17.2795 136.48L6.85656 144.398L5.21147 131.412Z" fill="#FADA7A"/>
<path d="M202.405 100.08L199.798 112.906L189.993 104.235L202.405 100.08Z" fill="#81BFDA"/>
<path d="M209.866 38.6613L207.604 51.5534L197.57 43.1487L209.866 38.6613Z" fill="#F5F0CD"/>
<path d="M244.497 51.5422L242.235 64.4343L232.201 56.0296L244.497 51.5422Z" fill="#4F8DA8"/>
<path d="M365.239 125.706L362.977 138.598L352.943 130.194L365.239 125.706Z" fill="#4F8DA8"/>
<path d="M165.326 133.227L183.462 131.89L175.553 148.265L165.326 133.227Z" fill="#4F8DA8"/>
<path d="M79.8661 185.595L91.8531 187.997L83.7797 197.177L79.8661 185.595Z" fill="#81BFDA"/>
<path d="M282.33 6.42578L295.044 28.1922H269.616L282.33 6.42578Z" fill="#B1F0F7"/>
<path d="M117.253 144.376L127.831 162.684H106.675L117.253 144.376Z" fill="#B1F0F7"/>
<path d="M41.9703 28.8026L23.5629 18.0733L42.1603 7.49731L41.9703 28.8026Z" fill="#4F8DA8"/>
<path d="M98.4801 58.6934L103.566 67.644H93.3945L98.4801 58.6934Z" fill="#81BFDA"/>
<path d="M15.4542 46.1934L17.5238 56.3287L7.71153 53.0533L15.4542 46.1934Z" fill="#B1F0F7"/>
</svg>
