<svg width="371" height="919" viewBox="0 0 371 919" fill="none" xmlns="http://www.w3.org/2000/svg">
<path fill-rule="evenodd" clip-rule="evenodd" d="M254.806 220.697L260.191 221.583C260.191 221.583 262.362 220.732 263.23 221.583C264.081 222.452 266.131 223.598 266.131 223.181C266.131 222.764 264.568 219.759 264.116 219.308C263.682 218.856 264.186 217.658 264.95 216.893C265.714 216.129 268.823 215.365 269.379 214.827C269.935 214.271 269.935 213.576 270.612 213.576C271.307 213.576 272.071 215.296 273.044 215.296C273.999 215.296 274.903 213.993 274.903 212.951C274.903 211.926 275.424 210.641 273.721 208.938C272.037 207.254 270.265 205.43 271.029 204.665C271.793 203.901 272.592 203.866 273.444 204.735C274.312 205.603 279.262 210.119 281.538 211.231C283.813 212.325 286.227 213.506 289.128 214.34C292.029 215.157 295.138 215.99 296.041 216.893C296.944 217.797 298.733 218.544 301.217 218.544C303.718 218.544 307.296 218.821 309.311 219.655C311.309 220.489 315.807 222.764 315.807 222.764L318.378 223.754C318.395 223.146 318.43 222.382 318.587 222.226C318.812 222.017 318.587 218.005 318.395 216.338C318.222 214.688 318.986 211.822 319.438 211.37C319.907 210.901 322.234 204.822 322.425 204.388C322.634 203.953 323.311 197.666 323.311 196.45C323.311 195.217 323.815 191.812 323.971 190.961C324.145 190.11 324.961 186.931 325.43 185.507C325.882 184.083 327.358 181.755 327.549 181.373C327.723 181.008 328.887 180.505 329.425 179.966C329.963 179.428 331.301 178.09 331.544 177.465C331.805 176.84 332.708 175.971 333.211 175.468C333.715 174.964 333.403 173.974 332.916 173.488C332.447 173.019 334.393 172.028 335.035 171.82C335.678 171.612 337.259 170.344 337.259 170.344C337.259 170.344 338.301 169.909 338.631 168.919C338.943 167.929 340.489 167.964 340.785 167.964C341.08 167.964 341.549 167.582 341.636 167.287C341.722 166.991 342.66 166.488 342.99 166.349C343.338 166.21 343.894 166.488 343.894 166.783C343.894 167.078 344.467 166.783 344.762 166.783C345.075 166.783 345.301 166.557 345.752 166.383C346.204 166.227 345.752 165.671 345.439 165.359C345.127 165.046 343.373 165.029 342.921 165.029C342.487 165.029 342.157 162.719 342.348 161.989C342.556 161.259 340.368 160.929 339.291 160.443C338.214 159.957 338.353 158.428 338.353 158.428C338.353 158.428 338.596 154.26 338.857 153.565C339.1 152.87 341.549 152.28 342.139 152.366C342.747 152.453 344.449 151.359 344.727 151.081C344.901 150.907 345.613 150.803 346.256 150.734C346.655 150.699 347.02 150.682 347.229 150.682C347.784 150.682 348.392 149.744 348.74 149.414C349.07 149.084 349.139 148.406 349.035 147.902C348.913 147.399 348.705 145.888 349.035 145.558C349.365 145.21 349.035 144.255 348.827 144.046C348.618 143.838 348.497 143.439 348.497 143.056C348.497 142.692 348.462 140.712 348.462 139.982C348.462 139.235 347.802 135.9 347.802 135.31C347.802 134.702 348.479 134.354 349.66 134.042C350.824 133.712 349.851 132.148 349.608 131.888C349.348 131.645 349.834 131.002 350.042 130.794C350.251 130.585 350.928 129.456 350.72 129.248C350.494 129.022 349.035 130.359 348.67 130.603C348.288 130.846 347.889 130.359 347.75 130.22C347.593 130.064 347.159 130.516 346.725 130.516C346.464 130.516 346.325 130.255 346.256 130.012C346.221 129.838 346.204 129.665 346.204 129.56C346.204 129.508 346.221 129.421 346.256 129.317C346.377 129.022 346.638 128.64 346.933 128.64C347.333 128.64 347.559 128.431 347.559 128.101C347.559 127.754 347.263 127.824 347.09 127.65C346.916 127.476 346.794 127.355 346.638 127.198C346.516 127.077 346.395 126.955 346.256 126.886C346.204 126.868 346.152 126.851 346.1 126.851C345.926 126.851 345.353 127.285 344.71 127.476C344.067 127.65 344.241 127.007 344.241 127.007C344.241 127.007 344.241 126.052 344.241 125.913C344.241 125.774 344.71 125.357 344.866 125.183C345.005 125.062 345.804 125.149 346.256 125.183C346.343 125.183 346.412 125.183 346.482 125.183C346.812 125.183 347.506 125.791 347.645 125.93C347.784 126.069 348.184 126.121 348.566 126.121C348.965 126.121 349.591 125.722 349.782 125.531C349.973 125.322 350.251 126 350.251 126.173C350.251 126.364 350.425 126.747 350.616 126.938C350.824 127.129 352.769 126.799 352.769 126.799C352.769 126.799 352.769 126.347 352.613 126.191C352.457 126.034 352.352 125.93 352.109 125.93C351.884 125.93 352.109 125.826 352.248 125.704C352.37 125.565 352.248 125.427 352.248 125.27C352.248 125.114 352.075 125.097 351.779 125.097C351.467 125.097 351.397 124.958 351.241 124.801C351.085 124.645 350.616 124.645 350.268 124.645C349.921 124.645 349.556 124.159 349.191 123.794C348.827 123.412 347.715 123.273 347.194 123.273C346.899 123.273 346.568 123.064 346.256 122.786C345.995 122.561 345.735 122.3 345.526 122.074C345.075 121.623 344.328 119.99 343.598 119.243C342.851 118.514 342.244 117.888 341.966 117.61C341.688 117.332 341.775 115.769 341.775 115.318C341.775 114.849 341.271 114.345 340.715 113.789C340.159 113.233 340.02 110.159 339.1 107.293C338.179 104.444 337.832 101.457 337.832 101.457L337.502 92.06C337.502 92.06 337.502 91.4695 337.328 91.2958C337.154 91.1221 335.973 90.8094 335.973 90.8094L330.207 90.6357L330.033 89.7673H334.08L335.695 88.5688H336.737V87.8393C336.737 87.8393 335.591 86.1892 334.688 84.6607C333.802 83.1496 332.274 78.6509 331.926 77.1224C331.579 75.6113 331.422 69.8794 331.422 68.2467C331.422 66.6313 331.891 59.8573 331.891 58.1377C331.891 56.4008 332.69 52.2669 332.899 51.6763C333.107 51.0858 334.01 46.9692 334.01 46.9692C334.306 46.6739 334.862 43.8254 335.556 41.7584C336.251 39.6915 336.998 38.1109 337.241 37.8677C337.484 37.6245 337.728 37.364 338.058 37.364C338.388 37.364 338.058 36.2871 337.832 36.0613C337.606 35.8355 338.144 34.8454 338.527 34.8454C338.909 34.8454 339.221 34.1333 339.221 33.4038C339.221 32.6743 340.298 31.9447 341.01 31.2152C341.74 30.5031 342.782 28.9398 343.668 28.7488C344.536 28.5577 345.005 26.7166 345.266 26.456C345.405 26.3171 345.839 26.0913 346.256 25.8481C346.621 25.657 346.968 25.4486 347.124 25.2749C347.489 24.9275 349.504 22.5653 349.626 22.4437C349.747 22.3221 350.442 21.9921 350.442 21.801C350.442 21.5926 350.893 20.9673 350.893 20.6547C350.893 20.342 351.102 19.0567 351.345 18.1361C351.588 17.1982 351.554 16.5381 351.554 15.9476C351.554 15.3744 353.429 14.037 353.794 13.6722C354.159 13.3074 354.697 13.2901 355.149 13.2901C355.601 13.2901 356.07 13.6722 356.417 13.6722C356.764 13.6722 356.834 12.2305 356.834 12.2305C356.834 11.7442 358.05 10.7541 358.449 10.372C358.849 9.97253 360.203 9.65988 360.69 9.43408C361.159 9.19091 361.141 8.37455 360.933 8.16612C360.725 7.95768 360.933 7.33239 361.298 7.2108C361.68 7.10659 361.576 6.985 362.461 4.81383C362.514 4.67488 362.6 4.53592 362.67 4.41434C363.243 3.33744 364.146 2.57319 364.963 2C360.725 2.2258 354.697 3.56324 353.308 4.27538C352.37 4.77909 349.139 5.10911 346.256 5.28281C344.484 5.40439 342.851 5.4565 341.948 5.4565C339.569 5.4565 336.633 8.11401 335.799 9.46882C334.966 10.8063 335.209 12.2305 336.425 13.0122C337.623 13.8112 338.665 15.6523 338.665 17.9972C338.665 20.342 335.522 23.3295 334.966 23.8854C334.948 23.9027 334.914 23.9375 334.896 23.9375C334.288 24.528 331.909 26.2997 330.623 26.9597C330.554 26.9945 330.467 27.0292 330.398 27.064C329.164 27.6198 326.073 26.5081 322.981 27.255C319.907 27.9845 319.264 31.6842 316.902 35.1233C314.539 38.5625 308.617 42.349 307.505 43.0438C306.411 43.7559 301.426 42.349 301.426 42.349C301.426 42.349 299.949 44.9891 297.379 46.6392C294.79 48.3067 292.55 50.0089 291.386 51.1552C290.24 52.3016 287.026 54.438 283.466 56.036C279.905 57.634 277.317 58.2072 275.25 58.2072C273.183 58.2072 271.793 59.6488 271.029 61.2468C270.265 62.8274 266.687 64.1475 264.047 65.3112C261.424 66.4924 261.841 68.4204 261.841 69.532C261.841 70.6436 262.605 71.46 261.91 74.4996C261.841 74.847 261.771 75.1597 261.737 75.4202C261.389 77.4698 261.98 77.3308 262.536 78.9288C263.161 80.7178 262.536 82.5937 262.536 84.4523C262.536 86.3108 255.553 89.2288 252.444 89.9062C249.335 90.601 243.881 94.7523 242.7 96.5413C241.536 98.3477 238.08 99.0946 233.928 100.971C231.41 102.1 227.971 102.447 225.661 102.534C225.556 102.829 225.348 103.107 224.931 103.229C223.785 103.524 219.512 104.635 218.018 106.876C216.524 109.134 215.187 111.392 215.187 111.392C215.187 111.392 213.971 113.98 213.971 115.613C213.971 117.228 210.011 123.881 207.857 126.052C205.703 128.206 202.403 129.665 202.09 131.228C202.09 131.228 202.907 133.364 202.907 134.511C202.907 135.64 203.202 136.838 202.507 137.55C201.795 138.262 200.388 140.312 200.388 141.754C200.388 143.213 201.639 145.384 201.639 145.87C201.639 146.357 202.125 149.605 201.396 151.012C200.666 152.436 200.041 154.329 198.495 155.892C196.932 157.438 190.939 162.701 189.098 163.952C187.257 165.185 184.912 167.217 184.912 167.547C184.912 167.86 180.135 174.929 179.111 175.971C178.069 177.013 177.026 180.487 177.026 180.487C177.026 180.487 178.294 181.113 178.59 181.408C178.902 181.703 179.371 182.78 179.371 183.753C179.371 184.725 179.371 192.368 179.371 192.368C179.371 192.368 179.198 194.939 181.351 195.46C183.523 195.963 187.066 197.249 187.066 197.249C187.066 197.249 190.939 198.308 191.304 199.229C191.669 200.149 192.52 202.894 192.971 203.328C193.406 203.762 194.378 205.187 196.567 204.874C198.738 204.561 203.601 202.182 203.601 202.182C203.601 202.182 208.309 200.063 210.184 200.063C212.078 200.063 213.398 199.298 214.336 200.236C215.274 201.192 215.274 202.407 215.274 202.407C215.274 202.407 217.879 204.943 218.8 205.447C219.72 205.951 221.7 208.209 221.7 208.209L226.182 209.876L231.201 212.499C231.201 212.499 236.898 213.298 238.496 213.298C240.077 213.298 245.67 216.407 245.67 216.407C245.67 216.407 250.516 216.755 251.002 217.241C251.489 217.727 254.806 220.697 254.806 220.697Z" fill="#F8B2B4" stroke="#2D2A2B" stroke-width="3.01158" stroke-miterlimit="22.9256"/>
<path fill-rule="evenodd" clip-rule="evenodd" d="M260.191 221.583L254.806 220.697C254.806 220.697 251.489 217.727 251.002 217.241C250.516 216.755 245.67 216.407 245.67 216.407C245.67 216.407 240.077 213.298 238.496 213.298C236.898 213.298 231.201 212.499 231.201 212.499L226.181 209.876L221.7 208.209C221.7 208.209 219.72 205.951 218.8 205.447C217.879 204.943 215.274 202.407 215.274 202.407L212.929 206.871C212.929 206.871 212.929 217.519 212.373 219.586C211.834 221.653 209.472 222.486 207.127 223.32C204.782 224.154 202.438 226.499 202.438 226.499C202.438 226.499 196.688 234.853 196.688 235.896C196.688 236.92 197.661 237.615 197.661 237.615L196.827 241.975L194.569 242.895C192.554 243.764 187.674 248.506 186.632 250.208C185.589 251.91 186.632 254.481 186.632 254.481C186.632 254.481 187.552 257.451 187.1 258.267C186.632 259.101 183.088 260.664 182.324 261.411C181.56 262.175 178.85 263.513 178.624 263.739C178.398 263.964 172.892 265.945 171.485 266.257C170.061 266.57 168.515 267.143 168.515 267.317C168.515 267.49 168.585 268.602 168.932 269.992C169.262 271.364 169.61 274.82 169.088 276.14C168.585 277.443 167.734 280.917 168.515 281.699C169.28 282.463 172.041 283.279 172.406 284.148C172.788 285.016 175.168 287.813 176.418 288.056C177.669 288.299 180.674 288.299 181.23 289.81C181.768 291.339 181.629 292.19 181.23 293.267C180.813 294.343 179.354 299.728 177.356 302.073C175.341 304.418 172.614 306.606 171.416 307.179C170.2 307.77 166.014 308.847 166.188 311.053C166.361 313.259 167.49 317.375 166.188 319.373C164.885 321.387 162.749 323.124 162.749 326.39C162.749 329.655 162.436 329.707 161.741 330.402C161.046 331.097 160.386 332.226 161.046 332.886C161.724 333.546 163.999 336.985 163.999 339.156C163.999 341.31 165.198 344.906 165.198 346.017C165.198 347.111 166.292 351.263 166.066 352.131C165.84 353.017 164.555 356.196 163.808 357.29C163.079 358.402 160.491 364.707 160.491 366.235C160.491 367.746 161.481 371.237 159.709 373.009C157.937 374.781 155.436 376.83 154.377 382.406C154.377 382.406 153.404 385.758 152.535 387.704C151.65 389.632 150.312 393.592 150.312 395.155C150.312 396.718 150.781 399.028 149.114 399.949C147.464 400.87 141.523 403.267 143.816 406.167C146.126 409.068 148.662 408.981 149.392 409.711C150.139 410.44 152.397 410.857 152.987 413.897C153.595 416.936 154.602 422.599 154.602 424.457C154.602 426.298 155.471 432.829 154.602 434.67C153.717 436.511 151.094 446.047 150.677 447.194C150.277 448.357 148.801 453.881 148.558 454.749C148.332 455.635 146.995 460.794 144.876 461.662C142.757 462.531 137.494 464.98 136.243 465.327C135.01 465.675 131.762 466.161 130.859 466.161C129.955 466.161 127.541 466.491 127.923 468.193C128.305 469.878 130.233 472.171 129.261 473.612C128.305 475.071 126.151 479.97 126.151 482.106C126.151 484.26 126.325 486.361 125.266 487.438C124.189 488.498 122.295 490.096 118.353 489.297C114.41 488.498 110.623 487.369 107.705 489.019C107.705 489.019 106.125 490.582 104.666 490.582C103.224 490.582 99.1074 490.165 98.2563 491.016C97.3878 491.885 97.0057 494.021 96.5888 494.925C96.172 495.828 95.0082 498.52 93.5492 499.458C92.1076 500.379 90.4748 502.914 92.1076 504.53C93.7229 506.163 96.6583 506.632 93.5492 510.366C90.4401 514.1 88.2342 516.167 85.3335 517.14L85.1772 517.192C85.4377 517.783 85.6462 518.217 85.7851 518.356C86.532 519.103 89.2069 522.542 88.1473 524.626C87.0878 526.693 83.9961 529.038 81.547 529.646C79.1153 530.236 73.5918 531.157 72.5671 531.157C71.5596 531.157 71.6291 533.12 72.845 534.336C74.0608 535.569 75.5719 540.05 76.0235 541.474C76.4925 542.916 78.4726 544.896 80.4006 545.261C82.3286 545.626 85.1251 546.112 85.8893 546.876C86.6362 547.623 89.6064 549.117 90.2664 550.506C90.9091 551.896 92.0033 554.884 92.5071 555.891C93.0281 556.916 93.7055 558.618 92.5071 558.618C91.3259 558.618 89.5369 559.417 88.6858 560.563C88.1821 561.206 87.6436 561.831 87.0531 562.335C87.4526 562.682 87.9042 562.943 88.4426 562.943C90.2317 562.943 93.6187 562.734 94.7998 563.916C95.9636 565.079 99.0032 569.995 99.698 571.575C100.393 573.173 101.556 578.211 102.112 579.67C102.668 581.111 103.363 582.501 105.152 583.039C106.958 583.595 109.477 583.838 110.206 584.568C110.919 585.297 113.246 587.468 113.993 586.704C114.757 585.94 116.668 585.645 117.31 586.287C117.971 586.947 120.281 591.967 121.045 592.714C121.809 593.478 123.668 595.823 126.36 593.895C129.07 591.967 132.109 590.369 135.218 592.645C138.327 594.937 139.561 598.116 140.255 599.696C140.95 601.277 143.173 608.225 145.796 610.865C148.436 613.505 149.392 612.776 150.451 613.505C151.511 614.235 152.674 616.423 152.866 616.614C153.074 616.823 154.62 617.587 155.523 617.448C156.426 617.309 158.545 617.205 159.466 618.785C160.386 620.383 160.664 622.311 160.664 622.624C160.664 622.954 160.855 625.594 163.044 625.334C165.232 625.09 173.552 623.597 174.838 623.423C176.106 623.249 178.242 623.562 178.833 622.294C179.423 621.009 179.979 616.857 179.701 615.173C179.423 613.47 178.676 607.287 177.912 606.505C177.13 605.724 176.175 602.979 177.495 601.659C178.798 600.356 181.594 598.585 182.949 596.205C184.304 593.826 185.52 589.101 186.128 588.511C186.736 587.903 189.15 581.059 189.55 580.66C189.949 580.26 190.991 577.551 190.991 576.56C190.991 575.553 191.304 574.094 192.624 572.791C193.927 571.471 195.941 569.856 195.42 567.633C194.899 565.427 194.465 560.476 196.08 558.861C197.678 557.263 203.949 551.132 204.331 548.926C204.713 546.703 205.373 544.983 206.398 543.941C207.44 542.916 208.621 541.318 207.058 539.286C205.512 537.236 201.222 532.651 202.264 530.375C203.289 528.083 206.71 522.733 207.197 521.969C207.683 521.222 209.924 517.001 213.762 515.577C217.601 514.17 221.023 513.579 222.395 513.579C223.785 513.579 227.502 515.82 228.544 515.82C229.586 515.82 231.705 515.733 232.313 515.143C232.643 514.812 233.338 514.5 234.067 514.291C234.05 513.84 234.032 513.232 234.032 513.041C234.032 512.745 234.623 511.2 234.779 510.505C234.953 509.81 235.474 507.969 235.7 507.535C235.943 507.1 236.516 505.78 236.117 505.398C235.735 504.999 233.789 503.87 234.05 503.87C234.31 503.87 234.918 503.87 235.109 504.061C235.3 504.235 236.551 504.287 237.107 504.061C237.663 503.835 238.149 501.959 238.149 501.23C238.149 500.483 239.017 500.622 239.973 500.309C240.911 499.979 239.73 499.458 239.417 499.336C239.087 499.215 239.417 498.676 239.643 498.433C239.869 498.207 239.764 497.686 239.4 497.495C239.017 497.304 239 497.096 239 496.835C239 496.557 238.427 496.523 237.749 496.523C237.089 496.523 236.725 495.15 236.725 495.15C236.725 495.15 236.725 491.19 236.725 491.069C236.725 490.947 236.516 488.289 236.516 487.873C236.516 487.456 236.482 484.989 236.898 484.59C237.298 484.19 237.645 483.843 237.645 483.582C237.645 483.339 237.645 482.801 237.749 481.446C237.871 480.091 239.226 476.148 239.625 475.071C240.007 473.977 241.241 472.101 241.519 471.823C241.779 471.545 242.161 470.781 242.161 470.434C242.161 470.086 242.682 469.513 242.682 469.513C243.394 468.384 243.186 467.759 243.186 467.186C243.186 466.613 243.672 465.466 244.176 464.511C244.68 463.573 244.558 458.901 244.558 458.901C244.558 458.901 244.749 453.064 244.749 452.179C244.749 451.275 245.409 449.73 245.409 449.73C245.409 449.73 246.365 446.134 246.625 445.283C246.868 444.432 247.129 444.345 248.327 443.789C249.526 443.233 248.987 441.948 248.466 441.427C247.928 440.889 248.345 440.298 249.092 439.881C249.839 439.447 249.439 439.204 249.439 438.978C249.439 438.752 249.317 438.214 249.578 437.97C249.821 437.71 250.082 436.928 249.96 436.477C249.839 436.008 249.96 435.921 250.116 435.521C250.29 435.139 250.672 433.385 250.672 432.551C250.672 431.718 251.245 430.571 251.784 429.703C252.305 428.817 252.114 428.348 251.853 428.087C251.593 427.827 251.35 427.584 251.02 425.708C250.707 423.849 251.02 421.07 251.489 420.115C251.94 419.177 252.722 419.281 253.087 419.281C253.434 419.281 253.712 418.638 253.903 418.465C254.077 418.274 254.32 416.797 254.32 416.797L255.466 415.147C255.831 414.782 257.22 410.18 257.863 409.016C258.506 407.869 257.863 406.758 257.637 405.386C257.394 403.996 257.863 395.016 257.863 394.043C257.863 393.088 258.732 391.803 259.513 391.004C260.295 390.222 260.903 388.659 260.903 388.659C260.903 388.659 261.545 385.48 261.91 384.647C262.275 383.83 263.057 382.858 263.057 382.267C263.057 381.659 264.081 380.183 264.637 378.984C265.176 377.786 267.034 368.528 267.486 367.243C267.955 365.957 267.903 358.315 267.903 357.429C267.903 356.56 268.163 355.258 268.65 354.771C269.136 354.268 269.136 352.6 269.136 351.992C269.136 351.402 269.692 350.915 269.9 350.707C270.109 350.498 270.004 348.64 269.9 348.536C269.796 348.432 269.518 347.702 269.518 347.285C269.518 346.868 269.032 345.948 269.032 345.531C269.032 345.114 268.65 342.978 268.65 342.005C268.65 341.032 271.046 337.263 271.498 336.811C271.95 336.36 274.138 334.171 274.242 334.067C274.347 333.963 275.667 332.643 276.118 332.191C276.553 331.74 276.553 332.643 276.553 332.643V334.553L275.354 336.586C275.354 336.586 274.972 337.489 275.18 337.958C275.389 338.444 275.667 337.489 275.667 337.489L277.195 334.484C277.195 334.484 277.195 332.486 277.317 332.365C277.438 332.243 277.317 331.913 277.942 331.305C278.567 330.68 278.811 329.395 278.811 328.908C278.811 328.439 280.495 325.66 280.773 325.382C281.051 325.122 280.773 324.08 280.773 323.628C280.773 323.177 280.322 321.909 280.322 321.422C280.322 320.936 278.915 320.033 277.907 319.043C276.9 318.035 275.806 316.924 274.486 314.996C273.183 313.068 272.141 309.437 271.724 307.978C271.307 306.537 271.081 302.142 271.081 302.142C271.081 302.142 271.081 299.78 271.62 299.242C272.158 298.703 272.314 297.852 272.314 297.487C272.314 297.105 272.627 296.202 273.044 296.202C273.443 296.202 273.044 295.611 274.121 294.048C275.215 292.468 277.282 290.887 278.116 290.435C278.95 289.984 281.155 288.942 282.128 288.368C283.083 287.778 285.637 282.584 285.637 282.584C285.637 282.584 286.019 281.282 286.366 280.934C286.714 280.587 286.366 277.026 286.366 276.21C286.366 275.376 285.22 273.518 284.925 273.24C284.629 272.944 284.438 271.364 284.16 269.54C283.882 267.699 284.647 264.659 284.959 263.704C285.272 262.731 286.783 261.411 287.096 261.098C287.408 260.803 287.895 259.587 287.895 259.24C287.895 258.893 288.537 258.51 288.537 258.51C288.537 258.024 288.92 257.972 290.379 257.52C291.82 257.069 293.661 255.158 294.043 254.793C294.426 254.411 296.041 253.334 297.118 252.918C298.177 252.501 298.594 251.441 298.594 251.441C298.594 251.441 300.192 248.905 300.765 247.794C301.321 246.665 302.242 246.3 302.607 245.935C302.971 245.588 305.09 245.674 305.09 245.674C305.09 245.119 308.582 241.905 309.172 241.315C309.763 240.724 310.475 239.074 310.475 237.511C310.475 235.965 311.517 233.03 311.725 232.474C311.934 231.918 312.976 231.084 313.48 230.563C314.001 230.059 316.05 228.01 316.867 227.194C317.701 226.36 318.361 224.866 318.361 224.38C318.361 224.241 318.361 224.015 318.378 223.754L315.807 222.764C315.807 222.764 311.309 220.489 309.311 219.655C307.296 218.821 303.718 218.544 301.217 218.544C298.733 218.544 296.944 217.797 296.041 216.893C295.138 215.99 292.029 215.157 289.128 214.34C286.227 213.506 283.813 212.325 281.538 211.231C279.262 210.119 274.312 205.603 273.443 204.735C272.592 203.866 271.793 203.901 271.029 204.665C270.265 205.43 272.037 207.254 273.721 208.938C275.424 210.641 274.902 211.926 274.902 212.951C274.902 213.993 273.999 215.296 273.044 215.296C272.071 215.296 271.307 213.576 270.612 213.576C269.935 213.576 269.935 214.271 269.379 214.827C268.823 215.365 265.714 216.129 264.95 216.893C264.186 217.658 263.682 218.856 264.116 219.308C264.568 219.759 266.131 222.764 266.131 223.181C266.131 223.598 264.081 222.452 263.23 221.583C262.362 220.732 260.191 221.583 260.191 221.583Z" fill="#F8B2B4" stroke="#2D2A2B" stroke-width="3.01158" stroke-miterlimit="22.9256"/>
<path fill-rule="evenodd" clip-rule="evenodd" d="M152.866 616.614C152.675 616.423 151.511 614.234 150.452 613.505C149.392 612.775 148.437 613.505 145.797 610.865C143.174 608.225 140.95 601.277 140.256 599.696C139.561 598.116 138.328 594.937 135.219 592.644C132.109 590.369 129.07 591.967 126.36 593.895C123.668 595.823 121.809 593.478 121.045 592.714C120.281 591.967 117.971 586.947 117.311 586.287C116.668 585.645 114.757 585.94 113.993 586.704C113.246 587.468 110.919 585.297 110.207 584.568C109.477 583.838 106.959 583.595 105.152 583.039C103.363 582.501 102.668 581.111 102.113 579.669C101.557 578.21 100.393 573.173 99.6983 571.575C99.0035 569.995 95.9639 565.079 94.8001 563.915C93.619 562.734 90.232 562.943 88.443 562.943C87.9045 562.943 87.4529 562.682 87.0534 562.335C86.6018 562.717 86.1328 563.03 85.6118 563.221C84.3612 563.672 80.5573 565.357 79.0809 566.121C77.5871 566.886 74.7559 567.233 73.7311 567.233C72.689 567.233 69.7362 567.459 68.9198 568.258C68.1035 569.074 62.0937 576.265 61.3989 576.96C60.6868 577.672 57.0739 580.694 55.2154 581.042C53.3395 581.389 51.5158 583.942 51.5158 585.471C51.5158 586.982 51.0989 591.307 50.9252 591.932C50.7515 592.54 50.9599 595.545 50.7515 596.552C50.5431 597.56 49.5704 599.557 49.1709 600.391C48.7888 601.207 46.3744 605.515 45.8881 606.019C45.3844 606.522 43.8385 611.785 43.5606 612.966C43.3001 614.13 43.0221 618.698 43.0221 619.289C43.0221 619.862 43.2827 622.693 43.5606 624.152C43.8385 625.611 44.6722 630.162 44.1164 631.378C43.5606 632.576 40.2604 637.422 40.2604 638.586C40.2604 639.767 40.5557 641.834 41.3199 642.599C42.0842 643.363 42.8137 645.464 42.5705 646.889C42.3274 648.296 40.0867 654.444 39.6699 655.382C39.253 656.32 38.2108 658.005 37.2208 658.335C36.2481 658.665 33.3822 660.003 31.8363 663.06C30.3078 666.117 27.5808 669.747 27.3376 671.484C27.0945 673.203 26.4692 674.28 26.1218 675.479C25.7744 676.695 25.0796 679.665 25.0796 681.35C25.0796 683.052 25.757 684.337 26.2607 684.841C26.7644 685.344 27.6503 686.474 27.824 687.533C27.9977 688.61 27.6503 693.265 28.154 694.238C28.6751 695.21 29.5262 697.573 30.0994 698.146C30.6725 698.719 35.2754 701.741 36.3871 702.453C37.4813 703.183 39.5656 703.912 38.0024 705.458C36.4565 707.021 36.9776 708.376 37.9329 708.915C38.9056 709.471 40.3473 711.103 39.8436 712.371C39.3225 713.657 37.8982 717.356 37.8982 718.485C37.8982 719.632 38.1066 724.009 41.3547 724.669C44.6028 725.329 49.6746 725.502 50.5083 728.334C51.3421 731.165 50.6473 732.033 50.2652 733.788C49.883 735.559 49.1709 740.701 49.1709 742.194C49.1709 743.671 48.4761 747.961 47.6077 749.298C46.7392 750.653 45.1065 753.467 44.3596 754.214C43.6127 754.943 42.8137 755.725 40.2778 755.725C37.7592 755.725 33.2085 755.76 31.2284 758.244C29.2656 760.727 29.6478 762.186 27.4418 763.02C25.2186 763.837 21.6405 765.052 20.0078 765.052C18.3924 765.052 14.8664 764.358 14.5885 765.712C14.3106 767.05 15.5612 767.05 15.8565 767.675C16.1691 768.3 16.4818 771.166 15.457 772.521C14.4148 773.859 9.48195 783.742 8.544 785.062C7.60606 786.365 5.74754 788.327 5.12224 791.245C4.49695 794.146 4.1843 795.518 4.1843 796.63C4.1843 797.724 3.3332 799.913 2.95108 800.295C2.56895 800.66 3.97587 803.699 4.14956 804.394C4.32325 805.089 2.72527 807.381 2.32578 807.781C1.92629 808.18 2.63843 810.994 2.63843 812.071C2.63843 813.131 3.24635 815.51 3.83691 816.101C4.44484 816.709 5.50437 819.453 5.50437 819.939C5.50437 820.426 8.30083 828.989 8.47453 829.614C8.64822 830.24 9.32562 832.637 8.64822 833.314C7.97082 833.991 7.6408 833.974 7.43237 834.512C7.22393 835.068 6.7897 836.162 6.5639 836.388C6.35547 836.614 7.15446 837.378 6.91129 838.073C6.66812 838.768 6.02545 840.661 5.33068 842.433C5.33068 842.433 6.96339 842.659 7.36289 843.058C7.76238 843.44 12.0005 846.376 12.2437 847.018C12.4868 847.678 13.0253 850.614 13.5116 851.413C13.998 852.212 15.7002 854.522 15.7002 855.616C15.7002 856.728 15.2486 858.43 12.6258 859.246C9.98566 860.08 6.40757 860.566 5.22646 862.772C4.04534 864.978 3.09003 872.308 4.56642 873.107C6.06019 873.906 8.05766 874.931 8.47453 875.834C8.89139 876.737 9.91618 878.769 12.1742 878.978C14.4148 879.186 14.9707 879.186 15.596 880.35C16.2039 881.531 18.8267 886.395 18.8267 886.395C18.8267 886.395 20.1815 889.104 18.3924 889.99C16.586 890.893 15.1791 891.206 14.5885 891.206C13.998 891.206 12.7126 890.893 12.7126 891.866C12.7126 892.821 13.5464 895.253 14.797 895.687C16.0302 896.139 17.385 896.382 17.6282 897.111C17.8713 897.841 17.6976 899.456 19.8167 899.786C21.9358 900.116 22.8737 900.429 22.8737 900.811C22.8737 901.193 23.0474 901.801 21.9705 902.079C20.911 902.357 20.911 902.426 20.911 902.982C20.911 903.538 20.772 903.677 20.5115 903.938C20.2509 904.198 19.6604 904.337 20.0772 904.737C20.4941 905.153 20.8068 905.431 20.8068 905.848C20.8068 906.265 20.4594 909.096 21.6057 908.645C22.7348 908.193 25.3923 907.377 26.5039 908.471C27.6155 909.583 29.7172 910.208 30.0994 910.59C30.4815 910.955 31.8189 913.942 34.2506 914.272C36.6997 914.585 38.6277 915.645 39.0446 916.061C39.4614 916.478 41.3894 917.816 43.2306 916.565C44.8459 915.488 49.7441 912.066 53.0269 911.198C53.0269 911.094 53.0269 910.99 53.0269 910.92C53.0269 910.434 52.8706 909.878 52.8706 909.235C52.8706 908.593 52.1063 905.64 52.1063 904.65C52.1063 903.642 51.8458 895.965 51.9326 895.166C52.0195 894.35 52.2105 890.424 52.3668 889.191C52.5058 887.94 52.6448 886.151 52.8011 885.717C52.9574 885.283 52.5232 884.71 52.5232 884.258C52.5232 883.807 52.9748 883.807 53.4437 883.807C53.8953 883.807 53.9475 883.285 54.1906 882.695C54.4338 882.087 54.8333 880.871 55.0417 880.229C55.2502 879.586 55.8581 878.526 56.9871 877.606C58.1161 876.685 58.064 875.608 58.6893 874.097C59.3146 872.603 59.4014 869.842 59.4014 869.842C59.4014 869.842 59.5925 864.11 59.6967 862.685C59.8183 861.261 59.8704 856.867 59.8704 856.155C59.8704 855.46 60.2699 849.242 60.2699 848.373C60.2699 847.522 60.7736 845.16 60.9126 844.847C61.0341 844.517 60.9994 843.058 61.0689 842.502C61.1384 841.964 62.0068 841.564 62.0068 841.564C62.4932 841.078 62.5453 839.688 63.1879 838.177C63.8306 836.684 64.3864 836.614 65.2896 835.919C66.2102 835.225 66.436 831.924 66.436 831.316C66.436 830.726 66.8355 829.423 67.4261 828.242C67.9993 827.078 67.6866 825.915 67.4434 824.612C67.2003 823.292 67.4434 819.349 67.4434 818.672C67.4434 817.977 67.8429 817.525 68.7809 817.004C69.7188 816.483 69.7536 815.111 69.7536 815.111C69.7536 815.111 70.3789 813.304 71.6815 809.414C73.0016 805.506 75.2075 803.56 75.2075 803.56C75.2075 803.56 77.865 801.424 80.0188 799.878C82.1553 798.315 81.7037 796.943 81.7037 796.943C81.7037 796.943 81.8774 794.146 82.329 792.201C82.7806 790.273 82.8848 788.883 82.8848 787.615C82.8848 786.33 83.4927 785.097 83.8748 784.298C84.257 783.499 84.3959 781.571 85.7507 778.079C87.0882 774.588 88.8251 772.764 88.8251 772.764C88.8251 772.764 90.9094 770.367 93.5496 769.516C96.1897 768.648 99.0904 766.199 99.0904 766.199C99.0904 766.199 102.391 762.899 103.033 762.256C103.676 761.613 105.048 760.849 106.125 760.067C107.202 759.286 108.956 759.234 110.016 759.077C111.075 758.921 111.805 758.348 112.291 757.861C112.795 757.358 114.254 756.455 115.609 756.038C116.963 755.621 118.944 753.432 118.944 753.432C118.944 753.432 125.422 746.971 126.638 745.738C127.871 744.522 129.07 744.539 130.234 743.949C131.415 743.358 132.856 742.125 133.899 740.735C134.941 739.346 134.611 737.869 134.611 737.07C134.611 736.271 134.611 734.291 134.941 732.954C135.271 731.599 136.764 730.435 136.956 730.227C137.147 730.036 137.841 730.14 137.893 730.192C137.946 730.244 138.223 730.522 139.439 730.192C140.673 729.88 140.777 728.872 141.089 728.316C141.402 727.76 141.089 726.024 140.759 725.468C140.429 724.912 140.186 722.862 140.186 722.445C140.186 722.029 139.943 721.612 139.422 721.334C138.901 721.056 138.953 720.448 138.762 719.857C138.571 719.267 137.737 715.828 137.737 715.289C137.737 714.751 137.598 712.319 137.598 711.885C137.598 711.451 137.963 711.051 138.38 710.808C138.779 710.565 138.936 709.801 139.022 709.453C139.109 709.106 139.596 708.776 139.978 708.776C140.36 708.776 140.707 708.22 141.124 707.508C141.524 706.796 142.323 706.778 142.67 706.691C143.017 706.622 143.295 705.684 143.643 705.441C143.973 705.198 144.233 705.684 144.39 705.84C144.546 705.997 145.154 705.719 145.519 705.441C145.883 705.163 147.169 705.441 147.36 705.441C147.568 705.441 147.759 705.267 147.881 704.902C148.02 704.538 148.732 704.52 149.027 704.451C149.305 704.381 149.496 704.659 149.496 704.659C149.496 704.659 150.347 705.389 150.764 705.701C151.198 706.031 151.476 705.701 151.789 705.406C152.084 705.093 152.345 704.659 152.241 703.912C152.136 703.183 152.866 701.654 153.126 701.22C153.387 700.786 154.655 700.143 155.245 699.952C155.819 699.778 157.173 697.729 157.503 697.26C157.833 696.808 158.181 695.87 158.302 695.367C158.407 694.88 158.719 694.62 159.015 694.324C159.31 694.012 160.161 691.962 160.369 691.754C160.595 691.545 160.838 690.764 161.637 690.416C162.436 690.086 163.704 686.769 163.895 686.213C164.086 685.657 165.042 683.851 165.302 683.451C165.563 683.052 165.719 682.027 165.719 681.61C165.719 681.193 165.98 679.682 166.379 679.144C166.779 678.605 168.846 675.375 169.089 675.131C169.332 674.888 169.818 675.079 169.888 675.166C169.975 675.253 170.53 675.444 170.774 675.444C170.999 675.444 170.982 675.236 170.982 675.027C170.982 674.819 171.277 674.454 171.277 674.454C171.277 674.454 172.146 673.898 172.25 673.62C172.354 673.36 173.101 672.196 173.101 672.196C173.101 672.196 175.012 670.146 175.672 669.087C176.349 668.045 176.974 666.672 177.53 665.37C178.086 664.05 178.659 663.233 178.989 662.643C179.319 662.07 179.128 660.819 179.128 660.263C179.128 659.707 179.424 659.03 179.858 658.596C180.292 658.162 180.483 656.65 180.744 655.626C181.004 654.618 182.324 654.045 182.828 653.819C183.349 653.576 183.054 652.655 183.002 652.169C182.932 651.683 183.523 651.474 183.957 651.214C184.391 650.936 184.148 650.467 184.148 650.189C184.148 649.928 184.113 649.025 184.391 648.521C184.686 648 186.354 642.824 186.701 642.095C187.031 641.383 187.205 638.482 187.344 637.527C187.483 636.571 189.237 635.963 189.967 635.547C190.714 635.13 190.279 634.4 190.054 634.035C189.845 633.671 190.054 632.889 190.332 632.629C190.592 632.351 190.766 631.673 190.922 631.256C191.078 630.84 192.034 628.998 192.503 628.512C192.989 628.026 194.518 628.234 195.282 628.234C196.046 628.234 196.168 627.835 196.48 627.522C196.776 627.227 197.088 627.244 197.244 627.4C197.401 627.557 197.887 627.765 198.252 627.765C198.617 627.765 199.086 627.244 199.173 626.74C199.242 626.219 199.902 625.368 199.902 625.368C199.902 625.368 201.066 623.961 201.5 623.527C201.917 623.11 201.813 622.502 202.021 621.912C202.229 621.304 203.063 621.095 203.359 622.033C203.636 622.989 204.644 622.433 205.2 621.877C205.755 621.321 207.249 619.845 207.597 619.497C207.944 619.133 208.691 619.289 209.212 619.289C209.75 619.289 210.358 618.959 210.723 618.872C211.088 618.803 211.279 618.42 211.383 618.316C211.505 618.212 212.026 618.212 212.269 618.125C212.53 618.038 213.381 617.552 213.624 617.291C213.867 617.048 213.363 617.031 213.068 617.031C212.79 617.031 211.991 617.326 211.487 617.656C210.984 617.986 210.046 618.177 210.046 618.177C210.046 618.177 208.812 618.177 208.43 618.247C208.031 618.299 207.301 618.872 206.746 618.872C206.207 618.872 204.123 616.788 203.689 616.336C203.237 615.902 203.48 611.212 203.48 610.708C203.48 610.187 204.14 610.048 204.522 609.823C204.922 609.614 205.234 608.763 205.234 608.468C205.234 608.19 204.783 608.173 204.557 608.173C204.349 608.173 204.279 607.686 204.366 607.599C204.453 607.512 204.592 607.374 205.078 607.374C205.547 607.374 205.599 607.269 205.964 606.297C206.329 605.307 205.286 603.535 205.026 603.257C204.748 602.979 204.765 602.128 204.87 601.642C204.974 601.138 204.123 600.044 203.602 599.523C203.081 598.984 203.15 597.508 203.22 597.108C203.272 596.709 203.15 596.24 202.907 595.997C202.646 595.736 202.542 593.86 202.646 592.731C202.733 591.62 203.827 590.63 204.21 590.247C204.592 589.865 205.373 589.587 205.981 589.587C206.607 589.587 206.867 589.24 207.076 589.032C207.284 588.84 208.674 586.687 209.195 586.148C209.733 585.627 209.768 585.002 209.768 584.498C209.768 583.994 209.177 584.255 208.795 584.342C208.396 584.429 208.396 583.942 208.274 583.3C208.152 582.674 208.552 581.945 208.795 581.702C209.021 581.458 209.247 580.573 209.386 579.6C209.525 578.61 210.046 576.005 210.202 575.032C210.358 574.059 210.984 572.809 211.731 572.062C212.46 571.315 212.512 568.24 212.512 567.511C212.512 566.764 213.172 565.01 213.832 564.714C214.492 564.419 215.065 562.092 215.413 561.171C215.76 560.233 218.887 557.28 219.147 557.02C219.408 556.759 220.103 556.725 220.797 556.568C221.475 556.412 222.1 556.638 222.204 556.742C222.308 556.846 222.638 557.02 222.847 557.02C223.038 557.02 223.194 556.759 223.299 556.707C223.42 556.638 223.351 556.256 223.351 556.134C223.351 556.012 223.212 555.578 223.212 555.578C223.212 555.283 223.559 554.675 223.785 554.449C224.011 554.223 224.236 553.563 224.236 553.303C224.236 553.042 224.393 551.705 224.48 551.41C224.566 551.114 224.705 549.968 224.705 549.968C224.705 549.968 224.48 547.38 224.48 546.39C224.48 545.417 225.018 544.913 225.14 544.792C225.261 544.67 225.661 543.698 225.661 543.698L226.251 541.283C226.251 541.283 226.512 539.581 226.651 539.182C226.772 538.799 226.651 537.948 226.581 537.531C226.512 537.115 226.494 535.76 226.755 535.36C227.016 534.978 227.068 533.328 227.068 532.859C227.068 532.39 227.207 532.164 227.537 531.834C227.884 531.487 227.971 530.584 227.971 530.584C228.058 529.333 228.422 529.159 228.961 528.968C229.499 528.777 229.43 527.77 229.43 527.405C229.43 527.058 229.534 526.554 229.847 526.398C230.159 526.241 230.125 525.39 230.125 524.869C230.125 524.348 230.264 523.949 230.576 523.653C230.872 523.341 231.01 522.611 231.167 521.777C231.323 520.944 232.556 518.581 233.407 517.487C234.259 516.376 234.085 514.76 234.085 514.76C234.085 514.76 234.068 514.552 234.068 514.291C233.338 514.5 232.643 514.812 232.313 515.142C231.705 515.733 229.586 515.82 228.544 515.82C227.502 515.82 223.785 513.579 222.395 513.579C221.023 513.579 217.601 514.17 213.763 515.577C209.924 517.001 207.683 521.222 207.197 521.969C206.711 522.733 203.289 528.083 202.264 530.375C201.222 532.651 205.512 537.236 207.058 539.286C208.621 541.318 207.44 542.916 206.398 543.941C205.373 544.983 204.713 546.702 204.331 548.926C203.949 551.132 197.679 557.263 196.081 558.861C194.465 560.476 194.9 565.427 195.421 567.633C195.942 569.856 193.927 571.471 192.624 572.791C191.304 574.094 190.992 575.553 190.992 576.56C190.992 577.55 189.949 580.26 189.55 580.66C189.15 581.059 186.736 587.903 186.128 588.51C185.52 589.101 184.304 593.825 182.95 596.205C181.595 598.585 178.798 600.356 177.496 601.659C176.175 602.979 177.131 605.723 177.912 606.505C178.677 607.287 179.424 613.47 179.701 615.172C179.979 616.857 179.424 621.009 178.833 622.294C178.242 623.562 176.106 623.249 174.838 623.423C173.553 623.597 165.233 625.09 163.044 625.333C160.856 625.594 160.665 622.954 160.665 622.624C160.665 622.311 160.387 620.383 159.466 618.785C158.546 617.205 156.427 617.309 155.523 617.448C154.62 617.587 153.074 616.822 152.866 616.614Z" fill="#F8B2B4" stroke="#2D2A2B" stroke-width="3.01158" stroke-miterlimit="22.9256"/>
</svg>
