<svg width="23" height="23" viewBox="0 0 23 23" fill="none" xmlns="http://www.w3.org/2000/svg">
<path d="M11.5 2.97412C14.2358 2.97417 16.457 5.16577 16.457 7.85205V7.85303C16.4659 9.81706 15.2224 11.6722 13.9395 13.0562C13.3018 13.744 12.6623 14.3063 12.1826 14.6968C11.9432 14.8917 11.7437 15.0432 11.6045 15.146C11.5646 15.1755 11.5285 15.1999 11.499 15.2212C11.1428 14.9679 10.0545 14.1637 8.9873 13.0044C7.73035 11.6388 6.53398 9.81639 6.54297 7.84912V7.84814C6.5432 5.16528 8.76426 2.97412 11.5 2.97412ZM11.5 5.11572C9.9693 5.11572 8.72363 6.33745 8.72363 7.85205C8.7238 9.3665 9.9694 10.5884 11.5 10.5884C13.0305 10.5883 14.2752 9.36647 14.2754 7.85205C14.2754 6.33749 13.0307 5.11578 11.5 5.11572Z" fill="#FF4242" stroke="black" stroke-width="0.396553"/>
<ellipse cx="11.5" cy="7.73274" rx="2.77586" ry="2.57759" fill="white"/>
</svg>
