<svg viewBox="0 0 349 295" fill="none" xmlns="http://www.w3.org/2000/svg">
<path fill-rule="evenodd" clip-rule="evenodd" d="M138.696 119.734C139.695 118.751 139.285 116.278 139.285 115.557C139.285 114.837 138.466 111.724 138.466 110.447C138.466 109.169 140.088 108.825 140.088 108.825C140.088 108.825 151.488 109.579 152.651 109.579C153.83 109.579 157.45 104.78 158.105 104.124C158.76 103.469 159.907 103.371 161.217 102.061C162.528 100.75 161.217 97.9821 161.217 97.0812C161.217 96.1804 159.776 91.4959 159.776 89.4157C159.776 87.3519 159.006 86.1726 157.335 85.0751C155.665 83.9777 154.272 81.9958 154.272 81.9958C152.012 78.9656 149.424 77.9501 147.459 77.9501C145.477 77.9501 140.907 73.757 138.974 72.3811C137.041 71.0052 129.212 70.2682 126.82 68.4664C125.297 67.3199 124.937 64.4862 124.871 62.6026C124.691 62.5699 124.527 62.5371 124.347 62.5043C122.955 62.144 120.908 61.3742 120.072 61.3742C119.237 61.3742 118.336 61.2923 118.025 61.3742C117.714 61.4561 117.451 61.2923 117.271 61.4561C117.108 61.6362 117.157 62.6354 116.911 62.8647C116.682 63.1104 116.354 63.094 116.354 62.9957C116.354 62.8974 116.501 62.6354 116.501 62.4879C116.501 62.3242 116.665 62.144 116.501 61.9802C116.338 61.8164 116.108 61.8819 116.01 61.9638C115.928 62.0457 115.797 62.3569 115.633 62.3569C115.47 62.3569 115.257 62.3242 115.257 62.144C115.257 61.9638 115.355 61.1448 114.962 61.0466C114.732 60.981 114.47 60.9483 114.29 60.9319C114.143 60.9155 114.045 60.9155 114.028 60.9155C113.946 60.9155 113.635 61.1612 113.897 61.4233C114.159 61.669 114.323 61.8655 114.339 62.013C114.339 62.0293 114.339 62.0293 114.339 62.0293C114.339 62.1931 114.389 62.5535 114.536 62.7009C114.667 62.8319 114.749 63.225 114.618 63.3397C114.487 63.4707 114.225 63.6345 113.946 63.6345C113.668 63.6345 112.325 63.6345 111.751 63.9621C111.178 64.2897 110.212 64.6992 109.851 64.6992C109.507 64.6992 107.476 65.338 107.067 65.469C106.641 65.6 106.051 65.6492 105.904 65.7966C105.757 65.944 105.118 66.4845 104.888 66.4845C104.676 66.4845 103.922 66.6811 103.578 67.025C103.234 67.369 102.776 67.6966 102.464 67.6966C102.153 67.6966 101.547 68.0242 101.269 68.3026C101.007 68.5811 99.0574 70.2518 98.9264 70.3828C98.8117 70.5139 98.2876 70.8578 98.0746 70.8578C97.8617 70.8578 97.3212 70.8578 96.9936 71.038C96.9936 71.038 95.4212 72.3811 94.9789 72.807C94.5531 73.2328 93.1936 73.9863 91.8832 74.363C90.5565 74.7397 89.1479 75.4932 88.2798 75.4932C87.428 75.4932 84.791 76.3285 83.4806 76.3285C82.1702 76.3285 77.584 78.4415 76.6504 78.7854C75.7168 79.1294 74.0952 79.5717 73.784 79.5717C73.4728 79.5717 71.0323 81.1441 70.6064 81.5699C70.1642 82.0122 69.7383 82.8148 69.3616 82.8148C68.9848 82.8148 68.0676 83.732 67.8219 83.9777C67.5762 84.2234 66.9702 85.37 66.4296 85.37C65.8728 85.37 64.7917 85.845 64.5952 86.0251C64.3986 86.2217 61.5158 87.4829 60.5494 87.7941C59.5831 88.1053 56.9624 89.3829 56.2089 90.1364C55.4391 90.9062 54.9477 92.4459 53.5063 93.3467C52.0813 94.264 50.3615 97.2942 48.4287 99.2269C48.4287 99.2269 47.0856 101.373 47.0856 101.848C47.0856 102.339 46.9218 103.78 46.4959 104.19C46.1356 104.55 45.3002 105.811 45.1528 106.942C45.1201 107.138 45.1201 107.318 45.1364 107.482C45.1692 107.777 45.2183 108.088 45.2511 108.449C45.3821 109.628 45.4804 111.053 44.9071 111.774C44.1701 112.691 42.5157 115 42.5157 115.655C42.5157 116.327 41.3037 117.441 40.4519 117.965C39.6002 118.489 38.4536 119.636 38.1752 120.324C37.8967 121.012 37.7821 121.552 37.5528 121.781C37.4217 121.912 37.3562 122.453 37.3398 122.846L49.0511 123.321C49.0511 123.321 54.9968 124.5 55.4718 128.513C55.9632 132.51 56.4874 135.098 58.9279 136.523C61.3848 137.931 64.4641 139.242 66.3969 138.587C68.3297 137.931 70.803 136.523 70.803 137.931C70.803 139.356 73.0142 143.075 75.5694 143.075C78.1245 143.075 80.5487 141.633 83.5134 143.075C86.4944 144.532 86.0686 147.497 86.0686 148.332C86.0686 149.151 85.9375 156.62 88.0832 157.718C90.2125 158.832 92.4238 159.585 93.5376 160.699C94.635 161.796 103.07 164.564 103.758 165.252C104.446 165.94 108.312 166.694 109.901 166.694C111.489 166.694 112.914 167.873 114.257 167.873C115.584 167.873 116.747 169.757 117.239 170.87C117.746 171.968 120.105 177.963 124.871 179.093C129.638 180.223 131.751 183.532 131.751 185.645C131.751 187.774 129.916 189.739 131.194 192.377C132.488 194.997 133.127 197.569 132.488 199.551C131.849 201.533 131.292 203.842 133.864 204.53C136.452 205.218 137.696 204.841 139.285 208.052C140.874 211.246 143.331 212.605 143.855 213.686C144.396 214.767 144.396 216.553 144.396 218.518C144.396 220.5 144.281 221.827 145.526 222.351C146.754 222.859 150.653 223.121 150.653 226.478C150.653 229.836 150.931 231.458 152.52 233.047C154.109 234.635 155.632 236.535 155.796 237.191C155.976 237.846 156.565 238.288 157.63 238.288C158.171 238.288 160.071 238.452 161.84 238.616C161.872 238.501 161.922 238.386 162.003 238.272C162.822 236.912 165.623 235.536 167.54 233.62C169.702 231.474 173.649 224.824 173.649 223.203C173.649 221.581 174.878 218.977 174.878 218.977C174.878 218.977 176.204 216.733 177.711 214.472C179.202 212.212 183.46 211.115 184.607 210.82C185.033 210.705 185.246 210.427 185.328 210.132C185.491 209.608 185.328 209.018 185.328 209.018C185.328 209.018 185.295 208.887 185.229 208.674C185.213 208.625 185.197 208.559 185.18 208.494C185.115 208.232 185.016 207.871 184.902 207.462C184.689 206.725 184.41 205.824 184.148 205.021C184.148 205.005 184.132 204.989 184.132 204.972C183.526 203.187 181.986 202.434 179.136 201.369C176.27 200.321 175.402 197.258 175.402 197.258L172.093 190.346C172.093 190.346 170.242 185.415 170.013 183.532C169.784 181.648 170.93 178.88 170.93 178.192C170.93 177.504 175.025 173.589 175.025 173.589C175.025 173.589 174.714 171.607 174.386 171.28C174.059 170.969 173.207 170.838 172.83 170.461C172.437 170.068 172.159 167.087 172.159 166.743C172.159 166.399 171.618 166.219 171.258 165.842C170.881 165.482 170.472 164.237 170.193 163.549C169.915 162.861 169.145 162.763 168.588 162.206C168.031 161.665 166.786 160.42 166.786 159.454C166.786 158.488 164.903 156.833 163.527 155.441C162.134 154.065 159.89 155.769 158.597 156.326C157.303 156.866 154.96 157.194 153.617 157.194C152.29 157.194 149.703 155.949 148.196 155.163C146.672 154.393 145.051 154.344 145.28 152.722C145.526 151.117 145.28 149.004 144.92 148.07C144.559 147.153 144.92 146.007 145.788 144.581C146.672 143.156 145.427 143.288 144.363 143.009C143.315 142.731 143.2 142.731 143.2 142.321C143.2 141.912 143.2 140.372 142.774 139.946C142.365 139.537 141.791 138.963 141.283 137.538C140.776 136.097 138.876 133.82 137.991 132.936C137.107 132.035 137.991 130.921 139.252 129.66C140.53 128.399 140.546 127.858 140.546 126.761C140.546 125.647 138.843 125.86 137.844 125.86C136.861 125.86 135.78 125.385 135.436 125.024C135.092 124.681 135.108 124.287 135.6 123.796C136.091 123.288 137.713 120.717 138.696 119.734Z" fill="#FDEF95" stroke="#2D2A2B" stroke-width="3.02515" stroke-miterlimit="22.9256"/>
<path fill-rule="evenodd" clip-rule="evenodd" d="M114.258 167.873C112.915 167.873 111.49 166.694 109.902 166.694C108.313 166.694 104.447 165.94 103.759 165.252C103.071 164.564 94.636 161.796 93.5385 160.699C92.4247 159.585 90.2135 158.831 88.0842 157.718C85.9385 156.62 86.0695 149.151 86.0695 148.332C86.0695 147.497 86.4954 144.532 83.5143 143.075C80.5497 141.633 78.1255 143.075 75.5703 143.075C73.0151 143.075 70.8039 139.356 70.8039 137.931C70.8039 136.523 68.3306 137.931 66.3979 138.587C64.4651 139.242 61.3858 137.931 58.9289 136.523C56.4883 135.098 55.9642 132.51 55.4728 128.513C54.9978 124.5 49.0521 123.321 49.0521 123.321L37.3408 122.846C37.3244 123.075 37.3244 123.255 37.3244 123.255C37.3244 123.255 36.3089 123.665 35.8994 124.091C35.49 124.5 34.5563 125.434 34.2451 125.745C33.9339 126.056 32.5089 128.431 32.0994 128.857C31.6899 129.267 31.346 131.609 31.346 132.313C31.346 133.001 31.0348 134.164 30.3796 135.18C29.7244 136.179 27.5459 139.324 27.1201 140.667C26.7106 142.01 26.383 145.106 25.5313 145.941C24.6959 146.793 23.9097 148.529 23.6804 149.053C23.4347 149.577 22.4683 150.986 21.7476 150.986C21.0106 150.986 18.9468 151.199 18.6356 151.199C18.3243 151.199 17.4562 151.985 17.0795 151.608C16.7028 151.231 16.2114 150.92 15.8019 150.92C15.3924 150.92 14.6226 151.019 14.9502 151.346C15.2778 151.674 16.2769 152.738 16.4571 153.197C16.4735 153.246 16.5062 153.312 16.539 153.361L16.9157 153.475L17.4399 153.639C17.4399 153.639 20.2244 155.506 21.0597 156.342C21.8787 157.161 25.9899 158.963 28.3158 160.699C30.658 162.435 35.1951 162.075 36.6365 162.435C38.0615 162.795 38.4546 163.598 39.9288 165.072C41.3865 166.53 44.1055 169.134 45.3012 171.345C46.4969 173.557 46.0874 176.914 46.0874 177.864C46.0874 178.814 45.596 182.827 44.646 185.333C43.696 187.856 41.2391 183.777 39.5684 181.451C37.8813 179.126 31.1822 182.172 29.3968 182.172C27.5951 182.172 22.9106 184.957 21.8623 186.005C20.814 187.037 20.8959 189.887 21.4364 193.228C21.7476 195.112 21.977 198.208 22.108 200.583C22.1407 201.107 22.1735 201.598 22.1899 202.04C22.2882 202.073 22.3537 202.089 22.3537 202.089C22.3537 202.089 25.2528 201.074 26.5468 200.796C27.4477 200.599 28.7908 200.615 29.3477 201.205C29.577 201.451 29.6753 201.778 29.5606 202.253C29.3149 203.236 28.5287 205.349 28.3977 207.085C28.3158 208.133 28.4796 209.067 29.1675 209.493C30.9529 210.656 36.0796 216.356 36.0796 216.356C36.0796 216.356 37.177 217.699 38.3236 217.699C39.4865 217.699 40.4857 218.338 40.4857 218.846C40.4857 219.353 40.8296 221.745 42.7788 223.678C44.7116 225.61 47.6107 227.346 49.3305 228.247C51.0668 229.132 53.6875 230.377 55.1289 230.377C56.5866 230.377 60.5832 231.065 61.353 231.834C62.0246 232.506 64.3177 234.259 64.8418 235.749C64.9074 235.946 64.9401 236.142 64.9401 236.322C64.9401 237.911 64.9729 240.155 63.6953 241.433C62.4177 242.71 60.8616 244.741 60.3866 246.756C60.1082 247.886 59.7642 249.18 59.7315 250.474C59.6987 251.473 59.8297 252.456 60.3211 253.373C60.9435 254.618 61.828 255.699 62.2539 256.6C62.5651 257.272 62.6306 257.829 62.172 258.287C61.222 259.237 59.3711 261.94 58.9944 263.529C58.9616 263.709 58.9289 263.873 58.9289 264.02C58.9289 265.461 60.0427 266.575 60.9763 267.509C61.9099 268.442 66.8729 270.457 70.5582 269.442C74.2436 268.442 82.2531 265.773 84.7428 266.231C87.2325 266.69 91.1799 267.607 92.9325 266.69C94.6851 265.773 99.4679 264.839 101.139 264.839C102.793 264.839 105.823 264.937 106.658 266.592C107.494 268.246 107.215 272.128 109.427 273.045C111.638 273.962 116.699 280.072 117.158 280.53C117.534 280.907 118.746 282.807 119.123 284.314C119.189 284.592 119.221 284.838 119.221 285.084C119.221 286.165 119.156 289.408 119.123 291.226C119.107 291.963 119.09 292.471 119.09 292.471C119.09 292.471 119.221 293.159 120.974 293.159C122.727 293.159 128.951 293.257 130.146 292.88C131.342 292.52 133.701 290.145 134.405 289.457C134.831 289.031 136.289 287.443 137.321 286.329C137.714 285.297 138.254 284.085 138.795 283.544C139.827 282.496 144.593 275.436 144.593 275.109C144.593 274.798 146.952 272.767 148.786 271.522C150.637 270.277 156.632 265.019 158.188 263.463C159.728 261.907 160.35 260.007 161.087 258.598C161.66 257.452 161.464 255.126 161.366 254.012C161.349 253.75 161.316 253.537 161.316 253.455C161.316 252.964 160.088 250.785 160.088 249.344C160.088 249.197 160.088 249.033 160.121 248.869C160.366 247.477 161.546 245.757 162.185 245.135C162.889 244.414 162.594 243.235 162.594 242.088C162.594 241.875 162.578 241.646 162.529 241.384C162.332 240.237 161.775 238.812 161.775 238.812C161.791 238.747 161.808 238.681 161.841 238.616C160.072 238.452 158.172 238.288 157.631 238.288C156.566 238.288 155.977 237.846 155.797 237.191C155.633 236.535 154.11 234.635 152.521 233.047C150.932 231.458 150.654 229.836 150.654 226.478C150.654 223.121 146.755 222.859 145.527 222.351C144.282 221.827 144.397 220.5 144.397 218.518C144.397 216.552 144.397 214.767 143.856 213.686C143.332 212.605 140.875 211.246 139.286 208.052C137.697 204.841 136.453 205.218 133.865 204.53C131.293 203.842 131.85 201.533 132.489 199.551C133.128 197.569 132.489 194.997 131.195 192.376C129.917 189.739 131.752 187.774 131.752 185.645C131.752 183.532 129.639 180.223 124.872 179.093C120.106 177.963 117.747 171.968 117.24 170.87C116.748 169.757 115.585 167.873 114.258 167.873Z" fill="#FDEF95" stroke="#2D2A2B" stroke-width="3.02515" stroke-miterlimit="22.9256"/>
<path fill-rule="evenodd" clip-rule="evenodd" d="M163.527 155.441C164.903 156.833 166.787 158.488 166.787 159.454C166.787 160.42 168.032 161.665 168.589 162.206C169.146 162.763 169.915 162.861 170.194 163.549C170.472 164.237 170.882 165.482 171.259 165.842C171.619 166.219 172.159 166.399 172.159 166.743C172.159 167.087 172.438 170.068 172.831 170.461C173.208 170.838 174.059 170.969 174.387 171.28C174.715 171.607 175.026 173.589 175.026 173.589C175.026 173.589 170.931 177.504 170.931 178.192C170.931 178.88 169.784 181.648 170.014 183.532C170.243 185.415 172.094 190.346 172.094 190.346L175.403 197.258C175.403 197.258 176.271 200.321 179.137 201.369C181.987 202.434 183.527 203.187 184.133 204.972C184.133 204.989 184.149 205.005 184.149 205.021C184.411 205.824 184.69 206.725 184.903 207.462C185.017 207.871 185.115 208.232 185.181 208.494C185.197 208.559 185.214 208.625 185.23 208.674C185.296 208.887 185.328 209.018 185.328 209.018C185.328 209.018 185.492 209.608 185.328 210.132C187.638 210.034 191.094 209.69 193.616 208.559C197.76 206.692 201.216 205.939 202.379 204.137C203.559 202.335 209.013 198.191 212.125 197.503C215.237 196.815 222.198 193.916 222.198 192.049C222.198 190.395 222.69 188.757 222.379 187.152C222.329 186.939 222.28 186.742 222.198 186.529C221.691 185.055 221.134 185.055 221.347 183.417C221.363 183.302 221.379 183.155 221.396 183.008C221.445 182.745 221.511 182.451 221.592 182.107C221.969 180.403 221.904 179.388 221.773 178.634C221.658 178.045 221.511 177.619 221.511 177.127C221.511 176.898 221.494 176.636 221.494 176.341C221.478 175.244 221.642 173.851 223.722 172.918C226.342 171.739 229.946 170.428 230.699 168.839C231.453 167.251 232.845 165.809 234.909 165.809C236.989 165.809 239.577 165.236 243.131 163.647C246.686 162.042 249.896 159.913 251.059 158.766C252.206 157.603 254.466 155.9 257.037 154.245C259.609 152.591 261.083 149.954 261.083 149.954C261.083 149.954 266.062 151.363 267.16 150.658C268.274 149.954 274.203 146.17 276.562 142.731C278.92 139.291 279.559 135.606 282.638 134.868C285.718 134.131 288.813 135.229 290.058 134.672C290.124 134.656 290.206 134.606 290.271 134.557L294.546 131.56C294.563 131.543 294.595 131.511 294.612 131.494C295.169 130.954 298.314 127.956 298.314 125.614C298.314 125.156 298.281 124.73 298.215 124.32C297.92 122.6 297.052 121.274 296.07 120.635C295.169 120.029 294.792 119.079 295.038 118.08C295.103 117.736 295.251 117.408 295.447 117.08C296.282 115.737 299.214 113.068 301.606 113.068C303.981 113.068 311.433 112.691 312.957 111.905C314.349 111.168 320.377 109.857 324.602 109.628C325.225 109.186 325.765 108.874 326.011 108.612C326.633 107.99 328.91 108.612 329.598 108.612C330.302 108.612 332.268 107.236 333.054 107.236C333.84 107.236 334.299 107.236 334.709 107.236C335.134 107.236 335.79 106.843 336.003 106.63C336.215 106.434 336.232 105.779 336.232 105.779C336.232 105.779 336.903 105.238 337.296 105.631C337.69 106.008 337.853 105.631 338.427 105.042C339 104.468 341.293 102.175 341.49 101.979C341.67 101.798 344.356 100.259 344.798 99.8166C345.24 99.3907 346.354 98.8011 346.797 98.3424C347.255 97.9002 346.797 97.0321 346.797 97.0321C346.797 97.0321 346.747 96.9829 346.682 96.9174C346.518 96.7536 346.256 96.4916 346.043 96.2786C345.715 95.951 345.634 95.1648 345.634 94.5752C345.634 93.9691 345.24 94.1821 344.815 93.7726C344.405 93.3467 344.176 94.4114 343.881 94.7062C343.586 95.0174 343.373 95.5416 342.587 95.5416C341.801 95.5416 342.178 95.1321 341.948 94.9028C341.719 94.6571 341.719 93.789 341.293 93.3795C340.884 92.9536 338.099 91.6269 337.542 91.6269C337.002 91.6269 335.921 92.3148 335.544 92.6916C335.167 93.0847 332.121 93.0355 331.22 93.0355C330.335 93.0355 327.813 92.3803 327.043 91.9381C326.29 91.4959 325.127 89.4321 324.553 88.8588C323.996 88.2855 323.833 87.4501 323.833 87.1717C323.833 87.0079 323.833 86.6476 323.833 86.2872C323.833 86.0251 323.833 85.7631 323.833 85.5665C323.833 85.3536 323.783 85.1406 323.718 84.9605C323.652 84.7803 323.554 84.6165 323.456 84.5182C323.341 84.4036 323.505 84.076 323.685 83.732C323.833 83.4863 323.98 83.2243 324.062 83.0441C324.242 82.6674 324.111 82.307 323.751 81.9958C323.685 81.9467 323.603 81.8975 323.521 81.8484C323.046 81.5536 323.128 81.3242 323.915 80.8329C324.013 80.7673 324.111 80.7018 324.242 80.6199C324.914 80.2104 324.39 79.7355 323.8 79.3587C323.456 79.1458 323.079 78.982 322.899 78.9001C322.44 78.6544 322.342 78.1139 322.342 77.8354C322.342 77.557 322.342 76.869 322.08 76.6234C321.834 76.3613 321.589 76.2303 321.228 76.2303C320.852 76.2303 320.933 75.8044 320.786 75.657C320.639 75.5096 320 75.657 319.803 75.4604C319.607 75.2639 319.541 75.2147 319.983 74.9854C320.36 74.7725 320.246 74.4613 320.098 74.1173C320.082 74.0682 320.049 74.019 320.033 73.9699C319.951 73.8061 319.934 73.6423 319.918 73.4949C319.902 73.282 319.902 73.069 319.738 72.9216C319.476 72.6595 319.541 72.7251 319.459 71.5785C319.443 71.4311 319.443 71.3164 319.443 71.2018C319.508 70.3501 320.016 70.088 320.327 69.7768C320.671 69.4328 320.688 68.6302 320.508 67.9423C320.491 67.8604 320.491 67.7949 320.491 67.7457C320.491 67.6966 320.491 67.6475 320.508 67.6147C320.639 67.1069 321.359 66.763 321.638 66.4845C321.965 66.1569 322.162 65.3871 322.047 64.5354C322.031 64.3552 321.998 64.175 321.949 64.0112C321.802 63.4052 321.572 62.9466 321.408 62.7828C321.196 62.5698 319.59 63.1104 319.164 63.1104C318.739 63.1104 318.853 62.7991 318.853 62.619C318.853 62.4388 319.983 61.931 320.377 61.7836C320.606 61.7017 320.688 61.5052 320.753 61.3086C320.802 61.1776 320.852 61.0629 320.917 60.981C321.13 60.7845 321.523 59.8509 321.523 59.556C321.523 59.2612 321.851 58.2948 321.654 57.6724C321.638 57.5741 321.589 57.525 321.523 57.5086C321.097 57.3776 320.016 58.3112 319.492 58.4914C318.87 58.6879 318.755 59.2121 318.002 59.5724C317.248 59.9491 315.79 60.1948 314.414 60.4405C313.022 60.6862 311.45 60.6371 310.811 60.4405C310.172 60.2603 307.371 59.1138 306.454 58.95C305.537 58.7698 304.669 59.556 304.112 59.7526C303.555 59.9491 302.392 59.7526 301.982 59.5888C301.573 59.4414 296.561 58.0983 296.02 58.0327C295.496 57.9672 293.318 58.0983 292.99 58.0983C292.663 58.0983 292.564 58.5241 292.515 58.8026C292.45 59.0646 292.515 59.3759 292.138 59.7526C291.778 60.1129 291.205 60.2276 290.713 60.1129C290.222 59.9983 290.026 57.8034 290.042 57.4431C290.042 57.4267 290.058 57.394 290.075 57.3612C290.255 57.0172 291.221 56.6077 291.451 56.4931C291.696 56.362 292.204 56.2474 292.138 55.7888C292.073 55.3465 290.402 55.9689 290.189 55.9689C290.14 55.9689 290.058 55.9853 289.944 56.0017C289.501 56.0836 288.584 56.2965 287.765 56.231C286.717 56.1655 285.685 55.1664 285.685 55.1664L283.081 60.2276C283.081 60.2276 282.082 62.4388 278.937 62.7173C275.808 62.9957 271.255 62.8647 271.255 62.8647C271.255 62.8647 268.929 63.0776 268.929 64.6336C268.929 66.1897 269.584 70.8742 269.994 71.7423C270.419 72.594 273.351 75.6078 273.351 76.2303C273.351 76.8527 273.679 78.3432 272.729 79.2932C271.779 80.2432 267.307 82.9949 266.685 83.2079C266.062 83.4044 263.098 83.3389 262.41 82.9622C261.706 82.5855 261.394 81.9958 260.166 81.3079C258.921 80.6036 256.022 79.8173 254.761 79.6044C253.499 79.4079 251.206 79.2277 249.765 79.0147C248.307 78.8182 245.932 77.1147 245.392 75.9027C244.868 74.6742 244.065 73.5932 242.886 73.0854C241.723 72.5613 239.954 71.9716 238.578 71.0052C237.186 70.0388 236.645 69.2854 236.645 67.3854C236.645 65.4854 236.809 62.3733 235.433 61.3741C234.057 60.375 231.224 57.9181 231.224 56.6405C231.224 55.3629 231.633 54.806 232.976 54.2327C234.319 53.6431 237.677 51.8413 238.332 51.8413C238.987 51.8413 244.72 50.0068 246.063 49.2862C247.423 48.5655 251.911 46.0758 252.943 44.7654C253.974 43.4551 254.761 41.7352 254.761 41.7352C254.761 41.7352 253.336 40.7689 253.123 40.5559C252.91 40.3594 252.271 40.5396 252.14 40.6706C251.993 40.818 251.649 41.1456 251.485 40.9818C251.321 40.818 249.192 38.312 249.192 38.312C249.192 38.312 248.93 37.5421 249.175 36.9525C249.224 36.8214 249.29 36.7068 249.388 36.6085C249.978 36.0352 250.518 35.724 250.961 35.2981C251.403 34.8559 252.582 34.0369 252.091 33.5456C251.927 33.3818 251.763 33.2343 251.649 33.1033C251.403 32.8412 251.321 32.5955 251.698 32.2352C251.763 32.1697 251.829 32.0878 251.911 32.0059C252.549 31.3835 253.614 30.3024 253.614 30.3024C253.614 30.3024 254.253 29.6473 254.253 29.336C254.253 29.0576 254.171 28.5662 253.745 28.599C253.647 28.599 253.549 28.6317 253.418 28.6809C252.713 29.0085 251.026 31.0395 251.026 31.0395C251.026 31.0395 250.24 31.8093 249.863 31.8093C249.47 31.8093 248.848 31.8912 248.586 32.1369C248.34 32.3826 247.439 33.6766 247.243 33.48C247.046 33.2835 246.571 33.0542 246.571 33.0542C246.571 33.0542 246.194 33.824 245.719 33.6111C245.228 33.3981 242.673 32.1861 242.673 32.1861L241.919 31.8912L238.463 28.124C238.463 28.124 238.349 27.2559 238.414 26.7317C238.447 26.5679 238.48 26.4369 238.545 26.3714C238.807 26.1093 239.872 25.2084 239.593 24.93C239.315 24.6515 239.151 24.7334 238.971 24.5533C238.955 24.5205 238.938 24.4877 238.922 24.455C238.791 24.1438 238.807 23.3248 238.643 23.4886C238.463 23.6688 237.431 24.4714 237.071 24.4714C236.711 24.4714 234.942 23.4395 234.205 22.2274C233.467 21.0153 233.336 20.4584 233.336 19.8688C233.336 19.7377 233.353 19.5412 233.369 19.2955C233.451 18.4601 233.582 17.1825 233.484 16.7894C233.451 16.7075 233.435 16.5601 233.402 16.3963C233.238 15.6429 233.025 14.2342 232.894 13.9394C232.73 13.5791 230.88 11.7282 230.486 11.3351C230.093 10.9256 227.473 8.64887 226.506 8.19024C225.54 7.73162 224.115 7.09282 223.558 6.53592C223.017 5.97902 222.149 4.68505 221.92 4.43936C221.674 4.21005 221.625 3.96436 220.806 3.96436C220.004 3.96436 218.873 4.58678 218.562 4.27557C218.251 3.96436 216.777 2.8997 216.466 2.78504C216.154 2.68677 215.581 2.68677 215.237 2.68677C214.877 2.68677 213.91 2.7359 213.681 2.8178C213.435 2.91608 213.157 2.99797 213.157 3.34194C213.157 3.68591 213.124 4.06264 212.944 4.06264C212.78 4.06264 211.241 4.50488 210.766 4.37384C210.274 4.25919 209.291 4.11177 208.866 4.25919C208.423 4.39022 208.014 4.63591 207.539 4.63591C207.08 4.63591 206.556 4.55402 206.065 4.25919C205.557 3.96436 204.394 2.67039 204.394 2.47383C204.394 2.27728 204.001 1.83504 203.641 2.06435C203.297 2.27728 202.985 2.8997 202.756 3.03073C202.756 3.03073 202.74 3.03073 202.74 3.04711C202.543 3.11263 202.314 3.47298 202.429 3.73505C202.445 3.78419 202.478 3.81694 202.51 3.86608C202.772 4.12815 203.084 4.8816 202.772 5.02902C202.478 5.17643 201.855 5.89713 201.462 5.9954C201.069 6.11006 200.479 6.42127 200.037 6.42127C199.595 6.42127 199.022 6.35575 198.776 6.58506C198.547 6.81437 198.301 7.14196 198.022 7.14196C197.76 7.14196 196.778 6.58506 196.63 6.27385C196.466 5.96265 196.253 5.4385 195.991 5.50402C195.746 5.55316 195.287 5.79885 195.287 6.02816C195.287 6.25747 195.615 7.01093 194.992 7.40403C194.37 7.79714 193.616 8.64887 193.272 8.73076C192.912 8.82904 191.798 9.09111 191.585 9.18939C191.389 9.27128 190.717 10.1558 189.734 10.5653C188.735 10.9584 186.901 12.023 186.54 12.2032C186.164 12.367 185.967 12.8748 185.967 13.1532C185.967 13.4317 186.508 14.0541 185.967 14.267C185.41 14.4963 185.017 15.1187 185.017 15.5282C185.017 15.9541 184.772 16.4946 184.526 16.7403C184.28 16.986 182.347 18.2963 181.758 18.3946C181.152 18.5093 180.333 18.28 180.005 18.0998C179.678 17.936 178.711 17.8213 178.4 18.1325C178.089 18.4437 177.303 19.4265 177.188 20.2455C177.09 21.0644 176.86 21.4739 176.484 22.08C176.107 22.686 175.943 23.3903 176.107 23.7343C176.254 24.0783 176.172 24.9627 175.648 25.2084C175.14 25.4377 174.796 25.8636 174.665 26.486C174.551 27.1084 175.091 28.386 174.01 29.0576C172.946 29.7292 171.734 30.5809 171.586 31.0886C171.422 31.5964 171.209 32.6938 170.751 32.8904C170.292 33.0705 169.686 34.1188 169.522 34.4464C169.375 34.774 168.9 35.5438 168.703 35.7568C168.572 35.8714 168.081 36.2481 167.737 36.6413C167.524 36.8706 167.377 37.1163 167.409 37.2964C167.409 37.3456 167.442 37.3947 167.475 37.4275C167.901 37.8533 168.065 38.5904 167.409 38.787C166.754 38.9835 165.739 38.9671 165.296 39.1637C165.018 39.2783 164.658 39.6223 164.428 39.9499C164.314 40.1301 164.232 40.3102 164.232 40.4413C164.232 40.8344 164.183 41.4896 164.887 41.4896C165.575 41.4896 167.573 41.7844 167.802 42.0137C168.032 42.243 168.327 43.0456 169.047 43.2585C169.768 43.4715 173.781 44.4706 174.665 45.3551C175.55 46.2396 178.121 48.6474 178.482 49.6956C178.76 50.5146 179.743 54.7077 180.202 56.8207C180.333 57.4758 180.415 57.9345 180.415 58.0164C180.415 58.3767 179.055 59.4414 179.055 59.4414C179.055 59.4414 177.548 54.2164 176.991 53.25C176.434 52.2836 175.222 50.5965 174.534 50.1379C173.83 49.6793 173.159 48.4999 172.569 48.156C171.979 47.8284 170.685 47.9267 169.997 47.5663C169.293 47.1896 167.704 45.306 167.409 45.306C167.115 45.306 165.329 46.5672 164.789 47.1077C164.248 47.6482 161.857 51.3991 160.432 52.1362C159.007 52.8732 154.961 55.4776 152.864 56.1983C150.768 56.9026 145.019 59.7853 143.332 60.0638C141.645 60.3422 138.156 61.0466 135.682 60.9647C133.226 60.8664 131.571 60.9155 130.965 61.5052C130.359 62.1112 129.163 62.9466 128.361 62.8647C127.657 62.7828 126.166 62.8319 124.872 62.6026C124.938 64.4862 125.298 67.3199 126.821 68.4664C129.213 70.2682 137.042 71.0052 138.975 72.3811C140.908 73.757 145.477 77.9501 147.459 77.9501C149.425 77.9501 152.013 78.9656 154.273 81.9958C154.273 81.9958 155.665 83.9777 157.336 85.0751C159.007 86.1725 159.777 87.3519 159.777 89.4157C159.777 91.4959 161.218 96.1804 161.218 97.0812C161.218 97.9821 162.528 100.75 161.218 102.061C159.908 103.371 158.761 103.469 158.106 104.124C157.451 104.78 153.831 109.579 152.652 109.579C151.489 109.579 140.089 108.825 140.089 108.825C140.089 108.825 138.467 109.169 138.467 110.447C138.467 111.724 139.286 114.836 139.286 115.557C139.286 116.278 139.695 118.751 138.696 119.734C137.714 120.717 136.092 123.288 135.601 123.796C135.109 124.287 135.093 124.681 135.437 125.024C135.781 125.385 136.862 125.86 137.845 125.86C138.844 125.86 140.547 125.647 140.547 126.761C140.547 127.858 140.531 128.399 139.253 129.66C137.992 130.921 137.107 132.035 137.992 132.936C138.876 133.82 140.776 136.097 141.284 137.538C141.792 138.963 142.365 139.537 142.775 139.946C143.201 140.372 143.201 141.912 143.201 142.321C143.201 142.731 143.315 142.731 144.364 143.009C145.428 143.288 146.673 143.156 145.789 144.581C144.92 146.006 144.56 147.153 144.92 148.07C145.281 149.004 145.526 151.117 145.281 152.722C145.051 154.344 146.673 154.393 148.196 155.163C149.703 155.949 152.291 157.194 153.618 157.194C154.961 157.194 157.303 156.866 158.597 156.326C159.891 155.769 162.135 154.065 163.527 155.441ZM205.426 108.023C204.394 107.859 203.051 106.794 203.051 106.532C203.051 106.27 202.51 106.417 202.183 106.745C201.855 107.073 201.528 106.958 201.528 106.172C201.528 105.369 201.626 101.946 200.791 100.701C199.972 99.4726 197.924 96.7045 196.909 96.4097C195.893 96.1148 193.633 95.7545 192.928 96.4588C192.208 97.1631 190.259 99.7511 189.505 98.4571C188.735 97.1631 187.703 92.5278 187.703 91.4959C187.703 90.4476 187.458 88.5476 188.293 87.7286C189.128 86.8932 191.127 85.6812 191.569 84.2725C192.028 82.8475 192.404 81.226 192.028 78.851C191.651 76.4596 190.406 74.5596 190.16 73.4621C189.915 72.3647 189.849 70.6613 188.948 70.219C188.047 69.7604 184.182 68.2207 183.805 67.8276C183.428 67.4509 179.596 66.5173 179.219 65.6983C178.826 64.863 178.629 63.7164 178.629 63.7164C178.629 63.3724 181.594 58.2621 181.594 58.2621L182.282 54.806L185.296 51.8086C185.296 51.8086 185.672 48.4672 186.491 48.4672C187.327 48.4672 187.327 48.4672 188.506 48.4672C189.669 48.4672 197.891 43.3568 197.891 43.3568C197.891 43.3568 202.445 40.5887 202.936 40.0973C203.428 39.6223 204.214 37.3783 204.804 36.7887C205.393 36.199 206.802 37.0016 207.359 36.4447C207.916 35.8878 208.456 32.7102 209.013 32.7102C209.57 32.7102 214.189 32.4318 214.877 34.0861C215.581 35.7568 216.122 42.243 216.613 43.4223C217.088 44.5853 218.48 49.843 219.103 51.0879C219.725 52.3327 222.788 54.331 222.788 55.3957C222.788 56.4767 223.525 66.3862 223.525 66.3862C223.525 66.3862 223.427 68.0897 225.917 68.794C228.406 69.4819 230.011 70.0716 229.504 71.8733C228.996 73.6751 229.602 75.3785 229.602 76.3449C229.602 77.3113 230.601 79.8829 229.88 80.1613C229.143 80.4398 227.62 80.8001 227.62 82.651C227.62 84.4855 228.881 86.6312 229.782 87.532C230.683 88.4329 233.566 90.2838 234.745 90.7915C235.908 91.3157 236.956 91.4959 238.234 91.4959C239.511 91.4959 239.872 91.8562 240.15 92.1347C240.429 92.3967 240.642 93.3795 239.79 93.7398C238.922 94.0838 238.512 93.2812 237.775 93.2812C237.055 93.2812 236.285 94.0674 235.744 94.5916C235.204 95.1321 233.877 95.2795 233.435 95.2795C232.976 95.2795 224.934 96.3278 224.934 96.3278C224.934 96.3278 223.476 97.7692 223.689 98.5062C223.902 99.2269 226.179 102.192 225.9 103.224C225.622 104.272 224.377 107.892 224.377 108.514C224.377 109.136 224.213 109.349 225.933 110.005C227.669 110.66 229.111 111.282 227.669 112.134C226.211 113.002 223.689 114.968 222.067 114.493C220.446 114.001 218.89 113.28 217.612 113.28C216.335 113.28 209.259 111.855 207.67 110.267C206.081 108.678 206.458 108.203 205.426 108.023Z" fill="#FDEF95" stroke="#2D2A2B" stroke-width="3.02515" stroke-miterlimit="22.9256"/>
<path fill-rule="evenodd" clip-rule="evenodd" d="M196.908 96.4098C197.924 96.7046 199.971 99.4727 200.79 100.701C201.626 101.946 201.527 105.369 201.527 106.172C201.527 106.958 201.855 107.073 202.182 106.745C202.51 106.418 203.051 106.27 203.051 106.532C203.051 106.794 204.394 107.859 205.426 108.023C206.458 108.203 206.081 108.678 207.67 110.267C209.258 111.856 216.334 113.281 217.612 113.281C218.889 113.281 220.446 114.001 222.067 114.493C223.689 114.968 226.211 113.002 227.669 112.134C229.11 111.282 227.669 110.66 225.933 110.005C224.213 109.349 224.377 109.137 224.377 108.514C224.377 107.892 225.621 104.272 225.9 103.224C226.178 102.192 223.902 99.227 223.689 98.5063C223.476 97.7692 224.933 96.3279 224.933 96.3279C224.933 96.3279 232.976 95.2796 233.434 95.2796C233.877 95.2796 235.203 95.1322 235.744 94.5916C236.284 94.0675 237.054 93.2813 237.775 93.2813C238.512 93.2813 238.921 94.0839 239.79 93.7399C240.641 93.3796 240.428 92.3968 240.15 92.1347C239.871 91.8563 239.511 91.4959 238.234 91.4959C236.956 91.4959 235.908 91.3158 234.745 90.7916C233.565 90.2839 230.683 88.433 229.782 87.5321C228.881 86.6313 227.62 84.4856 227.62 82.6511C227.62 80.8002 229.143 80.4398 229.88 80.1614C230.601 79.8829 229.602 77.3114 229.602 76.345C229.602 75.3786 228.996 73.6752 229.503 71.8734C230.011 70.0717 228.406 69.482 225.916 68.7941C223.427 68.0898 223.525 66.3863 223.525 66.3863C223.525 66.3863 222.788 56.4768 222.788 55.3958C222.788 54.3311 219.725 52.3328 219.102 51.088C218.48 49.8431 217.088 44.5854 216.613 43.4224C216.121 42.2431 215.581 35.7569 214.877 34.0862C214.189 32.4318 209.57 32.7103 209.013 32.7103C208.456 32.7103 207.915 35.8879 207.358 36.4448C206.801 37.0017 205.393 36.1991 204.803 36.7888C204.214 37.3784 203.427 39.6224 202.936 40.0974C202.445 40.5888 197.891 43.3569 197.891 43.3569C197.891 43.3569 189.669 48.4673 188.506 48.4673C187.326 48.4673 187.326 48.4673 186.491 48.4673C185.672 48.4673 185.295 51.8087 185.295 51.8087L182.282 54.8061L181.594 58.2621C181.594 58.2621 178.629 63.3725 178.629 63.7165C178.629 63.7165 178.825 64.863 179.219 65.6984C179.595 66.5174 183.428 67.451 183.805 67.8277C184.182 68.2208 188.047 69.7605 188.948 70.2191C189.849 70.6613 189.914 72.3648 190.16 73.4622C190.406 74.5596 191.651 76.4597 192.027 78.851C192.404 81.2261 192.027 82.8476 191.569 84.2726C191.126 85.6813 189.128 86.8933 188.293 87.7287C187.457 88.5476 187.703 90.4477 187.703 91.4959C187.703 92.5278 188.735 97.1632 189.505 98.4572C190.258 99.7512 192.207 97.1632 192.928 96.4589C193.632 95.7546 195.893 96.1149 196.908 96.4098Z" fill="#FDEF95" stroke="#2D2A2B" stroke-width="3.02515" stroke-miterlimit="22.9256"/>
<path fill-rule="evenodd" clip-rule="evenodd" d="M238.577 71.0053C239.953 71.9717 241.722 72.5614 242.885 73.0855C244.064 73.5933 244.867 74.6743 245.391 75.9028C245.931 77.1148 248.306 78.8183 249.764 79.0149C251.206 79.2278 253.499 79.408 254.76 79.6045C256.021 79.8174 258.92 80.6037 260.165 81.308C261.394 81.9959 261.705 82.5856 262.409 82.9623C263.097 83.339 266.062 83.4045 266.684 83.208C267.306 82.9951 271.778 80.2433 272.728 79.2933C273.678 78.3433 273.35 76.8528 273.35 76.2304C273.35 75.6079 270.419 72.5941 269.993 71.7424C269.583 70.8743 268.928 66.1898 268.928 64.6337C268.928 63.0777 271.254 62.8648 271.254 62.8648C271.254 62.8648 275.807 62.9958 278.936 62.7174C282.081 62.4389 283.08 60.2277 283.08 60.2277L285.684 55.1665C285.684 55.1665 285.602 55.0846 285.455 54.9371C285.291 54.7734 284.963 54.2492 284.963 54.0199C284.963 53.9216 285.111 53.6759 285.291 53.3975C285.504 53.0863 285.782 52.7259 285.946 52.5458C286.274 52.2182 285.782 51.8906 285.52 51.8906C285.471 51.8906 285.357 51.8906 285.226 51.8906C284.652 51.8578 283.555 51.7759 283.375 51.7759C283.178 51.7759 282.621 51.6121 282.343 51.6121C282.064 51.6121 281.458 51.7595 281.327 51.7595C281.18 51.7595 281.163 51.907 281.163 52.038C281.163 52.1526 281.049 52.382 280.688 52.3164C280.312 52.2509 280.115 51.7595 280.115 51.5957C280.115 51.4483 279.509 50.9897 279.509 50.9897C279.509 50.9897 276.839 49.9087 276.102 49.5647C275.365 49.2207 275.906 48.975 275.906 48.975C275.906 48.975 276.463 48.6475 276.659 48.4345C276.675 48.4345 276.692 48.4181 276.692 48.4018C276.839 48.2052 276.594 47.8612 276.446 47.7138C276.315 47.5828 275.906 47.6811 275.611 47.7138C275.562 47.7138 275.496 47.7138 275.463 47.7138C275.185 47.7138 274.841 47.288 274.694 47.1406C274.546 46.9931 273.727 46.469 273.269 46.2397C272.794 45.994 272.613 46.6164 272.613 46.9112C272.613 47.2061 271.188 47.2716 270.713 47.2716C270.582 47.2716 270.517 47.3699 270.484 47.5009C270.386 47.9268 270.566 48.7294 270.566 48.9259C270.566 49.188 271.45 49.1716 271.614 49.1716C271.794 49.1716 271.745 49.663 271.745 49.8923C271.745 50.1216 272.22 50.0725 272.351 49.9414C272.384 49.9087 272.45 49.8923 272.548 49.8923C272.826 49.8759 273.35 49.9414 273.662 49.9414C274.071 49.9414 273.875 50.6294 273.17 50.7768C272.482 50.9078 272.597 51.907 272.597 52.3328C272.597 52.7423 272.286 53.4302 271.614 53.4302C270.959 53.4302 270.075 53.938 270.075 53.938C270.075 53.938 267.257 56.2639 267.028 56.4932C266.799 56.7225 266.356 56.8863 266.127 56.657C265.898 56.4277 266.356 55.9035 266.356 55.9035C266.356 55.9035 266.881 55.5923 268.715 54.1673C269.96 53.2009 270.206 52.6768 270.222 52.3492C270.238 52.1854 270.206 52.0871 270.206 52.0052C270.206 51.8578 269.944 51.7595 269.698 51.7104C269.534 51.6776 269.354 51.6613 269.288 51.6613C269.108 51.6613 269.469 51.1699 269.469 51.0225C269.469 50.8587 269.567 50.5147 269.469 50.4164C269.37 50.3182 269.174 50.3182 269.075 50.4164C268.977 50.5147 268.519 50.5475 268.404 50.5475C268.289 50.5475 268.175 50.3182 268.256 50.2363C268.338 50.1707 269.223 49.2863 269.223 49.0569C269.223 48.9914 269.206 48.9259 269.157 48.8768C269.075 48.7457 268.83 48.6638 268.289 48.6638H268.273C267.536 48.6638 266.799 48.3526 266.356 48.3526C265.914 48.3526 265.963 47.9595 265.783 47.7793C265.603 47.5992 264.063 47.7793 263.818 47.7793C263.572 47.7793 263.392 47.3535 263.392 47.1078C263.392 46.8457 262.163 46.5181 261.737 46.3871C261.295 46.2397 260.722 46.1578 260.28 46.1578C259.854 46.1578 259.608 45.9776 259.264 45.8302C258.92 45.6664 258.052 45.8302 257.741 45.8302C257.43 45.8302 257.413 46.1414 257.25 46.3216C257.069 46.4854 256.447 46.2724 256.201 46.0431C255.972 45.8138 256.201 45.519 256.365 45.3552C256.431 45.2897 256.496 45.0931 256.545 44.8311C256.627 44.4216 256.693 43.8319 256.693 43.3733C256.693 43.1112 256.627 42.931 256.529 42.8164C256.332 42.5543 255.972 42.5216 255.546 42.5216C255.087 42.5216 254.891 42.1448 254.809 41.9155C254.776 41.8172 254.76 41.7354 254.76 41.7354C254.76 41.7354 253.974 43.4552 252.942 44.7655C251.91 46.0759 247.422 48.5656 246.062 49.2863C244.719 50.0069 238.986 51.8414 238.331 51.8414C237.676 51.8414 234.318 53.6432 232.975 54.2328C231.632 54.8061 231.223 55.363 231.223 56.6406C231.223 57.9182 234.056 60.3751 235.432 61.3743C236.808 62.3734 236.644 65.4855 236.644 67.3855C236.644 69.2855 237.185 70.0389 238.577 71.0053Z" fill="#FDEF95" stroke="#2D2A2B" stroke-width="3.02515" stroke-miterlimit="22.9256"/>
<path fill-rule="evenodd" clip-rule="evenodd" d="M22.1072 200.583C21.9762 198.208 21.7469 195.112 21.4357 193.228C20.8951 189.887 20.8132 187.037 21.8615 186.005C22.9098 184.957 27.5943 182.172 29.396 182.172C31.1814 182.172 37.8806 179.126 39.5676 181.452C41.2383 183.777 43.6953 187.856 44.6453 185.333C45.5953 182.827 46.0866 178.814 46.0866 177.864C46.0866 176.914 46.4961 173.557 45.3004 171.345C44.1047 169.134 41.3858 166.53 39.928 165.072C38.4538 163.598 38.0607 162.795 36.6357 162.435C35.1943 162.075 30.6573 162.435 28.315 160.699C25.9891 158.963 21.8779 157.161 21.0589 156.342C20.2236 155.507 17.4391 153.639 17.4391 153.639L16.9149 153.475L16.5382 153.361C16.6037 153.492 16.6856 153.623 16.7839 153.738C16.9641 154 17.1934 154.229 17.2753 154.311C17.3899 154.426 16.3089 156.162 16.1779 156.293C16.0468 156.424 13.508 161.01 13.377 161.141C13.2951 161.223 13.1641 162.058 13.0985 162.828C13.0658 163.303 13.0494 163.762 13.0985 164.007C13.2296 164.564 13.721 165.187 14.2287 165.334C14.2942 165.367 14.3761 165.367 14.458 165.367C15.0477 165.367 15.5391 165.023 15.7192 165.203C15.883 165.367 16.1779 165.776 15.883 166.055C15.5882 166.35 14.8511 166.202 14.7201 166.35C14.671 166.382 14.6218 166.432 14.5727 166.481C14.3925 166.628 14.1796 166.874 14.3434 167.251C14.5727 167.758 14.4744 168.07 14.9658 167.906C15.277 167.807 15.6701 167.906 15.9158 168.07C16.0632 168.184 16.1779 168.315 16.1779 168.446C16.1779 168.823 15.6046 171.771 15.6046 171.771C15.6046 171.771 15.3917 177.127 15.0804 177.455C14.7529 177.783 14.2451 179.617 13.7865 179.699C13.3115 179.797 13.3115 180.158 12.8856 179.879C12.4434 179.601 11.9847 179.142 11.8537 178.995C11.7554 178.896 11.5425 178.929 11.4115 179.044C11.3459 179.109 11.2968 179.208 11.2968 179.339C11.2968 179.699 11.1166 180.19 11.2968 180.354C11.4606 180.534 11.8701 180.616 11.9847 180.895C12.0339 180.993 12.0666 181.157 12.0994 181.353C12.1485 181.697 12.1977 182.107 12.1977 182.352C12.1977 182.713 12.3778 185.448 10.9692 186.169C9.54421 186.873 7.66058 187.905 7.36575 188.2C7.0873 188.495 6.92351 188.052 6.64506 188.052C6.36661 188.052 5.9735 188.167 5.84247 188.298C5.76057 188.38 4.63039 189.576 3.50021 190.755C3.2709 191.001 3.02521 191.263 2.7959 191.508C3.30366 192.016 3.92608 192.508 4.71229 192.917C8.03731 194.67 7.70972 194.948 8.03731 195.734C8.34851 196.521 10.4287 197.618 10.4287 197.618C10.4287 197.618 17.0132 200.288 17.7503 200.566C18.3891 200.812 21.4684 201.811 22.1891 202.04C22.1727 201.598 22.14 201.107 22.1072 200.583Z" fill="#FDEF95" stroke="#2D2A2B" stroke-width="3.02515" stroke-miterlimit="22.9256"/>
</svg>
