<svg viewBox="0 0 317 586" fill="none" xmlns="http://www.w3.org/2000/svg">
<path fill-rule="evenodd" clip-rule="evenodd" d="M193.096 123.785C193.096 121.126 193.758 117.98 196.516 117.98C199.275 117.98 208.012 118.23 208.911 118.23C209.809 118.23 212.293 117.494 213.167 116.083C214.028 114.673 215.439 112.763 216.749 112.763C218.072 112.763 218.509 111.765 219.445 110.828C220.381 109.905 223.726 109.044 224.488 107.446C225.249 105.861 229.181 99.9943 231.116 99.9943C233.05 99.9943 236.533 99.4825 238.605 95.6132C240.677 91.7438 241.188 91.2445 242.661 90.5081C244.134 89.7717 246.019 87.9743 246.805 86.6388C247.579 85.3032 252.534 76.3663 252.534 76.3663C252.534 76.3663 255.156 73.3207 258.688 72.422C262.208 71.5358 265.553 68.1782 266.901 66.8302C268.249 65.4822 269.46 62.0621 273.878 61.6502C278.297 61.2383 283.202 61.3008 285.686 60.477C288.182 59.6532 289.555 58.1054 289.555 58.1054C287.683 57.706 285.773 57.2691 285.074 57.1194C283.639 56.7948 276.462 55.4593 273.554 55.1847C270.658 54.9101 265.216 56.4204 264.167 57.0195C263.106 57.6186 261.534 57.2067 260.71 57.0195C259.874 56.8448 255.23 56.4204 252.971 55.971C250.712 55.5092 249.651 48.9688 249.476 48.145C249.289 47.3212 248.64 46.1604 247.729 44.363C246.805 42.5656 245.832 37.6104 245.245 35.5134C244.658 33.404 246.381 25.84 247.142 24.18C247.904 22.5199 247.704 17.1902 247.704 16.5162C247.704 15.8297 245.769 15.2555 244.97 15.2555C244.172 15.2555 241.188 15.2555 239.204 14.3818C237.219 13.508 236.857 12.0352 232.713 10.1629C228.569 8.29067 224.887 9.3641 222.216 9.9133C221.517 10.0631 220.768 10.1255 220.032 10.1505C220.019 10.2628 220.032 10.3876 219.994 10.5124C219.582 12.1226 218.546 15.4178 219.582 16.4537C220.618 17.4897 220.881 19.3495 220.881 20.8348C220.881 22.3077 221.292 25.2284 217.947 25.2284C214.615 25.2284 212.817 23.1315 209.497 23.1315C206.19 23.1315 204.48 22.757 201.534 22.757C198.588 22.757 196.466 23.3562 195.68 23.3562C194.906 23.3562 193.159 23.5933 191.224 22.445C189.289 21.2842 186.843 20.6601 181.937 20.6601C177.032 20.6601 176.096 21.2717 174.76 21.1219C173.425 20.9846 169.318 20.2108 167.509 19.3495C165.686 18.5008 164.987 18.9002 162.341 17.3275C159.695 15.7672 156.125 14.4941 155.064 11.823C154.016 9.15191 153.192 5.5946 152.143 4.54613C151.095 3.49766 147.425 1.83759 146.477 2.13715C145.541 2.43671 143.394 3.14818 141.047 3.46022C138.701 3.77226 126.78 5.80679 126.78 5.80679C126.78 5.80679 121.601 6.80534 120.465 7.46687C120.465 7.46687 118.592 9.0895 117.419 9.5014C116.246 9.9133 113.937 11.2613 112.414 12.2973C110.891 13.3333 105.824 17.1278 103.365 17.3774C100.918 17.6146 98.9461 17.6146 98.9461 17.6146C98.9461 17.6146 94.8646 17.9266 96.9116 21.4839C98.9461 25.0412 95.7009 24.4546 94.8396 24.0801C93.9784 23.6932 92.206 23.4186 91.145 23.4186C90.0716 23.4186 90.0716 23.6557 90.0716 24.2424C90.0716 24.8415 90.5584 27.3254 89.1729 27.9495C87.7874 28.5611 85.8902 28.5611 85.4034 28.5611C84.9291 28.5611 84.4049 29.4348 84.9291 30.3584C85.4409 31.2946 86.3395 32.9921 84.8917 33.2917C83.4438 33.6037 81.1596 32.9172 80.4357 34.5773C79.7117 36.2374 80.0862 37.7851 78.6383 37.2983C77.1904 36.824 72.7719 36.3996 72.4224 36.0626C72.0729 35.7131 69.7637 36.1999 70.3504 38.3343C70.937 40.4812 72.0978 42.0539 70.625 43.5142C69.1521 44.9871 65.9318 46.3226 63.8599 46.3226C61.7879 46.3226 57.9435 47.5209 56.7453 46.3226C55.5345 45.1119 52.464 42.9276 52.6263 44.6626C52.801 46.385 53.7996 48.7316 52.0771 48.0077C50.3546 47.2837 49.069 45.5612 47.9706 45.2118C46.8597 44.8623 42.853 43.2396 42.0667 43.0025C41.2679 42.7653 40.0571 42.1038 39.5454 42.1038C39.0211 42.1038 33.604 40.8931 32.593 40.4437C32.0313 40.1941 30.8081 39.7323 29.8595 39.3952C29.8595 41.5671 29.8595 44.7499 29.8595 44.7499C29.8595 44.7499 30.6708 47.3961 32.4058 47.2962C34.1408 47.1964 35.7259 47.0341 36.6496 46.7096C37.5732 46.385 39.6452 45.5113 40.2943 45.3241C40.9308 45.1493 42.2289 45.0495 42.2289 45.0495V45.761C42.2289 45.761 40.6687 46.2103 40.6687 46.4599C40.6687 46.6971 40.6687 48.1949 40.6687 48.1949C40.6687 48.1949 40.469 48.7066 40.2693 48.7566C40.0571 48.8065 38.9837 50.4291 38.9837 50.8785C38.9837 51.3153 38.784 51.5026 38.6217 51.6773C38.447 51.8396 37.9227 52.5136 37.9227 52.6883C37.9227 52.8756 37.6232 53.1751 37.4859 53.3124C37.3486 53.4497 37.1489 53.974 37.3486 54.1737C37.5483 54.3734 37.6232 54.8602 37.6232 55.0474C37.6232 55.2346 37.5857 56.4454 37.2612 56.6076C36.9492 56.7574 36.1503 56.8198 35.7259 57.3815C35.2891 57.9556 34.3405 58.5797 34.3405 59.1539C34.3405 59.7156 34.5152 60.7391 35.002 60.6143C35.4888 60.4894 35.4888 60.2024 35.4888 59.9028C35.4888 59.6157 35.5138 59.0166 35.7259 59.2288C35.9381 59.4535 35.9007 60.0775 36.375 59.8778C36.8493 59.6781 37.6357 59.4285 38.0226 59.0416C38.4095 58.6546 39.3457 57.7809 39.6827 58.1179C40.0072 58.4424 40.831 58.7046 40.831 59.2662C40.831 59.8279 41.2179 60.1025 41.2179 60.2024C41.2179 60.3022 39.8824 61.6378 39.8824 61.6378C39.8824 61.6378 38.7465 62.9983 38.4719 63.9968C38.1973 65.0078 37.9602 66.3309 38.2847 66.643C38.5968 66.955 38.9338 67.1297 38.9338 67.5541C38.9338 67.991 39.2458 68.0534 39.6078 67.9785C39.9698 67.8911 40.9558 66.8676 41.0432 67.2296C41.1306 67.5916 40.9184 68.1657 40.5564 68.1657C40.1819 68.1657 39.5204 68.4029 39.433 68.7149C39.3457 69.027 39.0586 71.5857 39.0586 72.1225C39.0586 72.6467 39.3332 76.0417 39.6327 76.3288C39.9198 76.6284 40.7187 76.8655 40.7187 76.5036C40.7187 76.1416 40.9059 75.0307 41.53 75.0307C42.1541 75.0307 42.4536 75.3178 42.566 75.7047C42.6658 76.1041 42.9279 77.6644 43.0777 78.0263C43.24 78.3883 43.4646 78.95 43.24 79.3993C43.0153 79.8487 41.7297 82.5073 41.3552 81.8458C40.9683 81.1717 39.8574 80.6725 39.6577 80.8722C39.458 81.0719 37.4484 83.2562 37.2987 83.7055C37.1364 84.1549 38.5094 84.6417 39.1834 84.6417C39.8574 84.6417 42.3163 84.6542 42.1166 85.4031C41.9044 86.1395 41.0931 86.7761 40.5314 86.7761C39.9573 86.7761 36.5497 87.1006 36.5497 87.1006C36.5497 87.1006 34.7274 87.138 34.2531 87.6123C33.7788 88.0866 31.3324 90.3583 30.6708 91.7188C29.9968 93.0794 29.6099 94.4399 29.3103 95.1513C29.0108 95.8628 27.8999 98.8335 28.4491 99.5075C28.6613 99.7571 28.7736 99.9693 28.836 100.157C30.3588 100.219 32.1437 100.381 32.8801 100.793C34.2531 101.579 36.4624 105.786 37.4984 106.822C38.5343 107.858 41.0307 110.354 42.0667 110.354C43.1027 110.354 44.2011 111.802 44.2011 112.152C44.2011 112.489 44.613 114.011 46.972 114.011C49.3186 114.011 54.536 114.461 56.221 116.158C57.9185 117.843 61.6756 118.779 63.5478 116.158C65.4076 113.524 66.169 113.187 66.169 110.828C66.169 108.482 67.2424 107.421 68.0038 106.66C68.7652 105.898 72.4598 104.962 73.8328 102.828C75.2183 100.681 76.6662 97.5728 78.8754 98.3966C81.0847 99.2329 83.3689 101.03 83.3689 96.9487C83.3689 92.8796 85.9276 89.4846 88.6237 89.4846C91.3073 89.4846 94.2779 87.6997 96.637 86.1769C98.9836 84.6542 103.752 81.8208 106.997 81.334C110.242 80.8597 114.449 80.5102 116.183 79.7488C117.906 78.9874 121.151 78.3009 122.462 78.9874C123.772 79.6864 125.994 79.2495 128.266 78.7004C130.55 78.1636 132.485 78.6504 134.145 78.9874C135.792 79.3369 138.975 78.4632 140.498 78.4632C142.008 78.4632 148.374 79.3369 148.374 80.8597C148.374 82.37 148.299 83.8304 146.776 84.6542C145.266 85.478 141.771 85.5903 143.044 86.8634C144.33 88.1366 146.776 88.5859 146.776 89.21C146.776 89.8341 146.914 90.8701 147.812 90.8701C148.711 90.8701 152.156 91.1447 152.156 92.318C152.156 93.4913 152.805 94.0904 152.156 94.7394C151.507 95.3885 151.544 96.9487 153.067 96.9487C154.59 96.9487 157.398 96.9487 158.584 98.122C159.757 99.3078 162.466 102.678 162.466 103.789C162.466 104.9 161.842 107.583 160.806 108.619C159.77 109.655 157.623 115.809 158.247 117.057C158.871 118.293 160.731 119.678 160.731 120.776C160.731 121.887 160.044 125.619 159.558 126.718C159.071 127.829 157.136 129.826 158.11 130.799C159.071 131.76 160.806 132.322 161.43 132.035C162.042 131.76 163.152 131.76 163.839 132.459C164.538 133.146 166.473 134.943 168.12 135.842C169.78 136.741 173.999 138.114 174.548 138.675C175.097 139.224 177.244 139.574 177.444 138.114C177.656 136.666 179.379 131.898 180.003 135.006C180.627 138.114 181.313 139.437 183.111 139.437C184.908 139.437 185.258 139.437 186.356 139.437C187.467 139.437 187.816 138.813 189.189 138.813C190.575 138.813 192.921 138.813 193.957 138.463C194.993 138.114 196.516 138.114 196.516 138.114C196.516 138.114 195.83 137.876 195.405 136.703C194.993 135.53 195.305 133.807 195.717 132.909C196.129 132.01 195.942 130.462 195.218 129.726C194.482 128.989 193.096 126.443 193.096 123.785ZM143.668 46.7969C144.604 49.2558 144.917 52.3264 146.714 53.4372C148.511 54.5356 153.167 56.7824 151.956 57.9931C150.758 59.2038 149.472 59.8529 149.135 61.1635C148.786 62.4865 148.848 64.6958 146.502 63.5849C144.155 62.4865 140.361 61.9249 138.351 62.9608C136.354 63.9968 134.756 66.0064 132.547 65.245C130.338 64.4836 128.203 63.3103 127.816 62.4491C127.442 61.5878 126.855 61.0012 125.607 61.0012C124.372 61.0012 123.535 60.2024 122.362 60.5519C121.189 60.8889 118.942 62.2369 118.455 62.2369C117.981 62.2369 117.257 61.85 117.769 60.2648C117.769 60.2648 119.354 56.333 118.393 54.5356C117.419 52.7383 115.971 51.2904 117.769 50.3917C119.566 49.493 123.261 48.7067 124.609 47.3586C125.957 46.0106 127.954 44.7 128.753 43.9012C129.551 43.1023 132.272 40.9305 133.858 42.5157C135.455 44.1134 138.151 47.4959 139.737 46.7345C141.322 45.9731 142.745 44.3505 143.668 46.7969Z" fill="#88A1D2" stroke="#2D2A2B" stroke-width="3.01099" stroke-miterlimit="22.9256"/>
<path fill-rule="evenodd" clip-rule="evenodd" d="M168.12 135.842C166.472 134.943 164.538 133.146 163.839 132.459C163.152 131.76 162.041 131.76 161.43 132.035C160.806 132.322 159.071 131.76 158.11 130.799C157.136 129.826 159.071 127.829 159.557 126.718C160.044 125.619 160.731 121.887 160.731 120.777C160.731 119.678 158.871 118.293 158.247 117.057C157.623 115.809 159.77 109.655 160.806 108.619C161.842 107.583 162.466 104.9 162.466 103.789C162.466 102.678 159.757 99.3079 158.584 98.1221C157.398 96.9488 154.59 96.9488 153.067 96.9488C151.544 96.9488 151.507 95.3886 152.156 94.7395C152.805 94.0905 152.156 93.4914 152.156 92.3181C152.156 91.1448 148.711 90.8702 147.812 90.8702C146.913 90.8702 146.776 89.8342 146.776 89.2101C146.776 88.586 144.33 88.1367 143.044 86.8635C141.771 85.5904 145.266 85.4781 146.776 84.6543C148.299 83.8305 148.374 82.3701 148.374 80.8598C148.374 79.337 142.008 78.4633 140.498 78.4633C138.975 78.4633 135.792 79.337 134.145 78.9875C132.484 78.6505 130.55 78.1637 128.266 78.7005C125.994 79.2497 123.772 79.6865 122.462 78.9875C121.151 78.301 117.906 78.9875 116.183 79.7489C114.448 80.5103 110.242 80.8598 106.997 81.3341C103.751 81.8209 98.9834 84.6543 96.6368 86.177C94.2778 87.6998 91.3071 89.4847 88.6235 89.4847C85.9275 89.4847 83.3687 92.8798 83.3687 96.9488C83.3687 101.03 81.0845 99.233 78.8752 98.3967C76.666 97.5729 75.2181 100.681 73.8326 102.828C72.4596 104.962 68.765 105.898 68.0036 106.66C67.2422 107.421 66.1688 108.482 66.1688 110.829C66.1688 113.188 65.4074 113.525 63.5476 116.158C61.6754 118.779 57.9183 117.843 56.2208 116.158C54.5358 114.461 49.3184 114.011 46.9718 114.011C44.6128 114.011 44.2009 112.489 44.2009 112.152C44.2009 111.802 43.1025 110.354 42.0665 110.354C41.0305 110.354 38.5342 107.858 37.4982 106.822C36.4622 105.786 34.2529 101.58 32.8799 100.793C32.1435 100.381 30.3586 100.219 28.8358 100.157C28.9482 100.469 28.9232 100.693 28.8233 100.793C28.6611 100.955 28.3615 101.555 28.6611 102.066C28.9606 102.566 28.8109 103.839 28.2991 104.775C27.7873 105.724 26.6016 108.382 26.4019 108.582C26.2146 108.769 25.99 109.193 25.99 109.593C25.99 109.98 26.2895 110.679 25.6904 110.679C25.0913 110.679 22.9943 110.854 22.857 111.365C22.7197 111.865 22.4451 114.061 22.4451 114.336C22.4451 114.611 22.5325 118.068 22.1206 119.379C21.7087 120.689 21.871 122.574 21.5465 123.435C21.2219 124.284 20.5854 125.707 20.3482 126.281C20.1235 126.855 20.1859 128.216 20.5354 128.565C20.8849 128.915 21.2469 129.664 20.7601 129.876C20.2858 130.088 18.4884 131.948 18.4884 132.684C18.4884 133.421 18.3012 134.319 19.2623 134.544C20.2359 134.781 22.907 135.58 23.2315 135.58C23.5435 135.58 24.2675 135.979 23.7058 135.979C23.1566 135.979 19.9113 136.229 19.5494 136.229C19.1749 136.229 18.4759 136.129 18.4759 136.529C18.4759 136.94 18.4759 140.223 16.716 143.019C14.9561 145.815 12.3599 152.106 12.1851 152.867C12.0104 153.629 10.3878 158.397 10.3878 160.394C10.3878 162.403 10.3878 164.712 10.3878 165.087C10.3878 165.474 10.3878 165.686 9.876 165.686C9.35176 165.686 9.17702 165.686 9.17702 166.123C9.17702 166.572 9.7387 166.997 9.4641 167.471C9.17702 167.958 9.40169 168.32 8.62782 169.093C7.85395 169.88 7.39213 169.992 6.73059 170.654C6.06906 171.315 4.24672 173.524 4.24672 174.311C4.24672 175.11 4.69606 177.257 3.89723 178.043C3.0984 178.842 2 181.912 2 182.599C2 183.298 2.08737 185.008 2.58664 185.507C3.08591 186.006 4.48387 186.818 4.48387 187.229C4.48387 187.641 4.89577 188.652 5.48241 188.652C6.06906 188.652 7.21738 189.127 7.21738 189.788C7.21738 190.45 7.69169 190.924 7.91636 191.149C8.14103 191.373 8.49052 191.96 8.49052 192.447C8.49052 192.934 9.01476 194.032 9.6014 194.032C10.188 194.032 10.7997 194.419 11.6359 194.032C12.4597 193.658 12.8966 193.221 13.5207 192.597C14.1323 191.985 14.5317 190.949 15.1683 190.949C15.8173 190.949 15.5427 190.724 15.8173 190.45C16.0919 190.163 16.4664 189.788 16.741 189.514C17.0281 189.239 17.2652 188.815 17.2652 188.44C17.2652 188.066 17.3526 187.978 17.8893 187.442C18.426 186.905 20.0611 186.468 20.0611 186.468C20.0611 186.468 20.4106 187.404 20.0611 187.754C19.7116 188.091 18.3636 189.439 17.9892 189.826C17.6147 190.2 15.8173 191.998 15.2307 192.584C15.1059 192.696 14.9935 192.846 14.8812 192.996C14.4194 193.608 14.0075 194.394 13.8826 194.519C13.7204 194.669 13.321 195.867 14.5067 196.104C15.68 196.354 17.1654 196.94 17.9517 197.415C18.7505 197.901 24.3299 200.972 27.4129 203.643C30.5084 206.314 33.841 209.659 33.841 209.659C33.841 209.659 34.8271 210.333 35.1641 210.109C35.5011 209.896 35.6758 209.46 35.6758 209.048C35.6758 208.636 35.4012 207.001 35.4012 206.564C35.4012 206.127 34.8021 205.328 35.0018 204.816C35.189 204.317 35.7882 202.27 35.7008 201.833C35.6134 201.384 35.0393 200.66 34.7147 200.498C34.4027 200.335 34.4526 199.936 34.6773 199.724C34.8895 199.512 37.9225 198.75 37.9225 198.75C37.9225 198.75 38.8088 198.363 39.0709 198.825C39.333 199.299 40.0444 200.697 40.1069 200.922C40.1693 201.147 40.1568 201.521 39.9072 201.584C39.67 201.646 39.5826 202.145 39.67 202.445C39.7449 202.744 40.1193 203.78 40.1193 204.092C40.1193 204.404 39.8073 204.829 39.4453 204.941C39.0834 205.041 38.4093 205.341 38.0973 205.653C37.7852 205.965 37.0114 207.437 37.0114 207.862C37.0114 208.299 37.0613 208.548 37.2985 208.424C37.5356 208.299 38.9211 207.537 39.5701 207.537C40.2192 207.537 44.0136 207.637 44.9248 207.225C45.8485 206.813 47.4212 205.49 47.4212 205.49L48.4696 206.352C48.4696 206.352 46.4102 207.75 45.9358 208.012C45.4491 208.261 44.2009 208.473 43.6891 208.473C43.1649 208.473 40.2691 208.174 39.6825 208.473C39.0958 208.761 36.8242 210.246 36.4497 210.608C36.0752 210.982 35.9005 211.182 36.2625 211.544C36.6244 211.906 39.9321 215.875 41.0305 217.311C42.1164 218.746 44.6003 222.104 45.2244 223.751C45.8485 225.411 46.3602 227.121 46.5225 228.12C46.6723 229.131 46.9718 233.375 46.9718 233.999C46.9718 234.623 46.4102 236.021 46.4102 236.433C46.4102 236.845 46.4351 237.618 46.5849 237.968C46.7472 238.317 47.4711 240.052 47.4711 240.901C47.4711 241.326 47.9454 242.911 48.4197 244.408C50.3669 243.06 53.8992 240.639 54.5857 240.439C54.7605 240.389 55.06 240.452 55.4345 240.602C57.0821 241.213 60.2025 243.335 61.1761 243.71C62.3743 244.171 71.0741 246.93 73.0088 247.903C74.9435 248.865 77.9766 248.415 80.1858 248.415C82.4076 248.415 81.5214 247.08 82.6822 246.705C83.8305 246.343 84.2923 247.679 86.4517 248.365C88.6235 249.052 90.6955 247.442 93.404 246.755C96.1251 246.056 96.4621 248.902 97.0113 249.451C97.5605 250.013 98.1471 250.599 98.7462 250.599C99.3454 250.599 100.344 250.599 100.868 251.124C101.392 251.66 103.215 250.799 103.677 250.337C104.138 249.888 105.387 249.301 106.098 249.301C106.809 249.301 108.095 247.304 108.694 245.557C109.293 243.809 114.086 241.912 115.422 241.5C116.757 241.088 119.054 243.11 120.951 244.084C122.836 245.045 125.869 239.703 125.869 239.703C125.869 239.703 128.028 229.58 128.965 227.296C129.888 225.012 131.673 223.951 133.982 222.665C136.279 221.38 135.542 217.697 135.542 216.225C135.542 214.752 138.763 214.465 139.786 214.465C140.797 214.465 142.358 213.179 142.358 211.519C142.358 209.859 146.314 206.277 150.184 203.331C154.053 200.373 165.948 189.688 165.948 189.688C165.948 189.688 170.853 184.783 173.587 182.05C176.308 179.329 177.519 173 177.519 173C177.519 173 180.452 166.273 183.048 164.987C185.632 163.714 188.428 158.284 189.464 157.248C190.5 156.212 191.473 153.803 192.372 151.457C193.271 149.098 194.369 145.378 196.379 143.993C198.376 142.607 197.552 140.747 197.552 140.747L196.516 138.114C196.516 138.114 194.993 138.114 193.957 138.463C192.921 138.813 190.575 138.813 189.189 138.813C187.816 138.813 187.467 139.437 186.356 139.437C185.257 139.437 184.908 139.437 183.111 139.437C181.313 139.437 180.627 138.114 180.003 135.006C179.378 131.898 177.656 136.666 177.444 138.114C177.244 139.574 175.097 139.225 174.548 138.675C173.999 138.114 169.78 136.741 168.12 135.842Z" fill="#88A1D2" stroke="#2D2A2B" stroke-width="3.01099" stroke-miterlimit="22.9256"/>
<path fill-rule="evenodd" clip-rule="evenodd" d="M192.372 151.457C191.474 153.803 190.5 156.212 189.464 157.248C188.428 158.284 185.632 163.714 183.048 164.987C180.452 166.273 177.519 173 177.519 173C177.519 173 176.308 179.328 173.587 182.049C170.854 184.783 165.948 189.688 165.948 189.688C165.948 189.688 154.053 200.373 150.184 203.331C146.314 206.277 142.358 209.859 142.358 211.519C142.358 213.179 140.798 214.465 139.786 214.465C138.763 214.465 135.543 214.752 135.543 216.225C135.543 217.697 136.279 221.38 133.982 222.665C131.673 223.951 129.888 225.012 128.965 227.296C128.029 229.58 125.869 239.703 125.869 239.703C125.869 239.703 122.836 245.045 120.952 244.084C119.054 243.11 116.758 241.088 115.422 241.5C114.087 241.912 109.294 243.809 108.694 245.557C108.095 247.304 106.81 249.301 106.098 249.301C105.387 249.301 104.139 249.888 103.677 250.337C103.215 250.799 101.393 251.66 100.868 251.124C100.344 250.599 99.3456 250.599 98.7464 250.599C98.1473 250.599 97.5607 250.013 97.0115 249.451C96.4623 248.902 96.1253 246.056 93.4042 246.755C90.6957 247.442 88.6237 249.052 86.4519 248.365C84.2925 247.679 83.8307 246.343 82.6824 246.705C81.5216 247.08 82.4078 248.415 80.186 248.415C77.9768 248.415 74.9437 248.864 73.009 247.903C71.0743 246.93 62.3745 244.171 61.1763 243.709C60.2027 243.335 57.0823 241.213 55.4347 240.602C55.0602 240.452 54.7607 240.389 54.5859 240.439C53.8994 240.639 50.3671 243.06 48.4199 244.408C48.9192 245.956 49.4185 247.392 49.4185 247.392C49.4185 247.392 51.1784 251.261 51.428 252.16C51.6652 253.058 51.9273 254.544 51.9273 254.756C51.9273 254.956 51.9523 255.268 52.3766 255.405C52.7885 255.542 54.561 255.542 55.235 255.542C55.909 255.542 56.5456 255.717 56.7203 255.542C56.895 255.38 60.4024 255.38 60.4024 255.38C60.4024 255.38 60.2776 256.778 60.2776 256.965C60.2776 257.152 58.8297 259.174 58.6175 259.174C58.4178 259.174 56.9075 258.638 56.9075 258.425C56.9075 258.226 56.7702 258.138 56.583 258.138C56.3958 258.138 55.5096 258.051 55.2724 257.814C55.0353 257.564 54.2739 255.979 53.9119 256.029C53.5499 256.079 52.4016 256.154 52.4016 256.154C52.4016 256.154 52.2144 256.578 52.4016 256.778C52.6013 256.965 53.3877 259.05 53.3877 259.324C53.3877 259.611 53.5999 261.758 53.8745 262.27C54.1491 262.769 54.8605 264.13 54.8605 264.492C54.8605 264.854 55.4472 267.612 55.7592 267.924C56.0712 268.236 56.1337 268.948 56.1337 269.21C56.1337 269.472 55.9589 270.383 56.1337 270.383C56.3084 270.383 56.4332 270.034 56.5705 270.171C56.7078 270.308 56.8326 270.832 56.7078 271.294C56.583 271.769 56.4457 271.993 55.9964 271.993C55.547 271.993 54.9479 271.968 54.9479 272.355C54.9479 272.73 55.3723 274.177 55.5969 274.177C55.8216 274.177 58.2056 273.99 58.293 274.315C58.3804 274.652 62.6741 284.7 62.6741 284.7C62.6741 284.7 63.4979 286.884 63.7975 287.183C64.097 287.483 64.2843 287.733 64.2843 288.032C64.2843 288.332 64.1719 288.744 63.8724 288.744C63.5728 288.744 63.3107 288.893 63.3107 289.068C63.3107 289.255 63.061 289.505 63.3107 289.505C63.5728 289.505 64.484 289.505 64.7461 290.017C64.9957 290.529 68.8651 299.366 68.8651 299.366C68.8651 299.366 69.3394 300.801 69.8761 300.864C70.4128 300.913 71.1867 301.6 70.8622 301.6C70.5501 301.6 70.3629 301.962 70.3629 302.224C70.3629 302.474 70.7997 303.809 71.2865 303.996C71.7608 304.171 71.998 304.521 71.998 304.87C71.998 305.207 72.3225 305.794 72.4598 306.131C72.5472 306.368 72.9591 307.154 73.2087 307.878C73.3211 308.203 73.396 308.515 73.396 308.752C73.396 309.538 73.2836 310.35 73.034 310.599C72.7719 310.849 72.4099 311.223 72.7719 311.223C73.1463 311.223 73.708 310.961 73.9701 310.687C74.2447 310.425 73.9576 309.613 74.2447 309.339C74.5193 309.052 74.7565 308.902 74.7565 308.665C74.7565 308.44 74.9312 308.265 75.081 308.115C75.2308 307.966 77.1779 307.966 77.1779 307.966C77.1779 307.966 77.6772 308.103 77.6772 308.465C77.6772 308.827 77.9019 309.114 77.3901 309.114C76.8784 309.114 76.3791 309.438 76.3791 309.613C76.3791 309.8 76.5039 309.975 76.8035 309.975C77.103 309.975 77.5399 309.863 77.5399 310.137C77.5399 310.412 77.6772 310.924 77.3776 311.011C77.0906 311.086 76.7535 311.099 76.8284 311.273C76.9033 311.436 77.1405 311.635 77.1405 311.785C77.1405 311.935 77.1904 312.946 77.0656 313.071C76.9408 313.196 76.2668 313.196 76.2668 313.32C76.2668 313.458 76.6662 313.857 76.6662 314.082C76.6662 314.294 76.5538 315.118 76.4415 315.218C76.3416 315.33 76.3541 315.854 76.117 315.904C75.8798 315.954 75.6801 316.041 75.5054 315.729C75.3306 315.417 74.9936 314.269 74.9936 313.919C74.9936 313.57 74.357 312.372 74.1199 312.372C73.8703 312.372 73.7205 312.272 73.6206 312.372C73.5208 312.459 73.4084 312.609 73.4084 312.834C73.4084 313.058 73.5957 313.345 73.7454 313.508C73.9077 313.657 74.0325 313.707 74.0325 314.019C74.0325 314.344 73.9451 317.015 73.6955 317.452C73.6955 317.452 73.4708 318.226 73.4708 318.5C73.4708 318.775 73.6955 319.374 72.7719 319.474C71.8357 319.586 71.8482 319.574 71.6235 319.786C71.4113 320.011 71.0494 321.034 70.6375 321.034C70.2256 321.034 69.6889 321.009 69.6889 321.234C69.6889 321.471 70.3254 321.733 70.1257 321.933C69.9385 322.12 69.7388 322.757 69.7388 323.143C69.7388 323.543 69.7388 324.442 69.7388 324.766C69.7388 325.078 70.1507 327.063 70.288 327.55C70.4253 328.036 71.3989 328.997 71.3989 329.459C71.3989 329.921 71.9106 330.97 72.2976 331.344C72.672 331.731 73.2587 332.455 73.2587 333.029C73.2587 333.603 73.4459 334.402 73.0964 334.527C72.7594 334.639 71.299 334.939 71.1617 335.288C71.0244 335.625 70.5626 335.9 71.0244 336C71.4862 336.087 71.6485 336.437 72.0854 336C72.5222 335.563 74.0949 335.226 74.0949 335.775C74.0949 336.337 74.0575 336.861 73.7829 337.148C73.5083 337.423 73.1962 338.047 73.371 338.209C73.5457 338.384 74.2322 339.869 74.7315 340.169C75.2308 340.456 76.7785 343.252 77.1654 343.639C77.5524 344.026 77.6273 344.65 77.8145 344.824C77.9892 345.012 84.4798 353.175 84.4798 353.175C84.4798 353.175 85.4409 354.598 85.4409 355.059C85.4409 355.521 85.9526 356.532 86.0899 356.67C86.2272 356.807 87.4879 357.019 87.8374 357.369C88.1868 357.706 88.8733 358.142 88.8733 358.405C88.8733 358.654 89.4974 359.066 89.4974 359.503C89.4974 359.94 88.7485 360.277 89.0356 360.564C89.3227 360.851 90.2588 362.523 90.7082 362.523C91.17 362.523 91.532 363.11 91.7067 363.285C91.8815 363.46 93.1296 364.808 92.9674 364.957C92.8051 365.12 92.5305 366.118 92.6678 366.256C92.8051 366.393 93.3044 365.694 93.5041 365.494C93.6913 365.294 93.9909 365.057 93.8411 365.444C93.6913 365.844 93.4417 366.692 93.891 366.692C94.3279 366.692 95.2391 366.705 95.4388 366.892C95.626 367.092 101.879 373.707 104.463 375.467C104.863 375.742 105.312 376.079 105.761 376.428C108.183 378.325 111.116 381.121 112.976 382.32C115.185 383.755 117.769 384.991 118.692 384.991C119.616 384.991 121.638 384.666 121.963 384.991C122.287 385.315 123.223 385.477 123.385 385.315C123.548 385.153 123.385 384.654 123.385 384.204C123.385 383.755 122.986 383.568 123.46 383.093C123.66 382.894 124.022 382.694 124.409 382.569C124.509 381.034 124.584 379.399 124.584 377.851C124.584 372.609 126.656 369.8 128.815 367.629C130.987 365.469 132.971 360.813 132.971 357.319C132.971 353.824 130.75 349.305 130.75 346.909C130.75 344.512 129.926 340.094 129.926 337.61C129.926 335.126 130.937 325.365 132.51 322.507C134.07 319.649 137.852 313.295 138.401 311.635C138.95 309.975 137.565 305.644 136.554 303.16C135.543 300.676 135.543 297.082 135.543 295.247C135.543 293.399 134.993 292.663 136.005 289.255C137.016 285.848 138.526 283.451 138.526 279.12C138.526 274.802 138.301 272.305 139.325 271.294C140.336 270.283 144.292 268.261 146.689 269.085C149.085 269.909 158.384 272.867 160.319 271.394C162.254 269.909 168.557 265.265 168.557 265.265C168.557 265.265 175.622 259.174 178.692 258.588C181.763 258.001 188.565 256.416 190.363 256.416C192.16 256.416 197.103 256.416 199.075 258.376C201.035 260.348 203.93 262.919 206.202 260.348C208.486 257.776 212.817 253.982 216.849 255.318C220.881 256.653 224.737 259.387 224.737 259.387C224.737 259.387 231.29 263.081 232.439 264.591C233.575 266.114 236.782 271.119 239.653 266.701C239.653 266.701 240.427 264.679 242.075 263.668C243.71 262.644 244.97 262.495 245.52 261.933C246.081 261.384 248.39 259.624 249.189 260.073C249.976 260.522 250.338 261.821 250.562 262.045C250.787 262.27 253.196 263.868 255.093 264.18C256.616 264.429 259.636 266.426 260.96 267.412C261.297 266.489 261.621 265.64 261.821 265.153C262.345 263.868 260.897 262.245 259.924 261.696C258.962 261.147 258.438 259.798 259.998 258.238C261.546 256.691 259.474 255.967 258.376 255.23C257.265 254.506 252.659 251.486 252.085 250.924C251.511 250.35 250.675 247.978 250.15 247.017C249.639 246.044 249.976 241.388 249.801 240.314C249.639 239.241 248.752 238.118 248.253 237.618C247.754 237.119 247.08 235.821 247.08 234.136C247.08 232.438 247.766 229.468 248.116 228.257C248.465 227.059 249.077 225.985 249.327 224.25C249.564 222.528 252.297 218.908 253.832 215.85C255.368 212.792 258.239 211.444 259.212 211.12C260.198 210.783 261.234 209.098 261.659 208.161C262.07 207.225 264.317 201.084 264.554 199.661C264.791 198.251 264.068 196.141 263.306 195.38C262.545 194.619 262.245 192.547 262.245 191.373C262.245 190.2 265.553 185.37 266.102 184.159C266.664 182.948 265.827 178.392 265.553 176.944C265.278 175.484 265.004 172.651 265.004 172.064C265.004 171.477 265.278 166.922 265.553 165.748C265.827 164.575 267.363 159.308 267.874 158.808C268.374 158.309 270.77 154.003 271.157 153.179C271.544 152.343 272.53 150.346 272.742 149.347C272.942 148.336 272.742 145.341 272.917 144.717C273.079 144.092 273.504 139.774 273.504 138.251C273.504 136.741 275.326 134.182 277.198 133.832C279.058 133.495 282.665 130.475 283.377 129.763C284.088 129.052 290.092 121.875 290.903 121.064C291.715 120.24 294.673 120.015 295.709 120.015C296.745 120.015 299.578 119.678 301.063 118.917C302.549 118.155 306.343 116.458 307.591 116.008C308.827 115.572 309.801 114.498 310.662 113.35C311.523 112.214 313.296 111.415 314.494 111.415C315.692 111.415 315.006 109.705 314.494 108.694C313.995 107.683 312.884 104.687 312.235 103.302C311.598 101.929 308.627 100.431 307.866 99.6698C307.105 98.9084 304.321 98.4216 302.387 98.0596C300.452 97.6852 298.467 95.7006 298.005 94.2777C297.544 92.8547 296.058 88.3613 294.835 87.1381C293.612 85.9149 293.537 83.9677 294.561 83.9677C295.572 83.9677 301.088 83.0441 303.535 82.4449C305.981 81.8458 309.064 79.4992 310.125 77.4273C311.174 75.3553 308.503 71.8978 307.766 71.1614C307.03 70.425 304.733 62.8236 303.672 61.3008C302.611 59.7905 299.803 59.2288 298.929 59.2288C298.055 59.2288 294.598 58.9168 293.824 58.9168C293.425 58.9168 291.515 58.5298 289.555 58.1055C289.555 58.1055 288.182 59.6532 285.686 60.477C283.202 61.3008 278.297 61.2384 273.878 61.6503C269.46 62.0622 268.249 65.4822 266.901 66.8302C265.553 68.1783 262.208 71.5359 258.688 72.4221C255.156 73.3208 252.534 76.3663 252.534 76.3663C252.534 76.3663 247.579 85.3033 246.805 86.6388C246.019 87.9744 244.134 89.7717 242.661 90.5082C241.188 91.2446 240.677 91.7439 238.605 95.6132C236.533 99.4826 233.05 99.9943 231.116 99.9943C229.181 99.9943 225.249 105.861 224.488 107.446C223.726 109.044 220.381 109.905 219.445 110.828C218.509 111.765 218.072 112.763 216.749 112.763C215.439 112.763 214.028 114.673 213.167 116.083C212.293 117.494 209.809 118.23 208.911 118.23C208.012 118.23 199.275 117.981 196.516 117.981C193.758 117.981 193.096 121.126 193.096 123.785C193.096 126.443 194.482 128.989 195.218 129.726C195.942 130.462 196.129 132.01 195.717 132.909C195.305 133.807 194.993 135.53 195.405 136.703C195.83 137.877 196.516 138.114 196.516 138.114L197.552 140.747C197.552 140.747 198.376 142.607 196.379 143.993C194.369 145.378 193.271 149.098 192.372 151.457Z" fill="#88A1D2" stroke="#2D2A2B" stroke-width="3.01099" stroke-miterlimit="22.9256"/>
<path fill-rule="evenodd" clip-rule="evenodd" d="M190.362 256.416C188.565 256.416 181.762 258.001 178.691 258.588C175.621 259.174 168.556 265.266 168.556 265.266C168.556 265.266 162.253 269.909 160.318 271.394C158.384 272.867 149.085 269.909 146.688 269.085C144.292 268.261 140.335 270.283 139.324 271.294C138.3 272.305 138.525 274.802 138.525 279.12C138.525 283.451 137.015 285.848 136.004 289.256C134.993 292.663 135.542 293.399 135.542 295.247C135.542 297.082 135.542 300.676 136.553 303.16C137.564 305.644 138.949 309.975 138.4 311.635C137.851 313.295 134.069 319.649 132.509 322.507C130.936 325.365 129.925 335.126 129.925 337.61C129.925 340.094 130.749 344.512 130.749 346.909C130.749 349.305 132.971 353.824 132.971 357.319C132.971 360.814 130.986 365.469 128.814 367.629C126.655 369.8 124.583 372.609 124.583 377.851C124.583 379.399 124.508 381.034 124.408 382.569C124.932 382.395 125.507 382.345 125.781 382.619C126.256 383.106 127.192 385.178 127.778 385.378C128.377 385.577 129.264 385.615 129.264 384.928C129.264 384.229 129.239 382.544 129.513 382.544C129.788 382.544 130.162 382.582 130.162 383.368C130.162 384.167 130.3 386.276 130.474 386.751C130.649 387.237 130.749 387.762 131.173 387.762C131.585 387.762 132.584 387.762 132.584 387.762C132.584 387.762 133.208 387.762 133.445 387.512C133.695 387.275 133.894 387 134.344 387C134.793 387 135.342 387 135.342 387L135.866 388.523C135.866 388.523 135.38 388.86 135.043 388.523C134.693 388.174 134.456 388.66 134.456 388.898C134.456 389.135 134.469 389.122 134.169 389.409C133.882 389.709 133.27 389.896 132.896 389.896C132.521 389.896 131.448 389.135 130.924 389.135C130.412 389.135 129.85 388.585 130.137 389.135C130.412 389.696 131.336 391.107 131.336 391.319C131.336 391.519 132.072 394.077 131.897 394.664C131.723 395.251 131.723 395.251 131.723 395.251C131.723 395.251 142.008 401.641 145.378 403.576C148.735 405.511 160.668 412.788 162.166 413.611C163.651 414.448 171.39 420.414 172.55 421.575C173.699 422.723 173.948 424.109 174.31 424.471C174.672 424.833 176.07 425.719 176.407 427.204C176.757 428.689 177.481 431.722 179.178 433.008C180.863 434.281 185.294 437.701 185.906 438.974C186.53 440.26 189.164 443.293 189.164 445.715C189.164 448.124 189.326 449.135 189.913 449.721C190.499 450.308 190.499 451.93 190.499 452.342C190.499 452.754 190.886 454.14 191.373 454.627C191.847 455.101 191.373 456.312 191.373 456.936C191.373 457.56 190.986 458.072 190.986 458.496C190.986 458.908 190.574 459.457 190.574 459.906C190.574 460.356 191.261 461.529 192.009 461.791C192.746 462.053 194.618 463.426 196.553 465.848C198.488 468.269 199.274 469.892 199.274 470.578C199.274 471.265 199.311 472.613 200.247 473.549C201.171 474.485 202.382 476.445 201.97 477.83C201.558 479.216 201.171 479.415 202.057 481.288C202.944 483.147 204.254 486.118 204.666 487.504C205.078 488.889 205.078 491.435 205.078 492.409C205.078 493.37 204.878 494.481 205.29 494.893C205.702 495.305 205.702 496.066 205.702 496.753C205.702 497.452 205.09 499.661 205.702 499.661C206.326 499.661 206.8 499.523 206.8 500.148C206.8 500.759 206.463 502.22 207.225 502.22C207.986 502.22 208.261 503.256 208.623 503.618C208.985 503.979 208.91 504.491 208.91 504.741C208.91 504.978 208.635 504.766 208.91 505.665C209.184 506.563 210.395 510.121 210.395 510.957C210.395 511.781 210.67 513.066 210.67 513.478C210.67 513.89 210.969 514.115 210.258 514.826C209.546 515.525 207.087 516.411 206.426 516.411C205.764 516.411 205.714 516.948 205.527 517.135C205.34 517.323 205.078 517.859 205.565 518.346C206.051 518.833 206.738 518.858 206.738 519.519C206.738 520.181 206.501 520.693 206.913 521.104C207.325 521.516 207.325 522.59 207.325 523.214C207.325 523.838 207.687 526.721 207.325 527.083C206.963 527.445 206.501 527.732 206.214 527.445C205.939 527.158 205.652 526.796 205.29 527.158C204.928 527.52 203.867 527.969 203.867 528.893C203.867 529.829 203.817 530.79 204.229 530.965C204.654 531.14 204.816 531.714 204.391 531.939C203.955 532.163 203.293 532.188 202.944 532.538C202.582 532.9 201.059 534.348 200.971 535.409C200.884 536.457 201.121 538.928 201.483 539.515C201.845 540.102 202.944 541.887 202.944 542.573C202.944 543.26 203.33 544.72 203.805 545.182C204.267 545.644 205.016 546.904 205.527 546.904C206.051 546.904 206.738 546.992 206.975 547.466C207.225 547.928 207.499 550.062 208.099 550.412C208.71 550.761 209.621 552.059 209.709 552.608C209.796 553.158 209.983 555.18 209.659 555.816C209.322 556.453 208.935 556.852 208.935 557.389C208.935 557.926 209.222 559.087 209.047 559.536C208.872 559.985 208.485 561.446 208.485 561.833C208.485 562.207 208.598 565.128 208.373 565.577C208.148 566.026 208.535 568.111 208.897 567.999C209.259 567.874 210.22 567.661 210.42 568.098C210.607 568.523 211.019 571.131 211.943 572.055C212.867 572.966 214.514 573.091 215.463 573.178C216.411 573.266 217.285 573.153 217.285 572.904C217.285 572.654 217.298 571.256 217.772 570.782C218.234 570.308 219.557 569.084 219.557 568.523C219.557 567.974 219.507 563.567 219.931 563.143C220.356 562.719 223.114 560.684 223.726 560.372C224.35 560.073 225.149 559.511 225.698 560.073C226.247 560.622 229.13 563.505 229.53 563.905C229.929 564.291 230.978 564.828 232.401 564.828C233.811 564.828 234.822 564.728 235.022 565.49C235.234 566.251 235.109 566.85 235.409 567.15C235.696 567.437 236.407 568.186 236.607 567.599C236.819 567.012 236.819 566.139 237.256 566.576C237.68 567.012 237.755 567.524 238.092 567.874C238.442 568.223 240.227 569.484 240.651 569.047C241.088 568.61 241.899 568.111 242.685 568.61C243.484 569.109 243.11 571.219 243.871 570.732C244.62 570.258 245.694 569.846 245.694 570.258C245.694 570.67 246.804 572.018 247.94 571.706C249.076 571.394 250.299 571.319 251.273 572.28C252.234 573.253 253.382 574.402 253.732 574.739C254.081 575.088 254.581 575.924 254.581 576.374C254.581 576.836 255.691 578.134 256.653 578.134C257.626 578.134 258.637 578.87 258.637 579.831C258.637 580.805 258.288 583.314 260.06 583.651C261.833 584 264.329 584 264.666 583.651C265.015 583.314 265.315 582.964 264.666 582.315C264.029 581.679 262.918 581.267 262.918 579.931C262.918 578.596 263.056 576.798 262.095 575.825C261.121 574.863 258.824 570.944 257.951 568.96C257.064 566.987 257.202 564.366 257.202 564.366C257.202 563.642 257.089 562.282 257.763 561.109C258.425 559.935 258.325 556.927 258.1 555.654C257.888 554.393 258.325 553.844 258.837 553.332C259.361 552.808 260.485 552.584 260.684 552.783C260.884 552.97 261.583 552.945 262.319 552.646C263.056 552.346 265.802 550.886 267.112 550.087C268.423 549.276 268.261 547.803 268.373 546.655C268.485 545.506 269.109 545.107 269.821 544.932C270.545 544.745 270.907 544.121 271.144 542.486C271.369 540.851 273.603 539.59 274.252 539.166C274.888 538.754 275.151 537.743 274.938 536.844C274.726 535.945 274.04 534.585 273.852 534.173C273.665 533.761 273.528 529.867 273.528 529.143C273.528 528.406 272.804 525.386 272.442 524.187C272.093 522.989 272.567 521.716 272.729 521.117C272.904 520.518 274.427 518.92 274.701 518.646C274.963 518.383 274.926 518.009 274.926 517.747C274.926 517.485 274.739 517.123 275.088 516.436C275.438 515.75 275.488 515.45 275.55 514.976C275.625 514.514 273.99 513.328 273.678 513.016C273.378 512.717 272.779 511.057 272.779 510.72C272.779 510.383 272.355 509.534 271.88 509.047C271.394 508.573 271.294 505.565 271.294 505.315C271.294 505.078 271.955 505.115 272.118 504.941C272.292 504.778 273.403 503.942 273.852 503.493C274.302 503.031 274.651 502.557 274.651 502.269C274.651 501.982 274.314 501.633 273.99 501.546C273.665 501.471 273.403 500.709 273.203 500.16C273.004 499.611 273.328 496.153 273.453 494.918C273.565 493.682 273.74 493.27 274.077 492.771C274.414 492.284 274.314 491.173 273.99 490.624C273.665 490.087 273.653 488.227 273.753 487.491C273.865 486.742 273.653 486.53 273.079 485.531C272.517 484.533 273.416 483.709 274.115 483.497C274.826 483.285 274.626 481.163 274.626 481.163C274.626 481.163 274.477 476.108 274.477 475.209C274.477 474.31 274.814 473.848 275.363 473.287C275.912 472.738 275.712 470.141 275.712 469.63C275.712 469.105 275.538 467.508 275.3 466.646C275.088 465.898 275.026 464.612 275.026 463.938C271.731 464.812 266.825 468.232 265.215 469.318C263.38 470.553 261.446 469.218 261.034 468.806C260.622 468.394 258.687 467.333 256.241 467.008C253.794 466.684 252.459 463.701 252.084 463.326C251.71 462.952 249.6 462.328 248.49 461.217C247.391 460.119 244.732 460.942 243.584 461.392C242.448 461.841 242.798 459.008 242.798 458.596C242.798 458.184 242.486 457.909 242.074 457.485C241.65 457.073 242.236 456.936 242.498 456.674C242.76 456.424 242.898 456.274 242.898 455.725C242.898 455.176 242.898 455.101 243.971 454.826C245.045 454.552 244.87 453.928 244.87 453.553C244.87 453.166 243.934 452.867 241.812 452.53C239.69 452.205 239.865 450.582 239.615 449.858C239.378 449.135 238.03 448.885 236.782 448.436C235.546 447.986 234.71 445.577 234.71 444.604C234.71 443.643 235.995 443.955 236.582 443.955C237.169 443.955 238.579 443.643 240.376 442.744C242.174 441.845 240.826 439.149 240.826 439.149C240.826 439.149 238.205 434.281 237.58 433.108C236.956 431.935 236.407 431.935 234.16 431.722C231.914 431.523 230.878 429.476 230.466 428.577C230.054 427.678 228.044 426.642 226.559 425.856C225.074 425.057 226.047 417.73 227.221 415.521C228.394 413.312 231.989 412.838 234.61 412.001C237.231 411.178 237.68 409.48 237.68 408.382C237.68 407.271 235.995 404.962 235.508 404.163C235.022 403.364 234.472 400.431 234.223 399.782C233.986 399.12 229.754 396.199 229.355 395.8C228.968 395.413 227.32 395.188 227.32 395.188C228.007 393.416 228.668 391.519 228.906 390.832C229.155 390.146 228.344 389.359 228.569 389.135C228.793 388.91 229.218 387.824 229.43 387.275C229.63 386.726 229.967 386.738 230.641 386.064C231.315 385.39 230.641 382.994 230.466 382.37C230.291 381.745 227.495 373.183 227.495 372.696C227.495 372.209 226.447 369.476 225.835 368.864C225.236 368.265 224.624 365.894 224.624 364.82C224.624 363.759 223.925 360.938 224.312 360.539C224.712 360.14 226.322 357.843 226.147 357.156C225.972 356.47 224.562 353.424 224.936 353.05C225.323 352.663 226.185 350.491 226.185 349.38C226.185 348.282 226.497 346.896 227.108 344.001C227.732 341.092 229.605 339.133 230.528 337.822C231.464 336.499 236.407 326.626 237.443 325.278C238.479 323.93 238.167 321.072 237.855 320.447C237.543 319.823 236.307 319.823 236.582 318.475C236.856 317.127 240.376 317.814 241.999 317.814C243.622 317.814 247.216 316.616 249.426 315.779C251.635 314.956 251.26 313.508 253.22 311.011C255.192 308.527 259.748 308.49 262.269 308.49C264.791 308.49 265.602 307.716 266.351 306.98C267.087 306.231 268.735 303.422 269.596 302.074C270.457 300.726 271.156 296.445 271.156 294.96C271.156 293.474 271.88 288.319 272.255 286.559C272.629 284.8 273.328 283.938 272.492 281.105C271.668 278.272 266.588 278.097 263.343 277.448C260.098 276.786 259.885 272.405 259.885 271.257C259.885 270.558 260.422 268.898 260.959 267.412C259.636 266.426 256.615 264.429 255.092 264.18C253.195 263.868 250.786 262.27 250.562 262.045C250.337 261.821 249.975 260.522 249.188 260.073C248.39 259.624 246.081 261.384 245.519 261.933C244.97 262.495 243.709 262.644 242.074 263.668C240.426 264.679 239.652 266.701 239.652 266.701C236.782 271.12 233.574 266.114 232.438 264.592C231.29 263.081 224.737 259.387 224.737 259.387C224.737 259.387 220.88 256.653 216.848 255.318C212.817 253.982 208.485 257.776 206.201 260.348C203.93 262.919 201.034 260.348 199.074 258.376C197.102 256.416 192.159 256.416 190.362 256.416Z" fill="#88A1D2" stroke="#2D2A2B" stroke-width="3.01099" stroke-miterlimit="22.9256"/>
<path fill-rule="evenodd" clip-rule="evenodd" d="M132.547 65.2451C134.756 66.0065 136.354 63.9969 138.351 62.9609C140.36 61.9249 144.155 62.4866 146.501 63.585C148.848 64.6959 148.785 62.4866 149.135 61.1635C149.472 59.8529 150.758 59.2039 151.956 57.9932C153.167 56.7824 148.511 54.5357 146.714 53.4373C144.916 52.3264 144.604 49.2559 143.668 46.797C142.744 44.3506 141.321 45.9732 139.736 46.7346C138.151 47.496 135.455 44.1134 133.857 42.5158C132.272 40.9306 129.551 43.1024 128.752 43.9012C127.953 44.7001 125.956 46.0107 124.608 47.3587C123.26 48.7067 119.566 49.4931 117.768 50.3918C115.971 51.2904 117.419 52.7383 118.392 54.5357C119.353 56.3331 117.768 60.2648 117.768 60.2648C117.257 61.85 117.98 62.237 118.455 62.237C118.942 62.237 121.188 60.8889 122.362 60.5519C123.535 60.2024 124.371 61.0013 125.607 61.0013C126.855 61.0013 127.442 61.5879 127.816 62.4492C128.203 63.3104 130.337 64.4837 132.547 65.2451Z" fill="#88A1D2" stroke="#2D2A2B" stroke-width="3.01099" stroke-miterlimit="22.9256"/>
</svg>
