<svg width="392" height="324" viewBox="0 0 392 324" fill="none" xmlns="http://www.w3.org/2000/svg">
<path d="M39.1431 147.64L80.1648 152.528L55.4205 185.61L39.1431 147.64Z" fill="white" fill-opacity="0.4"/>
<path d="M280.152 253.863L322.561 266.086L290.771 296.701L280.152 253.863Z" fill="white" fill-opacity="0.4"/>
<path d="M403.671 302.564L381.582 340.773L359.536 302.539L403.671 302.564Z" fill="white" fill-opacity="0.4"/>
<path d="M283.876 186.58L305.929 185.778L295.598 205.277L283.876 186.58Z" fill="white" fill-opacity="0.4"/>
<path d="M341.524 143.905L359.841 143.238L351.26 159.434L341.524 143.905Z" fill="white" fill-opacity="0.4"/>
<path d="M377.821 31.2024L362.187 91.9168L317.424 48.0202L377.821 31.2024Z" fill="white" fill-opacity="0.4"/>
<path d="M111.718 71.6492L89.5493 42.6074L125.785 37.9296L111.718 71.6492Z" fill="white" fill-opacity="0.4"/>
<path d="M177.899 144.058L176.851 163.36L160.659 152.801L177.899 144.058Z" fill="white" fill-opacity="0.4"/>
<path d="M-4.54377 227.302L13.2787 234.787L-2.11423 246.479L-4.54377 227.302Z" fill="white" fill-opacity="0.4"/>
<path d="M248.865 194.067L245.015 213.01L230.535 200.204L248.865 194.067Z" fill="white" fill-opacity="0.4"/>
<path d="M206.245 73.0578L202.905 92.0973L188.087 79.6849L206.245 73.0578Z" fill="white" fill-opacity="0.4"/>
<path d="M201.097 0.997454L197.757 20.037L182.938 7.6246L201.097 0.997454Z" fill="white" fill-opacity="0.4"/>
<path d="M397.141 181.211L393.8 200.251L378.982 187.838L397.141 181.211Z" fill="white" fill-opacity="0.4"/>
<path d="M178.571 257.037L205.355 255.061L193.674 279.245L178.571 257.037Z" fill="white" fill-opacity="0.4"/>
<path d="M62.4114 286.513L80.1144 290.06L68.1912 303.617L62.4114 286.513Z" fill="white" fill-opacity="0.4"/>
<path d="M283.348 88.4484L302.011 120.622H264.686L283.348 88.4484Z" fill="white" fill-opacity="0.4"/>
<path d="M122.882 197.699L138.68 224.912H107.084L122.882 197.699Z" fill="white" fill-opacity="0.4"/>
<path d="M33.7933 58.043L6.60845 42.1975L34.0738 26.5785L33.7933 58.043Z" fill="white" fill-opacity="0.4"/>
<path d="M86.6828 79.6282L94.3214 92.8585H79.0442L86.6828 79.6282Z" fill="white" fill-opacity="0.4"/>
<path d="M69.4792 -7.98678L72.5356 6.98148L58.0445 2.14428L69.4792 -7.98678Z" fill="white" fill-opacity="0.4"/>
</svg>
