<svg width="1920" height="1618" viewBox="0 0 1920 1618" fill="none" xmlns="http://www.w3.org/2000/svg">
<g filter="url(#filter0_n_2771_4881)">
<path d="M768.626 0.0839844C1059.55 38.4383 1317.93 107.916 1493.5 107.916H1937.5V1616H1493.5C1251 1616 850.5 1483.45 424.5 1483.45C160.5 1483.45 52.6667 1520.02 -18 1538.31V30.2305C13.1492 22.1685 51.5201 10.554 107.304 0.0839844H768.626Z" fill="#B1F0F7"/>
</g>
<mask id="mask0_2771_4881" style="mask-type:alpha" maskUnits="userSpaceOnUse" x="-18" y="2" width="1956" height="1616">
<path d="M1937.5 1617.92H1493.5C1251 1617.92 850.5 1485.36 424.5 1485.36C160.5 1485.36 52.6667 1521.94 -18 1540.23V2H1937.5V1617.92Z" fill="#B1F0F7"/>
</mask>
<g mask="url(#mask0_2771_4881)">
<path d="M177.267 738.28L381.905 762.665L258.467 927.694L177.267 738.28Z" fill="white" fill-opacity="0.4"/>
<path d="M1374.56 1268.18L1586.11 1329.15L1427.53 1481.87L1374.56 1268.18Z" fill="white" fill-opacity="0.4"/>
<path d="M1990.73 1511.12L1880.54 1701.73L1770.57 1511L1990.73 1511.12Z" fill="white" fill-opacity="0.4"/>
<path d="M1393.13 932.532L1503.14 928.529L1451.61 1025.8L1393.13 932.532Z" fill="white" fill-opacity="0.4"/>
<path d="M1680.71 719.645L1772.08 716.32L1729.28 797.112L1680.71 719.645Z" fill="white" fill-opacity="0.4"/>
<path d="M1861.78 157.428L1783.79 460.303L1560.49 241.324L1861.78 157.428Z" fill="white" fill-opacity="0.4"/>
<path d="M539.308 359.198L428.718 214.322L609.479 190.986L539.308 359.198Z" fill="white" fill-opacity="0.4"/>
<path d="M869.455 720.41L864.226 816.698L783.453 764.026L869.455 720.41Z" fill="white" fill-opacity="0.4"/>
<path d="M-40.6663 1135.68L48.2416 1173.01L-28.5465 1231.34L-40.6663 1135.68Z" fill="white" fill-opacity="0.4"/>
<path d="M1223.47 969.882L1204.26 1064.38L1132.03 1000.5L1223.47 969.882Z" fill="white" fill-opacity="0.4"/>
<path d="M1020.84 366.224L1004.17 461.203L930.252 399.284L1020.84 366.224Z" fill="white" fill-opacity="0.4"/>
<path d="M985.178 6.74912L968.515 101.728L894.592 39.8088L985.178 6.74912Z" fill="white" fill-opacity="0.4"/>
<path d="M1948.18 905.749L1931.52 1000.73L1857.59 938.809L1948.18 905.749Z" fill="white" fill-opacity="0.4"/>
<path d="M872.805 1284.01L1006.42 1274.15L948.146 1394.79L872.805 1284.01Z" fill="white" fill-opacity="0.4"/>
<path d="M293.34 1431.05L381.652 1448.74L322.173 1516.37L293.34 1431.05Z" fill="white" fill-opacity="0.4"/>
<path d="M1390.5 443L1483.6 603.5H1297.4L1390.5 443Z" fill="white" fill-opacity="0.4"/>
<path d="M595 988L673.808 1123.75H516.192L595 988Z" fill="white" fill-opacity="0.4"/>
<path d="M150.579 291.323L14.967 212.277L151.979 134.361L150.579 291.323Z" fill="white" fill-opacity="0.4"/>
<path d="M414.419 399L452.524 465H376.314L414.419 399Z" fill="white" fill-opacity="0.4"/>
<path d="M328.599 -38.0683L343.846 36.6012L271.557 12.4707L328.599 -38.0683Z" fill="white" fill-opacity="0.4"/>
</g>
<defs>
<filter id="filter0_n_2771_4881" x="-18" y="0.0839844" width="1955.5" height="1615.92" filterUnits="userSpaceOnUse" color-interpolation-filters="sRGB">
<feFlood flood-opacity="0" result="BackgroundImageFix"/>
<feBlend mode="normal" in="SourceGraphic" in2="BackgroundImageFix" result="shape"/>
<feTurbulence type="fractalNoise" baseFrequency="2 2" stitchTiles="stitch" numOctaves="3" result="noise" seed="5269" />
<feColorMatrix in="noise" type="luminanceToAlpha" result="alphaNoise" />
<feComponentTransfer in="alphaNoise" result="coloredNoise1">
<feFuncA type="discrete" tableValues="1 1 1 1 1 1 1 1 1 1 1 1 1 1 1 1 1 1 1 1 1 1 1 1 1 1 1 1 1 1 1 1 1 1 1 1 1 1 1 1 1 1 1 1 1 1 1 1 1 1 1 0 0 0 0 0 0 0 0 0 0 0 0 0 0 0 0 0 0 0 0 0 0 0 0 0 0 0 0 0 0 0 0 0 0 0 0 0 0 0 0 0 0 0 0 0 0 0 0 0 "/>
</feComponentTransfer>
<feComposite operator="in" in2="shape" in="coloredNoise1" result="noise1Clipped" />
<feFlood flood-color="rgba(0, 0, 0, 0.03)" result="color1Flood" />
<feComposite operator="in" in2="noise1Clipped" in="color1Flood" result="color1" />
<feMerge result="effect1_noise_2771_4881">
<feMergeNode in="shape" />
<feMergeNode in="color1" />
</feMerge>
</filter>
</defs>
</svg>
