<svg width="29" height="30" viewBox="0 0 29 30" fill="none" xmlns="http://www.w3.org/2000/svg">
<g clip-path="url(#clip0_1566_5695)">
<path d="M9.59021 17.4098L24 3L9.59021 17.4098ZM24 3L15.4851 26.5797C15.4276 26.7051 15.3354 26.8114 15.2193 26.8859C15.1032 26.9604 14.9681 27 14.8301 27C14.6922 27 14.5571 26.9604 14.441 26.8859C14.3249 26.8114 14.2326 26.7051 14.1751 26.5797L9.59021 17.4098L0.420335 12.8249C0.294915 12.7674 0.188634 12.6751 0.114122 12.559C0.0396097 12.4429 0 12.3078 0 12.1699C0 12.0319 0.0396097 11.8968 0.114122 11.7807C0.188634 11.6646 0.294915 11.5724 0.420335 11.5149L24 3Z" fill="#F5F0CD"/>
<path d="M9.59021 17.4098L24 3M9.59021 17.4098L14.1751 26.5797C14.2326 26.7051 14.3249 26.8114 14.441 26.8859C14.5571 26.9604 14.6922 27 14.8301 27C14.9681 27 15.1032 26.9604 15.2193 26.8859C15.3354 26.8114 15.4276 26.7051 15.4851 26.5797L24 3M9.59021 17.4098L0.420335 12.8249C0.294915 12.7674 0.188634 12.6751 0.114122 12.559C0.0396097 12.4429 0 12.3078 0 12.1699C0 12.0319 0.0396097 11.8968 0.114122 11.7807C0.188634 11.6646 0.294915 11.5724 0.420335 11.5149L24 3" stroke="black" stroke-linecap="round" stroke-linejoin="round"/>
</g>
<defs>
<clipPath id="clip0_1566_5695">
<rect width="29" height="30" fill="white"/>
</clipPath>
</defs>
</svg>
