<svg width="21" height="21" viewBox="0 0 21 21" fill="none" xmlns="http://www.w3.org/2000/svg">
<path d="M10.5 8.38889C10.9852 8.38889 11.4656 8.29333 11.9138 8.10767C12.362 7.922 12.7693 7.64987 13.1124 7.30681C13.4554 6.96375 13.7276 6.55648 13.9132 6.10825C14.0989 5.66002 14.1944 5.17961 14.1944 4.69444C14.1944 4.20928 14.0989 3.72887 13.9132 3.28064C13.7276 2.83241 13.4554 2.42514 13.1124 2.08208C12.7693 1.73902 12.362 1.46689 11.9138 1.28122C11.4656 1.09556 10.9852 1 10.5 1C9.52017 1 8.58048 1.38924 7.88763 2.08208C7.19479 2.77492 6.80556 3.71462 6.80556 4.69444C6.80556 5.67427 7.19479 6.61397 7.88763 7.30681C8.58048 7.99965 9.52017 8.38889 10.5 8.38889ZM1 19.3667V20H20V19.3667C20 17.0022 20 15.82 19.5398 14.9164C19.135 14.122 18.4891 13.4761 17.6947 13.0713C16.7911 12.6111 15.6089 12.6111 13.2444 12.6111H7.75556C5.39111 12.6111 4.20889 12.6111 3.30533 13.0713C2.51091 13.4761 1.86501 14.122 1.46022 14.9164C1 15.82 1 17.0022 1 19.3667Z" stroke="#4F8DA8" stroke-width="2" stroke-linecap="round" stroke-linejoin="round"/>
</svg>
