<svg width="45" height="45" viewBox="0 0 45 45" fill="none" xmlns="http://www.w3.org/2000/svg">
<path d="M23.1738 7.53125H23.7754L24.1387 7.53613C27.8863 7.62993 31.4608 9.15908 34.1182 11.8164C36.8612 14.5594 38.4024 18.28 38.4033 22.1592C38.4038 24.3052 37.9812 26.4304 37.1602 28.4131C36.3391 30.3958 35.1356 32.1974 33.6182 33.7148C32.1007 35.2323 30.2991 36.4358 28.3164 37.2568C26.3337 38.0779 24.2085 38.5005 22.0625 38.5H7.39941C7.21173 38.5002 7.02824 38.4423 6.875 38.334C6.72173 38.2256 6.60629 38.0716 6.54395 37.8945C6.48161 37.7174 6.47581 37.5252 6.52734 37.3447C6.56605 37.2093 6.63535 37.0854 6.72949 36.9824L6.83105 36.8867L10.5264 33.918C10.6895 33.7872 10.807 33.6077 10.8594 33.4053C10.9117 33.2028 10.8958 32.9884 10.8164 32.7949L9.07227 28.5068V28.5059L8.88867 28.0361C5.22193 18.151 12.5288 7.53141 23.1738 7.53125ZM23.1738 9.34375C13.6446 9.34391 7.15309 18.9979 10.748 27.8223L12.4961 32.1143C12.7216 32.6686 12.7625 33.281 12.6123 33.8604C12.462 34.4399 12.1279 34.9561 11.6611 35.3311L11.082 35.7979L9.97754 36.6875H22.0625C23.9705 36.688 25.8602 36.3129 27.623 35.583C29.3859 34.8531 30.9877 33.7827 32.3369 32.4336C33.6861 31.0844 34.7564 29.4817 35.4863 27.7188C36.2162 25.9559 36.5913 24.0661 36.5908 22.1582C36.5897 18.76 35.2389 15.5016 32.8359 13.0986C30.5081 10.7708 27.3776 9.4302 24.0947 9.34766L23.7764 9.34375H23.1738Z" fill="black" stroke="black"/>
</svg>
