<svg width="36" height="36" viewBox="0 0 36 36" fill="none" xmlns="http://www.w3.org/2000/svg">
<path fill-rule="evenodd" clip-rule="evenodd" d="M6.88793 22.956C3.51593 14.6805 9.60443 5.625 18.5399 5.625H19.0214C22.2308 5.6258 25.3086 6.90108 27.578 9.17047C29.8474 11.4399 31.1226 14.5176 31.1234 17.727C31.1238 19.4964 30.7756 21.2486 30.0987 22.8834C29.4217 24.5182 28.4293 26.0036 27.1782 27.2547C25.927 28.5059 24.4416 29.4983 22.8068 30.1752C21.172 30.8522 19.4198 31.2004 17.6504 31.2H5.92043C5.68736 31.2002 5.45998 31.128 5.26971 30.9934C5.07944 30.8588 4.93567 30.6684 4.85828 30.4486C4.78088 30.2287 4.77367 29.9903 4.83765 29.7662C4.90163 29.5421 5.03364 29.3433 5.21543 29.1975L8.17193 26.823C8.23514 26.7724 8.28026 26.7026 8.30054 26.6242C8.32082 26.5458 8.31517 26.4629 8.28443 26.388L6.88793 22.956ZM18.5399 7.875C11.2004 7.875 6.20093 15.3105 8.96993 22.107L10.3679 25.5405C10.5809 26.0639 10.6194 26.6421 10.4775 27.189C10.3356 27.736 10.021 28.2226 9.58043 28.5765L9.11693 28.95H17.6504C19.1244 28.9504 20.5839 28.6604 21.9458 28.0965C23.3076 27.5326 24.5449 26.706 25.5872 25.6637C26.6294 24.6215 27.4561 23.3841 28.0199 22.0223C28.5838 20.6605 28.8738 19.2009 28.8734 17.727C28.8726 15.1143 27.8344 12.6089 25.987 10.7615C24.1395 8.91403 21.6341 7.8758 19.0214 7.875H18.5399Z" fill="black"/>
</svg>
