<svg width="15" height="15" viewBox="0 0 15 15" fill="currentColor" xmlns="http://www.w3.org/2000/svg">
<path d="M2.8125 15C2.29688 15 1.85563 14.8369 1.48875 14.5108C1.12188 14.1847 0.938128 13.7922 0.937503 13.3333V2.5C0.671878 2.5 0.449378 2.42 0.270003 2.26C0.0906283 2.1 0.000628232 1.90222 3.23275e-06 1.66667C-0.000621767 1.43111 0.0893783 1.23333 0.270003 1.07333C0.450628 0.913333 0.673128 0.833333 0.937503 0.833333H4.6875C4.6875 0.597222 4.7775 0.399444 4.9575 0.24C5.1375 0.0805556 5.36 0.000555556 5.625 0H9.375C9.64062 0 9.86344 0.0800001 10.0434 0.24C10.2234 0.4 10.3131 0.597778 10.3125 0.833333H14.0625C14.3281 0.833333 14.5509 0.913333 14.7309 1.07333C14.9109 1.23333 15.0006 1.43111 15 1.66667C14.9994 1.90222 14.9094 2.10028 14.73 2.26083C14.5506 2.42139 14.3281 2.50111 14.0625 2.5V13.3333C14.0625 13.7917 13.8791 14.1842 13.5122 14.5108C13.1453 14.8375 12.7037 15.0006 12.1875 15H2.8125ZM12.1875 2.5H2.8125V13.3333H12.1875V2.5ZM5.625 11.6667C5.89063 11.6667 6.11344 11.5867 6.29344 11.4267C6.47344 11.2667 6.56313 11.0689 6.5625 10.8333V5C6.5625 4.76389 6.4725 4.56611 6.2925 4.40667C6.1125 4.24722 5.89 4.16722 5.625 4.16667C5.36 4.16611 5.1375 4.24611 4.9575 4.40667C4.7775 4.56722 4.6875 4.765 4.6875 5V10.8333C4.6875 11.0694 4.7775 11.2675 4.9575 11.4275C5.1375 11.5875 5.36 11.6672 5.625 11.6667ZM9.375 11.6667C9.64062 11.6667 9.86344 11.5867 10.0434 11.4267C10.2234 11.2667 10.3131 11.0689 10.3125 10.8333V5C10.3125 4.76389 10.2225 4.56611 10.0425 4.40667C9.8625 4.24722 9.64 4.16722 9.375 4.16667C9.11 4.16611 8.8875 4.24611 8.7075 4.40667C8.5275 4.56722 8.4375 4.765 8.4375 5V10.8333C8.4375 11.0694 8.5275 11.2675 8.7075 11.4275C8.8875 11.5875 9.11 11.6672 9.375 11.6667Z" fill="currentColor"/>
</svg>
