<svg width="19" height="18" viewBox="0 0 19 18" fill="none" xmlns="http://www.w3.org/2000/svg">
<path d="M2.5 9V1M16.5 17V14M2.5 17V13M16.5 10V1M9.5 4V1M9.5 17V8" stroke="currentColor" stroke-linecap="round"/>
<path d="M2.5 13C3.60457 13 4.5 12.1046 4.5 11C4.5 9.89543 3.60457 9 2.5 9C1.39543 9 0.5 9.89543 0.5 11C0.5 12.1046 1.39543 13 2.5 13Z" stroke="currentColor" stroke-linecap="round"/>
<path d="M9.5 8C10.6046 8 11.5 7.10457 11.5 6C11.5 4.89543 10.6046 4 9.5 4C8.39543 4 7.5 4.89543 7.5 6C7.5 7.10457 8.39543 8 9.5 8Z" stroke="currentColor" stroke-linecap="round"/>
<path d="M16.5 14C17.6046 14 18.5 13.1046 18.5 12C18.5 10.8954 17.6046 10 16.5 10C15.3954 10 14.5 10.8954 14.5 12C14.5 13.1046 15.3954 14 16.5 14Z" stroke="currentColor" stroke-linecap="round"/></svg>