<svg width="18" height="18" viewBox="0 0 18 18" fill="none" xmlns="http://www.w3.org/2000/svg">
<path d="M2.77783 9V1M15.2223 17V14M2.77783 17V13M15.2223 10V1M9.00005 4V1M9.00005 17V8" stroke="currentColor" stroke-linecap="round"/>
<path d="M2.77778 13C3.75962 13 4.55556 12.1046 4.55556 11C4.55556 9.89543 3.75962 9 2.77778 9C1.79594 9 1 9.89543 1 11C1 12.1046 1.79594 13 2.77778 13Z" stroke="currentColor" stroke-linecap="round"/>
<path d="M8.99995 8C9.98179 8 10.7777 7.10457 10.7777 6C10.7777 4.89543 9.98179 4 8.99995 4C8.01811 4 7.22217 4.89543 7.22217 6C7.22217 7.10457 8.01811 8 8.99995 8Z" stroke="currentColor" stroke-linecap="round"/>
<path d="M15.2221 14C16.204 14 16.9999 13.1046 16.9999 12C16.9999 10.8954 16.204 10 15.2221 10C14.2403 10 13.4443 10.8954 13.4443 12C13.4443 13.1046 14.2403 14 15.2221 14Z" stroke="currentColor" stroke-linecap="round"/>
</svg>
