<svg width="16" height="16" viewBox="0 0 16 16" fill="none" xmlns="http://www.w3.org/2000/svg">
<path d="M2.55566 9V1M13.4446 17V14M2.55566 17V13M13.4446 10V1M8.00011 4V1M8.00011 17V8" stroke="currentColor" stroke-linecap="round"/>
<path d="M2.55556 13C3.41467 13 4.11111 12.1046 4.11111 11C4.11111 9.89543 3.41467 9 2.55556 9C1.69645 9 1 9.89543 1 11C1 12.1046 1.69645 13 2.55556 13Z" stroke="currentColor" stroke-linecap="round"/>
<path d="M7.99989 8C8.859 8 9.55545 7.10457 9.55545 6C9.55545 4.89543 8.859 4 7.99989 4C7.14078 4 6.44434 4.89543 6.44434 6C6.44434 7.10457 7.14078 8 7.99989 8Z" stroke="currentColor" stroke-linecap="round"/>
<path d="M13.4442 14C14.3033 14 14.9998 13.1046 14.9998 12C14.9998 10.8954 14.3033 10 13.4442 10C12.5851 10 11.8887 10.8954 11.8887 12C11.8887 13.1046 12.5851 14 13.4442 14Z" stroke="currentColor" stroke-linecap="round"/>
</svg>
