<svg width="230" height="265" viewBox="0 0 230 265" fill="none" xmlns="http://www.w3.org/2000/svg">
<path d="M61.3956 18.7833C63.162 12.9707 69.306 9.69024 75.1186 11.4566L83.2237 13.9198C83.1854 14.0329 83.1464 14.1466 83.1114 14.2617L25.9314 202.422L25.7811 202.968C24.4184 208.432 27.4218 214.058 32.7202 215.966L33.2581 216.145L146.776 250.641C144.877 256.24 138.864 259.359 133.166 257.627L11.5422 220.667C5.72953 218.901 2.44909 212.757 4.2155 206.944L61.3956 18.7833ZM83.2237 13.9198C85.1232 8.32156 91.1369 5.20367 96.8345 6.93501L218.459 43.8954L218.996 44.0733C224.471 46.0452 227.496 51.9873 225.785 57.6183L168.606 245.779L168.427 246.316C166.519 251.615 160.892 254.619 155.427 253.256L154.882 253.106L146.776 250.641C146.814 250.529 146.854 250.416 146.889 250.301L148.529 244.903L156.626 247.364C159.268 248.167 162.062 246.676 162.865 244.035L220.045 55.8738C220.848 53.2319 219.356 50.4388 216.715 49.6357L95.09 12.6753C92.5636 11.9077 89.9002 13.238 88.9698 15.6658L83.2237 13.9198ZM196.742 48.4169C202.555 50.1833 205.835 56.3274 204.069 62.1399L148.529 244.903L35.0026 210.404C32.3606 209.601 30.87 206.809 31.6726 204.167L88.8527 16.0063C88.8879 15.8906 88.9272 15.777 88.9698 15.6658L196.742 48.4169Z" fill="#81BFDA"/>
<path d="M97.2862 146.037C100.415 142.808 103.193 140.652 104.467 136.736C105.605 133.239 106.689 129.463 109.262 126.652C110.5 125.297 110.295 123.781 110.795 122.359C112.41 117.799 115.069 113.715 116.407 108.983C118.009 103.267 120.213 97.7236 122.149 92.0969C122.228 91.879 122.295 91.5719 122.193 91.3964C119.248 86.1014 123.298 86.0957 126.538 85.87C132.612 85.4504 138.63 83.9299 144.78 86.2371C148.13 87.4986 148.852 89.6869 147.591 92.058C142.157 102.27 139.59 113.573 134.96 124.103C132.458 129.806 130.294 135.783 127.691 141.418C125.756 145.617 124.985 150.459 122.381 154.049C118.045 160.026 115.779 167.56 108.504 171.52C101.661 175.246 96.8878 175.45 90.4433 171.63C84.1752 167.913 82.749 161.718 80.5537 155.698C79.0103 151.45 79.4861 147.051 78.8778 142.74C78.3758 139.202 81.394 138.173 83.4986 137.62C86.2745 136.892 88.8171 135.606 91.6133 134.978C95.0887 134.196 96.3647 135.016 95.861 138.424C95.4989 140.916 97.1637 142.847 97.2862 146.037Z" fill="white"/>
</svg>
