<svg width="18" height="16" viewBox="0 0 18 16" fill="none" xmlns="http://www.w3.org/2000/svg">
<path d="M12.79 0.26001C13.4419 0.257122 14.0879 0.384165 14.6904 0.633057C15.2929 0.881978 15.84 1.24806 16.2998 1.71021C17.2159 2.64484 17.7295 3.90148 17.7295 5.21021C17.7295 6.51892 17.2159 7.7756 16.2998 8.71021L9.53027 15.5002C9.46323 15.5754 9.3811 15.636 9.29004 15.679C9.19908 15.7218 9.10048 15.7463 9 15.7502C8.80125 15.7501 8.61023 15.6711 8.46973 15.5305L1.7002 8.74048C0.784159 7.80593 0.270617 6.54909 0.270508 5.24048C0.270508 3.93172 0.784069 2.67512 1.7002 1.74048C2.62849 0.812283 3.88746 0.290283 5.2002 0.290283C6.51278 0.29039 7.772 0.812377 8.7002 1.74048L9 2.00024L9.28027 1.71997C9.73915 1.25615 10.2853 0.887565 10.8877 0.636963C11.4903 0.386308 12.1374 0.258397 12.79 0.26001ZM5.20996 1.75024C4.75579 1.74694 4.30527 1.83349 3.88477 2.00513C3.46428 2.17676 3.08189 2.43009 2.75977 2.75024C2.1107 3.40239 1.74609 4.28522 1.74609 5.20532C1.74616 6.12538 2.1107 7.00831 2.75977 7.6604L9 13.9397L15.2295 7.67993C15.5521 7.35766 15.8088 6.9752 15.9834 6.55396C16.158 6.13272 16.2471 5.68084 16.2471 5.22485C16.247 4.76911 16.1578 4.31776 15.9834 3.89673C15.8088 3.47548 15.5521 3.09204 15.2295 2.76978C14.9099 2.44914 14.5292 2.19535 14.1104 2.02368C13.6915 1.85209 13.2426 1.76561 12.79 1.76978C12.3359 1.76647 11.8853 1.85307 11.4648 2.02466C11.0444 2.19626 10.6619 2.44969 10.3398 2.76978L9.53027 3.58032C9.38725 3.71603 9.19715 3.79121 9 3.79126C8.80282 3.79126 8.61279 3.71602 8.46973 3.58032L7.66016 2.76978C7.33967 2.446 6.95769 2.18901 6.53711 2.01392C6.11662 1.83888 5.66543 1.74958 5.20996 1.75024Z" fill="#FB0C0C"/>
<path d="M12.79 0.26001C13.4419 0.257122 14.0879 0.384165 14.6904 0.633057C15.2929 0.881978 15.84 1.24806 16.2998 1.71021C17.2159 2.64484 17.7295 3.90148 17.7295 5.21021C17.7295 6.51892 17.2159 7.7756 16.2998 8.71021L9.53027 15.5002C9.46323 15.5754 9.3811 15.636 9.29004 15.679C9.19908 15.7218 9.10048 15.7463 9 15.7502C8.80125 15.7501 8.61023 15.6711 8.46973 15.5305L1.7002 8.74048C0.784159 7.80593 0.270617 6.54909 0.270508 5.24048C0.270508 3.93172 0.784069 2.67512 1.7002 1.74048C2.62849 0.812283 3.88746 0.290283 5.2002 0.290283C6.51278 0.29039 7.772 0.812377 8.7002 1.74048L9 2.00024L9.28027 1.71997C9.73915 1.25615 10.2853 0.887565 10.8877 0.636963C11.4903 0.386308 12.1374 0.258397 12.79 0.26001ZM5.20996 1.75024C4.75579 1.74694 4.30527 1.83349 3.88477 2.00513C3.46428 2.17676 3.08189 2.43009 2.75977 2.75024C2.1107 3.40239 1.74609 4.28522 1.74609 5.20532C1.74616 6.12538 2.1107 7.00831 2.75977 7.6604L9 13.9397L15.2295 7.67993C15.5521 7.35766 15.8088 6.9752 15.9834 6.55396C16.158 6.13272 16.2471 5.68084 16.2471 5.22485C16.247 4.76911 16.1578 4.31776 15.9834 3.89673C15.8088 3.47548 15.5521 3.09204 15.2295 2.76978C14.9099 2.44914 14.5292 2.19535 14.1104 2.02368C13.6915 1.85209 13.2426 1.76561 12.79 1.76978C12.3359 1.76647 11.8853 1.85307 11.4648 2.02466C11.0444 2.19626 10.6619 2.44969 10.3398 2.76978L9.53027 3.58032C9.38725 3.71603 9.19715 3.79121 9 3.79126C8.80282 3.79126 8.61279 3.71602 8.46973 3.58032L7.66016 2.76978C7.33967 2.446 6.95769 2.18901 6.53711 2.01392C6.11662 1.83888 5.66543 1.74958 5.20996 1.75024Z" stroke="black"/>
</svg>
