<svg width="38" height="38" viewBox="0 0 38 38" fill="none" xmlns="http://www.w3.org/2000/svg">
<circle cx="19" cy="19" r="18.5" fill="white" stroke="black"/>
<g clip-path="url(#clip0_772_1176)">
<rect width="24" height="24" transform="translate(7 7)" fill="white"/>
<rect width="24" height="24" transform="translate(7 7)" fill="white"/>
<path d="M22.79 11.26C23.4419 11.2571 24.0879 11.3842 24.6904 11.6331C25.2929 11.882 25.84 12.2481 26.2998 12.7102C27.2159 13.6448 27.7295 14.9015 27.7295 16.2102C27.7295 17.5189 27.2159 18.7756 26.2998 19.7102L19.5303 26.5002C19.4632 26.5754 19.3811 26.636 19.29 26.679C19.1991 26.7218 19.1005 26.7463 19 26.7502C18.8012 26.7501 18.6102 26.6711 18.4697 26.5305L11.7002 19.7405C10.7842 18.8059 10.2706 17.5491 10.2705 16.2405C10.2705 14.9317 10.7841 13.6751 11.7002 12.7405C12.6285 11.8123 13.8875 11.2903 15.2002 11.2903C16.5128 11.2904 17.772 11.8124 18.7002 12.7405L19 13.0002L19.2803 12.72C19.7391 12.2562 20.2853 11.8876 20.8877 11.637C21.4903 11.3863 22.1374 11.2584 22.79 11.26Z" fill="currentColor"/>
<path d="M22.79 11.26C23.4419 11.2571 24.0879 11.3842 24.6904 11.6331C25.2929 11.882 25.84 12.2481 26.2998 12.7102C27.2159 13.6448 27.7295 14.9015 27.7295 16.2102C27.7295 17.5189 27.2159 18.7756 26.2998 19.7102L19.5303 26.5002C19.4632 26.5754 19.3811 26.636 19.29 26.679C19.1991 26.7218 19.1005 26.7463 19 26.7502C18.8012 26.7501 18.6102 26.6711 18.4697 26.5305L11.7002 19.7405C10.7842 18.8059 10.2706 17.5491 10.2705 16.2405C10.2705 14.9317 10.7841 13.6751 11.7002 12.7405C12.6285 11.8123 13.8875 11.2903 15.2002 11.2903C16.5128 11.2904 17.772 11.8124 18.7002 12.7405L19 13.0002L19.2803 12.72C19.7391 12.2562 20.2853 11.8876 20.8877 11.637C21.4903 11.3863 22.1374 11.2584 22.79 11.26Z" stroke="currentColor"/>
</g>
<defs>
<clipPath id="clip0_772_1176">
<rect width="24" height="24" fill="white" transform="translate(7 7)"/>
</clipPath>
</defs>
</svg>
