<svg width="36" height="36" viewBox="0 0 36 36" fill="none" xmlns="http://www.w3.org/2000/svg">
<circle cx="19" cy="19" r="18.5" fill="white" stroke="black"/>
<rect width="24" height="24" transform="translate(7 7)" fill="white"/>
<path d="M22.79 11.26C23.4419 11.2571 24.0879 11.3842 24.6904 11.6331C25.2929 11.882 25.84 12.2481 26.2998 12.7102C27.2159 13.6448 27.7295 14.9015 27.7295 16.2102C27.7295 17.5189 27.2159 18.7756 26.2998 19.7102L19.5303 26.5002C19.4632 26.5754 19.3811 26.636 19.29 26.679C19.1991 26.7218 19.1005 26.7463 19 26.7502C18.8012 26.7501 18.6102 26.6711 18.4697 26.5305L11.7002 19.7405C10.7842 18.8059 10.2706 17.5491 10.2705 16.2405C10.2705 14.9317 10.7841 13.6751 11.7002 12.7405C12.6285 11.8123 13.8875 11.2903 15.2002 11.2903C16.5128 11.2904 17.772 11.8124 18.7002 12.7405L19 13.0002L19.2803 12.72C19.7391 12.2562 20.2853 11.8876 20.8877 11.637C21.4903 11.3863 22.1374 11.2584 22.79 11.26ZM15.21 12.7502C14.7558 12.7469 14.3053 12.8335 13.8848 13.0051C13.4643 13.1768 13.0819 13.4301 12.7598 13.7502C12.1107 14.4024 11.7461 15.2852 11.7461 16.2053C11.7462 17.1254 12.1107 18.0083 12.7598 18.6604L19 24.9397L25.2295 18.6799C25.5521 18.3577 25.8088 17.9752 25.9834 17.554C26.158 17.1327 26.2471 16.6808 26.2471 16.2249C26.247 15.7691 26.1578 15.3178 25.9834 14.8967C25.8088 14.4755 25.5521 14.092 25.2295 13.7698C24.9099 13.4491 24.5292 13.1954 24.1104 13.0237C23.6915 12.8521 23.2426 12.7656 22.79 12.7698C22.3359 12.7665 21.8853 12.8531 21.4648 13.0247C21.0444 13.1963 20.6619 13.4497 20.3398 13.7698L19.5303 14.5803C19.3873 14.716 19.1972 14.7912 19 14.7913C18.8028 14.7913 18.6128 14.716 18.4697 14.5803L17.6602 13.7698C17.3397 13.446 16.9577 13.189 16.5371 13.0139C16.1166 12.8389 15.6654 12.7496 15.21 12.7502Z" fill="currentColor"/>
<path d="M22.79 11.26C23.4419 11.2571 24.0879 11.3842 24.6904 11.6331C25.2929 11.882 25.84 12.2481 26.2998 12.7102C27.2159 13.6448 27.7295 14.9015 27.7295 16.2102C27.7295 17.5189 27.2159 18.7756 26.2998 19.7102L19.5303 26.5002C19.4632 26.5754 19.3811 26.636 19.29 26.679C19.1991 26.7218 19.1005 26.7463 19 26.7502C18.8012 26.7501 18.6102 26.6711 18.4697 26.5305L11.7002 19.7405C10.7842 18.8059 10.2706 17.5491 10.2705 16.2405C10.2705 14.9317 10.7841 13.6751 11.7002 12.7405C12.6285 11.8123 13.8875 11.2903 15.2002 11.2903C16.5128 11.2904 17.772 11.8124 18.7002 12.7405L19 13.0002L19.2803 12.72C19.7391 12.2562 20.2853 11.8876 20.8877 11.637C21.4903 11.3863 22.1374 11.2584 22.79 11.26ZM15.21 12.7502C14.7558 12.7469 14.3053 12.8335 13.8848 13.0051C13.4643 13.1768 13.0819 13.4301 12.7598 13.7502C12.1107 14.4024 11.7461 15.2852 11.7461 16.2053C11.7462 17.1254 12.1107 18.0083 12.7598 18.6604L19 24.9397L25.2295 18.6799C25.5521 18.3577 25.8088 17.9752 25.9834 17.554C26.158 17.1327 26.2471 16.6808 26.2471 16.2249C26.247 15.7691 26.1578 15.3178 25.9834 14.8967C25.8088 14.4755 25.5521 14.092 25.2295 13.7698C24.9099 13.4491 24.5292 13.1954 24.1104 13.0237C23.6915 12.8521 23.2426 12.7656 22.79 12.7698C22.3359 12.7665 21.8853 12.8531 21.4648 13.0247C21.0444 13.1963 20.6619 13.4497 20.3398 13.7698L19.5303 14.5803C19.3873 14.716 19.1972 14.7912 19 14.7913C18.8028 14.7913 18.6128 14.716 18.4697 14.5803L17.6602 13.7698C17.3397 13.446 16.9577 13.189 16.5371 13.0139C16.1166 12.8389 15.6654 12.7496 15.21 12.7502Z" stroke="currentColor"/>
</svg>
