<svg width="38" height="38" viewBox="0 0 38 38" fill="none" xmlns="http://www.w3.org/2000/svg">
<circle cx="19" cy="19" r="18.5" fill="white" stroke="black"/>
<rect width="24" height="24" transform="translate(7 7)" fill="white"/>
<path d="M22.7903 11.2599C23.4421 11.2571 24.0882 11.3841 24.6907 11.633C25.2932 11.8819 25.8403 12.248 26.3 12.7101C27.2161 13.6448 27.7297 14.9014 27.7297 16.2101C27.7297 17.5189 27.2161 18.7755 26.3 19.7101L19.5305 26.5002C19.4635 26.5753 19.3813 26.6359 19.2903 26.6789C19.1993 26.7218 19.1007 26.7462 19.0002 26.7502C18.8015 26.75 18.6105 26.671 18.47 26.5305L11.7004 19.7404C10.7844 18.8059 10.2709 17.549 10.2708 16.2404C10.2708 14.9317 10.7843 13.6751 11.7004 12.7404C12.6287 11.8122 13.8877 11.2902 15.2004 11.2902C16.513 11.2903 17.7722 11.8123 18.7004 12.7404L19.0002 13.0002L19.2805 12.7199C19.7394 12.2561 20.2855 11.8875 20.8879 11.6369C21.4905 11.3862 22.1376 11.2583 22.7903 11.2599ZM15.2102 12.7502C14.756 12.7469 14.3055 12.8334 13.885 13.0051C13.4645 13.1767 13.0821 13.43 12.76 13.7502C12.1109 14.4023 11.7463 15.2852 11.7463 16.2053C11.7464 17.1253 12.1109 18.0082 12.76 18.6603L19.0002 24.9396L25.2297 18.6799C25.5524 18.3576 25.809 17.9751 25.9836 17.5539C26.1582 17.1327 26.2473 16.6808 26.2473 16.2248C26.2473 15.7691 26.1581 15.3177 25.9836 14.8967C25.809 14.4754 25.5524 14.092 25.2297 13.7697C24.9102 13.4491 24.5295 13.1953 24.1106 13.0236C23.6918 12.852 23.2429 12.7655 22.7903 12.7697C22.3362 12.7664 21.8855 12.853 21.4651 13.0246C21.0447 13.1962 20.6622 13.4496 20.3401 13.7697L19.5305 14.5803C19.3875 14.716 19.1974 14.7911 19.0002 14.7912C18.8031 14.7912 18.613 14.716 18.47 14.5803L17.6604 13.7697C17.3399 13.4459 16.9579 13.189 16.5374 13.0139C16.1169 12.8388 15.6657 12.7495 15.2102 12.7502Z" fill="currentColor"/>
<path d="M22.7903 11.2599C23.4421 11.2571 24.0882 11.3841 24.6907 11.633C25.2932 11.8819 25.8403 12.248 26.3 12.7101C27.2161 13.6448 27.7297 14.9014 27.7297 16.2101C27.7297 17.5189 27.2161 18.7755 26.3 19.7101L19.5305 26.5002C19.4635 26.5753 19.3813 26.6359 19.2903 26.6789C19.1993 26.7218 19.1007 26.7462 19.0002 26.7502C18.8015 26.75 18.6105 26.671 18.47 26.5305L11.7004 19.7404C10.7844 18.8059 10.2709 17.549 10.2708 16.2404C10.2708 14.9317 10.7843 13.6751 11.7004 12.7404C12.6287 11.8122 13.8877 11.2902 15.2004 11.2902C16.513 11.2903 17.7722 11.8123 18.7004 12.7404L19.0002 13.0002L19.2805 12.7199C19.7394 12.2561 20.2855 11.8875 20.8879 11.6369C21.4905 11.3862 22.1376 11.2583 22.7903 11.2599ZM15.2102 12.7502C14.756 12.7469 14.3055 12.8334 13.885 13.0051C13.4645 13.1767 13.0821 13.43 12.76 13.7502C12.1109 14.4023 11.7463 15.2852 11.7463 16.2053C11.7464 17.1253 12.1109 18.0082 12.76 18.6603L19.0002 24.9396L25.2297 18.6799C25.5524 18.3576 25.809 17.9751 25.9836 17.5539C26.1582 17.1327 26.2473 16.6808 26.2473 16.2248C26.2473 15.7691 26.1581 15.3177 25.9836 14.8967C25.809 14.4754 25.5524 14.092 25.2297 13.7697C24.9102 13.4491 24.5295 13.1953 24.1106 13.0236C23.6918 12.852 23.2429 12.7655 22.7903 12.7697C22.3362 12.7664 21.8855 12.853 21.4651 13.0246C21.0447 13.1962 20.6622 13.4496 20.3401 13.7697L19.5305 14.5803C19.3875 14.716 19.1974 14.7911 19.0002 14.7912C18.8031 14.7912 18.613 14.716 18.47 14.5803L17.6604 13.7697C17.3399 13.4459 16.9579 13.189 16.5374 13.0139C16.1169 12.8388 15.6657 12.7495 15.2102 12.7502Z" stroke="currentColor"/>
</svg>
