<svg width="38" height="38" viewBox="0 0 38 38" fill="currentColor" xmlns="http://www.w3.org/2000/svg">
<circle cx="19" cy="19" r="18.5" fill="white" stroke="black"/>
<rect width="24" height="24" transform="translate(7 7)" fill="white"/>
<path d="M22.79 11.2598C23.4419 11.2569 24.0879 11.3839 24.6904 11.6328C25.2929 11.8817 25.84 12.2478 26.2998 12.71C27.2159 13.6446 27.7295 14.9012 27.7295 16.21C27.7295 17.5187 27.2159 18.7754 26.2998 19.71L19.5303 26.5C19.4632 26.5751 19.3811 26.6358 19.29 26.6787C19.1991 26.7216 19.1005 26.746 19 26.75C18.8012 26.7498 18.6102 26.6708 18.4697 26.5303L11.7002 19.7402C10.7842 18.8057 10.2706 17.5488 10.2705 16.2402C10.2705 14.9315 10.7841 13.6749 11.7002 12.7402C12.6285 11.812 13.8875 11.29 15.2002 11.29C16.5128 11.2901 17.772 11.8121 18.7002 12.7402L19 13L19.2803 12.7197C19.7391 12.2559 20.2853 11.8873 20.8877 11.6367C21.4903 11.3861 22.1374 11.2582 22.79 11.2598ZM15.21 12.75C14.7558 12.7467 14.3053 12.8332 13.8848 13.0049C13.4643 13.1765 13.0819 13.4298 12.7598 13.75C12.1107 14.4021 11.7461 15.285 11.7461 16.2051C11.7462 17.1251 12.1107 18.0081 12.7598 18.6602L19 24.9395L25.2295 18.6797C25.5521 18.3574 25.8088 17.975 25.9834 17.5537C26.158 17.1325 26.2471 16.6806 26.2471 16.2246C26.247 15.7689 26.1578 15.3175 25.9834 14.8965C25.8088 14.4752 25.5521 14.0918 25.2295 13.7695C24.9099 13.4489 24.5292 13.1951 24.1104 13.0234C23.6915 12.8518 23.2426 12.7654 22.79 12.7695C22.3359 12.7662 21.8853 12.8528 21.4648 13.0244C21.0444 13.196 20.6619 13.4494 20.3398 13.7695L19.5303 14.5801C19.3873 14.7158 19.1972 14.791 19 14.791C18.8028 14.791 18.6128 14.7158 18.4697 14.5801L17.6602 13.7695C17.3397 13.4458 16.9577 13.1888 16.5371 13.0137C16.1166 12.8386 15.6654 12.7493 15.21 12.75Z" fill="#FB0C0C"/>
<path d="M22.79 11.2598C23.4419 11.2569 24.0879 11.3839 24.6904 11.6328C25.2929 11.8817 25.84 12.2478 26.2998 12.71C27.2159 13.6446 27.7295 14.9012 27.7295 16.21C27.7295 17.5187 27.2159 18.7754 26.2998 19.71L19.5303 26.5C19.4632 26.5751 19.3811 26.6358 19.29 26.6787C19.1991 26.7216 19.1005 26.746 19 26.75C18.8012 26.7498 18.6102 26.6708 18.4697 26.5303L11.7002 19.7402C10.7842 18.8057 10.2706 17.5488 10.2705 16.2402C10.2705 14.9315 10.7841 13.6749 11.7002 12.7402C12.6285 11.812 13.8875 11.29 15.2002 11.29C16.5128 11.2901 17.772 11.8121 18.7002 12.7402L19 13L19.2803 12.7197C19.7391 12.2559 20.2853 11.8873 20.8877 11.6367C21.4903 11.3861 22.1374 11.2582 22.79 11.2598ZM15.21 12.75C14.7558 12.7467 14.3053 12.8332 13.8848 13.0049C13.4643 13.1765 13.0819 13.4298 12.7598 13.75C12.1107 14.4021 11.7461 15.285 11.7461 16.2051C11.7462 17.1251 12.1107 18.0081 12.7598 18.6602L19 24.9395L25.2295 18.6797C25.5521 18.3574 25.8088 17.975 25.9834 17.5537C26.158 17.1325 26.2471 16.6806 26.2471 16.2246C26.247 15.7689 26.1578 15.3175 25.9834 14.8965C25.8088 14.4752 25.5521 14.0918 25.2295 13.7695C24.9099 13.4489 24.5292 13.1951 24.1104 13.0234C23.6915 12.8518 23.2426 12.7654 22.79 12.7695C22.3359 12.7662 21.8853 12.8528 21.4648 13.0244C21.0444 13.196 20.6619 13.4494 20.3398 13.7695L19.5303 14.5801C19.3873 14.7158 19.1972 14.791 19 14.791C18.8028 14.791 18.6128 14.7158 18.4697 14.5801L17.6602 13.7695C17.3397 13.4458 16.9577 13.1888 16.5371 13.0137C16.1166 12.8386 15.6654 12.7493 15.21 12.75Z" stroke="currentColor"/>
</svg>
