<svg width="36" height="36" viewBox="0 0 36 36" fill="none" xmlns="http://www.w3.org/2000/svg">
<mask id="mask0_538_1387" style="mask-type:luminance" maskUnits="userSpaceOnUse" x="3" y="3" width="30" height="30">
<path d="M3 3H33V33H3V3Z" fill="white"/>
</mask>
<g mask="url(#mask0_538_1387)">
<path d="M13.9954 18.3298V19.1098C13.9954 19.2448 13.9204 19.3048 13.7854 19.3048H10.6804C10.5004 19.3048 10.4404 19.3048 10.4404 19.0648V14.2498C10.4404 14.0548 10.4404 13.9948 10.6954 13.9948H11.3854C11.5654 13.9948 11.6254 14.0698 11.6254 14.2348V18.0748H13.8304C13.8741 18.0795 13.9148 18.0988 13.9461 18.1296C13.9774 18.1604 13.9974 18.2008 14.0029 18.2443C14.0088 18.2729 14.0062 18.3027 13.9954 18.3298ZM15.9154 14.2348V19.0648C15.9154 19.2448 15.9154 19.3048 15.6604 19.3048C15.4204 19.3198 15.1804 19.3198 14.9404 19.3048C14.9077 19.3099 14.8743 19.3073 14.8428 19.297C14.8114 19.2868 14.7828 19.2692 14.7594 19.2459C14.736 19.2225 14.7185 19.1939 14.7082 19.1624C14.698 19.1309 14.6953 19.0975 14.7004 19.0648V14.2348C14.6925 14.1954 14.6952 14.1546 14.7084 14.1167C14.7216 14.0787 14.7446 14.0449 14.7753 14.0189C14.8059 13.9929 14.8429 13.9755 14.8825 13.9686C14.9221 13.9618 14.9628 13.9656 15.0004 13.9798H15.7054C15.7364 13.9816 15.7667 13.9898 15.7943 14.0038C15.822 14.0179 15.8465 14.0375 15.8662 14.0614C15.8859 14.0854 15.9005 14.1131 15.9089 14.143C15.9174 14.1728 15.9196 14.2041 15.9154 14.2348ZM21.3604 14.2198V19.0648C21.3604 19.2298 21.3604 19.2898 21.1204 19.2898H20.3554C20.3203 19.2911 20.2854 19.2835 20.2539 19.2678C20.2225 19.2521 20.1955 19.2287 20.1754 19.1998L19.0504 17.6998L18.0004 16.2748V16.1698V19.0798C18.0004 19.2898 18.0004 19.3348 17.7454 19.3348H17.0554C17.0061 19.3426 16.9555 19.3326 16.9129 19.3064C16.8703 19.2803 16.8384 19.2399 16.8229 19.1923C16.8128 19.1609 16.8102 19.1275 16.8154 19.0948V14.2498C16.8132 14.2197 16.8175 14.1895 16.828 14.1611C16.8385 14.1328 16.855 14.1071 16.8764 14.0858C16.8977 14.0644 16.9234 14.0479 16.9517 14.0374C16.9801 14.0269 17.0103 14.0226 17.0404 14.0248H17.8654C17.8931 14.0293 17.9194 14.0396 17.9427 14.0551C17.966 14.0706 17.9857 14.091 18.0004 14.1148L19.6504 16.4998L20.0854 17.0848V17.1598V14.2498C20.0854 14.0548 20.1604 13.9798 20.3554 13.9798H21.0304C21.2704 13.9798 21.3604 14.0548 21.3604 14.2198ZM25.7254 14.2498V14.9998C25.7254 15.1648 25.7254 15.2398 25.5004 15.2398H23.4754C23.3704 15.2398 23.3704 15.2398 23.3704 15.3448V15.9748C23.3704 16.0948 23.3704 16.0948 23.4754 16.0948H25.5004C25.6954 16.0948 25.7554 16.1698 25.7554 16.3648V17.0548C25.7606 17.0875 25.7579 17.1209 25.7476 17.1524C25.7374 17.1839 25.7199 17.2125 25.6965 17.2359C25.6731 17.2592 25.6445 17.2768 25.613 17.287C25.5816 17.2973 25.5481 17.2999 25.5154 17.2948H23.4754C23.3704 17.2948 23.3704 17.2948 23.3704 17.4148V17.9998C23.3704 18.1198 23.3704 18.1198 23.4754 18.1198H25.5004C25.6804 18.1198 25.7404 18.1198 25.7404 18.3748V19.0648C25.7404 19.2448 25.7404 19.3048 25.5004 19.3048H22.4254C22.1554 19.3048 22.1704 19.3048 22.1704 19.0648V14.2498C22.1704 14.0698 22.2454 13.9948 22.4254 13.9948H25.4254C25.6654 13.9948 25.7254 14.0698 25.7254 14.2498Z" fill="#4f8da8"/>
<path d="M27 3H9C7.4087 3 5.88258 3.63214 4.75736 4.75736C3.63214 5.88258 3 7.4087 3 9V27C3 28.5913 3.63214 30.1174 4.75736 31.2426C5.88258 32.3679 7.4087 33 9 33H27C28.5913 33 30.1174 32.3679 31.2426 31.2426C32.3679 30.1174 33 28.5913 33 27V9C33 7.4087 32.3679 5.88258 31.2426 4.75736C30.1174 3.63214 28.5913 3 27 3ZM28.65 19.5C28.2687 20.3592 27.7633 21.1577 27.15 21.87C26.169 22.9827 25.0729 23.9883 23.88 24.87C22.499 25.955 21.059 26.955 19.56 27.87C19.095 28.155 18.615 28.41 18.135 28.65C17.9256 28.7734 17.688 28.8405 17.445 28.845C17.3909 28.8552 17.3352 28.8523 17.2825 28.8365C17.2297 28.8208 17.1815 28.7926 17.1419 28.7545C17.1023 28.7163 17.0723 28.6692 17.0546 28.6171C17.0369 28.565 17.0319 28.5094 17.04 28.455C17.026 28.2502 17.026 28.0448 17.04 27.84C17.1395 27.3763 17.1947 26.9042 17.205 26.43C17.209 26.2887 17.1713 26.1493 17.0966 26.0293C17.0219 25.9092 16.9135 25.8139 16.785 25.755C16.5349 25.6321 16.2663 25.551 15.99 25.515C14.5466 25.3067 13.1476 24.8607 11.85 24.195C10.6274 23.5703 9.54132 22.7085 8.655 21.66C7.74824 20.6029 7.12384 19.3335 6.84 17.97C6.84 17.655 6.75 17.34 6.72 17.01C6.69 16.68 6.72 16.395 6.72 16.08C6.76504 15.2507 6.94752 14.4345 7.26 13.665C7.66677 12.6376 8.25629 11.6923 9 10.875C10.0641 9.76138 11.3456 8.87814 12.765 8.28C13.6595 7.92171 14.5898 7.66022 15.54 7.5L16.68 7.35H19.215C20.9338 7.49135 22.6067 7.9759 24.135 8.775C25.2 9.3225 26.169 10.041 27 10.905C27.8719 11.8154 28.5236 12.9135 28.905 14.115C29.07 14.5995 29.1765 15.105 29.22 15.615V16.59C29.2385 17.5894 29.0442 18.5814 28.65 19.5Z" fill="#4f8da8"/>
<path d="M21.3604 14.2198V19.0648C21.3604 19.2298 21.3604 19.2898 21.1204 19.2898H20.3554C20.3203 19.2911 20.2854 19.2835 20.2539 19.2678C20.2225 19.2521 20.1955 19.2287 20.1754 19.1998L19.0504 17.6998L18.0004 16.2748V16.1698V19.0798C18.0004 19.2898 18.0004 19.3348 17.7454 19.3348H17.0554C17.0061 19.3426 16.9555 19.3326 16.9129 19.3064C16.8703 19.2803 16.8384 19.2399 16.8229 19.1923C16.8128 19.1609 16.8102 19.1275 16.8154 19.0948V14.2498C16.8132 14.2197 16.8175 14.1895 16.828 14.1611C16.8385 14.1328 16.855 14.1071 16.8764 14.0858C16.8977 14.0644 16.9234 14.0479 16.9517 14.0374C16.9801 14.0269 17.0103 14.0226 17.0404 14.0248H17.8654C17.8931 14.0293 17.9194 14.0396 17.9427 14.0551C17.966 14.0706 17.9857 14.091 18.0004 14.1148L19.6504 16.4998L20.0854 17.0848V17.1598V14.2498C20.0854 14.0548 20.1604 13.9798 20.3554 13.9798H21.0304C21.2704 13.9798 21.3604 14.0548 21.3604 14.2198ZM23.3704 15.2998V15.9298C23.3704 16.0498 23.3704 16.0498 23.4754 16.0498H25.5004C25.6954 16.0498 25.7554 16.1248 25.7554 16.3198V17.0098C25.7606 17.0425 25.7579 17.0759 25.7476 17.1074C25.7374 17.1389 25.7199 17.1675 25.6965 17.1909C25.6731 17.2142 25.6445 17.2318 25.613 17.242C25.5816 17.2523 25.5481 17.2549 25.5154 17.2498H23.4754C23.3704 17.2498 23.3704 17.2498 23.3704 17.3698V17.9998C23.3704 18.1198 23.3704 18.1198 23.4754 18.1198H25.5004C25.6804 18.1198 25.7404 18.1198 25.7404 18.3748V19.0648C25.7404 19.2448 25.7404 19.3048 25.5004 19.3048H22.4254C22.1554 19.3048 22.1704 19.3048 22.1704 19.0648V14.2498C22.1704 14.0698 22.2454 13.9948 22.4254 13.9948H25.4254C25.6054 13.9948 25.6654 14.0698 25.6654 14.2498V14.9998C25.6654 15.1648 25.6654 15.2398 25.4404 15.2398H23.4754C23.3704 15.1948 23.3704 15.1948 23.3704 15.2998ZM13.9954 18.3298V19.1098C13.9954 19.2448 13.9204 19.3048 13.7854 19.3048H10.6804C10.5004 19.3048 10.4404 19.3048 10.4404 19.0648V14.2498C10.4404 14.0548 10.4404 13.9948 10.6954 13.9948H11.3854C11.5654 13.9948 11.6254 14.0698 11.6254 14.2348V18.0748H13.8304C13.8741 18.0795 13.9148 18.0988 13.9461 18.1296C13.9774 18.1604 13.9974 18.2008 14.0029 18.2443C14.0088 18.2729 14.0062 18.3027 13.9954 18.3298ZM15.9154 14.2348V19.0648C15.9154 19.2448 15.9154 19.3048 15.6604 19.3048C15.4204 19.3198 15.1804 19.3198 14.9404 19.3048C14.9077 19.3099 14.8743 19.3073 14.8428 19.297C14.8114 19.2868 14.7828 19.2692 14.7594 19.2459C14.736 19.2225 14.7185 19.1939 14.7082 19.1624C14.698 19.1309 14.6953 19.0975 14.7004 19.0648V14.2348C14.6925 14.1954 14.6952 14.1546 14.7084 14.1167C14.7216 14.0787 14.7446 14.0449 14.7753 14.0189C14.8059 13.9929 14.8429 13.9755 14.8825 13.9686C14.9221 13.9618 14.9628 13.9656 15.0004 13.9798H15.7054C15.7364 13.9816 15.7667 13.9898 15.7943 14.0038C15.822 14.0179 15.8465 14.0375 15.8662 14.0614C15.8859 14.0854 15.9005 14.1131 15.9089 14.143C15.9174 14.1728 15.9196 14.2041 15.9154 14.2348Z" fill="#4f8da8"/>
</g>
</svg>
