<svg width="141" height="49" viewBox="0 0 141 49" fill="none" xmlns="http://www.w3.org/2000/svg">
<path d="M9.1589 31.4755C10.5376 29.7687 11.7927 28.5992 12.2396 26.6405C12.6389 24.891 13.0002 23.0083 14.127 21.5298C14.6689 20.8167 14.5025 20.0893 14.6832 19.3762C15.268 17.0895 16.3804 14.9881 16.8226 12.6301C17.3503 9.78235 18.1775 6.99167 18.8716 4.17247C18.9001 4.06313 18.9191 3.911 18.8621 3.83018C17.1981 1.38655 19.1663 1.20589 20.7305 0.953926C23.6638 0.483267 26.521 -0.519855 29.6112 0.331134C31.2941 0.797039 31.741 1.82869 31.2323 3.03624C29.0407 8.23726 28.2895 13.8424 26.502 19.1623C25.5369 22.0433 24.7477 25.0431 23.7303 27.8956C22.9744 30.0207 22.8128 32.4073 21.7051 34.2661C19.8605 37.3611 19.0903 41.1216 15.7291 43.3655C12.5676 45.4764 10.2571 45.7854 6.95773 44.2118C3.74869 42.6809 2.78361 39.7334 1.45245 36.9047C0.515885 34.9079 0.553918 32.7496 0.0689963 30.6815C-0.330351 28.9843 1.09113 28.352 2.0895 27.9907C3.4064 27.5153 4.58542 26.7784 5.91658 26.3505C7.57102 25.818 8.22709 26.1603 8.132 27.8385C8.06545 29.0651 8.95922 29.9304 9.1589 31.4755Z" fill="#81BFDA"/>
<path d="M47.0999 0.971035C52.0156 0.723822 55.9806 2.75403 58.8997 6.42416C60.6825 8.66336 60.521 11.7348 60.2786 14.554C60.036 17.3446 58.9856 19.9927 58.843 22.8451C58.7574 24.5137 57.6067 26.1019 57.2122 27.7943C56.5941 30.4327 55.4147 32.838 54.2786 35.2435C51.6067 40.8724 47.1333 45.4933 39.6028 45.0179C36.5748 44.8277 35.1724 42.5605 33.7795 40.3167C31.9017 37.3074 31.25 34.0124 31.5637 30.4183C30.9552 26.1396 32.5435 22.246 33.9602 18.2288C34.9776 15.3432 36.3369 12.6332 37.6965 9.96615C39.099 7.21826 40.4353 4.24188 43.2307 2.37826C44.4428 1.57498 45.6073 1.04716 47.0999 0.971035ZM46.9446 11.723C46.4551 11.7492 46.0726 11.9322 45.6751 12.2093C44.7586 12.8522 44.3204 13.8787 43.8606 14.8265C43.4148 15.7465 42.9686 16.6817 42.635 17.6771C42.1705 19.0626 41.6505 20.4055 41.8499 21.8812C41.747 23.121 41.9606 24.2581 42.5764 25.2962C43.0331 26.0702 43.4928 26.8526 44.4856 26.9183C46.955 27.0823 48.4219 25.4879 49.2981 23.5462C49.6707 22.7164 50.0573 21.8861 50.26 20.9759C50.3895 20.3922 50.7671 19.8444 50.7952 19.2689C50.842 18.285 51.1864 17.3711 51.2659 16.4085C51.3454 15.4362 51.3981 14.3771 50.8137 13.6048C49.8566 12.3388 48.5565 11.6378 46.9446 11.723Z" fill="#FADA7A"/>
<path d="M80.8535 5.34988C80.088 7.75072 80.0025 10.8029 79.0849 13.7362C78.3338 16.1275 77.8964 18.6614 77.169 21.0528C76.337 23.7912 76.1944 26.6436 75.2959 29.344C73.8791 33.5847 72.4957 37.8349 71.155 42.0993C70.7747 43.3069 70.2375 43.9582 68.835 44.039C67.1045 44.1388 65.3788 44.5382 63.6768 44.909C61.0763 45.4795 60.3346 44.6143 60.4345 41.9757C60.6104 37.3309 62.6261 33.1568 63.5056 28.6974C63.9383 26.4867 65.1553 24.433 65.5927 22.227C66.2202 19.056 67.5894 15.9801 67.5324 12.7473C67.4896 10.3465 68.7209 8.31646 68.7494 5.98218C68.778 3.83806 70.0854 2.79216 72.2532 2.62101C73.6414 2.51166 75.0154 2.19313 76.3988 2.01723C77.0977 1.9269 77.8203 1.86035 78.5192 1.93166C80.5207 2.14559 80.8962 2.65429 80.8582 5.34988H80.8535Z" fill="#81BFDA"/>
<path d="M94.7542 30.4587C93.1599 32.0626 93.387 34.2535 92.5621 36.0469C91.5471 38.247 90.4209 40.3871 89.6516 42.7075C89.0306 44.5794 87.0424 44.5748 85.5223 45.0047C84.4239 45.3144 83.1726 45.1156 81.9908 45.0925C80.7487 45.0694 80.1416 44.3206 80.4058 43.1789C80.6004 42.3377 80.4799 41.3532 80.8321 40.6876C82.2086 38.0991 81.8656 35.2149 82.5515 32.534C82.9918 30.8053 83.7194 29.1506 84.1319 27.3895C84.3219 26.5622 84.6649 25.7671 84.5722 24.9074C84.4888 24.117 84.6881 23.3497 85.0774 22.7766C86.4492 20.7659 87.0146 18.3763 87.1629 16.1622C87.427 12.2334 89.3596 8.88228 90.1846 5.1799C90.5553 3.50205 92.1264 3.06756 93.6048 2.90116C95.0276 2.73939 96.4504 2.86418 97.8269 2.18934C98.4016 1.90739 99.3887 1.71326 99.9356 2.39734C100.482 3.08143 100.177 3.88107 99.9124 4.67608C99.1663 6.91322 98.4943 9.1781 97.8315 11.443C97.7249 11.8081 97.8176 12.2334 97.8176 12.9914C99.4304 11.2997 100.626 9.69578 101.725 8.02717C102.665 6.59429 103.569 5.16141 105.112 4.2832C105.302 4.17226 105.534 3.98738 105.585 3.79324C106.123 1.5561 107.981 1.64855 109.659 1.52375C111.04 1.42206 112.435 1.39895 113.816 1.45904C115.48 1.53299 115.939 2.23557 115.151 3.67307C114.126 5.54505 112.986 7.33846 111.67 9.06254C110.484 10.6156 109.205 12.1409 108.106 13.7864C106.382 16.3702 104.704 19.0141 102.503 21.2466C102.007 21.7505 101.813 22.2312 101.915 22.9337C102.239 25.2217 102.359 27.5236 103.106 29.77C104.139 32.8807 105.034 36.0515 105.752 39.2454C106.313 41.7507 106.526 44.3345 106.883 46.8813C106.999 47.6994 106.753 48.1062 105.798 48.2032C104.542 48.3327 103.296 48.4482 102.03 48.4898C100.348 48.5453 99.6436 47.6162 98.9299 46.2804C96.9556 42.6012 96.9371 38.3626 95.3984 34.5539C94.9071 33.3429 95.3984 31.813 94.7496 30.4448L94.7542 30.4587Z" fill="#FADA7A"/>
<path d="M112.196 45.0144C112.547 43.4931 112.681 42.0336 112.928 40.6026C113.351 38.1304 114.031 35.6963 114.682 33.267C115.452 30.405 115.69 27.3908 117.335 24.7713C117.882 23.9061 117.335 22.6985 117.672 21.6431C118.728 18.3723 119.355 14.9208 120.805 11.8448C121.523 10.3188 121.58 8.31727 123.187 7.20005C123.615 6.90054 123.449 6.33004 123.52 5.86889C123.791 4.12888 124.832 2.75018 125.968 1.53312C126.962 0.468199 128.331 1.13378 129.477 1.42378C131.217 1.86116 133.005 2.13214 134.687 2.82625C135.244 3.0592 135.615 3.25412 135.653 3.89117C135.843 7.29038 136.071 10.6706 136.969 13.9937C137.245 15.0111 136.955 16.2519 137.074 17.3977C137.587 22.4941 138.115 27.6048 139.28 32.5919C140.074 35.9863 140.369 39.4331 140.972 42.8465C141.11 43.6119 140.716 44.3726 140.131 44.4011C137.706 44.5105 135.439 45.7656 132.957 45.3187C130.499 44.8765 130.033 44.4011 129.624 41.7673C129.106 38.4109 128.788 35.0307 128.502 31.6458C128.393 30.3384 128.027 29.05 127.794 27.7522C127.737 27.4384 127.642 27.1436 127.304 27.1104C126.905 27.0723 126.615 27.3481 126.491 27.6904C125.422 30.7378 124.409 33.7994 123.311 36.8373C122.384 39.4093 122.208 42.2095 120.867 44.6484C120.406 45.4851 119.85 45.8987 118.813 46.0033C117.563 46.1316 116.351 46.6593 115.129 47.0349C113.294 47.6007 112.238 46.84 112.2 45.0097L112.196 45.0144ZM128.569 9.55335C126.42 9.56761 125.341 10.6896 125.317 12.943C125.303 14.3978 127.033 16.2472 128.379 16.2186C129.938 16.1854 131.825 13.9319 131.745 12.2062C131.669 10.5327 130.485 9.54384 128.569 9.55335Z" fill="#81BFDA"/>

</svg>
