<svg width="20" height="20" viewBox="0 0 20 20" fill="none" xmlns="http://www.w3.org/2000/svg">
<path d="M13.3752 16.3C13.3752 17.0161 13.0196 17.7028 12.3867 18.2092C11.7538 18.7155 10.8953 19 10.0002 19C9.10515 19 8.24672 18.7155 7.6138 18.2092C6.98087 17.7028 6.6253 17.0161 6.6253 16.3M10.8114 3.70267L9.16213 3.69997C5.4002 3.69277 2.13438 6.13807 2.1085 9.09997V12.511C2.1085 13.222 1.99601 13.9159 1.51114 14.5072L1.18827 14.9014C0.696654 15.499 1.22539 16.3 2.1085 16.3H17.892C18.7751 16.3 19.3027 15.499 18.8122 14.9014L18.4893 14.5072C18.0056 13.9159 17.892 13.2211 17.892 12.5101V9.10087C17.847 6.13807 14.5733 3.70987 10.8114 3.70267Z" stroke="currentColor" stroke-width="2" stroke-linecap="round" stroke-linejoin="round"/>
<path d="M10.0004 1C10.5972 1 11.1695 1.18964 11.5914 1.52721C12.0134 1.86477 12.2504 2.32261 12.2504 2.8V3.7H7.75049V2.8C7.75049 2.32261 7.98754 1.86477 8.40949 1.52721C8.83144 1.18964 9.40372 1 10.0004 1Z" stroke="currentColor" stroke-width="2" stroke-linecap="round" stroke-linejoin="round"/>
</svg>
