<svg width="18" height="18" viewBox="0 0 18 18" fill="none" xmlns="http://www.w3.org/2000/svg">
<path d="M12.0002 14.5999C12.0002 15.2364 11.6841 15.8469 11.1215 16.297C10.5589 16.7471 9.79585 16.9999 9.00021 16.9999C8.20458 16.9999 7.44153 16.7471 6.87893 16.297C6.31633 15.8469 6.00027 15.2364 6.00027 14.5999M9.7212 3.40232L8.25523 3.39992C4.91129 3.39352 2.00834 5.56712 1.98534 8.19992V11.2319C1.98534 11.8639 1.88534 12.4807 1.45435 13.0063L1.16735 13.3567C0.730359 13.8879 1.20035 14.5999 1.98534 14.5999H16.0151C16.8001 14.5999 17.2691 13.8879 16.8331 13.3567L16.5461 13.0063C16.1161 12.4807 16.0151 11.8631 16.0151 11.2311V8.20072C15.9751 5.56712 13.0651 3.40872 9.7212 3.40232Z" stroke="currentColor" stroke-width="2" stroke-linecap="round" stroke-linejoin="round"/>
<path d="M8.99996 1C9.53039 1 10.0391 1.16857 10.4142 1.46863C10.7892 1.76869 10.9999 2.17565 10.9999 2.6V3.4H7V2.6C7 2.17565 7.21071 1.76869 7.58578 1.46863C7.96084 1.16857 8.46954 1 8.99996 1Z" stroke="currentColor" stroke-width="2" stroke-linecap="round" stroke-linejoin="round"/>
</svg>
