<svg width="14" height="15" viewBox="0 0 14 15" fill="none" xmlns="http://www.w3.org/2000/svg">
<path d="M12.7502 14.9708L7.65739 9.24925C7.25075 9.63848 6.7831 9.93969 6.25446 10.1529C5.72582 10.3661 5.19447 10.4727 4.66041 10.4727C3.35806 10.4727 2.25578 9.96619 1.35356 8.95322C0.45135 7.94024 0.000244141 6.7022 0.000244141 5.23908C0.000244141 3.77596 0.450808 2.53731 1.35194 1.52312C2.25306 0.508925 3.3548 0.00122044 4.65716 2.19109e-06C5.95951 -0.00121606 7.06233 0.505575 7.96563 1.52038C8.86893 2.53518 9.32057 3.77383 9.32057 5.23634C9.32057 5.87105 9.22054 6.48535 9.02047 7.07925C8.8204 7.67314 8.55744 8.18115 8.23158 8.60328L13.3244 14.3239L12.7502 14.9708ZM4.66122 9.55808C5.74019 9.55808 6.65108 9.14083 7.39389 8.30633C8.13669 7.47183 8.5081 6.44819 8.5081 5.23543C8.5081 4.02266 8.13669 2.99933 7.39389 2.16544C6.65108 1.33155 5.74019 0.914298 4.66122 0.913689C3.58225 0.91308 2.6711 1.33033 1.92775 2.16544C1.1844 3.00055 0.812994 4.02388 0.813537 5.23543C0.814079 6.44697 1.18548 7.4703 1.92775 8.30541C2.67001 9.14052 3.5809 9.55777 4.66041 9.55716" fill="black"/>
</svg>
