<svg width="17" height="16" viewBox="0 0 17 16" fill="currentColor" xmlns="http://www.w3.org/2000/svg">
<path d="M16.5 4.1917C16.5006 4.08642 16.4804 3.98206 16.4406 3.8846C16.4008 3.78714 16.3421 3.69849 16.268 3.62374L12.876 0.231996C12.8012 0.157856 12.7126 0.0992007 12.6151 0.0593919C12.5176 0.0195832 12.4133 -0.000595299 12.308 1.33704e-05C12.2027 -0.000595299 12.0983 0.0195832 12.0009 0.0593919C11.9034 0.0992007 11.8147 0.157856 11.74 0.231996L9.476 2.49583L0.732013 11.2392C0.657868 11.3139 0.599208 11.4026 0.559396 11.5C0.519585 11.5975 0.499405 11.7019 0.500013 11.8071V15.1989C0.500013 15.411 0.584299 15.6145 0.734328 15.7645C0.884356 15.9145 1.08784 15.9988 1.30001 15.9988H4.69201C4.80395 16.0049 4.91592 15.9874 5.02066 15.9474C5.1254 15.9075 5.22057 15.8459 5.30001 15.7668L13.996 7.02349L16.268 4.79965C16.3409 4.72203 16.4004 4.63282 16.444 4.53567C16.4517 4.47191 16.4517 4.40745 16.444 4.34369C16.4477 4.30645 16.4477 4.26893 16.444 4.2317L16.5 4.1917ZM4.36401 14.3989H2.10001V12.1351L10.044 4.1917L12.308 6.45553L4.36401 14.3989ZM13.436 5.32762L11.172 3.06378L12.308 1.93587L14.564 4.1917L13.436 5.32762Z" fill="currentColor"/>
</svg>
