<svg width="857" height="552" viewBox="0 0 857 552" fill="none" xmlns="http://www.w3.org/2000/svg">
<g filter="url(#filter0_n_4097_5104)">
<path fill-rule="evenodd" clip-rule="evenodd" d="M380.016 15.7152C299.17 5.84732 211.679 -16.1343 141.176 19.8989C68.6871 56.9473 32.9356 131.975 12.8739 203.357C-6.16101 271.087 -7.50816 346.435 32.4487 406.769C69.3546 462.497 147.963 479.844 214.348 507.582C267.78 529.909 320.816 551.96 380.016 552C439.252 552.04 490.521 526.29 545.871 507.807C625.62 481.177 722.29 479.164 774.744 420.192C834.681 352.808 884.113 253.153 840.232 176.868C795.542 99.1776 667.162 105.136 574.941 72.8437C509.725 50.0071 449.578 24.2059 380.016 15.7152Z" fill="#B1F0F7"/>
</g>
<path d="M144.736 137.376C142.816 137.376 141.2 138 139.888 139.248C138.608 140.496 137.968 142.32 137.968 144.72C137.968 147.088 138.592 148.88 139.84 150.096C141.088 151.312 142.704 151.92 144.688 151.92C145.872 151.92 146.864 151.776 147.664 151.488C148.496 151.168 149.216 150.832 149.824 150.48C150.304 150.768 150.672 151.12 150.928 151.536C151.216 151.92 151.36 152.4 151.36 152.976C151.36 154.064 150.704 154.96 149.392 155.664C148.08 156.336 146.352 156.672 144.208 156.672C141.776 156.672 139.632 156.24 137.776 155.376C135.952 154.48 134.512 153.136 133.456 151.344C132.432 149.552 131.92 147.344 131.92 144.72C131.92 142 132.464 139.744 133.552 137.952C134.672 136.16 136.144 134.832 137.968 133.968C139.824 133.072 141.856 132.624 144.064 132.624C146.176 132.624 147.872 132.992 149.152 133.728C150.432 134.464 151.072 135.376 151.072 136.464C151.072 136.944 150.944 137.392 150.688 137.808C150.432 138.224 150.128 138.56 149.776 138.816C149.136 138.432 148.416 138.096 147.616 137.808C146.816 137.52 145.856 137.376 144.736 137.376ZM156.611 143.328L162.515 143.616V155.904C162.259 156 161.891 156.08 161.411 156.144C160.931 156.24 160.403 156.288 159.827 156.288C158.739 156.288 157.923 156.096 157.379 155.712C156.867 155.296 156.611 154.576 156.611 153.552V143.328ZM162.515 146.64L156.611 146.352V124.8C156.835 124.736 157.187 124.656 157.667 124.56C158.179 124.464 158.707 124.416 159.251 124.416C160.403 124.416 161.235 124.624 161.747 125.04C162.259 125.424 162.515 126.128 162.515 127.152V146.64ZM168.69 126.528C168.69 125.6 169.01 124.816 169.65 124.176C170.322 123.536 171.154 123.216 172.146 123.216C173.17 123.216 173.986 123.536 174.594 124.176C175.234 124.816 175.554 125.6 175.554 126.528C175.554 127.424 175.234 128.208 174.594 128.88C173.986 129.52 173.17 129.84 172.146 129.84C171.154 129.84 170.322 129.52 169.65 128.88C169.01 128.208 168.69 127.424 168.69 126.528ZM169.17 143.328H175.122V155.904C174.866 156 174.498 156.08 174.018 156.144C173.538 156.24 173.01 156.288 172.434 156.288C171.346 156.288 170.53 156.096 169.986 155.712C169.442 155.296 169.17 154.576 169.17 153.552V143.328ZM175.122 146.352H169.17V133.488C169.426 133.392 169.794 133.312 170.274 133.248C170.786 133.152 171.33 133.104 171.906 133.104C173.026 133.104 173.842 133.312 174.354 133.728C174.866 134.112 175.122 134.832 175.122 135.888V146.352ZM193.158 137.376C191.238 137.376 189.622 138 188.31 139.248C187.03 140.496 186.39 142.32 186.39 144.72C186.39 147.088 187.014 148.88 188.262 150.096C189.51 151.312 191.126 151.92 193.11 151.92C194.294 151.92 195.286 151.776 196.086 151.488C196.918 151.168 197.638 150.832 198.246 150.48C198.726 150.768 199.094 151.12 199.35 151.536C199.638 151.92 199.782 152.4 199.782 152.976C199.782 154.064 199.126 154.96 197.814 155.664C196.502 156.336 194.774 156.672 192.63 156.672C190.198 156.672 188.054 156.24 186.198 155.376C184.374 154.48 182.934 153.136 181.878 151.344C180.854 149.552 180.342 147.344 180.342 144.72C180.342 142 180.886 139.744 181.974 137.952C183.094 136.16 184.566 134.832 186.39 133.968C188.246 133.072 190.278 132.624 192.486 132.624C194.598 132.624 196.294 132.992 197.574 133.728C198.854 134.464 199.494 135.376 199.494 136.464C199.494 136.944 199.366 137.392 199.11 137.808C198.854 138.224 198.55 138.56 198.198 138.816C197.558 138.432 196.838 138.096 196.038 137.808C195.238 137.52 194.278 137.376 193.158 137.376ZM213.385 146.448L209.257 143.712L220.153 132.864C221.337 132.896 222.281 133.184 222.985 133.728C223.689 134.24 224.041 134.912 224.041 135.744C224.041 136.416 223.801 137.024 223.321 137.568C222.873 138.112 222.185 138.784 221.257 139.584L213.385 146.448ZM209.401 144.576L213.961 142.416L225.145 152.928C225.049 153.984 224.729 154.816 224.185 155.424C223.641 156.032 222.889 156.336 221.929 156.336C221.193 156.336 220.521 156.16 219.913 155.808C219.305 155.424 218.681 154.848 218.041 154.08L209.401 144.576ZM204.793 143.232L210.697 143.52V155.904C210.441 156 210.073 156.08 209.593 156.144C209.113 156.24 208.585 156.288 208.009 156.288C206.921 156.288 206.105 156.096 205.561 155.712C205.049 155.296 204.793 154.576 204.793 153.552V143.232ZM210.697 146.544L204.793 146.256V124.8C205.049 124.736 205.417 124.656 205.897 124.56C206.377 124.464 206.905 124.416 207.481 124.416C208.601 124.416 209.417 124.624 209.929 125.04C210.441 125.424 210.697 126.128 210.697 127.152V146.544ZM259.068 140.304V145.776H253.164V140.976C253.164 139.728 252.78 138.816 252.012 138.24C251.276 137.632 250.332 137.328 249.18 137.328C248.348 137.328 247.58 137.456 246.876 137.712C246.204 137.936 245.628 138.208 245.148 138.528V145.776H239.244V138.144C239.244 137.376 239.404 136.752 239.724 136.272C240.044 135.76 240.524 135.296 241.164 134.88C242.156 134.208 243.372 133.664 244.812 133.248C246.284 132.832 247.804 132.624 249.372 132.624C250.94 132.624 252.38 132.864 253.692 133.344C255.004 133.824 256.076 134.528 256.908 135.456C257.132 135.648 257.34 135.84 257.532 136.032C257.724 136.224 257.884 136.448 258.012 136.704C258.3 137.184 258.54 137.744 258.732 138.384C258.956 138.992 259.068 139.632 259.068 140.304ZM272.94 140.784V145.776H267.036V140.976C267.036 139.728 266.684 138.816 265.98 138.24C265.276 137.632 264.332 137.328 263.148 137.328C262.284 137.328 261.436 137.504 260.604 137.856C259.804 138.208 259.116 138.672 258.54 139.248L255.564 135.648C256.556 134.816 257.724 134.112 259.068 133.536C260.412 132.928 262.012 132.624 263.868 132.624C265.564 132.624 267.1 132.896 268.476 133.44C269.852 133.984 270.94 134.864 271.74 136.08C272.54 137.296 272.94 138.864 272.94 140.784ZM239.244 143.472H245.148V155.904C244.892 156 244.524 156.08 244.044 156.144C243.564 156.24 243.036 156.288 242.46 156.288C241.372 156.288 240.556 156.096 240.012 155.712C239.5 155.296 239.244 154.576 239.244 153.552V143.472ZM253.164 143.472H259.068V155.904C258.812 156 258.428 156.08 257.916 156.144C257.436 156.24 256.924 156.288 256.38 156.288C255.26 156.288 254.444 156.096 253.932 155.712C253.42 155.296 253.164 154.576 253.164 153.552V143.472ZM267.036 143.472H272.94V155.904C272.716 156 272.348 156.08 271.836 156.144C271.356 156.24 270.844 156.288 270.3 156.288C269.18 156.288 268.348 156.096 267.804 155.712C267.292 155.296 267.036 154.576 267.036 153.552V143.472ZM281.727 147.648L281.487 143.52L294.351 141.6C294.255 140.384 293.791 139.328 292.959 138.432C292.127 137.536 290.911 137.088 289.311 137.088C287.679 137.088 286.319 137.664 285.231 138.816C284.143 139.936 283.583 141.552 283.551 143.664L283.695 146.16C283.983 148.208 284.767 149.712 286.047 150.672C287.359 151.632 289.007 152.112 290.991 152.112C292.335 152.112 293.583 151.92 294.735 151.536C295.887 151.12 296.799 150.672 297.471 150.192C297.919 150.48 298.271 150.848 298.527 151.296C298.815 151.712 298.959 152.176 298.959 152.688C298.959 153.52 298.591 154.24 297.855 154.848C297.119 155.424 296.127 155.872 294.879 156.192C293.631 156.512 292.207 156.672 290.607 156.672C288.143 156.672 285.951 156.224 284.031 155.328C282.143 154.4 280.655 153.024 279.567 151.2C278.511 149.376 277.983 147.104 277.983 144.384C277.983 142.432 278.287 140.72 278.895 139.248C279.503 137.776 280.319 136.56 281.343 135.6C282.399 134.608 283.615 133.872 284.991 133.392C286.367 132.88 287.807 132.624 289.311 132.624C291.423 132.624 293.263 133.056 294.831 133.92C296.431 134.752 297.679 135.92 298.575 137.424C299.503 138.928 299.967 140.656 299.967 142.608C299.967 143.504 299.727 144.176 299.247 144.624C298.799 145.04 298.159 145.296 297.327 145.392L281.727 147.648Z" fill="black"/>
<path d="M223.344 55.7812L223.844 55.9688L224.125 56.0625H224.875C225.372 56.0565 225.882 56.0653 226.375 56.125L226.844 56.1875L227.156 56.25L227.594 56.1562L228.062 56.0938C228.604 55.9967 229.165 55.9403 229.719 55.9375H230.688C231.623 55.9341 232.513 56.1334 233.312 56.5C234.665 56.06 236.019 56.2388 237.188 56.8438C238.002 56.5471 238.882 56.3627 239.812 56.5312L240.969 56.875L241.438 57.0938L241.75 57.25L242.156 57.2812L242.594 57.3438L243.062 57.2812L243.562 57.1875L245.219 57.2188L246.781 57.6875L247.25 57.9062L247.688 58.125C247.948 58.2484 248.212 58.3583 248.469 58.4688L248.938 58.6562L249.312 58.8438L249.688 58.875L249.875 58.9062L250.25 58.8125L250.781 58.7188L252.719 58.5938L254.625 59.25L255.062 59.5L255.312 59.6875H255.562L256.062 59.7812L258.188 60.5312L258.875 60.875L259.156 60.9375L259.531 61L260.031 60.9375L260.531 60.9062H262.031L263.531 61.3125L264 61.5L264.438 61.6875C264.594 61.753 264.752 61.7987 264.906 61.8438L265.375 61.9688L265.812 62.125C266.397 62.2956 266.97 62.5263 267.5 62.8125L267.625 62.875L267.938 62.8438C269.375 62.6521 270.723 63.0984 271.781 63.9688C272.455 63.8879 273.222 63.9102 274 64.1875C274.885 64.5044 275.544 65.0602 276.031 65.625L277.75 65.8438L278.688 66.0938C279.653 66.3758 280.458 66.9148 281.125 67.5625C281.947 67.5744 282.786 67.7454 283.594 68.0938L284.469 68.4688C285.114 68.7475 285.717 69.1241 286.25 69.5625L286.438 69.7188L286.719 69.75C287.165 69.7867 287.625 69.866 288.062 70L289.375 70.5625L290.188 71.0625C290.391 71.1821 290.603 71.2998 290.812 71.4062L291.688 71.8438C292.249 72.1293 292.772 72.4738 293.25 72.875L293.625 73.1875L293.75 73.2812L293.906 73.3438L294.375 73.4688C294.939 73.638 295.479 73.8765 296 74.1562L296.438 74.375L296.844 74.625C297.308 74.8747 297.768 75.1503 298.188 75.4688L298.594 75.7812L298.969 76.0625C299.246 76.2732 299.508 76.5025 299.781 76.7188L300.188 77L300.375 77.1562L300.625 77.25L301.094 77.4062L302.906 78.25L303.312 78.5L303.719 78.7812C304.645 79.3784 305.305 80.1785 305.75 81.0312L305.812 81.1875L305.875 81.2188C306.39 81.4377 306.905 81.6918 307.375 82L307.781 82.2812L308.188 82.5312C308.599 82.8016 308.96 83.1244 309.281 83.4688L310.094 84.5625V84.5938L311.594 85.3438L312.781 86.4375L313.094 86.8125L313.344 87.1562L314.094 87.7188L314.781 88.0625L315.25 88.2812L317.25 89.75L317.562 90.0938L317.906 90.4688C318.229 90.8214 318.496 91.2008 318.719 91.5938L319.25 92.8125L319.281 92.9062L319.344 92.9688C319.86 93.2967 320.343 93.6881 320.781 94.125L321.469 94.8125L322.688 96.4062L322.938 96.8438L322.969 96.9375L323.031 96.9688L323.438 97.25C323.915 97.5803 324.342 97.9603 324.688 98.4062L325.5 99.9062L325.688 100.375L325.844 100.844V100.812L326.094 101.156L326.281 101.406L326.594 101.656L327 101.938L328.594 103.594L328.875 103.969L329.125 104.375C329.445 104.836 329.737 105.334 329.969 105.844L330.156 106.281L330.375 106.719L330.969 108.688V108.875L331.125 109C331.453 109.316 331.765 109.656 332.062 110L332.375 110.375L332.719 110.75C333.769 111.97 334.07 113.449 333.906 114.781L333.875 115.031L333.906 115.094C334.183 115.542 334.42 116.013 334.625 116.5L334.812 116.938L334.938 117.25L335.188 117.531L335.531 117.938C335.837 118.291 336.12 118.671 336.344 119.094L336.844 120.438L337.094 121.375C337.297 122.177 337.335 122.998 337.25 123.781L337.219 123.938L337.312 124.125C338.073 125.397 338.228 126.834 337.875 128.156L337.781 128.469L337.844 128.656C337.923 128.872 338.025 129.087 338.125 129.312L338.344 129.781L338.531 130.25L339.094 132.594L339.156 133.531C339.201 134.327 339.042 135.082 338.812 135.781C338.928 135.988 339.083 136.239 339.188 136.531C339.235 136.664 339.61 137.643 339.344 138.844C339.318 138.96 339.227 139.064 339.188 139.188C339.225 139.469 339.285 139.748 339.312 140.031L339.344 140.531L339.406 141C339.531 142.279 339.099 143.375 338.531 144.281C338.764 145.085 338.879 145.955 338.719 146.875L338.656 147.344L338.562 147.844C338.412 148.7 338.095 149.489 337.656 150.188L337.594 150.25L337.625 150.312C337.838 151.749 337.446 153.154 336.562 154.281L336.312 154.562L336.281 154.938C336.254 155.188 336.234 155.454 336.219 155.719L336.156 156.719C336.077 158.071 335.486 159.253 334.594 160.156L334.25 160.531L333.906 160.844L333.75 161.188L333.531 161.625L333.469 161.969L333.375 162.438C333.195 163.275 332.84 164.074 332.344 164.781L332.062 165.156L331.781 165.562L331.75 165.656L331.375 166.531V166.594L331.281 167.094L331.219 167.594C330.976 169.091 330.106 170.312 328.906 171.094L328.844 171.125C328.648 171.87 328.36 172.594 327.906 173.25L327.344 174.062C327.211 174.253 327.088 174.458 326.969 174.656L326.469 175.469C326.036 176.187 325.49 176.816 324.844 177.312L324.438 177.594L324.375 177.625L324.344 177.719L324.125 178.156C323.909 178.586 323.671 179.005 323.406 179.406L323.125 179.812L322.875 180.219C322.433 180.889 321.862 181.465 321.219 181.938L320.844 182.219L320.438 182.531C320.266 182.658 320.091 182.772 319.938 182.906L319.594 183.219L319.312 183.469L319.156 183.75L318.906 184.156C318.518 184.82 318.036 185.429 317.438 185.938L316.688 186.562C316.045 187.106 315.336 187.516 314.594 187.781L314.094 187.938L313.875 188L313.781 188.125L313.438 188.438C313.293 188.571 313.139 188.722 313 188.875L312.688 189.219L312.344 189.594C311.871 190.112 311.32 190.542 310.719 190.906L310.312 191.156L310 191.344L309.719 191.656L309.406 192C309.037 192.408 308.624 192.786 308.188 193.125L307.812 193.438L307.438 193.719C307.26 193.856 307.075 194.005 306.906 194.156L306.562 194.469L306.188 194.812C305.525 195.406 304.751 195.823 303.938 196.094L303.625 196.188L303.406 196.469C303.165 196.763 302.91 197.058 302.656 197.344L302.312 197.719L302 198.094C301.498 198.659 300.895 199.147 300.219 199.531L299.812 199.781L299.375 200.031C298.416 200.572 297.384 200.777 296.438 200.781H295.938L295.812 200.844L295.594 201.156L295.25 201.531C294.811 202.067 294.307 202.561 293.719 202.969L292.906 203.531C291.953 204.189 290.887 204.497 289.844 204.531H289.812C289.026 205.301 288.044 205.823 286.938 206.031L286.562 206.094L286.281 206.375C285.857 206.753 285.395 207.108 284.906 207.406L284.5 207.656L284.062 207.906C283.041 208.526 281.914 208.77 280.844 208.719L280.312 208.688L280.25 208.656L279.875 208.875C279.245 209.175 278.584 209.386 277.906 209.5L277.469 209.531L277.094 209.844C276.248 210.517 275.229 210.948 274.125 211.062L273.625 211.125L273.156 211.156C273.107 211.161 273.062 211.178 273.031 211.188L272.094 211.5C272.044 211.517 271.991 211.533 271.938 211.562L271.5 211.812L271.094 212.031C270.637 212.284 270.147 212.505 269.656 212.688L269.219 212.844L268.75 213.031C268.719 213.044 268.677 213.062 268.625 213.094L268.188 213.375L267.781 213.625C267.07 214.071 266.262 214.388 265.406 214.531L264.906 214.625L264.438 214.688C263.706 214.809 262.983 214.81 262.281 214.719L261.75 214.656L261.719 214.625V214.656L261.25 214.812C260.791 214.979 260.321 215.113 259.844 215.219L259.375 215.312L258.938 215.406L258.656 215.594L258.219 215.844C257.697 216.137 257.141 216.38 256.562 216.562L256.094 216.719L255.656 216.844C254.591 217.181 253.513 217.175 252.531 216.938C251.632 217.447 250.618 217.756 249.531 217.719L249.031 217.688H248.906L248.75 217.75L248.312 217.906C247.65 218.168 246.936 218.346 246.219 218.406L245.75 218.438L245.25 218.5C244.697 218.546 244.144 218.519 243.594 218.469L243.094 218.438L242.625 218.375L242.156 218.469L241.688 218.531C241.624 218.542 241.552 218.564 241.469 218.594L241 218.75L240.531 218.938C239.968 219.137 239.381 219.264 238.781 219.344L237.844 219.469C237.245 219.549 236.63 219.579 236.031 219.531L235.531 219.5L235.062 219.438H235L234.531 219.531L234.031 219.594C233.697 219.644 233.365 219.706 233.031 219.75L232.531 219.812L232.062 219.875C231.661 219.928 231.248 219.973 230.844 220L229.906 220.062C229.222 220.108 228.534 220.04 227.875 219.906L227.469 219.812L227.062 219.969C225.84 220.381 224.563 220.343 223.406 219.906L223.312 219.844V219.875C222.047 220.341 220.747 220.258 219.562 219.781C218.805 220.106 217.971 220.326 217.062 220.312H216.094C215.67 220.305 215.235 220.259 214.812 220.219L214.344 220.188L213.844 220.156C213.73 220.146 213.617 220.118 213.5 220.125L213.031 220.156L212.531 220.188C211.717 220.234 210.921 220.116 210.156 219.875L209.688 219.75L209.188 219.594V219.562H208.719L208.25 219.531C207.897 219.51 207.539 219.499 207.188 219.469L206.719 219.406L206.25 219.375C205.804 219.336 205.347 219.269 204.906 219.188L204.438 219.094L203.969 219.031L203.5 219.062L203 219.094C202.615 219.119 202.228 219.118 201.844 219.125L201.375 219.156H200.875C200.132 219.169 199.398 219.061 198.688 218.844L198.219 218.688L197.75 218.562C197.545 218.5 197.33 218.451 197.125 218.406L196.656 218.281L196.438 218.219L196.125 218.281L195.625 218.344C194.235 218.535 192.91 218.184 191.844 217.438L191.594 217.25H191.406C190.866 217.252 190.317 217.211 189.781 217.125L189.312 217.031L188.844 216.969C188.438 216.903 188.025 216.813 187.625 216.719L187.156 216.625L186.688 216.5C186.154 216.374 185.627 216.212 185.125 216L184.656 215.812L184.219 215.625L184.156 215.594L183.688 215.531L183.219 215.438C182.894 215.381 182.573 215.31 182.25 215.25L181.781 215.156L181.281 215.094C181.133 215.067 180.978 215.042 180.812 215.031L180.312 215L179.844 214.969C179.259 214.932 178.664 214.841 178.094 214.688L177.156 214.438C176.666 214.305 176.185 214.137 175.719 213.938L175.281 213.75L174.844 213.531C174.402 213.342 173.969 213.124 173.562 212.875C172.408 213.146 171.071 213.095 169.812 212.438L169.375 212.188L168.969 211.969C168.426 211.685 167.944 211.325 167.5 210.938C166.005 211.064 164.552 210.583 163.469 209.469L162.812 208.812L162.5 208.656H161.906C160.87 208.642 159.837 208.367 158.906 207.781L158.5 207.531L158.219 207.344L158 207.312L157.531 207.219C156.785 207.059 156.065 206.773 155.406 206.375L154.969 206.125L154.594 205.906L154.25 205.812L153.75 205.688C152.986 205.479 152.275 205.121 151.625 204.656L150.812 204.094C150.647 203.976 150.486 203.853 150.312 203.75L149.906 203.5L149.469 203.25C149.105 203.035 148.751 202.806 148.406 202.562L148 202.281L147.625 202C147.573 201.963 147.495 201.932 147.438 201.906L146.562 201.531L144.625 200.562C143.968 200.22 143.389 199.769 142.875 199.25L142.375 198.75L142.219 198.688L141.781 198.5C141.055 198.193 140.393 197.758 139.812 197.219L139.438 196.906L139.094 196.562C138.989 196.465 138.859 196.389 138.75 196.312L138.375 196.031L137.969 195.75C137.848 195.666 137.729 195.572 137.594 195.5L136.719 195.062C136.175 194.771 135.655 194.407 135.188 194L134.844 193.688L134.531 193.438L134.25 193.312L133.781 193.125C133.309 192.918 132.846 192.679 132.406 192.406L132 192.125L131.594 191.875C130.671 191.301 129.966 190.512 129.5 189.625L129.281 189.188L129.125 188.906L128.812 188.656L128.625 188.594L128.125 188.438C126.629 187.936 125.509 186.806 124.969 185.375L124.938 185.281L123.781 184.469C123.447 184.172 123.142 183.84 122.875 183.469L122.594 183.062L122.531 182.969L122.406 182.906L121.969 182.656C120.861 182.019 120.131 181.038 119.719 179.938C118.418 179.368 117.326 178.301 116.875 176.781L116.75 176.281L116.594 175.781C116.579 175.73 116.568 175.698 116.562 175.688L116.312 175.25L116.281 175.188L116.219 175.156L115.781 174.875C114.905 174.26 114.206 173.407 113.781 172.375L113.594 171.906L113.406 171.469C113.279 171.159 113.155 170.838 113.031 170.531L112.844 170.094L112.688 169.625C112.675 169.594 112.639 169.583 112.625 169.562L112.375 169.156L112.156 168.844L111.781 168.531L111.375 168.188C110.344 167.324 109.786 166.143 109.625 164.875C108.328 163.892 107.553 162.377 107.656 160.656V160.188L107.562 159.969C107.539 159.926 107.473 159.861 107.406 159.781L107.094 159.375L106.75 159C105.914 158.003 105.474 156.751 105.5 155.438L105.531 154.906V154.406L105.469 153.469L105.406 152.969C105.385 152.775 105.35 152.588 105.312 152.406L105.219 151.938V151.844L105.094 151.719L104.781 151.281C104.313 150.64 103.942 149.908 103.719 149.094L103.469 148.156C103.288 147.497 103.186 146.807 103.188 146.125V145L103.094 144.531L103 144.031C102.863 143.349 102.819 142.661 102.875 141.969L102.906 141.469L102.938 141C102.96 140.719 102.987 140.434 103 140.156L103.031 139.688V139.188C103.05 138.791 103.082 138.395 103.125 138L103.188 137.5L103.25 137.031C103.296 136.606 103.358 136.17 103.438 135.75L103.5 135.469L103.312 135.062C102.853 133.886 102.797 132.547 103.281 131.25L103.469 130.781L103.625 130.312C103.701 130.11 103.759 129.911 103.812 129.719L103.938 129.25L104.062 128.875L104.031 128.5V128.031C104.018 127.462 104.064 126.877 104.156 126.312L104.219 125.844L104.312 125.375L104.938 123.375L105.375 122.5C105.438 122.368 105.492 122.217 105.531 122.094L105.656 121.656L105.812 121.188C105.937 120.801 106.069 120.409 106.219 120.031L106.406 119.594L106.562 119.156C106.623 119.003 106.706 118.848 106.75 118.688L107 117.75C107.041 117.597 107.068 117.423 107.094 117.25L107.156 116.781L107.25 116.281L108.031 114L108.25 113.594L108.5 113.156C108.691 112.819 108.886 112.483 109.094 112.156L109.344 111.75L109.625 111.344C109.861 110.973 110.107 110.599 110.375 110.25L110.656 109.875L110.75 109.719L110.812 109.594L110.938 109.125C111.065 108.629 111.211 108.13 111.406 107.656L111.781 106.781L112.594 105.375C112.926 104.961 113.327 104.618 113.75 104.312L114.156 104L114.344 103.812L114.594 103.406C114.754 103.128 114.9 102.84 115.062 102.562L115.312 102.125L115.562 101.719C115.85 101.228 116.188 100.772 116.562 100.344L116.875 99.9688L117.188 99.625C117.229 99.5772 117.277 99.4978 117.312 99.4375L117.562 99.0312L117.781 98.625C117.836 98.531 117.916 98.4146 117.969 98.2812L118.344 97.3438L119.438 95.4375L119.75 95.0625L120.031 94.6875C120.328 94.3203 120.663 93.9873 121 93.6562L121.688 92.9688C121.994 92.6679 122.326 92.3696 122.656 92.0938L123 91.7812L123.375 91.4688C123.514 91.3527 123.663 91.2485 123.781 91.125L124.094 90.7812L124.438 90.4375C124.819 90.0405 125.245 89.6689 125.688 89.3438L126.062 89.0625L126.469 88.7812C126.51 88.7505 126.532 88.6901 126.562 88.6562L126.875 88.3125L127.219 87.9688C127.472 87.6869 127.735 87.3961 128 87.125L128.312 86.7812L128.656 86.4375C129.011 86.0747 129.411 85.7476 129.812 85.4375L130.188 85.125L130.562 84.8438L132.688 83.7188L133.031 83.625L133.25 83.375L134.188 82.5C134.524 82.2349 134.891 81.9762 135.281 81.7812L135.688 81.5938L136.125 81.375C136.372 81.2518 136.634 81.0999 136.875 80.9688L137 80.875L137.156 80.5938L138.031 79.2188C138.402 78.795 138.871 78.4078 139.406 78.0938L139.812 77.8438L140.219 77.625L142.531 76.7812L143.031 76.6875L143.062 76.6562L143.406 76.4375C143.459 76.3965 143.521 76.3315 143.594 76.25L144.281 75.5L146.156 74L147.031 73.5625L148.219 73.0938C148.622 72.978 149.03 72.9138 149.438 72.875L149.969 72.8125L150.062 72.7812L150.469 72.5312C150.951 72.2286 151.468 71.9886 152 71.7812L152.438 71.5938L152.906 71.4375C153.219 71.3158 153.528 71.1801 153.844 71.0625L154.312 70.9062L154.75 70.7188C154.844 70.6836 154.945 70.6431 155.031 70.5938L155.438 70.3438L155.844 70.125L156.156 69.7812L156.531 69.4375L157.625 68.5625C158.035 68.3081 158.489 68.0903 158.969 67.9375L159.406 67.8125L159.875 67.6562L161.188 67.0938C161.339 67.0243 161.504 66.9353 161.656 66.8438L162.062 66.5938L162.5 66.3438L164.25 65.6562C164.852 65.5414 165.455 65.5504 166.031 65.625L166.562 65.6875L166.875 65.5625C167.315 65.3724 167.759 65.1984 168.219 65.0625L168.688 64.9062L169.125 64.7812L169.469 64.5625L169.906 64.3125L171.219 63.6875C171.681 63.5411 172.165 63.4679 172.656 63.4375L172.875 63.4062L173.156 63.2188C173.631 62.8518 174.138 62.518 174.688 62.25L175.125 62.0312L175.562 61.8438L177.719 61.1875L178.188 61.125L178.688 61.0625C178.926 61.0308 179.172 60.9832 179.406 60.9375L180.344 60.75C180.626 60.6949 180.91 60.6545 181.188 60.5938L181.656 60.4688L182.125 60.375L184.125 60.2188H184.156L186 59.2188C186.692 59.0104 187.441 58.9475 188.219 59.0625L188.719 59.125L189.219 59.2188H190.188L190.531 59.0625L191 58.9062L193.219 58.4375L194.156 58.375C194.423 58.3626 194.704 58.3669 194.969 58.3438L195.438 58.2812L195.906 58.25C196.245 58.2204 196.598 58.1799 196.938 58.1562L197.438 58.125H197.688L197.938 58L198.406 57.7812L199.688 57.375C200.124 57.2849 200.574 57.2426 201.031 57.25H201.531L201.75 57.2812L202 57.1875L202.469 57L204.312 56.6875C204.84 56.6897 205.345 56.8204 205.844 56.9688C206.375 56.6872 206.933 56.4649 207.531 56.375L209.562 56.4688L209.969 56.5938L210.406 56.4688C210.899 56.3315 211.408 56.2575 211.906 56.25L213.375 56.4062L213.469 56.4375L213.688 56.3438L214.906 55.9375C215.327 55.8417 215.768 55.787 216.219 55.7812H219.125C219.208 55.7806 219.308 55.7681 219.406 55.75L219.875 55.6562L220.375 55.5625L221.875 55.5L223.344 55.7812ZM167.594 209.594L167.688 210.25L168.156 209.75L168.062 209.094L167.594 209.594ZM168.156 209.75L167.688 210.25L167.594 209.594L168.062 209.094L168.156 209.75ZM134.656 186.906L135.5 186.469L136.062 185.562L135.219 186L134.656 186.906ZM135.5 186.469L134.656 186.906L135.219 186L136.062 185.562L135.5 186.469ZM124.594 178.062L125.969 177.688L126.344 177.031L124.969 177.406L124.594 178.062ZM125.281 177.875L124.594 178.062L124.969 177.406L125.656 177.219L125.281 177.875ZM125.969 177.688L125.281 177.875L125.656 177.219L126.344 177.031L125.969 177.688ZM122.188 174.094L121.969 174.688L123.281 174.312L123.5 173.719L122.188 174.094ZM123.281 174.312L121.969 174.688L122.188 174.094L123.5 173.719L123.281 174.312ZM119.031 170.188L119.906 169.844L120.438 169.094L119.562 169.438L119.031 170.188ZM119.906 169.844L119.031 170.188L119.562 169.438L120.438 169.094L119.906 169.844ZM111.344 163.812L110.969 164.344L111.656 164.312L112 163.781L111.344 163.812ZM111.656 164.312L110.969 164.344L111.344 163.812L112 163.781L111.656 164.312ZM104.844 135.031L104.031 135.344L105 135.531L105.844 135.219L104.844 135.031ZM105.844 135.219L105 135.531L104.031 135.344L104.844 135.031L105.844 135.219ZM332.125 126.625L331.5 126.969L332.188 127.156L332.781 126.781L332.125 126.625ZM332.781 126.781L332.188 127.156L331.5 126.969L332.125 126.625L332.781 126.781ZM335.406 124.062L336.219 124.156L336.938 123.719L336.125 123.656L335.406 124.062ZM336.938 123.719L336.219 124.156L335.406 124.062L336.125 123.656L336.938 123.719ZM328.094 114.062L327.5 114.562L328.156 114.625L328.75 114.125L328.094 114.062ZM328.75 114.125L328.156 114.625L327.5 114.562L328.094 114.062L328.75 114.125ZM317.562 93.875L317.125 94.5938L317.875 94.3438L318.312 93.6562L317.562 93.875ZM317.875 94.3438L317.125 94.5938L317.562 93.875L318.312 93.6562L317.875 94.3438ZM308.594 86L308.344 86.75L309.031 86.3438L309.281 85.5938L308.594 86ZM309.031 86.3438L308.344 86.75L308.594 86L309.281 85.5938L309.031 86.3438ZM111.188 146.031L111.312 146.5L111.375 146.719L111.562 147L111.875 147.406C112.127 147.751 112.347 148.129 112.531 148.531L112.969 149.844L113.156 150.781C113.245 151.212 113.295 151.655 113.344 152.094L113.406 152.594L113.469 153.062C113.524 153.568 113.543 154.087 113.531 154.594L113.562 154.625C113.931 155.064 114.246 155.552 114.531 156.062L114.781 156.5L115 156.906C115.449 157.716 115.617 158.581 115.656 159.406C116.66 160.247 117.324 161.432 117.438 162.844L118.688 164.25L118.969 164.656L119.25 165.031C119.595 165.536 119.867 166.092 120.094 166.656L120.469 167.531C120.584 167.818 120.694 168.116 120.812 168.406L120.906 168.656L121.219 168.906C121.586 169.164 121.942 169.446 122.25 169.781L123.062 170.938L123.312 171.344L123.531 171.781C123.761 172.192 123.908 172.63 124.062 173.062C125.41 173.638 126.458 174.747 126.906 176.25C127.265 176.462 127.595 176.721 127.906 177L128.812 178L129.094 178.406L129.125 178.469L129.625 178.719C130.714 179.313 131.416 180.254 131.875 181.281C132.191 181.399 132.511 181.518 132.812 181.688L133.875 182.438L134.25 182.75L134.594 183.062L136.094 185L136.312 185.406L136.625 185.594L137.438 186L137.906 186.188L139.75 187.344L140.094 187.656L140.469 187.969L140.5 188L140.938 188.219L141.344 188.469C141.77 188.697 142.198 188.941 142.594 189.219L142.969 189.5L143.375 189.781C143.782 190.068 144.167 190.38 144.531 190.719L144.906 191.031L145.094 191.219L145.344 191.344L145.781 191.531C146.176 191.698 146.557 191.887 146.906 192.125L147.875 192.938L148.5 193.562L149.188 193.906C149.402 194.017 149.623 194.12 149.844 194.219L150.281 194.406L150.719 194.625C151.244 194.861 151.748 195.137 152.219 195.469L152.625 195.75L153 196.031C153.176 196.155 153.376 196.265 153.562 196.375L154.375 196.875C154.75 197.097 155.114 197.34 155.469 197.594L155.875 197.875L156.094 198.031L156.312 198.094L156.812 198.219L158.719 199.031L159.125 199.281L159.375 199.438L160.156 199.594L162.344 200.5L162.594 200.656L163.031 200.688C163.486 200.694 163.954 200.737 164.406 200.844L165.719 201.312L166.156 201.531L166.562 201.75C167.146 202.041 167.641 202.433 168.094 202.844C169.118 202.766 170.137 202.98 171.031 203.5L171.969 204.219L172.344 204.562L172.656 204.844H172.812L174.844 204.75C175.522 204.851 176.2 205.09 176.844 205.5L177.281 205.781L177.688 206.031C177.784 206.093 177.885 206.151 177.969 206.188L178.438 206.375L178.875 206.562C178.999 206.616 179.125 206.654 179.25 206.688L179.719 206.812L180.156 206.938C180.202 206.95 180.278 206.965 180.344 206.969L180.812 207L181.312 207.031C181.794 207.062 182.276 207.131 182.75 207.219L183.688 207.406C183.987 207.462 184.293 207.51 184.594 207.562L185.062 207.625L185.531 207.719C186.153 207.827 186.769 208.007 187.344 208.25L187.781 208.438L188.25 208.625C188.34 208.663 188.42 208.699 188.5 208.719L188.969 208.844L189.438 208.938C189.651 208.988 189.875 209.027 190.094 209.062L190.562 209.156L191.062 209.219C191.156 209.233 191.267 209.25 191.375 209.25H192.344C192.948 209.248 193.526 209.326 194.062 209.5L195.562 210.281L197.906 210.375L198.375 210.469L198.844 210.594C199.263 210.685 199.682 210.78 200.094 210.906L200.562 211.062L200.906 211.156H201.219L201.719 211.125C201.973 211.12 202.244 211.111 202.5 211.094L202.969 211.062L203.469 211.031L205.406 211.156L205.875 211.25L206.344 211.312C206.533 211.347 206.746 211.39 206.938 211.406L207.406 211.438L207.875 211.5C208.161 211.525 208.464 211.545 208.75 211.562H209.219L209.688 211.594L211.625 211.969L212.094 212.125L212.344 212.188H212.562L213.031 212.156C213.554 212.126 214.103 212.138 214.625 212.188L215.094 212.219L215.562 212.281C215.779 212.302 216.004 212.309 216.219 212.312H216.719L216.875 212.25L217.344 212.031L218.406 211.656C219.479 211.412 220.616 211.5 221.656 211.969C222.229 211.776 222.82 211.683 223.406 211.688L225.281 212.031L225.375 212.062H225.438C225.923 211.898 226.433 211.783 226.938 211.75L228.5 211.875L228.969 211.969L229.438 212.031H229.844L230.312 212C230.545 211.985 230.801 211.968 231.031 211.938L231.969 211.812C232.259 211.774 232.552 211.731 232.844 211.688L233.344 211.625L233.812 211.531C234.435 211.438 235.063 211.419 235.688 211.469L236.188 211.5L236.656 211.562C236.701 211.566 236.75 211.567 236.781 211.562L237.719 211.438C237.748 211.434 237.795 211.423 237.844 211.406L238.312 211.219L238.781 211.062C239.315 210.873 239.873 210.715 240.438 210.625L241.375 210.5L243.344 210.438L243.844 210.469L244.312 210.5C244.409 210.509 244.511 210.538 244.594 210.531L245.062 210.469L245.406 210.438L245.812 210.312L246.281 210.125L247.531 209.781C247.953 209.709 248.38 209.673 248.812 209.688H249.125L249.469 209.5L251.375 208.812L253.375 208.938L253.812 209.031L254.156 208.938C254.192 208.926 254.252 208.909 254.312 208.875L255.188 208.375L257.188 207.625L257.625 207.5L258.094 207.406C258.235 207.375 258.39 207.332 258.531 207.281L258.969 207.125L259.438 206.969L260.875 206.625L262.281 206.656L262.812 206.719L263.281 206.75L263.594 206.719L263.75 206.688L263.938 206.594L264.375 206.312C264.875 206 265.408 205.74 265.969 205.531L266.438 205.344L266.875 205.188C266.985 205.147 267.109 205.092 267.219 205.031L267.625 204.812L268.062 204.562C268.568 204.283 269.105 204.053 269.656 203.875L270.094 203.719L270.562 203.594C271.134 203.409 271.721 203.281 272.312 203.219L272.625 203.156L272.906 202.969L274.156 202.188C274.613 201.982 275.116 201.835 275.625 201.75L276.094 201.688L276.531 201.594L276.875 201.438L277.281 201.219C278.226 200.768 279.223 200.614 280.156 200.656H280.531L280.75 200.562C280.811 200.525 280.868 200.467 280.938 200.406L281.312 200.062L281.688 199.75L283 198.875C283.463 198.647 283.952 198.474 284.469 198.375L284.719 198.312L284.906 198.125C285.902 197.115 287.204 196.603 288.531 196.562L288.938 196.531L289.062 196.469L289.406 196.062L289.719 195.688L291.406 194.188L291.812 193.906L292.219 193.656L293.75 193C294.274 192.858 294.809 192.784 295.312 192.781H295.906L296.062 192.688L296.344 192.406L296.656 192.031C296.843 191.82 297.042 191.622 297.219 191.406L297.531 191L297.844 190.625C298.535 189.784 299.446 189.186 300.469 188.844L300.938 188.656L301.219 188.531L301.562 188.219C301.872 187.941 302.203 187.661 302.531 187.406L302.906 187.125L303.469 186.656L303.812 186.281L304.125 185.906C304.599 185.385 305.143 184.93 305.75 184.562L306.156 184.312L306.5 184.094L307.094 183.5C307.386 183.178 307.681 182.857 308 182.562L308.344 182.219L308.719 181.906L309.781 181.125C310.146 180.91 310.521 180.732 310.906 180.594L311.406 180.406L311.75 180.25L311.906 180.156L312.062 180L312.25 179.688L312.5 179.281L313.938 177.531L314.312 177.219L314.656 176.906C314.986 176.617 315.333 176.323 315.688 176.062L316.094 175.781L316.281 175.625L316.438 175.406L316.719 175C316.81 174.861 316.892 174.715 316.969 174.562L317.406 173.688L318.156 172.531C318.452 172.173 318.787 171.847 319.156 171.562L319.562 171.25L319.75 171.094L319.875 170.938L320.094 170.531C320.304 170.182 320.548 169.835 320.781 169.5L321.062 169.094L321.188 168.906L321.25 168.625L321.375 168.125C321.708 166.819 322.503 165.77 323.531 165.062C323.635 164.524 323.784 163.99 324 163.469L324.188 163.031L324.375 162.562C324.61 162.001 324.901 161.465 325.25 160.969L325.531 160.562L325.594 160.438L325.656 160.281L325.75 159.812L326.438 157.875L326.688 157.469L326.906 157.031L328.188 155.281L328.219 155.25C328.242 154.851 328.27 154.454 328.312 154.062L328.375 153.594L328.438 153.094L328.844 151.531C329.036 151.072 329.269 150.638 329.562 150.25C329.428 149.037 329.654 147.825 330.312 146.781L330.594 146.344L330.719 146.125L330.562 145.625C329.914 143.924 330.233 142.151 331.25 140.812L331.312 140.688C331.29 140.469 331.281 140.249 331.25 140.031L331.188 139.531L331.125 139.062C331.107 138.937 331.106 138.71 331.094 138.438C330.386 137.107 330.276 135.569 330.875 134.156L331.094 133.656L331.156 133.5L331.125 133.312L331.031 133.031L330.812 132.562C330.643 132.181 330.486 131.793 330.344 131.406L330.188 130.969L330 130.5C329.587 129.375 329.58 128.226 329.844 127.188C329.287 126.18 329.068 125.058 329.188 123.938L329.25 123.406L329.281 123.094L329.219 122.875L329.188 122.844L329.156 122.781L328.812 122.375C328.334 121.823 327.925 121.183 327.625 120.469L327.25 119.594C327.209 119.497 327.152 119.407 327.094 119.312L326.844 118.906L326.594 118.469C325.896 117.336 325.73 116.121 325.844 115.031L325.219 114.406L324.844 114.062C323.971 113.222 323.41 112.146 323.219 110.969L323.156 110.469L323.062 109.969L322.875 109.594L322.688 109.156C322.652 109.078 322.607 109.003 322.562 108.938L322.281 108.531L322.094 108.25L321.812 108.062L321.406 107.781C320.824 107.35 320.318 106.804 319.875 106.188L319.312 105.438C318.907 104.873 318.577 104.256 318.344 103.625L318.25 103.375L318.062 103.25C317.313 102.73 316.681 102.056 316.219 101.25L315.969 100.812L315.781 100.438L315.062 99.7188L314.625 99.4688L314.219 99.2188C313.085 98.4981 312.339 97.4251 311.969 96.2812L311.812 95.7812L311.75 95.5938L311.531 95.375L311.344 95.2812L310.875 95.0625C310.364 94.8184 309.871 94.5246 309.406 94.1875L309.031 93.9062L308.625 93.625C308.082 93.2311 307.606 92.7642 307.188 92.25L306.969 91.9688L306.625 91.875C305.388 91.4538 304.374 90.6125 303.719 89.5L303.469 89.0625L303.375 88.9688L302.969 88.7188C302.903 88.6762 302.834 88.6296 302.75 88.5938L302.312 88.4062L301.844 88.1875C300.6 87.6547 299.7 86.7327 299.156 85.6875L298.906 85.2188L298.875 85.1562L298.594 84.9688L298.188 84.8438L297.688 84.7188C296.93 84.4747 296.233 84.0695 295.594 83.5625L295.219 83.2812L294.812 82.9688C294.585 82.7889 294.356 82.6128 294.125 82.4375L293.75 82.125L293.344 81.8438C293.256 81.7777 293.16 81.7088 293.062 81.6562L292.656 81.4375L292.219 81.2188C292.176 81.1957 292.118 81.1729 292.062 81.1562L291.594 81L291.125 80.875C290.287 80.6241 289.51 80.1853 288.844 79.625L288.094 79L288.062 78.9688L287.625 78.75L287.219 78.5312C286.857 78.3479 286.475 78.1747 286.125 77.9688L285.719 77.7188L285.656 77.6875H285.562L285.062 77.625C283.942 77.5328 282.849 77.1268 281.938 76.375L281.562 76.0625L281.156 75.75L281.312 75.8125L281.156 75.7188L280.875 75.625L280.719 75.5625H279.969C278.564 75.5495 277.265 74.9961 276.281 74L275.906 73.625L275.688 73.5625H275.25L274.719 73.5938C273.266 73.6318 272.038 73.0315 271.125 72.1562C269.815 72.2426 268.532 71.8486 267.5 70.9062C266.517 70.9612 265.507 70.8222 264.562 70.3125L264.125 70.0625L263.688 69.8438C263.645 69.8214 263.62 69.7891 263.594 69.7812L262.656 69.5312C262.21 69.4007 261.773 69.2423 261.344 69.0625L260.938 68.9062L260.5 68.9688C259.824 69.0507 259.109 69.046 258.406 68.9375L257.938 68.8438L257.469 68.7812C256.679 68.6594 255.93 68.4004 255.25 68.0312L254.812 67.7812L254.5 67.625L254.219 67.5938L253.75 67.5C252.967 67.3654 252.258 67.0618 251.594 66.6875V66.7188C250.839 66.8965 250.016 66.9753 249.188 66.875L248.25 66.75C247.545 66.6646 246.859 66.4934 246.219 66.2188L245.75 66L245.312 65.8125C244.968 65.6643 244.625 65.5062 244.281 65.3438L243.969 65.1875L243.688 65.25C243.034 65.3428 242.358 65.3594 241.688 65.2812L241.219 65.2188L240.75 65.1875C240.144 65.1169 239.583 64.8984 239.031 64.6875C237.561 65.3825 235.88 65.3552 234.406 64.4688C233.24 64.762 232.033 64.7108 230.906 64.1875L230.438 63.9688L230.375 63.9375H229.5L228.5 64.125C227.803 64.2487 227.091 64.2731 226.375 64.1875L225.875 64.125L225.406 64.0625H224.031C223.228 64.0722 222.446 63.9367 221.719 63.6875L221.281 63.5312L220.844 63.625C220.299 63.7249 219.744 63.7771 219.188 63.7812H216.688L216.469 63.875L216 64.0938C214.92 64.5739 213.706 64.7211 212.5 64.4375L212.031 64.3125L211.625 64.4375C210.656 64.7071 209.666 64.687 208.719 64.4688C207.425 65.2117 205.904 65.3984 204.469 64.9062L204.312 64.8438L204.25 64.875C203.493 65.1482 202.693 65.2954 201.875 65.2812L201.375 65.25H201.344L201.219 65.3125L200.75 65.5C200.036 65.8194 199.272 66.0374 198.469 66.0938L197.969 66.125L197.5 66.1562C197.208 66.1765 196.916 66.1934 196.625 66.2188L196.125 66.25L195.656 66.3125C195.284 66.3449 194.905 66.3577 194.531 66.375L194.062 66.4062H193.75L193.438 66.5312L193 66.7188C192.293 66.9947 191.545 67.1541 190.781 67.1875H190.281L189.812 67.2188C189.3 67.2402 188.783 67.1876 188.281 67.125C187.292 67.9016 186.057 68.3893 184.656 68.2812L183.656 68.2188L183.375 68.2812L182.906 68.4062C182.566 68.4807 182.219 68.5266 181.875 68.5938L180.938 68.7812C180.541 68.8586 180.12 68.9468 179.719 69L179.25 69.0625L178.906 69.0938L178.625 69.25L178.188 69.4375C178.156 69.4532 178.127 69.5124 178.062 69.5625L177.25 70.1875C176.375 70.8655 175.292 71.272 174.125 71.3438H173.656V71.375L173.25 71.625C172.678 71.9767 172.06 72.2754 171.406 72.4688L170.938 72.5938L170.5 72.7188C170.347 72.7641 170.175 72.8128 170.031 72.875L169.594 73.0938L169.156 73.2812C168.12 73.7264 167.059 73.811 166.094 73.6875L165.812 73.6562L165.781 73.6875C165.378 73.9305 164.959 74.1474 164.531 74.3438L164.094 74.5625L163.656 74.75C163.219 74.9506 162.771 75.1351 162.312 75.2812L161.875 75.375L161.812 75.4688L161.438 75.8125C160.965 76.2834 160.443 76.7178 159.844 77.0625L159.406 77.3125L159 77.5312C158.532 77.7998 158.037 78.0306 157.531 78.2188L157.094 78.4062L156.625 78.5625C156.347 78.6662 156.057 78.768 155.781 78.875L155.344 79.0625L154.906 79.2188C154.847 79.2419 154.779 79.275 154.719 79.3125L154.312 79.5625L153.906 79.8438C153.066 80.369 152.132 80.6321 151.219 80.7188L150.719 80.7812H150.406L150.281 80.875L150.094 80.9688L149.906 81.1875L149.562 81.5938C149.189 82.0118 148.761 82.4 148.312 82.75L147.938 83.0312L147.562 83.3438C146.742 83.9819 145.811 84.3431 144.875 84.5L144.344 84.5938L144.031 84.625L143.906 85C143.442 85.9798 142.668 86.9441 141.531 87.5625L141.125 87.7812L140.688 88C140.365 88.1753 140.048 88.367 139.719 88.5312L139.281 88.75L139.094 88.8125L139.031 88.9375L138.719 89.3125C137.993 90.1685 137.051 90.7469 136.031 91.0625L135.562 91.2188L135.219 91.3125L135.062 91.4688L134.688 91.75C134.58 91.8331 134.471 91.9335 134.375 92.0312L134.031 92.375L133.719 92.7188C133.533 92.9083 133.333 93.1159 133.156 93.3125L132.531 94C132.132 94.4445 131.667 94.8659 131.188 95.2188L130.812 95.5L130.406 95.7812L129.531 96.6562C129.209 96.9909 128.888 97.3269 128.531 97.625L127.781 98.25C127.614 98.3897 127.433 98.5385 127.281 98.6875L126.938 99L126.594 99.3438C126.474 99.4613 126.357 99.5861 126.25 99.7188L125.969 100.094L125.75 100.344L125.594 100.75L125.406 101.219C125.211 101.712 124.958 102.195 124.688 102.656L124.469 103.062L124.219 103.5C123.932 103.99 123.593 104.446 123.219 104.875L122.906 105.25L122.562 105.594C122.522 105.64 122.5 105.699 122.469 105.75L122.219 106.188L121.969 106.594C121.814 106.858 121.684 107.141 121.531 107.406L121.031 108.219C120.569 109.022 119.952 109.681 119.25 110.188L118.906 110.406L118.812 110.719C118.761 110.844 118.723 110.986 118.688 111.125L118.438 112.062C118.223 112.897 117.844 113.685 117.312 114.375L117 114.75L116.719 115.125C116.596 115.284 116.48 115.46 116.375 115.625L116.125 116.031L115.844 116.438L115.219 117.531L115.094 117.719L115.062 117.969L115 118.438C114.929 118.907 114.843 119.386 114.719 119.844L114.469 120.781C114.346 121.234 114.173 121.689 114 122.125L113.844 122.562L113.656 123C113.572 123.211 113.507 123.44 113.438 123.656L113.281 124.094L113.125 124.562C112.971 125.041 112.78 125.517 112.562 125.969L112.344 126.406L112.156 126.844L112.125 127.156L112.031 127.625V128.344L112.062 128.812C112.079 129.522 111.972 130.247 111.781 130.938L111.656 131.375L111.531 131.844C111.418 132.253 111.273 132.662 111.125 133.062L111.156 133.125C111.531 134.082 111.683 135.184 111.469 136.312L111.281 137.25C111.241 137.462 111.211 137.691 111.188 137.906L111.156 138.375L111.094 138.844C111.068 139.085 111.043 139.353 111.031 139.594L111 140.062V140.531C110.983 140.892 110.935 141.263 110.906 141.625L110.844 142.625L110.938 142.938L111.031 143.406C111.148 143.983 111.188 144.569 111.188 145.156V146.031Z" fill="black"/>
<path d="M276.041 189.975C276.068 190.028 276.114 190.25 276.149 190.342C276.011 190.272 275.944 189.79 276.041 189.975ZM286.835 193.352C286.775 193.326 286.715 193.3 286.656 193.274C286.758 193.412 286.923 193.562 287.013 193.694C287.028 193.716 286.926 193.72 286.966 193.767C287.005 193.814 287.073 193.733 287.143 193.79C287.22 193.854 287.49 194.235 287.605 194.347C288.039 194.77 288.526 195.148 288.953 195.593C288.432 195.223 288.85 195.712 289.007 195.808C289.043 195.828 289.167 195.682 289.617 196.142C289.907 196.434 289.435 196.397 290.052 196.74C289.773 196.246 290.162 196.598 290.484 196.858C290.538 196.902 290.969 197.296 291.175 197.45C291.245 197.503 291.414 197.507 291.507 197.578C291.571 197.626 291.583 197.708 291.679 197.78C292.124 198.117 292.563 198.449 293.002 198.803C292.58 198.815 293.141 199.048 293.155 199.074C293.22 199.212 292.721 198.863 292.887 199.043C293.16 199.238 293.436 199.433 293.714 199.626C293.51 199.436 294.14 199.663 294.185 199.801C294.276 199.584 295.324 200.861 295.573 200.934C295.624 200.949 295.415 200.667 296.02 201.146C296.086 201.198 296.02 201.238 296.06 201.257C296.084 201.269 296.341 201.175 296.411 201.371C296.438 201.443 296.027 201.343 296.781 201.779C296.619 201.4 297.852 202.344 298.063 202.545C298.032 202.488 298.001 202.432 297.97 202.375C298.161 202.598 298.245 202.56 298.296 202.598C298.502 202.751 298.761 203.009 298.964 203.129C299.2 203.269 299.283 203.154 299.529 203.374C299.48 203.306 299.431 203.238 299.381 203.171C299.57 203.298 299.756 203.423 299.94 203.546C299.405 203.433 300.026 203.61 300.07 203.632C300.131 203.662 300.008 203.676 300.109 203.727C300.12 203.732 300.143 203.662 300.295 203.746C300.609 203.919 300.512 203.966 300.64 204.042C300.653 204.05 300.64 203.967 300.876 204.092C301.61 204.479 300.848 204.133 300.814 204.123C300.775 204.112 300.868 204.487 300.325 204.043C300.509 204.192 300.466 204.305 300.487 204.322C300.503 204.335 300.87 204.537 300.89 204.544C301.083 204.613 300.974 204.452 301.015 204.459C301.049 204.466 301.412 204.808 301.641 204.658C301.732 204.976 301.409 204.761 301.062 204.592C300.989 204.603 301.332 204.862 301.356 204.876C301.843 205.165 301.668 204.843 301.834 204.803C301.921 204.782 302.049 205.005 301.956 204.756C302.395 204.994 302.086 204.925 302.105 204.953C302.139 204.997 302.319 205.046 302.334 205.063C302.358 205.088 302.23 205.08 302.332 205.163C302.349 205.177 302.578 205.195 302.371 205.019C302.672 205.211 302.686 205.12 302.703 205.328C303.081 205.172 302.765 205.585 302.84 205.649C303.04 205.819 303.101 205.56 303.119 205.556C303.232 205.53 303.812 205.958 303.979 206.008C303.822 206.131 303.499 205.742 303.376 205.713C302.993 205.632 303.789 206.051 303.44 206.119C303.569 206.119 303.695 206.116 303.819 206.113C303.929 206.344 303.649 206.263 304.151 206.478C304.291 206.409 303.805 206.31 303.936 206.267C304.017 206.245 304.295 206.383 304.313 206.357C304.338 206.328 304.072 206.233 304.138 206.203C304.273 206.138 305.137 206.739 304.409 206.422C304.613 206.531 304.574 206.791 304.789 206.818C304.911 206.828 304.522 206.267 305.232 206.672L304.792 206.478C304.831 206.493 304.872 206.51 304.916 206.53C304.909 206.575 304.845 206.568 304.768 206.543L305.2 206.733C305.103 206.687 304.971 206.584 304.961 206.586C304.941 206.59 304.888 206.86 304.893 206.878C304.899 206.894 304.975 206.932 305.074 206.976L304.674 206.8C305.008 206.905 305.617 207.07 305.741 207.217C305.706 207.043 306.523 207.461 306.635 207.449C306.664 207.445 306.601 207.325 306.631 207.325C306.817 207.327 307.214 207.637 307.42 207.709C307.651 207.791 307.646 207.704 307.66 207.709C307.763 207.747 307.662 207.772 307.726 207.793C307.824 207.825 308.48 208.048 308.515 208.046C308.526 208.046 308.447 207.924 308.595 207.953C308.62 207.957 308.573 208.058 309.007 208.144C309.535 208.249 308.694 207.904 308.941 207.861C309.214 208.117 309.258 207.961 309.342 208.001C309.372 208.015 309.564 208.217 309.816 208.284C309.63 208.251 309.444 208.218 309.256 208.183C309.427 208.262 309.779 208.337 309.916 208.406C309.983 208.44 309.893 208.531 310.047 208.574C310.08 208.582 310.287 208.357 309.85 208.355C309.846 208.252 310.019 208.37 310.116 208.37C310.13 208.37 310.23 208.228 310.313 208.359C310.335 208.391 309.896 208.763 310.768 208.655C310.796 208.651 310.725 208.569 310.753 208.564C310.772 208.561 310.963 208.641 310.987 208.639C311.012 208.636 310.935 208.546 310.965 208.541C311.118 208.516 311.226 208.816 310.951 208.718C311.036 208.775 311.121 208.833 311.205 208.89C311.159 208.674 311.367 208.878 311.497 208.908C312.332 209.098 311.813 208.823 311.973 208.799C312.232 208.76 311.968 209.035 312.337 209.03C312.37 209.029 311.996 208.784 312.779 209.073C312.659 209.047 312.539 209.022 312.419 208.995C312.439 209.197 312.85 209.096 312.878 209.1C313.199 209.156 312.964 209.167 313.464 209.193C313.508 209.195 313.589 209.263 313.684 209.263C314.081 209.263 313.205 209.084 313.199 209.002C313.199 208.964 314.127 209.206 314.152 209.229C314.268 209.339 313.725 209.16 313.807 209.281C313.835 209.327 315.181 209.575 315.436 209.668C315.728 209.779 315.818 210.061 315.881 209.78C315.908 210.075 316.027 209.904 316.066 209.914C316.539 210.043 316.537 210.045 316.95 210.102C317.043 210.115 317.103 210.215 317.138 210.207C317.159 210.202 317.142 210.105 317.24 210.096C317.378 210.085 318.113 210.323 318.164 210.384C318.21 210.444 317.838 210.344 317.89 210.439C318.158 210.499 318.436 210.529 318.709 210.587C318.823 210.612 318.754 210.659 318.804 210.669C318.825 210.674 319.227 210.692 319.215 210.668C319.188 210.615 317.952 210.424 318.295 210.382C318.361 210.375 318.558 210.547 318.552 210.38C319.633 210.615 320.735 210.829 321.831 211.016C321.175 211.05 320.474 210.834 319.82 210.738C319.73 210.724 319.424 210.657 319.447 210.745C320.008 210.862 320.717 210.929 321.247 211.06C321.264 211.065 321.191 211.129 321.253 211.15C321.366 211.189 321.789 211.127 321.849 211.166C321.86 211.175 321.62 211.241 321.68 211.312C321.836 211.495 321.929 211.15 322.079 211.175C322.19 211.194 322.965 211.465 323.171 211.379C323.393 211.29 322.599 211.243 322.668 211.155C323.215 211.129 323.742 211.291 324.248 211.332C324.256 211.333 324.188 211.251 324.3 211.253C324.494 211.255 324.538 211.364 324.633 211.391C324.736 211.419 325.103 211.439 325.147 211.481C325.153 211.487 325.069 211.583 325.058 211.585C324.895 211.613 324.851 211.473 324.837 211.47C324.783 211.46 324.724 211.506 324.674 211.498C324.592 211.484 324.551 211.432 324.443 211.417C324.37 211.406 324.431 211.505 324.361 211.494C324.335 211.489 324.077 211.251 324.027 211.461C324.002 211.534 326.331 211.838 326.569 211.793C326.366 211.752 326.172 211.711 325.975 211.669C326.367 211.764 326.881 211.63 326.894 211.884C328.396 212.012 329.919 212.098 331.472 212.166C331.751 212.196 331.585 212.353 332.051 212.32C331.931 212.264 331.814 212.209 331.7 212.154C331.927 212.197 332.987 212.299 333.155 212.271C333.175 212.268 333.214 212.122 333.486 212.118C333.727 212.115 333.752 212.227 333.887 212.253C333.997 212.275 334.122 212.251 334.154 212.258C334.178 212.264 334.185 212.332 334.244 212.346C334.431 212.391 334.282 212.195 334.466 212.421C334.417 212.427 334.371 212.433 334.326 212.44C334.556 212.482 334.874 212.598 334.525 212.629C334.465 212.634 334.52 212.571 334.475 212.569C332.791 212.512 334.119 212.688 334.732 212.62C334.863 212.721 335.788 212.73 335.823 212.757C335.864 212.789 335.698 212.85 335.899 212.937C335.905 212.94 335.939 212.944 335.991 212.949L335.932 212.944C336.175 212.965 336.865 212.991 336.544 213.077C336.476 213.096 336.106 213.05 335.925 213.032L335.981 213.037C335.946 213.033 335.917 213.03 335.897 213.028C335.921 213.047 335.948 213.062 335.977 213.076L335.922 213.071C336.222 213.219 336.803 213.01 336.87 213.021C337.164 213.072 336.287 213.16 336.956 213.228C337.47 213.277 336.994 213.112 337.195 213.065C337.308 213.04 337.88 213.217 337.873 213.021C338.072 213.008 337.952 213.106 337.976 213.115C338 213.122 338.393 213.077 338.519 213.121C338.535 213.126 338.483 213.226 338.499 213.235C338.53 213.25 338.911 213.238 338.927 213.229C338.937 213.223 338.847 213.133 338.885 213.112C338.928 213.088 339.296 213.114 339.318 213.088C339.346 213.05 338.891 213.07 338.969 212.972C339.176 213 339.521 212.936 339.662 212.857C339.627 212.88 339.422 212.882 339.351 212.873C339.385 212.728 339.826 212.732 339.675 212.847C339.772 212.785 339.706 212.752 339.76 212.694C339.775 212.679 339.912 212.677 339.939 212.651C339.942 212.646 339.8 212.591 339.829 212.562C339.879 212.509 340.301 212.521 340.337 212.535C340.435 212.575 340.088 212.623 340.06 212.684C340.056 212.693 340.35 212.813 340.355 212.824C340.372 212.938 340.044 212.856 340.082 212.958C340.162 212.98 340.243 213.002 340.325 213.023C340.009 213.127 339.443 213.072 339.299 213.189C339.747 213.157 340.233 213.161 340.232 213.427C340.231 213.539 340.032 213.604 340.039 213.633C340.068 213.734 340.347 213.624 340.357 213.629C340.366 213.635 340.37 213.641 340.37 213.647C340.37 213.647 340.37 213.647 340.37 213.647C340.369 213.707 339.973 213.75 339.954 213.777C339.92 213.825 340.096 214.025 340.096 214.069C340.089 214.078 339.808 214.124 339.903 214.201C339.998 214.279 340.246 214.281 340.255 214.289C340.302 214.335 339.869 214.377 339.857 214.405C339.85 214.419 340.082 214.504 340.088 214.529C340.094 214.553 339.918 214.607 339.848 214.684C339.796 214.742 339.947 214.786 339.921 214.795C339.901 214.801 339.494 214.799 339.475 214.809C339.445 214.823 339.54 214.893 339.526 214.91C339.506 214.935 339.375 214.909 339.392 214.934C339.404 214.954 339.914 215.193 339.911 215.256C339.905 215.365 339.362 215.114 339.866 215.543C339.87 215.545 339.993 215.515 339.997 215.518C340.073 215.596 339.677 215.717 340.161 215.696C339.261 215.831 340.048 215.859 339.915 216.041C339.864 216.111 339.513 216.138 339.512 216.149C339.545 216.238 339.657 216.169 339.695 216.213C339.716 216.238 339.401 216.33 339.472 216.391C339.508 216.423 339.842 216.413 339.855 216.419C339.987 216.477 339.825 216.539 339.854 216.58C339.874 216.608 340.074 216.61 340.08 216.615C340.088 216.625 339.815 216.736 339.758 216.775C339.714 216.805 339.877 216.853 339.847 216.866C339.664 216.944 339.275 216.742 339.649 217.024C339.672 217.041 339.814 217.035 339.818 217.038C339.906 217.118 339.645 217.124 339.597 217.189C339.516 217.301 339.893 217.239 339.58 217.317C339.815 217.391 339.946 217.388 340.217 217.368C339.463 217.425 339.187 217.713 340.034 217.708C339.766 217.703 339.795 217.867 339.715 217.869C339.665 217.871 339.272 217.706 339.45 218.072C339.473 218.118 339.713 218.061 339.637 218.154C339.061 218.127 339.625 218.214 339.625 218.226C339.623 218.444 338.19 218.25 337.938 218.26C337.648 218.278 337.383 218.436 337.32 218.433C337.113 218.423 337.289 218.345 337.244 218.311C337.199 218.279 336.603 218.41 336.574 218.398C336.463 218.355 336.584 218.26 336.573 218.254C336.446 218.19 335.766 218.205 335.492 218.172L335.431 218.166C335.414 218.163 335.399 218.161 335.387 218.157C335.386 218.173 335.404 218.187 335.427 218.2L335.489 218.206C335.599 218.251 335.806 218.29 335.59 218.354C335.546 218.367 335.508 218.373 335.475 218.374L335.409 218.368C335.252 218.374 335.255 218.153 335.252 218.141C334.061 218.038 332.633 218.023 331.24 217.979C331.255 218.135 332.174 218.045 332.191 218.066C332.317 218.191 330.756 218.143 330.572 218.08C330.717 218.119 330.858 218.157 331.001 218.195C330.756 218.366 330.2 218.115 329.843 218.18C329.725 218.201 329.947 218.278 329.942 218.283C329.809 218.347 329.598 218.285 329.761 218.198C329.434 218.275 329.481 218.178 329.239 218.16C329.227 218.159 329.329 218.236 329.134 218.257C329.046 218.268 328.545 218.244 328.481 218.304C328.452 218.329 328.688 218.62 328.731 218.381C329.262 218.523 328.908 218.28 329.114 218.295C329.147 218.298 329.064 218.429 329.589 218.388C329.472 218.625 328.894 218.419 328.784 218.443C328.572 218.493 329.431 218.658 329.605 218.475C329.522 218.661 329.668 218.503 329.861 218.519C330.072 218.535 329.978 218.588 330.091 218.592C330.401 218.605 330.281 218.467 330.535 218.596C330.3 218.216 330.968 218.562 331.174 218.666C330.839 218.674 330.525 218.682 330.185 218.689C330.202 218.709 330.221 218.729 330.24 218.75C330.152 218.744 330.069 218.738 329.982 218.732C329.997 218.714 330.011 218.695 330.026 218.677C329.577 218.782 329.465 218.64 329.428 218.637C328.966 218.602 328.412 218.577 327.933 218.55C327.863 218.545 327.894 218.67 327.384 218.544C327.219 218.503 327.382 218.419 327.192 218.421C326.937 218.663 326.953 218.458 326.882 218.453C326.674 218.439 326.553 218.495 326.533 218.494C326.286 218.487 325.907 218.448 325.636 218.436C325.631 218.436 325.767 218.526 325.592 218.489C325.534 218.476 324.985 218.093 324.492 218.157C324.618 218.191 324.739 218.225 324.868 218.259C324.724 218.216 323.656 218.198 323.905 218.313C324.062 218.384 324.469 218.204 324.491 218.416C324.143 218.327 322.188 218.207 322.045 218.135C322.025 218.126 322.162 218.074 322.134 218.062C322.113 218.053 321.663 218.013 321.606 217.979C321.572 217.959 321.777 217.943 321.763 217.917C321.747 217.898 321.204 217.798 321.161 217.877C321.301 217.862 321.674 217.94 321.467 217.986C321.441 217.991 321.315 217.92 321.283 217.927C320.979 217.992 321.848 218.081 321.987 218.097C321.42 218.137 320.589 217.897 319.955 217.873C319.711 217.765 320.347 217.821 320.068 217.721C319.489 217.511 319.895 217.794 319.875 217.8C319.716 217.849 319.262 217.391 319.218 217.679C319.011 217.601 319.087 217.577 318.776 217.565C318.813 217.591 318.85 217.618 318.887 217.644C318.523 217.757 317.865 217.211 317.931 217.189C318.083 217.128 318.443 217.327 318.474 217.329C318.522 217.331 318.703 217.063 319.171 217.406C319.413 217.244 318.38 217.142 318.868 217.084C318.545 217.057 317.281 216.694 317.075 216.742C317.051 216.749 317.118 216.963 316.815 216.803C316.673 216.728 317.039 216.794 316.978 216.737C316.796 216.575 313.881 216.061 313.344 215.929C313.308 215.92 313.335 215.864 313.3 215.856C313.192 215.833 312.78 215.829 312.599 215.756C312.964 215.961 312.201 215.785 312.006 215.723C311.713 215.63 311.758 215.529 311.635 215.474C311.171 215.266 310.341 215.31 310.025 214.973C309.982 215.208 309.406 214.68 309.097 214.589C308.856 214.518 308.461 214.566 308.761 214.753C308.35 214.622 307.907 214.537 307.511 214.431C307.446 214.413 307.555 214.373 307.443 214.345C307.433 214.343 307.399 214.405 307.302 214.383C306.512 214.2 306.933 214.177 306.801 214.091C306.728 214.043 306.672 214.012 306.63 213.995C307.078 214.123 307.61 214.258 307.751 214.298C307.673 214.117 306.743 214.019 306.5 213.897C306.492 213.892 306.548 213.822 306.539 213.819C306.539 213.819 306.539 213.819 306.539 213.819C306.446 213.783 305.82 213.613 305.916 213.749C305.942 213.785 306.226 213.878 306.563 213.976C306.467 213.965 306.506 214.076 306.489 214.075C306.281 214.057 305.831 213.815 305.665 213.747C305.628 213.732 305.612 213.79 305.605 213.788C305.459 213.725 305.575 213.583 305.364 213.7C305.157 213.406 305.887 213.839 305.878 213.689C305.865 213.577 304.095 213.039 304.041 213.195C304.041 213.176 304.025 213.146 303.984 213.105C303.895 213.014 303.405 212.859 303.31 212.858C303.294 212.859 303.244 213.015 303.226 213.01C303.188 213 302.793 212.763 302.513 212.689L302.177 212.541C302.128 212.521 302.081 212.508 302.039 212.504C302.077 212.533 302.115 212.562 302.151 212.591L302.494 212.742C302.565 212.784 302.637 212.825 302.708 212.867C302.62 212.835 302.544 212.808 302.478 212.785L302.13 212.632C301.683 212.409 301.762 212.499 301.951 212.647C301.962 212.653 301.97 212.665 301.981 212.671C302.011 212.694 302.042 212.718 302.073 212.742L302.435 212.902C302.588 212.988 302.739 213.07 302.739 213.081C302.738 213.098 302.587 213.059 302.401 212.996L302.026 212.831C301.699 212.673 301.249 212.403 301.447 212.397C301.478 212.391 302.012 212.751 301.783 212.507C301.731 212.458 301.385 212.307 301.367 212.284C301.282 212.149 302.097 212.465 302.058 212.315C301.812 212.308 301.612 212.136 301.382 212.043C301.277 212 301.212 212.058 301.201 212.054C301.022 211.98 301.158 211.956 301.1 211.927C301.072 211.913 300.632 211.879 300.82 211.695C299.611 211.229 300.407 211.681 301.12 212.056C300.862 212.02 300.445 211.737 300.246 211.649C300.172 211.616 300.173 211.713 300.045 211.661C299.794 211.561 298.699 210.816 298.426 210.625C298.618 210.704 298.613 210.595 298.473 210.519C298.332 210.444 298.386 210.617 298.352 210.613C298.317 210.609 297.694 210.169 297.581 210.119C298.086 210.371 298.026 210.228 297.62 209.973C297.694 209.986 297.767 210 297.839 210.012C297.581 209.901 297.141 209.469 296.984 209.422C296.959 209.414 296.997 209.528 296.983 209.523C296.846 209.478 296.465 209.15 296.435 209.163C296.406 209.17 296.55 209.336 296.467 209.322C296.447 209.317 296.337 209.127 296.157 209.044C296.09 209.013 296.089 209.098 296.071 209.092C295.922 209.04 296.064 208.985 295.815 208.851C295.629 208.752 295.439 208.774 295.221 208.588C295.92 209.212 295.301 208.745 294.944 208.571C294.887 208.544 294.861 208.684 294.578 208.426C295.383 208.659 294.455 208.197 294.284 208.082C294.275 208.075 294.319 208 294.234 207.942C294.226 207.938 294.205 207.994 294.122 207.945C293.337 207.482 293.861 207.745 293.749 207.602C293.702 207.542 293.29 207.368 293.189 207.303C293.166 207.288 293.211 207.244 293.121 207.187C292.961 207.085 292.789 207.048 292.683 206.983C292.671 206.975 292.725 206.895 292.514 206.79C292.455 206.76 292.374 206.746 292.436 206.822C292.641 207.072 293.217 207.269 293.458 207.538C293.679 207.785 292.833 207.231 292.791 207.202C292.775 207.192 292.964 207.261 292.804 207.142C292.668 207.041 292.316 207.004 292.125 206.829C292.111 206.816 292.021 206.584 292.034 206.582C292.044 206.582 292.321 206.734 292.306 206.675C292.305 206.668 292.139 206.556 292.135 206.516C292.129 206.467 292.266 206.119 292.237 206.088C292.161 206.008 292.171 206.116 292.117 206.072C292.001 205.978 291.634 205.591 291.548 205.684C291.614 205.74 291.681 205.795 291.748 205.851C291.346 205.586 291.483 205.747 291.414 205.727C291.339 205.706 291.419 205.627 291.293 205.526C291.266 205.504 290.701 205.13 290.684 205.175C291.032 205.333 290.839 205.363 290.852 205.375C290.9 205.421 291.013 205.407 291.084 205.459C291.582 205.825 291.003 205.565 291.104 205.675C291.139 205.712 291.258 205.716 291.274 205.731C291.324 205.78 291.276 205.851 291.318 205.872C291.417 205.921 291.383 205.749 291.393 205.749C291.516 205.743 291.773 206.037 291.504 206.01C291.593 206.131 291.698 206.008 291.754 206.125C291.864 206.357 291.608 206.139 291.522 206.105C291.211 205.98 291.167 205.874 290.779 205.625C290.64 205.535 290.434 205.484 290.369 205.442C290.326 205.415 290.115 204.927 289.854 205.263C289.733 205.124 289.673 204.732 289.517 204.633C289.377 204.544 289.33 204.696 289.314 204.692C289.29 204.685 289.136 204.556 289.069 204.533C288.991 204.505 288.988 204.575 288.873 204.518C288.587 204.376 288.686 204.258 288.666 204.23C288.437 203.912 288.436 204.185 288.359 204.148C288.286 204.115 287.477 203.383 287.264 203.281C287.356 203.315 287.449 203.349 287.541 203.382C287.469 203.204 287.233 203.216 287.337 203.08C287.138 203.276 286.983 202.915 286.898 202.855C286.865 202.832 286.838 202.871 286.796 202.84C286.636 202.722 286.309 202.405 286.21 202.353C285.779 202.132 286.603 203.034 286.672 203.099C286.526 202.981 285.652 202.339 285.95 202.759C285.997 202.824 286.181 202.814 286.217 202.838C286.464 202.998 286.216 202.939 286.227 202.962C286.246 203 286.462 203.037 286.494 203.079C286.504 203.093 286.356 203.103 286.571 203.279C286.403 203.271 285.846 202.711 285.753 202.662C285.72 202.645 285.761 202.953 285.377 202.366C285.371 202.386 285.364 202.406 285.358 202.425C285.065 202.189 284.773 201.948 284.485 201.705C284.545 201.699 284.763 201.771 284.55 201.61C284.428 201.517 284.448 201.666 284.435 201.659C284.304 201.599 282.516 199.9 282.169 199.539C282.052 199.427 281.667 199.145 281.642 199.12C281.486 198.972 281.01 198.382 280.898 198.27C280.828 198.203 280.827 198.327 280.773 198.26C280.723 198.198 280.838 198.206 280.824 198.186C280.714 198.032 279.664 196.948 279.499 196.586C279.62 196.794 280.435 197.536 280.468 197.481C280.471 197.472 280.347 197.229 280.29 197.206C280.286 197.092 279.926 196.986 279.854 196.826C279.845 196.808 279.985 196.795 279.812 196.538C279.753 196.45 279.509 196.284 279.429 195.997C279.124 195.722 278.082 193.739 277.914 193.606C277.905 193.605 278.021 193.921 277.869 193.746C277.67 193.509 278 193.643 277.864 193.324C277.86 193.314 277.84 193.273 277.81 193.214C277.701 193 277.46 192.511 277.441 192.495C277.216 192.314 277.471 193.014 277.454 193.007C277.408 193.004 277.133 192.449 277.132 192.421C277.132 192.398 277.492 192.786 277.19 192.258C277.198 192.33 277.207 192.404 277.216 192.475C277.064 192.228 277.165 192.155 277.145 192.09C277.083 191.883 276.824 191.738 276.907 191.328C276.93 191.221 277.047 191.338 277.051 191.324C277.087 191.193 276.835 191.141 276.928 190.927C276.936 190.911 277.157 191.238 276.927 190.608C276.929 190.657 276.93 190.706 276.931 190.754C276.864 190.679 276.62 190.033 276.603 189.943C276.542 189.675 276.719 189.868 276.626 189.612C276.53 189.827 276.274 189.03 276.415 189.038C276.224 188.971 276.167 188.241 276.103 187.909C276.059 187.701 275.906 187.281 275.904 187.212C275.9 187.128 276.014 187.134 276.014 186.981C276.014 186.939 275.86 186.508 275.931 186.105C275.944 186.026 276.116 185.85 276.178 185.982C276.284 186.209 276.196 186.673 276.308 186.652C276.424 186.627 276.271 186.041 276.272 185.878C276.271 185.13 276.442 185.547 276.477 185.524C276.565 185.465 276.532 185.07 276.54 185.053C276.573 184.982 276.667 185.257 276.725 185.257C276.799 185.254 276.908 184.871 276.939 184.954C276.981 185.072 276.897 185.425 276.905 185.448C277.003 185.726 277.139 185.318 277.216 185.209C277.24 185.175 277.292 185.298 277.298 185.271C277.383 184.859 277.049 185.204 277.054 184.932C277.061 184.688 277.193 184.993 277.199 184.983C277.204 184.97 277.194 184.684 277.232 184.637C277.248 184.615 277.518 185.341 277.617 185.299C277.575 185.067 277.538 184.834 277.505 184.602C277.633 184.578 277.556 184.917 277.573 184.952C277.604 185.02 277.656 184.821 277.698 184.827C277.724 184.83 277.831 185.051 277.856 184.844C277.865 184.773 277.765 184.63 277.848 184.373C278.008 185.249 278.051 184.633 278.095 184.606C278.139 184.581 278.268 184.987 278.224 184.486C278.474 184.454 278.303 184.493 278.354 184.634C278.419 184.804 278.475 184.398 278.454 185.036C278.566 184.991 278.529 184.485 278.539 184.459C278.547 184.435 278.609 184.545 278.627 184.504C278.835 184.024 278.744 184.351 278.885 184.211C278.896 184.198 278.94 183.76 278.969 184.092C279.025 184.697 278.883 184.963 279.245 185.038C279.364 184.586 279.12 184.06 279.114 183.922C279.105 183.714 279.181 183.928 279.201 183.902C279.207 183.892 279.198 183.715 279.204 183.712C279.472 183.582 279.223 184.504 279.295 184.792C279.33 184.711 279.367 184.633 279.403 184.554C279.41 184.658 279.418 184.763 279.427 184.866C279.478 184.365 279.455 184.849 279.684 184.953C279.736 184.976 279.628 184.663 279.792 185.018C279.803 184.747 279.854 184.83 279.778 184.591C279.865 184.594 280 185.129 280.068 185.333C280.103 184.582 279.812 185.028 279.948 184.366C279.833 184.249 279.868 184.561 279.849 184.537C279.78 184.446 279.873 184.231 279.64 183.972C279.602 183.929 279.491 184.116 279.491 183.843C279.491 183.813 279.587 183.638 279.594 183.641C279.671 183.663 279.645 183.834 279.677 183.84C279.707 183.847 279.686 183.657 279.695 183.656C279.791 183.649 279.734 183.815 279.764 183.79C279.828 183.736 280.027 183.056 279.978 183.942C279.859 183.207 279.868 183.851 279.919 184.134C279.932 184.206 279.989 184.222 280.013 184.324C280.044 184.454 280.025 184.609 280.039 184.675C280.056 184.746 280.165 184.329 280.163 184.923C280.274 184.615 280.109 184.089 280.201 183.782C280.385 183.168 280.438 184.203 280.466 184.301C280.472 184.329 280.546 184.232 280.551 184.251C280.558 184.282 280.552 184.847 280.623 184.897C280.69 184.946 280.605 184.694 280.672 184.671C280.713 184.659 280.846 185.314 280.848 184.954C280.847 184.709 280.646 184.253 280.839 184.166C280.867 184.537 280.906 184.898 280.958 185.255C281.012 185.053 281.07 184.849 281.132 184.649C281.18 185.049 281.132 185.4 281.289 185.758C281.411 184.839 281.511 186.02 281.55 186.025C281.567 186.026 281.705 185.656 281.734 185.596C281.84 185.892 282.052 186.777 282.185 186.211C282.149 186.316 282.326 186.518 282.335 186.511C282.429 186.461 282.27 185.983 282.379 186.047C282.504 186.119 282.381 186.275 282.422 186.416C282.645 187.135 283.126 186.796 283.246 187.529C283.261 187.51 283.275 187.49 283.29 187.47C283.491 188.249 283.767 189.044 284.101 189.845C284.172 189.902 284.253 189.99 284.34 190.098C284.559 190.33 284.851 190.727 285.002 190.984C285.037 191.049 285.181 191.419 285.189 191.455C285.196 191.517 285.013 191.272 285.046 191.417C285.048 191.448 285.426 192.029 285.474 191.932C285.435 191.863 285.254 191.697 285.251 191.653C285.178 191.329 286.447 193.132 286.608 193.172C286.597 193.113 286.586 193.055 286.575 192.997C286.659 193.115 286.746 193.233 286.835 193.352ZM276.55 190.66C276.422 190.58 276.391 190.273 276.312 190.113C276.2 189.893 275.732 189.592 276.132 189.662C276.264 189.998 276.406 190.337 276.55 190.66ZM278.78 195.531C278.684 195.296 278.959 195.344 279.003 195.558C279.008 195.581 278.914 195.848 278.78 195.531ZM277.523 193.132C277.529 193.138 277.583 193.262 277.604 193.312C277.609 193.325 277.613 193.333 277.613 193.335C277.618 193.408 277.591 193.388 277.557 193.334C277.496 193.24 277.422 193.027 277.523 193.132ZM285.161 202.055C284.974 201.906 284.985 202.159 285.148 202.198C285.158 202.201 285.174 202.065 285.161 202.055ZM285.036 201.941C285.003 201.696 284.503 201.703 284.749 201.872C284.773 201.889 285.037 201.953 285.036 201.941ZM278.36 194.727C278.429 194.72 278.542 194.961 278.591 195.064C278.54 195.093 278.423 194.819 278.36 194.727ZM282.257 199.513C282.299 199.489 281.733 198.912 281.649 198.915C281.756 198.991 282.219 199.541 282.257 199.513ZM283.775 200.872C283.767 200.853 283.558 200.678 283.534 200.715C283.594 200.849 283.815 200.961 283.775 200.872ZM286.781 203.439C286.799 203.439 286.818 203.098 287.071 203.534C287.108 203.598 286.87 203.502 286.883 203.525C286.911 203.572 286.937 203.604 286.962 203.626C286.775 203.508 286.591 203.373 286.584 203.346C286.554 203.219 286.773 203.439 286.781 203.439ZM288.522 204.528C288.586 204.519 288.799 204.71 288.84 204.763C288.846 204.773 288.736 204.84 288.844 204.909C288.931 204.965 288.881 204.775 289.03 204.91C289.181 205.047 288.912 204.956 288.922 204.971C288.936 204.992 289.221 205.135 289.171 205.186C289.134 205.224 288.884 204.995 288.811 204.954C288.717 204.902 288.768 205.05 288.637 204.928C288.554 204.851 288.697 204.765 288.682 204.744C288.67 204.728 288.304 204.563 288.523 204.529C288.523 204.529 288.523 204.528 288.522 204.528ZM287.012 203.657C286.996 203.651 286.979 203.641 286.962 203.626C286.979 203.637 286.996 203.647 287.012 203.657ZM276.852 191.281C276.852 191.413 276.664 191.094 276.675 190.941C276.72 190.921 276.852 191.262 276.852 191.281ZM287.25 203.684C287.481 203.915 287.261 203.811 287.012 203.657C287.103 203.692 287.172 203.607 287.25 203.684ZM280.29 197.206C280.29 197.225 280.283 197.244 280.261 197.263C280.26 197.212 280.271 197.199 280.29 197.206ZM280.784 197.868C281.035 198.018 280.66 197.596 280.615 197.64C280.597 197.657 280.774 197.862 280.784 197.868ZM285.389 202.261C285.376 202.238 285.837 202.272 285.291 202.077C285.492 202.29 285.239 202.114 285.227 202.135C285.192 202.195 285.605 202.459 285.669 202.549C285.811 202.509 285.431 202.334 285.39 202.261C285.39 202.261 285.389 202.261 285.389 202.261ZM291.442 206.719C291.348 206.742 291.194 206.607 291.084 206.524C291.178 206.502 291.332 206.638 291.442 206.719ZM325.417 218.498C324.464 218.483 324.367 218.18 325.224 218.371C325.241 218.375 325.476 218.473 325.417 218.498ZM317.379 217.368C317.314 217.227 317.608 217.259 317.787 217.344C317.828 217.363 317.964 217.518 317.779 217.511C317.811 217.36 317.543 217.253 317.379 217.368ZM287.444 203.733C287.571 203.725 287.762 203.95 287.875 204.053C287.759 204.052 287.534 203.838 287.444 203.733ZM322.342 218.035C322.245 218.014 322.165 218.116 322.181 218.127C322.252 218.178 322.447 218.111 322.342 218.035ZM286.717 203.139C286.738 203.092 287.069 203.294 287.012 203.409C286.953 203.351 286.704 203.17 286.717 203.139ZM291.251 206.54C291.218 206.486 291.494 206.622 291.555 206.695C291.519 206.736 291.273 206.576 291.251 206.54ZM320.746 217.867C320.658 217.845 320.434 217.811 320.404 217.851C320.363 217.902 320.696 217.93 320.746 217.867ZM336.906 218.89C336.918 218.911 336.553 219.035 336.398 218.988C336.103 218.898 336.895 218.877 336.906 218.89ZM323.285 218.085C323.553 218.219 323.255 218.085 323.255 218.196C323.443 218.221 323.904 218.274 323.597 218.133C323.538 218.105 323.372 218.101 323.285 218.085ZM323.031 218.02C322.997 218.052 322.781 218.142 322.958 218.154C323.04 218.159 323.184 218.048 323.031 218.02ZM334.812 218.781C334.664 218.699 335.134 218.739 335.365 218.782L335.44 218.789C335.571 218.807 335.666 218.822 335.676 218.827C335.693 218.838 335.704 218.847 335.71 218.855C335.755 218.827 335.979 218.839 335.998 218.919C335.933 218.908 335.749 218.901 335.729 218.89C335.72 218.886 335.714 218.882 335.709 218.878C335.681 218.898 335.571 218.897 335.432 218.885L335.355 218.877C335.164 218.855 334.836 218.795 334.812 218.781ZM333.105 218.6C333.383 218.464 333.417 218.712 333.395 218.719C333.101 218.81 333.297 218.635 333.288 218.626C333.269 218.611 333.055 218.689 333.105 218.6C333.105 218.6 333.105 218.6 333.105 218.6ZM334.481 218.719C334.49 218.716 334.698 218.737 334.706 218.741C334.87 218.835 334.287 218.777 334.481 218.719ZM289.853 205.299C289.978 205.42 289.788 205.394 289.714 205.3C289.708 205.292 289.742 205.192 289.853 205.299ZM322.89 218.028C322.843 218.007 321.845 217.823 321.885 217.965C321.977 217.962 323.122 218.166 322.89 218.028ZM315.315 216.784C315.49 216.821 315.273 216.908 315.189 216.841C315.158 216.817 315.271 216.775 315.315 216.784ZM286.387 202.721C286.194 202.654 286.376 202.496 286.452 202.663C286.455 202.67 286.395 202.723 286.387 202.721ZM316.719 217.138C316.098 217.098 316.313 216.725 317.086 217.011C317.058 217.024 317.029 217.037 317 217.051C317.916 217.281 317.061 217.092 316.826 217.071C316.739 217.063 316.798 217.144 316.719 217.139C316.719 217.139 316.719 217.138 316.719 217.138ZM314.386 216.578C313.855 216.163 314.948 216.598 315.272 216.625C314.938 216.678 314.534 216.572 315.061 216.81C314.248 216.661 314.607 216.619 314.578 216.603C314.542 216.584 314.409 216.595 314.386 216.578ZM315.94 216.901C315.976 216.9 316.222 217.009 316.316 217.017C316.169 217.09 315.701 216.912 315.94 216.901ZM331.184 218.609C331.207 218.532 331.263 218.477 331.461 218.512C331.399 218.549 331.27 218.579 331.184 218.609ZM276.863 190.315C276.816 190.162 276.746 189.851 276.698 189.969C276.694 189.98 276.82 190.332 276.863 190.315ZM319.941 217.579C319.915 217.566 319.134 217.439 319.391 217.566C319.47 217.605 320.177 217.7 319.941 217.579ZM323.962 218.089C323.894 218.081 323.629 218.069 323.623 218.087C323.597 218.148 323.925 218.146 323.962 218.089ZM276.691 189.524C276.691 189.501 276.541 189.036 276.52 189.096C276.478 189.215 276.685 189.604 276.691 189.524ZM290.469 205.519C290.5 205.538 290.489 205.634 290.499 205.642C290.523 205.661 291.08 206.017 290.812 205.96C290.767 205.952 290.013 205.361 289.921 205.279C289.95 205.157 290.215 205.485 290.303 205.533C290.319 205.542 290.385 205.47 290.468 205.519C290.468 205.519 290.468 205.519 290.469 205.519ZM332.226 218.558C332.249 218.485 333.007 218.459 332.986 218.548C332.744 218.551 332.476 218.555 332.226 218.558ZM331.844 218.535C331.683 218.478 332.066 218.472 332.172 218.498C332.173 218.548 331.869 218.543 331.844 218.535ZM322.52 217.655C322.441 217.664 322.665 217.798 322.609 217.813C322.574 217.822 322.406 217.762 322.347 217.788C322.33 217.797 322.495 217.919 322.546 217.92C322.619 217.923 322.558 217.836 322.637 217.844C322.901 217.873 323.135 217.956 323.382 217.981C323.404 217.983 323.237 217.909 323.427 217.93C323.457 217.933 323.622 218.035 323.853 218.046C324.393 217.84 324.725 218.127 325.384 218.088C325.362 218.062 324.885 217.955 324.855 217.95C324.332 217.862 323.373 217.76 322.807 217.694C322.662 217.677 322.727 217.74 322.665 217.734C322.617 217.73 322.686 217.636 322.52 217.655ZM276.944 190.376C277.015 190.274 276.868 190.04 276.822 189.878C276.752 189.961 276.911 190.216 276.944 190.376ZM328.406 218.326C328.332 218.326 328.101 218.283 328.079 218.313C328.053 218.351 328.388 218.394 328.406 218.326ZM293.519 207.653C293.526 207.655 293.674 207.758 293.678 207.765C293.767 207.922 293.325 207.609 293.519 207.653ZM297.167 209.99C297.294 210.052 297.429 210.097 297.426 210.192C297.358 210.136 297.124 210.031 297.167 209.99ZM302.809 213.078C302.819 212.968 303.187 213.174 303.257 213.21C303.214 213.245 302.802 213.159 302.809 213.078ZM331.165 218.27C331.415 218.284 331.367 218.119 331.521 218.198C331.545 218.211 331.618 218.553 331.351 218.418C331.302 218.393 331.499 218.319 331.165 218.27ZM317.216 217.038C317.294 216.98 317.49 217.038 317.623 217.067C317.584 217.114 317.314 217.051 317.216 217.038ZM276.529 188.648C276.59 188.493 276.375 187.899 276.346 188.064C276.34 188.087 276.509 188.563 276.529 188.648ZM288.16 203.877C288.39 203.954 288.03 203.646 287.864 203.615C287.921 203.653 288.145 203.872 288.16 203.877ZM301.145 212.223C301.158 212.226 301.376 212.353 301.382 212.361C301.523 212.531 300.911 212.175 301.145 212.223ZM296.026 209.133C296.133 209.123 296.583 209.465 296.66 209.588C296.502 209.604 295.893 209.146 296.026 209.133ZM330.134 218.282C330.309 218.285 330.486 218.311 330.647 218.345C330.614 218.399 330.145 218.323 330.134 218.282ZM301.951 212.647C301.962 212.653 301.97 212.665 301.981 212.671C301.971 212.663 301.961 212.655 301.951 212.647ZM326.104 218.024C325.952 217.99 325.976 218.093 325.986 218.097C326.099 218.138 326.275 218.061 326.104 218.024ZM277.022 190.144C277.089 190.058 276.933 189.813 276.904 189.646C276.85 189.714 276.97 190.021 277.022 190.144ZM313.801 216.256C313.639 216.119 314.413 216.176 314.566 216.274C314.563 216.336 313.825 216.276 313.801 216.256ZM287.683 203.334C287.715 203.269 287.403 203.133 287.437 203.202C287.459 203.247 287.663 203.375 287.683 203.334ZM314.942 216.397C315.018 216.391 315.169 216.495 315.102 216.524C315.016 216.562 314.922 216.399 314.942 216.397ZM321.418 217.454C321.389 217.439 320.954 217.455 321.12 217.55C321.235 217.617 321.268 217.517 321.297 217.521C321.329 217.526 321.99 217.738 321.418 217.454ZM309.593 215.125C309.755 215.142 309.933 215.225 310.096 215.267C310.018 215.292 309.643 215.2 309.593 215.125ZM288.698 204.093C288.683 204.047 287.839 203.376 288.271 203.82C288.296 203.846 288.741 204.235 288.698 204.093ZM331.165 218.27C331.133 218.268 331.096 218.264 331.054 218.255C331.096 218.259 331.133 218.265 331.165 218.27ZM328.315 218.145C328.375 218.096 328.085 218.067 327.995 218.089C327.966 218.151 328.307 218.152 328.315 218.145ZM310.127 215.201C310.231 215.198 310.395 215.276 310.514 215.304C310.482 215.345 310.156 215.259 310.127 215.201ZM303.62 213.102C303.791 213.194 304.017 213.259 304.04 213.204C304.041 213.214 304.046 213.226 304.058 213.241C304.067 213.254 304.276 213.298 304.355 213.346C304.819 213.637 302.377 212.725 303.856 213.071C303.777 213.082 303.699 213.092 303.62 213.102ZM295.452 208.607C295.399 208.489 295.093 208.4 295.145 208.467C295.182 208.513 295.505 208.727 295.452 208.607ZM299.066 210.758C299.044 210.731 298.756 210.62 298.729 210.648C298.863 210.773 299.165 210.885 299.066 210.758ZM294.789 208.083C294.738 208.038 294.602 208.088 294.606 208.096C294.641 208.169 294.849 208.199 294.789 208.083ZM330.66 217.942C330.563 217.906 330.229 217.978 330.16 218.051C330.147 218.036 330.113 218.016 330.051 217.99C330.051 217.99 330.051 217.99 330.051 217.99C329.969 217.962 327.342 217.803 329.1 218.034C329.155 218.041 329.084 217.969 329.304 217.991C329.319 217.992 329.324 218.049 329.369 218.053C329.473 218.064 330.037 218.122 330.145 218.08C330.146 218.091 330.152 218.101 330.167 218.11C330.302 218.196 330.739 217.97 330.66 217.942ZM299.582 211.045C299.537 210.996 299.364 210.918 299.323 210.952C299.386 211.016 299.683 211.159 299.582 211.045ZM288.794 203.911C288.72 203.804 288.425 203.674 288.475 203.763C288.506 203.819 288.88 204.035 288.794 203.911ZM297.923 210.101C298.499 210.513 298.07 210.183 298.199 210.176C298.106 210.15 298.013 210.125 297.923 210.101ZM333.798 218.23C333.693 218.209 333.824 218.071 333.934 218.153C333.968 218.179 333.857 218.241 333.798 218.23ZM338.782 218.466C338.686 218.338 339.163 218.419 338.976 218.503C338.967 218.506 338.789 218.471 338.782 218.466ZM335.156 218.213C335.084 218.294 335.042 218.3 334.864 218.266C335.133 218.262 334.887 218.166 335.156 218.213ZM304.041 213.195C304.041 213.198 304.041 213.201 304.04 213.204C304.04 213.201 304.04 213.198 304.041 213.195ZM294.225 207.744C294.191 207.635 293.98 207.503 294.001 207.605C294.004 207.615 294.165 207.77 294.225 207.744ZM330.16 218.051C330.17 218.065 330.164 218.073 330.145 218.08C330.145 218.07 330.15 218.061 330.16 218.051ZM295.368 208.411C295.332 208.452 295.634 208.669 295.65 208.671C295.882 208.706 295.5 208.491 295.368 208.411ZM286.866 202.299C286.847 202.291 286.856 202.48 286.951 202.486C287.025 202.491 286.936 202.329 286.866 202.299ZM335.889 218.243C336.011 218.252 336.182 218.264 336.209 218.333C336.128 218.317 335.883 218.291 335.889 218.243ZM338.596 218.37C338.45 218.446 338.118 218.438 337.906 218.417C337.906 218.314 338.46 218.393 338.596 218.37ZM330.973 217.991C330.964 217.986 330.675 217.946 330.712 218.016C330.768 218.12 331.053 218.031 330.973 217.991ZM287.275 202.726C287.411 202.773 287.26 202.465 287.078 202.463C286.985 202.462 287.252 202.718 287.275 202.726ZM293.635 207.241C293.466 207.178 293.789 207.477 293.879 207.45C293.816 207.401 293.695 207.264 293.635 207.241ZM298.732 210.345C298.367 209.886 298.43 210.366 298.531 210.387C298.546 210.39 298.742 210.356 298.732 210.345ZM276.604 187.023C276.56 186.94 276.514 187.285 276.592 187.317C276.639 187.335 276.632 187.074 276.604 187.023ZM306.63 213.995C306.608 213.988 306.585 213.982 306.563 213.976C306.581 213.978 306.603 213.983 306.63 213.995ZM292.468 206.117C292.625 206.582 292.719 206.37 292.747 206.39C292.805 206.434 292.901 206.596 293.022 206.661C292.873 206.601 292.724 206.54 292.574 206.478C292.665 206.567 293.505 207.262 293.551 207.234C293.616 207.196 293.32 207.024 293.315 207.013C293.308 206.998 293.368 206.811 293.346 206.787C293.307 206.748 292.564 206.241 292.468 206.117ZM297.725 209.781C297.789 209.847 297.772 209.924 297.816 209.93C297.831 209.932 297.87 209.871 297.921 209.88C297.856 209.847 297.79 209.815 297.725 209.781ZM291.744 205.939C291.704 205.804 292.091 206.114 292.099 206.13C292.134 206.227 291.778 206.05 291.744 205.939ZM295.245 208.257C295.233 208.243 294.926 208.014 294.902 208.056C294.968 208.143 295.391 208.426 295.245 208.257ZM297.973 209.906C298.079 209.979 298.263 210.173 298.293 210.065C298.293 210.065 298.293 210.065 298.292 210.065C298.183 210.011 298.077 209.958 297.973 209.906ZM287.779 202.836C287.689 202.546 287.647 202.789 287.787 202.97C287.888 202.951 287.794 202.883 287.779 202.836ZM287.233 202.236C287.199 202.17 286.621 201.739 286.648 201.878C286.657 201.928 287.03 202.129 287.041 202.145C287.057 202.17 286.892 202.165 287.075 202.288C287.086 202.254 287.245 202.259 287.233 202.236ZM287.685 202.621C287.572 202.364 287.378 202.517 287.524 202.634C287.581 202.68 287.701 202.658 287.685 202.621ZM288.47 203.262C288.413 203.189 288.246 203.017 288.068 202.98C288.236 203.12 288.405 203.26 288.575 203.399C288.623 203.378 288.519 203.325 288.469 203.261C288.47 203.261 288.47 203.262 288.47 203.262ZM340.089 217.767C339.897 217.698 340.339 217.672 340.357 217.689C340.412 217.745 340.175 217.797 340.089 217.767ZM278.568 185.129C278.591 185.073 278.677 185.03 278.622 184.915C278.564 185.039 278.507 185.164 278.452 185.291C278.611 185.372 278.542 185.19 278.568 185.129ZM279.09 184.64C279.094 184.657 279.321 184.554 279.178 184.775C279.08 184.926 278.938 184.146 279.042 184.001C279.093 184.156 279.051 184.499 279.09 184.64ZM280.065 183.267C280.084 183.258 280.112 183.55 280.1 183.583C280.032 183.759 279.965 183.318 280.065 183.267ZM280.034 184.187C280.075 184.053 280.114 184.347 280.092 184.434C280.049 184.445 280.028 184.208 280.034 184.187ZM338.203 214.37C338.062 214.207 337.918 214.543 338.147 214.482C338.158 214.479 338.209 214.378 338.203 214.37ZM280.301 183.551C280.257 183.686 280.226 183.387 280.252 183.295C280.295 183.288 280.308 183.529 280.301 183.551ZM338.112 213.99C337.923 213.87 337.977 214.254 338.001 214.27C338.099 214.335 338.447 214.195 338.518 214.159C338.003 214.203 338.202 214.046 338.112 213.99ZM337.209 214.18C337.025 214.211 337.483 214.314 337.576 214.211C337.486 214.212 337.261 214.171 337.209 214.18ZM336.123 213.984C336.067 213.972 335.95 213.948 335.848 213.94L335.884 213.944C335.803 213.936 335.731 213.937 335.706 213.961C335.747 213.961 335.812 213.972 335.88 213.984L335.845 213.981C335.963 214.001 336.093 214.022 336.123 213.984ZM335.918 213.787C335.898 213.774 335.88 213.767 335.863 213.765L335.903 213.769C335.802 213.754 335.773 213.886 335.891 213.883L335.854 213.879C335.866 213.879 335.881 213.876 335.898 213.871C335.905 213.869 335.923 213.792 335.918 213.787ZM335.018 213.625C334.912 213.523 334.772 213.746 334.951 213.763C335.004 213.768 335.029 213.637 335.018 213.625ZM337.886 213.57C337.748 213.524 337.56 213.681 337.859 213.712C337.752 213.733 337.646 213.754 337.54 213.774C337.929 213.884 337.91 213.653 338.022 213.667C338.179 213.686 338.161 213.874 338.127 213.932C338.261 213.822 338.811 213.834 339.134 213.815C338.852 213.763 338.399 213.67 338.126 213.629C338.047 213.618 337.97 213.667 337.903 213.658C337.796 213.644 337.894 213.574 337.887 213.571C337.887 213.571 337.887 213.571 337.886 213.57ZM333.812 213.562C333.511 213.443 333.688 213.681 333.871 213.647C333.879 213.644 333.819 213.565 333.812 213.562ZM281.004 183.159C280.909 183.548 280.773 183.281 280.984 184.06C280.838 183.738 280.884 184.044 280.827 183.982C280.781 183.933 280.814 183.736 280.728 183.851C280.82 183.706 280.792 183.038 280.808 183.003C280.808 183.003 280.808 183.004 280.808 183.004C280.817 182.986 281.034 183.031 281.004 183.159ZM336.169 213.38C336.102 213.121 336.037 213.453 335.899 213.341L335.948 213.346C335.931 213.333 335.912 213.314 335.893 213.289C335.791 213.385 335.832 213.428 335.937 213.453L335.89 213.448C336.095 213.496 336.576 213.433 336.641 213.633C335.61 213.526 337.304 213.963 336.613 213.487C337.194 213.681 336.81 213.447 336.904 213.398C337.006 213.347 337.334 213.429 337.323 213.323C337.323 213.323 337.323 213.323 337.323 213.323C337.119 213.319 336.915 213.314 336.711 213.308C336.895 213.546 336.482 213.451 336.354 213.256C336.293 213.298 336.231 213.339 336.169 213.38ZM337.314 213.669C337.294 213.663 336.847 213.668 336.872 213.715C336.931 213.749 337.565 213.748 337.314 213.669ZM339.281 213.678C339.118 213.676 338.87 213.629 338.781 213.712C338.942 213.716 339.191 213.763 339.281 213.678ZM330.722 213.274C330.509 213.337 331.156 213.379 330.972 213.29C330.963 213.286 330.733 213.271 330.722 213.274ZM335.718 213.383C335.482 213.275 335.575 213.557 335.759 213.503C335.769 213.5 335.729 213.388 335.718 213.383ZM281.038 183.474C281.104 183.492 281.064 184.034 281.07 184.127C281.004 184.078 280.96 183.464 281.038 183.474ZM339.569 213.43C339.246 213.188 338.812 213.459 338.764 213.452C338.717 213.445 338.793 213.341 338.782 213.338C338.758 213.332 338.259 213.329 338.235 213.335C338.217 213.34 338.303 213.49 338.199 213.534C338.401 213.459 339.318 213.526 339.369 213.508C339.407 213.495 339.126 213.338 339.568 213.43C339.568 213.43 339.568 213.43 339.569 213.43ZM338.647 213.417C338.77 213.482 338.419 213.482 338.335 213.456C338.149 213.4 338.63 213.41 338.647 213.417ZM337.809 213.334C337.77 213.319 337.413 213.289 337.378 213.356C337.544 213.455 337.898 213.37 337.809 213.334ZM333.589 213.08C333.49 213.086 333.212 213.023 333.193 213.083C333.297 213.078 333.572 213.14 333.589 213.08ZM281.647 185.219C281.684 185.077 281.736 185.39 281.725 185.485C281.685 185.495 281.644 185.232 281.647 185.219ZM335.73 212.804C335.638 212.769 334.351 212.735 334.186 212.762C334.345 212.809 335.614 212.891 335.701 212.885C335.719 212.88 335.739 212.808 335.73 212.804ZM338.138 212.93C338.243 212.844 338.307 212.953 338.319 212.955C338.446 212.972 338.709 212.958 338.65 213.042C338.426 213.004 337.928 213.099 338.138 212.93ZM333.517 212.676C333.103 212.694 333.892 212.816 333.789 212.719C333.784 212.713 333.561 212.674 333.517 212.676ZM335.885 212.793C335.901 212.784 335.945 212.781 336.009 212.782L335.946 212.776C336.249 212.773 337.079 212.875 337.23 212.881C337.062 213.004 336.939 212.896 336.722 212.888C336.663 212.886 336.675 212.942 336.669 212.942C336.567 212.937 336.647 212.879 336.585 212.874C336.558 212.872 336.144 212.879 335.94 212.85L336.001 212.855C335.897 212.839 335.839 212.819 335.885 212.793ZM338.198 212.87C338.262 212.823 338.96 212.817 338.989 212.829C339.198 212.934 338.25 212.892 338.198 212.87ZM335.771 212.664C335.823 212.62 335.926 212.607 336.027 212.611L335.961 212.605C336.14 212.607 336.311 212.685 336.046 212.716C336.031 212.718 335.997 212.706 335.953 212.692L336.018 212.698C335.944 212.676 335.849 212.651 335.771 212.664ZM333.567 212.531C333.549 212.526 333.108 212.48 333.105 212.529C333.163 212.55 333.798 212.589 333.567 212.531ZM333.794 212.374C333.783 212.374 333.88 212.472 333.681 212.453C333.664 212.451 333.638 212.344 333.381 212.374C333.328 212.38 333.244 212.448 333.25 212.452C333.511 212.626 334.332 212.34 333.794 212.374ZM338.214 212.785C338.178 212.739 338.272 212.609 338.351 212.679C338.385 212.709 338.318 212.787 338.214 212.785ZM332.217 212.446C332.465 212.372 331.691 212.334 331.658 212.354C331.677 212.405 332.192 212.453 332.217 212.446ZM282.301 185.459C282.301 185.459 282.301 185.459 282.301 185.459C282.305 185.624 282.225 185.532 282.224 185.54C282.175 185.903 282.314 185.789 282.34 185.84C282.397 185.948 282.211 185.963 282.321 186.145C282.153 185.84 282.251 186.127 282.189 186.149C281.93 186.233 282.237 185.689 282.163 185.537C282.152 185.515 282.09 185.696 282.058 185.641C281.951 185.455 282.299 184.823 282.301 185.459ZM338.414 212.669C338.504 212.594 339.184 212.681 339.002 212.743C338.972 212.754 338.279 212.781 338.414 212.669ZM306.049 207.626C306.23 207.617 305.891 207.414 305.806 207.44C305.763 207.453 305.97 207.63 306.049 207.626ZM304.077 206.468C303.901 206.387 303.572 206.53 303.815 206.614C303.841 206.623 304.078 206.514 304.077 206.468ZM316.067 210.302C315.885 210.159 315.856 210.345 316.007 210.375C316.06 210.386 316.073 210.306 316.067 210.302ZM308.394 208.279C308.376 208.267 308.143 208.205 308.138 208.249C308.216 208.301 308.509 208.363 308.394 208.279ZM316.137 210.289C316.009 210.297 316.189 210.475 316.363 210.376C316.286 210.371 316.15 210.289 316.137 210.289ZM335.294 212.207C335.166 212.275 334.831 212.23 334.645 212.234C334.629 212.132 335.147 212.213 335.294 212.207ZM304.752 206.963C304.553 206.938 304.879 207.176 304.887 207.074C304.886 207.068 304.761 206.965 304.752 206.963ZM322.662 211.387C322.518 211.43 322.942 211.564 322.835 211.444C322.83 211.439 322.67 211.385 322.662 211.387ZM324.539 211.634C324.433 211.604 324.002 211.565 324.164 211.64C324.19 211.652 324.523 211.688 324.539 211.634ZM282.413 185.838C282.507 185.776 282.526 186.044 282.516 186.085C282.511 186.102 282.289 185.919 282.413 185.838ZM314.755 209.991C314.647 209.979 314.378 209.89 314.317 209.932C314.449 209.952 314.765 210.104 314.755 209.991ZM305.148 207.119C305.031 206.957 304.76 206.87 304.776 207.032C305.074 207.13 304.785 206.896 305.148 207.119ZM316.834 210.312C316.752 210.287 316.66 210.411 316.668 210.42C316.745 210.5 316.906 210.383 316.834 210.312ZM310.536 208.871C310.547 208.812 310.273 208.761 310.299 208.808C310.305 208.824 310.526 208.919 310.536 208.871ZM331.403 212.02C331.274 211.961 331.676 211.92 331.788 211.988C331.843 212.081 331.421 212.027 331.403 212.02ZM319.167 210.79C319.196 210.704 318.767 210.68 318.92 210.782C318.958 210.808 319.158 210.819 319.167 210.79ZM323.258 211.276C322.957 211.349 324.157 211.562 323.854 211.394C323.832 211.383 323.281 211.271 323.258 211.276ZM325.219 211.549C325.171 211.532 325.224 211.237 325.415 211.37C325.44 211.387 325.309 211.455 325.329 211.475C325.336 211.486 325.788 211.568 325.808 211.562C325.831 211.556 325.813 211.459 325.836 211.45C325.863 211.44 326.13 211.547 326.272 211.559C326.544 211.582 326.582 211.504 326.603 211.505C326.669 211.51 326.775 211.574 326.906 211.584C327.569 211.632 328.594 211.622 329.118 211.815C328.648 211.725 328.185 211.772 327.725 211.766C327.874 211.608 327.024 211.85 327.523 211.689C327.293 211.722 325.379 211.606 325.22 211.549C325.219 211.549 325.219 211.549 325.219 211.549ZM303.435 206.015C303.592 205.987 303.032 205.696 302.93 205.773C302.992 205.828 303.415 206.017 303.435 206.015ZM305.681 206.834C305.742 206.837 305.861 206.667 306.112 206.863C306.112 206.863 306.113 206.863 306.113 206.863C306.186 206.92 306.075 206.933 306.085 206.955C306.088 206.964 306.315 207.148 306.094 207.088C305.756 206.995 306.112 206.937 305.937 206.873C305.916 206.865 305.546 206.849 305.557 206.878C305.558 206.881 305.666 206.896 305.68 206.911C305.73 206.968 305.679 207.016 305.687 207.022C305.715 207.041 306.272 207.123 306.324 207.239C306.334 207.275 305.449 207.038 305.418 207.009C305.399 206.992 305.467 206.832 305.45 206.808C305.442 206.796 305.068 206.73 305.028 206.699C305.016 206.689 305.008 206.681 305.002 206.674C305.033 206.736 304.787 206.649 304.751 206.591L305.176 206.779C305.174 206.772 305.174 206.765 305.178 206.759C305.18 206.757 305.183 206.756 305.188 206.757L304.759 206.568C304.806 206.569 304.979 206.644 304.984 206.65C304.987 206.653 304.989 206.657 304.991 206.659C304.969 206.582 305.709 206.852 305.581 206.702C305.813 206.728 305.503 206.826 305.681 206.834ZM306.747 207.092C306.719 207.102 306.69 207.112 306.662 207.121C307.057 207.209 307.454 207.435 307.893 207.578C308.004 207.614 307.911 207.466 308.047 207.543C308.156 207.604 308.254 207.744 308.183 207.745C308.166 207.746 307.949 207.605 307.827 207.572C307.47 207.477 307.531 207.597 307.509 207.593C307.486 207.588 307.29 207.452 307.17 207.415C306.867 207.321 306.711 207.33 306.321 207.114C306.581 207.137 306.495 206.963 306.747 207.092ZM321.005 210.812C321.029 210.754 321.275 210.844 321.368 210.849C321.345 210.907 321.099 210.817 321.005 210.812ZM287.523 194.297C287.399 194.314 287.782 194.728 287.734 194.565C287.723 194.529 287.571 194.347 287.523 194.297ZM289.352 196.093C289.428 196.124 289.241 195.863 289.191 195.921C289.175 195.939 289.343 196.089 289.352 196.093ZM311.615 208.701C311.63 208.703 311.834 208.781 311.839 208.788C311.95 208.928 311.276 208.678 311.615 208.701ZM291.89 198.036C291.633 197.918 292.269 198.45 292.12 198.229C292.112 198.218 291.902 198.042 291.89 198.036ZM292.815 198.726C292.76 198.689 292.546 198.485 292.524 198.506C292.49 198.542 292.738 198.772 292.815 198.726ZM316.965 209.959C316.956 209.843 317.325 210.004 317.46 210.016C317.47 210.132 317.103 209.973 316.965 209.959ZM314.584 209.349C316.205 209.633 315.805 209.788 314.475 209.378C314.49 209.308 314.481 209.33 314.584 209.349ZM316.634 209.82C316.562 209.877 316.384 209.819 316.262 209.786C316.295 209.743 316.544 209.814 316.634 209.82ZM287.171 193.717C287.3 193.724 287.519 194.107 287.439 194.078C287.422 194.073 287.109 193.725 287.171 193.717ZM311.772 208.646C311.761 208.531 312.23 208.705 312.26 208.738C312.385 208.871 311.811 208.633 311.772 208.646ZM319.269 210.296C319.37 210.228 319.609 210.313 319.765 210.34C319.682 210.4 319.404 210.321 319.269 210.296ZM318.154 210.028C318.165 210.026 318.384 210.075 318.393 210.08C318.558 210.196 317.939 210.058 318.154 210.028ZM283.084 185.144C283.087 185.149 283.097 185.281 283.094 185.286C283.027 185.414 282.998 185.016 283.084 185.144Z" fill="black"/>
<defs>
<filter id="filter0_n_4097_5104" x="0" y="0" width="857" height="552" filterUnits="userSpaceOnUse" color-interpolation-filters="sRGB">
<feFlood flood-opacity="0" result="BackgroundImageFix"/>
<feBlend mode="normal" in="SourceGraphic" in2="BackgroundImageFix" result="shape"/>
<feTurbulence type="fractalNoise" baseFrequency="2 2" stitchTiles="stitch" numOctaves="3" result="noise" seed="8278" />
<feColorMatrix in="noise" type="luminanceToAlpha" result="alphaNoise" />
<feComponentTransfer in="alphaNoise" result="coloredNoise1">
<feFuncA type="discrete" tableValues="1 1 1 1 1 1 1 1 1 1 1 1 1 1 1 1 1 1 1 1 1 1 1 1 1 1 1 1 1 1 1 1 1 1 1 1 1 1 1 1 1 1 1 1 1 1 1 1 1 1 1 0 0 0 0 0 0 0 0 0 0 0 0 0 0 0 0 0 0 0 0 0 0 0 0 0 0 0 0 0 0 0 0 0 0 0 0 0 0 0 0 0 0 0 0 0 0 0 0 0 "/>
</feComponentTransfer>
<feComposite operator="in" in2="shape" in="coloredNoise1" result="noise1Clipped" />
<feFlood flood-color="rgba(0, 0, 0, 0.05)" result="color1Flood" />
<feComposite operator="in" in2="noise1Clipped" in="color1Flood" result="color1" />
<feMerge result="effect1_noise_4097_5104">
<feMergeNode in="shape" />
<feMergeNode in="color1" />
</feMerge>
</filter>
</defs>
</svg>
