<svg width="100" height="100" viewBox="0 0 100 100" fill="none" xmlns="http://www.w3.org/2000/svg">
<circle cx="50" cy="50" r="49" fill="#FADA7A" stroke="black" stroke-width="2"/>
<path d="M35.1003 39.4301C28.9505 40.8226 25.8756 41.5176 25.1431 43.8701C24.4131 46.2201 26.5081 48.6727 30.7005 53.5752L31.7854 54.8427C32.9754 56.2352 33.5729 56.9327 33.8404 57.7927C34.1079 58.6552 34.0179 59.5852 33.8379 61.4427L33.6729 63.1352C33.0404 69.6778 32.7229 72.9478 34.6379 74.4003C36.5528 75.8528 39.4327 74.5278 45.1876 71.8778L46.6801 71.1928C48.315 70.4378 49.1325 70.0628 50 70.0628C50.8675 70.0628 51.685 70.4378 53.3224 71.1928L54.8099 71.8778C60.5672 74.5278 63.4472 75.8528 65.3596 74.4028C67.2771 72.9478 66.9596 69.6778 66.3271 63.1352M69.2995 53.5752C73.4919 48.6752 75.5869 46.2226 74.8569 43.8701C74.1269 41.5176 71.0495 40.8201 64.8996 39.4301L63.3097 39.0701C61.5622 38.6751 60.6897 38.4776 59.9873 37.9451C59.2848 37.4126 58.8373 36.6051 57.9373 34.9901L57.1173 33.5201C53.9499 27.84 52.3674 25 50 25C47.6326 25 46.0501 27.84 42.8827 33.5201" stroke="black" stroke-width="3" stroke-linecap="round"/>
</svg>
