<svg width="115" height="132" viewBox="0 0 115 132" fill="none" xmlns="http://www.w3.org/2000/svg">
<path d="M30.8907 9.89306C31.8833 6.62665 35.3364 4.78327 38.6029 5.7759L42.0313 6.81751C41.9091 7.07981 41.8034 7.35387 41.7169 7.63875L13.6174 100.105L13.5323 100.412C12.7668 103.483 14.4549 106.644 17.4323 107.717L17.734 107.817L73.6013 124.794C72.322 127.54 69.1868 128.997 66.2052 128.091L6.90837 110.072C3.64206 109.079 1.79873 105.626 2.79116 102.36L30.8907 9.89306ZM42.0313 6.81751C43.2669 4.16646 46.2341 2.71716 49.1215 3.43704L49.4285 3.52154L108.725 21.5409C111.992 22.5335 113.835 25.9862 112.843 29.2526L84.7425 121.72L84.6424 122.022C83.57 124.999 80.4085 126.687 77.3378 125.921L77.0308 125.837L73.6013 124.794C73.7235 124.532 73.8303 124.259 73.9168 123.974L74.6418 121.586L78.0112 122.61C79.4959 123.062 81.0655 122.224 81.5167 120.739L109.616 28.2722C110.067 26.7875 109.23 25.2184 107.745 24.7672L48.4482 6.74728C47.2565 6.38514 46.0104 6.85385 45.3316 7.82054L42.0313 6.81751ZM97.8997 23.7958C101.166 24.7886 103.009 28.2411 102.016 31.5074L74.6418 121.586L18.7144 104.591C17.2298 104.14 16.392 102.57 16.8431 101.086L44.9426 8.61907C45.0317 8.32605 45.1647 8.05823 45.3316 7.82054L97.8997 23.7958Z" fill="#FADA7A"/>
<path d="M30.8907 9.89255C31.8835 6.62649 35.3366 4.78293 38.6028 5.7755L42.0303 6.81796C41.9082 7.08007 41.8024 7.35408 41.7159 7.63874L13.617 100.105L13.5317 100.412C12.7662 103.483 14.4548 106.644 17.4321 107.717L17.7329 107.817L73.6011 124.795C72.3617 127.454 69.3802 128.905 66.4846 128.17L66.2046 128.091L6.90771 110.071C3.74376 109.109 1.91554 105.84 2.70635 102.667L2.79055 102.36L30.8907 9.89255ZM38.4237 6.36227C35.481 5.46826 32.3705 7.12899 31.4763 10.0716L3.37624 102.538C2.4822 105.481 4.14316 108.591 7.08556 109.485L66.3825 127.505C68.8314 128.249 71.3953 127.222 72.7021 125.161L17.5551 108.403L17.5411 108.398L17.2391 108.297L17.2239 108.293C13.9512 107.114 12.0958 103.639 12.9373 100.264L12.9411 100.248L13.0265 99.9413L13.0302 99.9272L13.0314 99.9274L41.1302 7.46088C41.1559 7.3762 41.1866 7.29324 41.2153 7.21034L38.4237 6.36227ZM42.0303 6.81796C43.2658 4.16691 46.2336 2.7176 49.121 3.43748L49.428 3.52169L108.725 21.5408C111.991 22.5335 113.834 25.9867 112.842 29.253L84.742 121.719L84.6414 122.021C83.5691 124.999 80.4076 126.686 77.3369 125.921L77.0299 125.836L73.6011 124.795C73.7233 124.533 73.8302 124.259 73.9167 123.974L74.6418 121.586L78.0109 122.61C79.4029 123.033 80.8695 122.323 81.419 121.009L81.5167 120.74L109.616 28.2719C110.038 26.8801 109.329 25.4146 108.015 24.865L107.744 24.7672L48.4471 6.74691C47.2557 6.38516 46.0104 6.85398 45.3317 7.8202L42.0303 6.81796ZM48.9725 4.03062C46.6101 3.44185 44.1864 4.46586 42.9285 6.44872L45.1168 7.11494C45.9788 6.1824 47.328 5.76686 48.6261 6.16134L107.923 24.1817C109.731 24.7314 110.75 26.6418 110.201 28.4498L82.1024 120.917C81.5528 122.726 79.641 123.746 77.8329 123.197L75.0484 122.351L74.5024 124.152C74.4766 124.237 74.4438 124.319 74.415 124.401L77.1925 125.246L77.489 125.328C80.2536 126.015 83.1001 124.495 84.0656 121.814L84.16 121.527L112.256 29.0739C113.15 26.1315 111.489 23.0208 108.547 22.1265L49.2655 4.11116L48.9725 4.03062ZM97.8997 23.7958C101.166 24.7888 103.008 28.2417 102.016 31.5079L74.6418 121.586L18.714 104.591C17.2294 104.14 16.3912 102.57 16.8424 101.085L44.9424 8.6186C45.0315 8.32576 45.1649 8.05777 45.3317 7.8202L97.8997 23.7958ZM45.6213 8.54903C45.5861 8.62894 45.5541 8.7119 45.528 8.79764L17.4292 101.264C17.0766 102.425 17.731 103.652 18.8918 104.005L74.2329 120.821L101.43 31.3288C102.324 28.3862 100.663 25.2757 97.7206 24.3814L45.6213 8.54903Z" fill="black"/>
<path d="M48.9858 78.8275C50.5458 76.741 51.9305 75.3483 52.5654 72.8184C53.1327 70.5588 53.6736 68.1191 54.9561 66.3035C55.5732 65.4277 55.4708 64.4486 55.7202 63.5297C56.5256 60.5837 57.8509 57.9451 58.5177 54.888C59.3166 51.1954 60.4151 47.6137 61.3807 43.9785C61.4198 43.8377 61.4531 43.6393 61.4025 43.526C59.934 40.105 61.9535 40.1014 63.5683 39.9555C66.5966 39.6844 69.5964 38.7021 72.6627 40.1927C74.3325 41.0077 74.6923 42.4215 74.0636 43.9534C71.355 50.5512 70.0751 57.8536 67.7668 64.6563C66.5197 68.3406 65.4407 72.2027 64.1431 75.8433C63.1784 78.5557 62.7944 81.6838 61.4963 84.0032C59.3345 87.8649 58.2049 92.7324 54.5782 95.291C51.1669 97.698 48.7872 97.8301 45.5745 95.3616C42.4498 92.9602 41.7388 88.958 40.6443 85.0689C39.8749 82.324 40.1121 79.4821 39.8089 76.697C39.5586 74.4111 41.0633 73.7467 42.1125 73.3892C43.4963 72.9192 44.7638 72.0879 46.1578 71.6823C47.8903 71.1773 48.5265 71.707 48.2754 73.9088C48.0948 75.5184 48.9248 76.7661 48.9858 78.8275Z" fill="white"/>
<path d="M63.5685 39.9556C66.5967 39.6845 69.5963 38.7021 72.6625 40.1927C74.332 41.0076 74.6922 42.4209 74.0638 43.9525L73.5722 45.1978C71.1912 51.4615 69.9303 58.2779 67.7663 64.6556C66.5192 68.3399 65.4406 72.2029 64.143 75.8434C63.1784 78.5558 62.7941 81.6835 61.496 84.0028C59.3343 87.8644 58.2048 92.7318 54.5783 95.2905L53.9505 95.7151C51.0719 97.5714 48.8942 97.6701 46.1678 95.7935L45.5745 95.3613C42.8404 93.2602 41.9545 89.9333 41.0425 86.5291L40.6447 85.0691C39.8753 82.3242 40.1121 79.4814 39.8089 76.6963C39.59 74.6963 40.7147 73.9381 41.7021 73.5402L42.1126 73.3891C43.3235 72.9778 44.4452 72.2891 45.6406 71.8519L46.1581 71.6821C47.8903 71.1773 48.5265 71.7069 48.2754 73.9085C48.0949 75.518 48.9246 76.7655 48.9858 78.8266C50.4481 76.8708 51.7569 75.5249 52.4379 73.28L52.5649 72.8186C53.1322 70.5589 53.673 68.118 54.9556 66.3025C55.4954 65.5362 55.4853 64.6916 55.6412 63.8767L55.7195 63.5294C56.5249 60.5834 57.851 57.945 58.5178 54.888C59.117 52.1183 59.8847 49.4108 60.6385 46.6965L61.3806 43.9784C61.4099 43.8727 61.436 43.7344 61.4257 43.6241L61.4025 43.5265C60.1177 40.5334 61.5028 40.1561 62.9509 40.0109L63.5685 39.9556ZM72.4463 40.9332C71.0205 40.2405 69.5954 40.1162 68.1297 40.2065C67.3947 40.2518 66.657 40.3508 65.9021 40.4577C65.3399 40.5374 64.7663 40.6219 64.1889 40.6882L63.6107 40.7466C63.1882 40.7848 62.794 40.8105 62.4303 40.8792C62.0601 40.9491 61.8122 41.051 61.6662 41.1757C61.5611 41.2655 61.5106 41.357 61.5071 41.5618C61.5025 41.837 61.5904 42.3304 61.9376 43.1393L61.9364 43.1391C62.055 43.4125 62.0452 43.6912 62.0337 43.8277C62.0204 43.9848 61.9875 44.1282 61.9585 44.2345L61.9596 44.2361C60.9811 47.9196 59.8999 51.4374 59.1071 55.1018L59.107 55.1033C58.7584 56.7012 58.24 58.1772 57.7239 59.5893C57.2017 61.0182 56.6875 62.3698 56.2979 63.7948C56.2508 63.9688 56.2171 64.1572 56.1839 64.3792C56.1535 64.5826 56.1171 64.8586 56.073 65.1087C55.9776 65.6496 55.815 66.2606 55.4083 66.838L55.4082 66.8396C54.2351 68.5002 53.7296 70.7442 53.1472 73.0642C52.4553 75.82 50.9115 77.3914 49.4253 79.3793L48.429 80.7133L48.3735 78.8576C48.3467 77.9554 48.1544 77.2332 47.9569 76.4428C47.766 75.6785 47.5566 74.8019 47.6696 73.794L47.6697 73.7925C47.7943 72.7 47.6336 72.4557 47.5861 72.4082C47.5513 72.3734 47.4591 72.3099 47.2345 72.3001C47.0092 72.2903 46.7011 72.3364 46.2916 72.4558C45.6388 72.6457 45.008 72.9387 44.3428 73.2565C43.6885 73.569 42.9948 73.9107 42.268 74.1575C41.7444 74.336 41.222 74.5585 40.8575 74.9387C40.6851 75.1186 40.5584 75.3231 40.4823 75.5657C40.4066 75.807 40.3653 76.1328 40.4148 76.5851C40.5703 78.0138 40.5914 79.4999 40.6631 80.8435C40.7366 82.2216 40.8646 83.53 41.2197 84.7971L41.6265 86.2846C42.547 89.7037 43.3574 92.735 45.8864 94.6787C47.4306 95.8652 48.718 96.3826 49.9935 96.3599C51.2767 96.337 52.6237 95.7658 54.2858 94.5931C55.971 93.4039 57.092 91.6713 58.0715 89.7052C58.5644 88.7157 59.0119 87.6895 59.4841 86.6376C59.9519 85.5955 60.4403 84.5368 61 83.5369C61.5931 82.4773 61.9903 81.2096 62.3661 79.8101C62.7329 78.4442 63.0883 76.9134 63.5872 75.5106L64.0593 74.1494C64.5236 72.778 64.9647 71.3781 65.4056 69.9672C65.9916 68.0919 66.578 66.1928 67.2059 64.3377L67.206 64.3362C68.3479 60.971 69.2349 57.4857 70.1874 53.9651C71.1355 50.4605 72.1452 46.9367 73.5228 43.581C73.7788 42.9572 73.786 42.4817 73.6641 42.1234C73.5354 41.7461 73.197 41.3012 72.4462 40.9347L72.4463 40.9332Z" fill="black"/>
</svg>
