<svg width="100" height="100" viewBox="0 0 100 100" fill="none" xmlns="http://www.w3.org/2000/svg">
<circle cx="50" cy="50" r="49" fill="#8CD57D" stroke="black" stroke-width="2"/>
<path d="M50 44.6667C51.2257 44.6667 52.4393 44.4253 53.5717 43.9562C54.7041 43.4872 55.733 42.7997 56.5997 41.933C57.4663 41.0663 58.1538 40.0374 58.6229 38.905C59.0919 37.7727 59.3333 36.559 59.3333 35.3333C59.3333 34.1077 59.0919 32.894 58.6229 31.7616C58.1538 30.6292 57.4663 29.6004 56.5997 28.7337C55.733 27.867 54.7041 27.1795 53.5717 26.7105C52.4393 26.2414 51.2257 26 50 26C47.5246 26 45.1507 26.9833 43.4003 28.7337C41.65 30.484 40.6667 32.858 40.6667 35.3333C40.6667 37.8087 41.65 40.1827 43.4003 41.933C45.1507 43.6833 47.5246 44.6667 50 44.6667ZM26 72.4L26 74L74 74L74 72.4C74 66.4267 74 63.44 72.8373 61.1573C71.8147 59.1504 70.183 57.5186 68.176 56.496C65.8933 55.3333 62.9067 55.3333 56.9333 55.3333L43.0667 55.3333C37.0933 55.3333 34.1067 55.3333 31.824 56.496C29.817 57.5186 28.1853 59.1504 27.1627 61.1573C26 63.44 26 66.4267 26 72.4Z" stroke="black" stroke-width="3" stroke-linecap="round" stroke-linejoin="round"/>
</svg>
