<svg width="60" height="64" viewBox="0 0 60 64" fill="none" xmlns="http://www.w3.org/2000/svg">
<g filter="url(#filter0_d_1178_735)">
<mask id="mask0_1178_735" style="mask-type:luminance" maskUnits="userSpaceOnUse" x="4" y="0" width="52" height="60">
<path d="M5.9917 10.1665H37.1584V1.6665H5.9917V10.1665Z" fill="#555555" stroke="white" stroke-width="3" stroke-linejoin="round"/>
<path d="M37.1584 10.1665C46.395 20.2569 51.6943 26.1049 53.0562 27.7105C55.1004 30.1188 54.2419 32.8388 49.1249 32.8388C44.0079 32.8388 41.057 25.3518 37.1584 25.3518C37.1357 25.348 37.1343 34.9232 37.1541 54.0775C37.155 54.636 37.0459 55.1892 36.8329 55.7054C36.6199 56.2217 36.3073 56.6909 35.9128 57.0863C35.5184 57.4816 35.0499 57.7954 34.5341 58.0096C34.0184 58.2238 33.4654 58.3342 32.9069 58.3346H32.9027C32.3437 58.3346 31.7902 58.2245 31.2738 58.0105C30.7574 57.7966 30.2882 57.483 29.893 57.0876C29.4978 56.6923 29.1844 56.223 28.9706 55.7065C28.7568 55.19 28.6468 54.6365 28.647 54.0775V42.73C17.3515 41.0187 11.2107 40.0742 10.2247 39.8967C8.7457 39.6318 5.9917 38.2193 5.9917 34.1549V10.1665H37.1584Z" stroke="white" stroke-width="3" stroke-linejoin="round"/>
</mask>
<g mask="url(#mask0_1178_735)">
<path d="M-4 -4H64V64H-4V-4Z" fill="black"/>
</g>
</g>
<defs>
<filter id="filter0_d_1178_735" x="0.491699" y="0.166504" width="59.0962" height="67.668" filterUnits="userSpaceOnUse" color-interpolation-filters="sRGB">
<feFlood flood-opacity="0" result="BackgroundImageFix"/>
<feColorMatrix in="SourceAlpha" type="matrix" values="0 0 0 0 0 0 0 0 0 0 0 0 0 0 0 0 0 0 127 0" result="hardAlpha"/>
<feOffset dy="4"/>
<feGaussianBlur stdDeviation="2"/>
<feComposite in2="hardAlpha" operator="out"/>
<feColorMatrix type="matrix" values="0 0 0 0 0 0 0 0 0 0 0 0 0 0 0 0 0 0 0.25 0"/>
<feBlend mode="normal" in2="BackgroundImageFix" result="effect1_dropShadow_1178_735"/>
<feBlend mode="normal" in="SourceGraphic" in2="effect1_dropShadow_1178_735" result="shape"/>
</filter>
</defs>
</svg>
