<svg width="100" height="100" viewBox="0 0 100 100" fill="none" xmlns="http://www.w3.org/2000/svg">
<circle cx="50" cy="50" r="49" fill="#4F8DA8" stroke="black" stroke-width="2"/>
<path d="M52.2843 25.579L70.0759 32.2509C71.0451 32.6142 71.8802 33.2647 72.4698 34.1154C73.0593 34.9661 73.3751 35.9764 73.375 37.0115V50.6424C73.3751 54.8906 72.1922 59.0549 69.9588 62.6687C67.7255 66.2825 64.5299 69.2029 60.7302 71.1028L52.2055 75.3652C51.676 75.6301 51.092 75.7679 50.5 75.7679C49.908 75.7679 49.324 75.6301 48.7945 75.3652L40.2698 71.1028C36.4701 69.2029 33.2745 66.2825 31.0412 62.6687C28.8078 59.0549 27.6249 54.8906 27.625 50.6424V37.0115C27.6249 35.9764 27.9407 34.9661 28.5302 34.1154C29.1198 33.2647 29.9549 32.6142 30.9241 32.2509L48.7158 25.579C49.8662 25.1478 51.1338 25.1478 52.2843 25.579ZM50.5 30.3396L32.7083 37.0115V50.6424C32.7089 53.9462 33.6294 57.1847 35.3667 59.9948C37.104 62.805 39.5894 65.076 42.5446 66.5532L50.5 70.536L58.4554 66.5583C61.4113 65.0807 63.8973 62.8089 65.6346 59.9978C67.372 57.1866 68.292 53.9471 68.2917 50.6424V37.0115L50.5 30.3396ZM50.5 40.3334C51.1741 40.3334 51.8206 40.6012 52.2972 41.0779C52.7739 41.5545 53.0417 42.201 53.0417 42.8751V47.9584H58.125C58.7991 47.9584 59.4456 48.2262 59.9222 48.7029C60.3989 49.1795 60.6667 49.826 60.6667 50.5001C60.6667 51.1742 60.3989 51.8207 59.9222 52.2973C59.4456 52.774 58.7991 53.0417 58.125 53.0417H53.0417V58.1251C53.0417 58.7992 52.7739 59.4457 52.2972 59.9223C51.8206 60.399 51.1741 60.6667 50.5 60.6667C49.8259 60.6667 49.1794 60.399 48.7028 59.9223C48.2261 59.4457 47.9583 58.7992 47.9583 58.1251V53.0417H42.875C42.2009 53.0417 41.5544 52.774 41.0778 52.2973C40.6011 51.8207 40.3333 51.1742 40.3333 50.5001C40.3333 49.826 40.6011 49.1795 41.0778 48.7029C41.5544 48.2262 42.2009 47.9584 42.875 47.9584H47.9583V42.8751C47.9583 42.201 48.2261 41.5545 48.7028 41.0779C49.1794 40.6012 49.8259 40.3334 50.5 40.3334Z" fill="white"/>
</svg>
